<svg width="8762" height="2154" viewBox="0 0 8762 2154" fill="none" xmlns="http://www.w3.org/2000/svg">
    <g id="&#229;&#186;&#143;&#231;&#171;&#160;frame">
        <g id="&#229;&#186;&#143;&#231;&#171;&#160;&#230;&#173;&#163;&#229;&#188;&#143;">
            <g id="Group 138">
                <g id="lines">
                    <path id="00_004_001B,00_005_002003004005"
                          d="M831.379 1594.65C842.81 1597.51 847.382 1592.93 858.241 1589.32C866.494 1586.57 870.5 1586.13 876.531 1584.93C882.562 1583.74 888.533 1581.5 894.249 1576.36C898.823 1572.24 906.045 1566.46 910.252 1562.07C914.867 1557.25 914.984 1556.38 919.002 1551.99C922.465 1548.21 927.169 1542.3 931.199 1536.75C934.677 1531.97 936.337 1525.9 939.389 1520.75C942.52 1515.46 943.584 1510.65 945.299 1505.89C947.521 1499.71 950.443 1494.65 953.866 1490.07C956.847 1486.09 960.342 1482.08 964.531 1478.64C968.732 1475.21 975.995 1472.56 978.265 1471.77C991.428 1467.19 1005.68 1470.44 1006.84 1470.05"
                          stroke="#918375" stroke-linecap="round"/>
                    <path id="00_010_003LOOP,00_012_003B"
                          d="M2028.76 873.362C2028.76 873.362 1980.89 870.11 1938.46 864.789C1896.02 859.468 1880.52 845.436 1869.87 836.212C1859.22 826.987 1826.43 799.633 1826.43 799.633"
                          stroke="#918375"/>
                    <path id="00_008_002B021,00_037_008LOOP"
                          d="M1633.25 1216.59C1639.72 1216.18 1645.39 1215.37 1650.66 1214.16C1657.87 1212.5 1666.03 1212.14 1681.19 1210.71C1712.53 1207.77 1718.32 1214.54 1730.44 1219.6C1748.14 1226.99 1751.8 1231.05 1757.28 1235.72"
                          stroke="#918375" stroke-linecap="round"/>
                    <path id="00_037_008LOOP,00_039_008B"
                          d="M1757.28 1235.72C1766.21 1243.34 1776.67 1254.66 1781.94 1258.1C1789.31 1262.92 1800.13 1266.4 1807.47 1268.04C1815.72 1269.89 1824.47 1272.89 1847.11 1273.92C1859.34 1275.34 1889.12 1274.96 1914.45 1275.16"
                          stroke="#918375" stroke-linecap="round"/>
                    <path id="00_037_008LOOP,00_038_008A"
                          d="M1757.85 1235.15C1761.89 1235.15 1773.42 1232.78 1780.34 1228.33C1786.2 1224.55 1790.05 1216.18 1796.54 1211.51C1803.4 1206.58 1806.49 1203.43 1814.43 1195.71C1821.06 1189.27 1829.35 1184.04 1835.01 1178.57C1839.91 1173.83 1855.36 1168.92 1862.44 1167.71C1868.65 1166.65 1890.86 1163.68 1912.74 1163.48C1929.07 1163.33 1933.49 1164.29 1942.81 1163.48C1950.35 1162.82 1958.21 1160.65 1963.08 1159.23C1967.79 1157.85 1972.8 1157 1981.49 1155.58C1985.72 1155.37 1992.54 1155.37 1996.86 1155.57C2001.17 1155.77 2012.75 1155.86 2015.62 1156.28"
                          stroke="#918375" stroke-linecap="round"/>
                    <path id="00_010_003LOOP,00_011_003A"
                          d="M1825.86 799.062C1829.5 797.858 1837.53 790.688 1844.67 788.038C1851.06 785.665 1855.4 780.549 1865.32 774.478C1870.9 771.054 1876.07 769.196 1880.94 767.372C1886.12 765.43 1890.65 762.315 1911.87 761.288C1918.2 760.687 1921.86 759.872 1948.97 759.264C1974.07 759.058 2022.21 759.058 2071.8 759.058"
                          stroke="#918375" stroke-linecap="round"/>
                    <path id="00_007_002A006007008009010,00_010_003LOOP"
                          d="M1683.55 822.526C1704.02 822.526 1745.46 821.116 1777.06 820.037C1790.34 817.548 1804.5 810.477 1818.09 803.321L1826.68 799.027"
                          stroke="#918375" stroke-linecap="round"/>
                    <path id="00_011_003A,00_013_011"
                          d="M2260.81 843.642C2258.59 843.642 2249.95 844.074 2244.78 843.415C2242.52 843.128 2238.88 842.764 2235.09 841.927C2222.3 839.107 2221.18 835.387 2215.69 832.121C2210.91 829.281 2206.65 824.89 2202.23 819.948C2196.58 813.649 2193.24 808.382 2189.42 801.926C2185.3 794.969 2184.02 787.497 2179 784.138C2173.11 780.197 2165.8 774.871 2158.58 770.453C2151.85 766.337 2146.15 763.75 2136.85 760.247C2125.36 755.916 2087.69 759.054 2072.2 759.054"
                          stroke="#918375" stroke-linecap="round"/>
                    <path id="00_012_003B,00_013_011"
                          d="M2202.22 819.948C2206.65 824.89 2210.91 829.282 2215.69 832.121C2221.18 835.387 2222.3 839.107 2235.09 841.927C2238.88 842.764 2242.52 843.128 2244.77 843.415C2249.95 844.074 2258.59 843.642 2260.81 843.642M2027.62 872.219C2031.94 871.789 2053.63 870.576 2066.52 869.475C2073.75 868.858 2081.51 867.528 2088.23 864.922C2096.58 861.692 2110.11 861.457 2120.58 860.142C2129.59 859.009 2137.94 856.663 2144.04 855.367C2149.42 854.225 2154.46 851.896 2160.75 849.075C2166.34 846.572 2171.39 841.917 2176.39 838.224C2181.61 834.375 2185.72 828.891 2190.94 825.413L2194.84 822.807C2196.15 821.935 2198.73 820.523 2201.37 819.637"
                          stroke="#918375" stroke-linecap="round"/>
                    <path id="00_038_008A,00_040_022"
                          d="M2016.19 1156.28C2017.05 1156.28 2030.42 1155.84 2044.52 1155.41C2052.17 1154.12 2056.53 1152.8 2060.43 1151.93C2062.19 1151.5 2064.84 1150.02 2068.77 1148.27M2069.34 1148.27C2079.06 1132.27 2100.81 1118.94 2107.77 1116.98C2114.08 1115.19 2120.35 1114.59 2127.09 1112.85C2129.91 1111.99 2133.39 1111.12 2137.29 1110.25"
                          stroke="#918375" stroke-linecap="round"/>
                    <path id="00_039_008B,00_040_022"
                          d="M2069.34 1148.27C2079.06 1132.27 2100.81 1118.94 2107.77 1116.98C2114.08 1115.19 2120.35 1114.59 2127.09 1112.85C2129.91 1111.99 2133.39 1111.12 2137.29 1110.25M1914.45 1275.16C1937 1280.37 1946.24 1279.15 1957.28 1278.94C1973.91 1278.64 1982.71 1268.75 1991.82 1263.98C2001.13 1259.09 2011.76 1255.31 2023.95 1247.48C2033.39 1241.42 2040.89 1231.44 2047.41 1222.73C2051.54 1217.22 2054.8 1211.88 2057.2 1204.72C2060.47 1194.94 2063.06 1187.15 2064.8 1179.52C2066.07 1173.96 2068.27 1168.89 2069.36 1148.53"
                          stroke="#918375" stroke-linecap="round"/>
                    <path id="00_013_011,00_014_004LOOP"
                          d="M2261.38 843.642C2261.38 843.642 2295.58 849.932 2312.82 848.214C2330.06 846.496 2382.55 829.353 2382.55 829.353"
                          stroke="#918375" stroke-linecap="round"/>
                    <path id="00_040_022,00_041_009LOOP"
                          d="M2138.5 1109.98C2148.21 1107.69 2170.29 1108.08 2188.48 1107.85C2196.79 1108.94 2203.72 1109.8 2210.68 1111.54C2226.51 1115.5 2258.87 1116.97 2261.95 1117.41"
                          stroke="#918375" stroke-linecap="round"/>
                    <path id="00_006_002LOOP,00_008_002B021"
                          d="M1407.49 1060.59C1413.15 1061.29 1423.97 1063.8 1432.17 1069.49C1441.61 1076.02 1447.47 1090.08 1451.77 1100.81C1455.38 1109.81 1456.06 1120.03 1459.95 1132.48C1464.93 1148.38 1471.69 1167.03 1477.4 1177.35C1482.71 1186.97 1493.74 1193.39 1503.37 1200.86C1512.57 1208 1522.24 1209.07 1530.79 1211.92C1543.75 1216.24 1562.82 1215.48 1590.88 1216.55C1597.03 1216.91 1599.14 1217.61 1605.52 1217.98C1611.89 1218.34 1621.21 1216.86 1632.11 1216.86M1265.73 1119.34C1280.3 1110.11 1306.98 1108.69 1329.6 1099.93C1348.98 1092.43 1367.43 1088.79 1385.35 1076.76C1392.06 1072.26 1393.21 1072.26 1407.49 1060.26"
                          stroke="#918375" stroke-linecap="round"/>
                    <path id="00_006_002LOOP,00_007_002A006007008009010"
                          d="M1681.83 822.495C1669.21 823.772 1655.37 835.457 1650.97 837.355C1635.3 845.491 1626.53 846.858 1608.34 855.014C1592.67 860.651 1575.98 865.453 1562.62 875.702C1546.29 888.235 1527.65 897.06 1513.13 912.682C1496.24 930.852 1486.28 944.525 1477.47 964.036C1468.65 983.54 1427.5 1037.97 1407.49 1060.26C1393.21 1072.26 1392.06 1072.26 1385.35 1076.76C1367.43 1088.79 1348.98 1092.43 1329.6 1099.93C1306.98 1108.69 1280.3 1110.11 1265.73 1119.34"
                          stroke="#918375" stroke-linecap="round"/>
                    <path id="00_005_002003004005,00_006_002LOOP"
                          d="M1007.41 1470.05C1016.56 1471.77 1050.15 1456.99 1067.19 1443.18C1080.83 1432.13 1094.12 1410.69 1100.42 1386.22C1106.1 1364.12 1114.19 1336.8 1122.95 1307.94C1129.65 1285.85 1136.74 1269.08 1141.75 1254.03C1146.91 1238.57 1158.01 1223.98 1170.54 1205.19C1181.56 1188.68 1181.84 1171.37 1194.95 1157.56C1211.2 1140.45 1246.85 1131.31 1265.73 1119.34"
                          stroke="#918375" stroke-linecap="round"/>
                    <path id="00_002_001LOOP,00_003_001A"
                          d="M810.805 1168.28C773.654 1163.13 737.076 1176.85 714.047 1193.17C698.233 1204.37 682.032 1203.34 670.777 1207.71C665.722 1209.61 664.894 1210.68 661.061 1215.72"
                          stroke="#918375" stroke-linecap="round"/>
                    <path id="00_003_001A,00_005_002003004005"
                          d="M1007.99 1465.48C1002.27 1411.75 975.217 1385.58 966.423 1357.45C955.346 1322.02 958.907 1295.46 957.009 1266.6C955.513 1243.85 945.219 1226.96 936.545 1213.43C927.336 1199.07 915.162 1187.61 897.556 1179.47C882.96 1172.72 866.035 1174.52 812.52 1168.28"
                          stroke="#918375" stroke-linecap="round"/>
                    <path id="00_001_001,00_002_001LOOP"
                          d="M660.489 1216.29C645.057 1214 602.048 1183.82 592.946 1173.83C578.838 1158.34 572.929 1127.53 569.273 1107.47C562.947 1072.76 556.272 1023.34 551.896 1007.67C546.153 987.115 543.112 974.677 527.122 949.051C517.435 933.524 508.186 924.551 496.912 913.917C485.608 903.255 475.443 905.764 459.836 901.367C433.948 901.968 422.908 907.986 414.154 910.512C405.4 913.038 401.314 912.001 394.635 912.001"
                          stroke="#918375" stroke-linecap="round"/>
                    <path id="00_002_001LOOP,00_004_001B"
                          d="M828.523 1593.51C810.233 1587.79 781.324 1589.15 755.365 1539.78C738.022 1506.79 737.341 1467.07 735.529 1425.7C733.717 1384.33 739.524 1361.78 741.696 1344.18C743.753 1327.5 747.513 1310.38 746.814 1282.23C746.208 1257.8 725.772 1258.97 713.373 1253.96C701.487 1249.15 676.492 1218 661.061 1216.29"
                          stroke="#918375" stroke-linecap="round"/>
                    <path id="00_019_005A,00_022_013"
                          d="M3358.74 1145.42C3363.38 1147.29 3370.17 1152.36 3378.34 1152.36M3358.17 1145.42C3332.45 1131.7 3310.52 1110.66 3308.92 1101.4C3307.53 1093.42 3304.07 1082.07 3300 1071.72C3297.04 1064.18 3293.34 1054.32 3292.02 1045C3290.65 1035.41 3279.32 1001.49 3273.58 986.527C3266.72 972.81 3268.07 969.895 3257.5 961.198C3247.22 952.738 3239.5 945.509 3226.36 939.017C3206.96 929.434 3184.3 918.5 3170.7 906.841C3164.99 901.939 3160.45 895.24 3156.41 892.223C3144.78 883.53 3139.84 882.507 3132.98 880.792"
                          stroke="#918375" stroke-linecap="round"/>
                    <path id="00_020_005B,00_022_013"
                          d="M3358.74 1145.42C3363.38 1147.29 3370.17 1152.36 3378.34 1152.36M3358.17 1145.42C3332.45 1131.7 3310.52 1110.66 3308.92 1101.4C3307.53 1093.42 3304.08 1082.07 3300 1071.72C3297.04 1064.18 3293.34 1054.32 3292.02 1045C3290.65 1035.41 3279.32 1001.49 3273.58 986.527C3271.87 989.957 3270.09 990.703 3268.01 992.778C3258.65 1001.68 3252.28 1006.23 3245.65 1011.94C3233.88 1018.64 3217.05 1031.34 3207.21 1031.34C3181.46 1031.32 3172.35 1030.42 3161.83 1027.9C3151.32 1025.38 3135.19 1024.12 3123.84 1021.39"
                          stroke="#918375" stroke-linecap="round"/>
                    <path id="00_021_005C,00_022_013"
                          d="M3358.74 1145.42C3363.38 1147.29 3370.17 1152.36 3378.34 1152.36M3207.08 1212.64C3216.19 1215.38 3228.02 1217.19 3243.09 1217.44C3264.05 1217.79 3270.98 1210.83 3285.79 1207.62C3305.26 1203.41 3316.66 1204.88 3326.24 1198.51C3337.29 1191.16 3339.95 1181.62 3343.85 1175.67C3347.06 1170.76 3347.73 1163.81 3348.65 1156.49C3350.01 1152.85 3355.44 1148.38 3358.17 1145.42"
                          stroke="#918375" stroke-linecap="round"/>
                    <path id="00_022_013,00_023_006LOOP"
                          d="M3381.07 1150.99C3388.34 1150.99 3401.13 1149.18 3407.31 1146.66C3414.22 1143.84 3423.03 1139.59 3434.01 1134.11C3440.78 1130.73 3461.28 1130.44 3475.58 1131.57C3482.9 1132.71 3492.45 1135.45 3502.93 1136.82C3507.54 1137.29 3536.08 1139.7 3539.34 1139.7"
                          stroke="#918375" stroke-linecap="round"/>
                    <path id="00_047_011LOOP,00_048_011A025"
                          d="M3155.04 1407.66C3157.77 1407.21 3165.04 1404.48 3171.69 1400.37C3179.31 1395.66 3186.96 1391.25 3199.29 1387.81C3215.24 1383.36 3231.95 1379.3 3240.43 1378.61C3248.47 1377.95 3259.55 1376.62 3286.92 1376.6C3298.2 1376.6 3311.58 1380.7 3322.38 1382.77C3331.65 1384.54 3351.72 1387.55 3364.86 1388.71C3366.92 1388.93 3369.18 1389.39 3371.25 1389.62C3373.32 1389.85 3375.12 1389.85 3376.99 1389.85"
                          stroke="#918375" stroke-linecap="round"/>
                    <path id="00_047_011LOOP,00_050_011C025"
                          d="M3155.04 1407.66C3157.77 1407.21 3165.04 1404.48 3171.69 1400.37C3179.31 1395.66 3186.96 1391.25 3199.29 1387.81C3215.24 1383.36 3231.95 1379.3 3240.43 1378.61C3242.24 1381.78 3249.98 1389.8 3262.98 1400.99C3283.55 1418.71 3290.18 1429.94 3294.77 1443.93C3297.86 1453.34 3300.7 1462.44 3303.23 1469.51C3306.49 1478.67 3310.76 1487.54 3318.95 1508.28C3324.6 1522.59 3336.27 1539.08 3346.57 1550.34C3355.11 1559.67 3362.13 1562.44 3379.89 1570.64C3389.61 1576.36 3420.35 1584.4 3429.2 1583.72C3446.64 1581.69 3470.48 1580.29 3488.98 1579.61C3494.83 1578.93 3493.47 1577.58 3492.07 1576.18"
                          stroke="#918375" stroke-linecap="round"/>
                    <path id="00_047_011LOOP,00_049_011B025"
                          d="M3155.04 1407.66C3157.77 1407.21 3165.04 1404.48 3171.69 1400.37C3179.31 1395.66 3186.96 1391.25 3199.29 1387.81C3215.24 1383.36 3231.95 1379.3 3240.43 1378.61C3242.24 1381.78 3249.98 1389.8 3262.98 1400.99C3283.55 1418.71 3290.18 1429.94 3294.77 1443.93C3297.86 1453.34 3300.7 1462.44 3303.23 1469.51C3306.49 1478.67 3310.76 1487.54 3318.95 1508.28C3324.6 1522.59 3336.27 1539.08 3346.57 1550.34C3355.11 1559.67 3362.13 1562.44 3379.89 1570.64C3383.99 1570.19 3390.63 1567.52 3401.16 1558.64C3410.69 1550.59 3415.79 1541.96 3420.81 1536.02C3432.24 1522.5 3440.42 1492.69 3447.98 1482.36C3452.66 1475.96 3461.91 1474.36 3468.53 1470.93C3476.51 1467.96 3487.47 1463.4 3499.54 1461.33C3505.23 1461.1 3514.27 1461.1 3523.59 1461.1"
                          stroke="#918375" stroke-linecap="round"/>
                    <path id="00_023_006LOOP,00_025_006B"
                          d="M3575.63 1100.29C3578.34 1101.66 3587.47 1100.76 3595.68 1098.25C3615.09 1092.33 3626.73 1087.96 3635.43 1085.24C3643.43 1082.73 3651.86 1075.66 3659.18 1072.67C3667.59 1069.24 3676.52 1065.14 3683.61 1061.95C3692.16 1058.09 3704.83 1054.18 3716.93 1053.49C3724.49 1051.89 3738.12 1050.97 3749.37 1049.83C3751.43 1049.6 3754.67 1049.83 3756.54 1049.83"
                          stroke="#918375" stroke-linecap="round"/>
                    <path id="00_030_007LOOP,00_033_007C018"
                          d="M3708 772C3711.96 775.572 3738.08 781.303 3744.5 787.5C3753.95 796.625 3763.88 812.389 3772.52 826.478C3776.38 832.786 3781.11 839.273 3785.5 844.061C3793.35 852.622 3817.82 856.448 3832.22 861.458C3836.64 863.256 3841.03 864.467 3845.82 865.462C3847.84 866.061 3849.03 866.852 3850.25 867.667"
                          stroke="#918375" stroke-linecap="round"/>
                    <path id="00_041_009LOOP,00_043_009B"
                          d="M2325.39 1111.7C2329.29 1112.13 2343.55 1117.62 2351.79 1125.19C2358.72 1131.55 2364.83 1140.18 2369.18 1146.48C2372.83 1151.76 2375.26 1158.42 2379.81 1164.49C2388.2 1175.69 2396.96 1177.54 2402.82 1180.14C2412.66 1184.52 2424.73 1185.35 2430.83 1187.09C2436.41 1188.68 2444.27 1189.26 2451.45 1191C2452.99 1191.44 2454.28 1191.87 2458.81 1192.09C2463.34 1192.31 2471.08 1192.31 2481.66 1193.61M2262.46 1116.87C2267.49 1116.87 2275.9 1117.7 2283.69 1117.92C2291.2 1118.13 2317.96 1112.27 2325.96 1111.7"
                          stroke="#918375" stroke-linecap="round"/>
                    <path id="00_041_009LOOP,00_042_009A"
                          d="M2588.62 968.033C2570.85 953.871 2556.3 943.662 2543.15 944.805C2535.32 945.486 2527.06 946.93 2520.24 952.728C2513.29 958.644 2505.15 968.978 2497.08 976.108C2486.6 985.367 2481.15 990.796 2473.99 997.945L2473.52 998.408C2466.14 1005.77 2457.42 1012.1 2436.67 1019.65C2427.43 1023.02 2410.92 1028.64 2403.86 1039.24C2398.41 1047.44 2393.2 1067.51 2383.01 1078.19C2370.6 1091.21 2345.4 1104.27 2325.96 1111.7C2317.96 1112.27 2291.2 1118.13 2283.69 1117.92C2275.9 1117.7 2267.49 1116.87 2262.46 1116.87"
                          stroke="#918375" stroke-linecap="round"/>
                    <path id="00_024_006A,00_027_017"
                          d="M3601.66 990.689C3603.93 985.688 3605.77 975.673 3602.59 964.02C3597.22 944.336 3585.68 929.063 3580.44 916.753C3577.5 909.851 3574.72 902.594 3571.76 894.586C3568.76 886.51 3571.05 879.741 3571.97 872.891C3572.99 865.293 3576.06 859.19 3578.13 853.477C3580.42 847.151 3582.01 841.38 3585.2 835.892C3589.31 830.858 3593.42 828.117 3596.16 826.295C3597.53 825.377 3598.89 824.473 3603.03 820.801M3587.36 1025.39C3591.36 1003.67 3594.79 999.101 3602.22 990.528"
                          stroke="#918375" stroke-linecap="round"/>
                    <path id="00_024_006A,00_026_014"
                          d="M3649.61 967.398L3645.48 968.775C3642.75 969.686 3634.97 970.138 3627.44 972.659C3620.35 975.18 3607.36 985.384 3602.22 990.528C3594.79 999.101 3591.36 1003.67 3587.36 1025.39M3649.66 967.095C3652.46 966.296 3661.73 962.151 3670.63 958.92C3683.06 954.402 3692.4 953.68 3700.49 951.653C3707.54 949.887 3715.41 945.209 3725.67 940.78C3744.91 932.471 3752.65 932.292 3761.11 930.253C3770.07 928.093 3782.33 927.832 3792.81 930.253C3798.41 931.546 3830.84 951.091 3841.7 945.376C3841.7 945.376 3869.7 941.375 3881.7 945.376H3913.71C3928.57 945.376 3938.29 948.234 3943.43 953.949C3948.57 959.665 3972.58 968.81 3992.01 968.238C4011.44 967.666 4011.44 968.81 4025.16 962.523"
                          stroke="#918375" stroke-linecap="round"/>
                    <path id="00_023_006LOOP,00_024_006A"
                          d="M3537 1139.8C3546.14 1140.4 3552.31 1134.11 3558.25 1128.63C3566.6 1120.94 3570.12 1112.65 3573.33 1106.26C3578.22 1096.55 3577.64 1049.4 3585.64 1028.82"
                          stroke="#918375" stroke-linecap="round"/>
                    <path id="00_062_014LOOP,00_063_014A"
                          d="M5490.02 1399.75C5507.74 1384.89 5511.76 1364.67 5518.13 1354.57C5525.17 1343.42 5529.3 1333.81 5536.76 1325.01C5543.66 1316.87 5552.2 1316.21 5561.25 1314.86C5568.86 1313.73 5576.16 1310.88 5585.2 1310.6C5593.92 1310.33 5607.52 1316.69 5637.03 1336.34"
                          stroke="#918375" stroke-linecap="round"/>
                    <path id="00_066_031,00_067_032"
                          d="M6108.43 1471.2C6114.72 1462.62 6121.95 1436.02 6124.11 1430.97C6126.43 1425.53 6128.75 1418.91 6129.51 1413.89C6130.51 1407.33 6130.28 1398.82 6129.77 1391.92L6129.75 1391.61C6129.28 1385.28 6130.15 1378.61 6132.44 1374.03C6134.72 1371.18 6136.54 1369.66 6139.05 1367.54C6149.29 1358.83 6164.68 1348.06 6167.94 1345.42C6168.95 1344.54 6170.19 1343.3 6171.21 1342.53C6172.22 1341.77 6172.97 1341.52 6173.74 1341.26"
                          stroke="#918375" stroke-linecap="round"/>
                    <path id="00_063_014A,00_066_031"
                          d="M6038.79 1520.13C6036.22 1520.37 6025.48 1523.64 6014.75 1525.74C5996.46 1531.12 5975.02 1537.1 5966.28 1539.48C5961.16 1540.88 5936.52 1540.49 5906.54 1549.52C5894.99 1553.01 5891.2 1561.06 5882.13 1563.73C5875.86 1565.58 5844.95 1563.73 5816.95 1558.64M6038.82 1519.9C6041.57 1519.9 6046.58 1519.4 6052.11 1517.15C6056.4 1515.4 6060.4 1513.87 6064.55 1512C6070.73 1509.21 6074.72 1504.09 6079.62 1500.7C6085.63 1496.54 6090.54 1491.79 6101.09 1481.5M5637.04 1336.34C5648.87 1344.23 5656.01 1353.42 5659.23 1360.08C5664.02 1370 5675.65 1391.66 5685.3 1404.27C5690.97 1411.68 5693.83 1424.75 5695.69 1438.31C5698.61 1459.48 5703.78 1464.34 5710.64 1478.63C5719.78 1493.49 5722.64 1498.06 5730.25 1507.25C5733.28 1510.91 5736.37 1512.59 5738.52 1514.2C5740.67 1515.81 5754.6 1533.3 5757.46 1535.02M5756.75 1534.32C5765.69 1543.1 5792.4 1549.79 5817.52 1558.64"
                          stroke="#918375" stroke-linecap="round"/>
                    <path id="00_061_029,00_062_014LOOP"
                          d="M5341.42 1351.86C5346.2 1356.62 5355.73 1369.36 5366.41 1376.86C5375.22 1383.05 5386.11 1392.3 5399.1 1400C5428.98 1417.73 5442.51 1408.81 5469.34 1406.71C5478.59 1405.99 5481.45 1404.9 5489.45 1400.32"
                          stroke="#918375" stroke-linecap="round"/>
                    <path id="00_049_011B025,00_053_027"
                          d="M3760.53 1371.75C3764.63 1372.65 3768.79 1377.06 3775.42 1380.47C3782.32 1384.04 3785.7 1391.2 3793.68 1405.55C3801 1418.73 3808.06 1423.17 3816.27 1434.08C3820.8 1440.44 3828.94 1451.29 3834.04 1457.1C3839.13 1462.92 3840.94 1463.37 3842.81 1463.84M3710.24 1394.61C3725.67 1384.32 3753.1 1373.91 3759.96 1371.18M3637.65 1464.34C3643.37 1456.91 3656.92 1449.68 3660.11 1448.32M3524.95 1461.09C3529.5 1463.37 3560.3 1465.2 3585.4 1464.07C3604.86 1463.38 3610.34 1462.01 3615.79 1461.33C3619.43 1461.09 3629.32 1462.7 3637.65 1464.07M3659.94 1448.33C3666.31 1447.43 3677.47 1436.46 3682.49 1430.52C3689.28 1422.49 3697.09 1402.61 3709.1 1395.18"
                          stroke="#918375" stroke-linecap="round"/>
                    <path id="00_050_011C025,00_053_027"
                          d="M3760.54 1371.75C3764.63 1372.65 3768.8 1377.06 3775.42 1380.47C3782.33 1384.04 3785.71 1391.2 3793.68 1405.55C3801 1418.73 3808.07 1423.17 3816.27 1434.08C3820.81 1440.44 3828.95 1451.29 3834.04 1457.1C3839.14 1462.92 3840.95 1463.37 3842.81 1463.84M3710.24 1394.61C3725.67 1384.32 3753.11 1373.91 3759.97 1371.18M3489.34 1577.55C3500.23 1577.55 3520.33 1575.74 3534.5 1569.81C3541.7 1566.8 3546.85 1563.41 3558.25 1554.07C3565.53 1548.1 3572.42 1544.23 3586.32 1531.26C3600.3 1518.22 3619.94 1483.2 3637.66 1464.34C3643.37 1456.91 3656.92 1449.68 3660.11 1448.32M3659.95 1448.33C3666.32 1447.43 3677.47 1436.46 3682.49 1430.52C3689.28 1422.49 3697.1 1402.61 3709.1 1395.18"
                          stroke="#918375" stroke-linecap="round"/>
                    <path id="00_050_011C025,00_052_026"
                          d="M3710.24 1394.61C3725.67 1384.32 3753.11 1373.91 3759.97 1371.18C3771.76 1366.47 3787.98 1357.9 3795.05 1354.24C3810.81 1350.59 3821.77 1348.75 3828.38 1349.2C3831.37 1349.66 3834.22 1349.67 3836.55 1350.6C3843.98 1352.31 3856.92 1357.16 3879.18 1360.31C3895.09 1362.56 3920.8 1362.21 3934.92 1361.91C3950.99 1361.56 3960.34 1355.63 3972.16 1350.27C3979.19 1347.09 3983.1 1345.52 3986.89 1343.15C3990.68 1341.73 3996.95 1339.84 4006.74 1337.16C4009.27 1336.37 4011.77 1335.44 4014.34 1334.47M3489.34 1577.55C3500.23 1577.55 3520.33 1575.74 3534.5 1569.81C3541.7 1566.8 3546.85 1563.41 3558.25 1554.07C3565.53 1548.1 3572.42 1544.23 3586.32 1531.26C3600.3 1518.22 3619.94 1483.2 3637.66 1464.34C3643.37 1456.91 3656.92 1449.68 3660.11 1448.32M3659.95 1448.33C3666.32 1447.43 3677.47 1436.46 3682.49 1430.52C3689.28 1422.49 3697.1 1402.61 3709.1 1395.18"
                          stroke="#918375" stroke-linecap="round"/>
                    <path id="00_048_011A025,00_053_027"
                          d="M3760.54 1371.75C3764.63 1372.65 3768.8 1377.06 3775.42 1380.47C3782.32 1384.04 3785.7 1391.19 3793.68 1405.55C3801 1418.73 3808.06 1423.17 3816.27 1434.08C3820.8 1440.43 3828.94 1451.29 3834.04 1457.1C3839.14 1462.92 3840.94 1463.37 3842.81 1463.84M3710.24 1394.61C3725.67 1384.32 3753.11 1373.91 3759.96 1371.18M3378.36 1388.48C3381.54 1390.3 3390.64 1391.22 3397.97 1390.08C3405.68 1388.89 3411.21 1386.67 3417.15 1384.15C3425.6 1380.57 3433.13 1379.36 3443.85 1374.58C3454.25 1369.93 3460.97 1367.03 3507.19 1366.79C3521.82 1366.71 3532.66 1371.11 3541.82 1372.72C3544.11 1373.4 3546.82 1374.75 3552.51 1376.13C3558.21 1377.51 3566.97 1380.07 3579.93 1381.46M3579.76 1381.63C3584.75 1383.91 3594.8 1386.65 3607.56 1388.02C3618.81 1389.22 3624.48 1399.42 3647.04 1424.91C3651.45 1430.93 3654 1432.55 3654.23 1435.76C3654.46 1438.97 3658.58 1443.24 3659.95 1448.33C3666.32 1447.43 3677.47 1436.46 3682.49 1430.52C3689.28 1422.49 3697.1 1402.61 3709.1 1395.18"
                          stroke="#918375" stroke-linecap="round"/>
                    <path id="00_048_011A025,00_052_026"
                          d="M3710.24 1394.61C3725.67 1384.32 3753.11 1373.91 3759.96 1371.18C3771.76 1366.47 3787.98 1357.9 3795.05 1354.24C3810.8 1350.59 3821.77 1348.75 3828.38 1349.2C3831.37 1349.66 3834.22 1349.67 3836.55 1350.6C3843.98 1352.31 3856.92 1357.16 3879.18 1360.31C3895.09 1362.56 3920.79 1362.21 3934.92 1361.91C3950.99 1361.56 3960.34 1355.63 3972.16 1350.27C3979.19 1347.09 3983.1 1345.52 3986.89 1343.15C3990.68 1341.73 3996.95 1339.84 4006.73 1337.16C4009.27 1336.37 4011.77 1335.44 4014.34 1334.47M3378.36 1388.48C3381.54 1390.3 3390.64 1391.22 3397.97 1390.09C3405.68 1388.89 3411.21 1386.67 3417.15 1384.15C3425.6 1380.57 3433.13 1379.36 3443.85 1374.58C3454.25 1369.93 3460.97 1367.03 3507.19 1366.79C3521.82 1366.71 3532.66 1371.11 3541.82 1372.72C3544.11 1373.4 3546.82 1374.75 3552.51 1376.13C3558.21 1377.51 3566.97 1380.07 3579.93 1381.46M3579.76 1381.63C3584.75 1383.91 3594.8 1386.65 3607.56 1388.02C3618.81 1389.22 3624.48 1399.42 3647.04 1424.91C3651.45 1430.93 3654 1432.55 3654.23 1435.76C3654.46 1438.97 3658.58 1443.24 3659.95 1448.33C3666.32 1447.43 3677.47 1436.46 3682.49 1430.52C3689.28 1422.49 3697.1 1402.61 3709.1 1395.18"
                          stroke="#918375" stroke-linecap="round"/>
                    <path id="00_049_011B025,00_052_026"
                          d="M3710.24 1394.61C3725.67 1384.32 3753.1 1373.91 3759.96 1371.18C3771.76 1366.47 3787.98 1357.9 3795.05 1354.24C3810.8 1350.59 3821.76 1348.75 3828.37 1349.2C3831.37 1349.66 3834.22 1349.67 3836.55 1350.6C3843.98 1352.31 3856.91 1357.16 3879.18 1360.31C3895.08 1362.56 3920.79 1362.21 3934.92 1361.91C3950.99 1361.56 3960.34 1355.63 3972.16 1350.27C3979.19 1347.09 3983.1 1345.52 3986.89 1343.15C3990.68 1341.73 3996.95 1339.84 4006.73 1337.16C4009.27 1336.37 4011.76 1335.44 4014.34 1334.47M3637.65 1464.34C3643.37 1456.91 3656.92 1449.68 3660.11 1448.32M3524.95 1461.09C3529.5 1463.37 3560.3 1465.2 3585.4 1464.07C3604.86 1463.38 3610.34 1462.01 3615.79 1461.33C3619.43 1461.09 3629.32 1462.7 3637.65 1464.07M3659.94 1448.33C3666.31 1447.43 3677.47 1436.46 3682.49 1430.52C3689.28 1422.49 3697.09 1402.61 3709.1 1395.18"
                          stroke="#918375" stroke-linecap="round"/>
                    <path id="00_054_012LOOP,00_056_012B"
                          d="M4455.71 1548.92C4453.89 1550.13 4452.13 1551.3 4449.73 1553.1C4444.39 1557.26 4436.67 1560.81 4406.32 1575.09C4391.47 1581.04 4376.81 1584.82 4366.85 1589.93C4356.39 1595.3 4341.36 1599.73 4334.17 1604.79C4323.12 1612.55 4310.93 1623.98 4297.62 1626.77C4286.36 1629.13 4275 1624.68 4263.31 1623.98C4241.2 1622.65 4227.12 1614.18 4202.91 1609.51C4177.19 1606.08 4123.13 1598.87 4098.75 1585.38"
                          stroke="#918375" stroke-linecap="round"/>
                    <path id="00_053_027,00_054_012LOOP"
                          d="M3840.73 1465.14C3850.16 1469.27 3882.16 1483.46 3895.95 1496.58C3914.22 1513.95 3921.02 1523.93 3938.86 1534.64C3947.43 1539.78 3957.06 1545.92 3975.1 1546.53C4022.53 1548.12 4055.8 1551.25 4061.72 1558.96C4067.1 1565.95 4078.91 1574.41 4098.75 1585.38"
                          stroke="#918375" stroke-linecap="round"/>
                    <path id="00_054_012LOOP,00_055_012A"
                          d="M4098.75 1585.38C4123.13 1598.87 4177.19 1606.08 4202.91 1609.51M4202.59 1609.52C4212.61 1595.39 4231.68 1563.25 4236.14 1552.52C4241.23 1540.3 4246.55 1524.6 4250.41 1516.27C4256.36 1503.4 4260.2 1487.17 4263.77 1477.36C4267.75 1466.43 4274.92 1456.44 4281.73 1446.96L4281.88 1446.75C4289.86 1435.64 4302.34 1431.3 4311.3 1427.42C4318.75 1424.19 4329.08 1418.83 4339.51 1414.35C4342.77 1412.87 4347.47 1410.52 4353.13 1407.25C4358.79 1403.98 4365.26 1399.86 4371.93 1395.62"
                          stroke="#918375" stroke-linecap="round"/>
                    <path id="00_043_009B,00_044_010LOOP"
                          d="M2481.98 1192.61C2483.59 1192.61 2487.48 1192.61 2492.52 1192.52C2495.31 1192.48 2500.96 1192.12 2508.92 1191.96C2512.06 1191.89 2513.34 1191.47 2523.42 1191.63C2533.51 1191.79 2552.34 1192.43 2562.29 1192.68C2573.86 1192.97 2576.13 1191.31 2578.57 1189.77C2581.18 1188.11 2583.93 1187.08 2586.94 1184.97C2589.92 1182.87 2592.55 1181.88 2594.67 1180.41C2596.47 1179.17 2597.59 1177.33 2599.47 1175.54C2601.34 1173.75 2603.13 1171.32 2604.91 1169.2C2606.49 1167.33 2607.67 1164.01 2609.63 1161.8C2611.03 1160.22 2611.58 1157.98 2613.05 1155.62C2614.21 1153.73 2614.97 1151.71 2615.69 1149.78L2615.73 1149.68C2616.51 1147.6 2617.44 1145.46 2618.09 1143.34C2618.25 1142.85 2618.41 1142.37 2618.74 1141.88C2619.06 1141.39 2619.55 1140.9 2620.04 1139.92M2733.66 1217.91C2729.81 1212.72 2723.42 1209.42 2719.24 1205.89C2715.71 1202.9 2712.19 1198.21 2704.83 1190.04C2700.93 1185.71 2697.76 1182.5 2689.77 1167.47C2686.17 1160.72 2681.74 1155.57 2676.46 1150.61C2674.79 1149.04 2672.47 1147.57 2664.51 1143.74C2656.54 1139.91 2633.05 1143.38 2620.31 1140.27"
                          stroke="#918375" stroke-linecap="round"/>
                    <path id="00_042_009A,00_044_010LOOP"
                          d="M2588.62 968.033C2599.69 976.85 2605.91 992.663 2610.33 999.614C2616.2 1008.83 2618.13 1018.75 2621.07 1032.21C2622.13 1037.04 2623.61 1040.24 2623.4 1043.39C2623.03 1048.98 2618.15 1055.37 2613.94 1061.29C2610.76 1065.75 2610.15 1073.88 2609.93 1081.28C2609.75 1087.15 2611.41 1092.85 2611.19 1115.09C2611.08 1126.21 2617.43 1134.7 2619.74 1139.13M2733.67 1217.91C2729.82 1212.72 2723.42 1209.42 2719.24 1205.89C2715.71 1202.9 2712.19 1198.21 2704.83 1190.04C2700.94 1185.72 2697.77 1182.5 2689.77 1167.47C2686.18 1160.72 2681.75 1155.57 2676.46 1150.61C2674.8 1149.04 2672.48 1147.57 2664.51 1143.74C2656.54 1139.91 2633.05 1143.38 2620.31 1140.27"
                          stroke="#918375" stroke-linecap="round"/>
                    <path id="00_044_010LOOP,00_046_010B"
                          d="M2785.57 1344.02C2785.57 1337.96 2782.4 1322.02 2778.21 1312.15C2775.11 1304.83 2771.8 1294.39 2769.23 1287.48C2763.97 1273.31 2755.78 1255.29 2750.97 1246.29C2746.49 1237.9 2738.82 1224.86 2733.66 1217.91M2884.93 1544.4C2875.81 1539.42 2870.67 1535.24 2867.78 1532.76C2864.29 1529.77 2863.1 1527.05 2860.84 1522.68C2857.96 1517.12 2853.73 1512.8 2849.99 1508.98L2849.73 1508.71C2841.15 1499.95 2837.61 1496.67 2835.49 1491.17C2834.31 1488.08 2834.03 1485.31 2833.14 1481.98C2832.8 1480.72 2831.67 1479.38 2829.62 1476.95L2829.42 1476.71C2825.85 1472.48 2819.61 1468.27 2814.09 1464.46C2809.63 1461.38 2806.61 1459.17 2804.23 1456.72C2801.63 1454.04 2800.1 1452.02 2798.15 1448.77C2796.45 1445.95 2794.42 1443.41 2791.17 1440.08C2789.53 1437.88 2787.65 1422.35 2787.2 1419.19C2783.29 1392.06 2785.48 1344.5 2785.48 1343.17"
                          stroke="#918375" stroke-linecap="round"/>
                    <path id="00_046_010B,00_047_011LOOP"
                          d="M3016.96 1475.77C3019.99 1475.34 3033.53 1471.85 3044.24 1467.27C3057.41 1461.65 3064.04 1458.35 3073.6 1449.24C3079.64 1443.48 3084.06 1439.22 3089.71 1435.08C3094.56 1431.52 3100.14 1428.34 3104.73 1423.99C3108.82 1420.1 3117.52 1417.9 3124.08 1415.93C3132.32 1414.42 3142.78 1411.79 3146.04 1411.36C3147.57 1410.93 3148.87 1410.07 3152.81 1407.88M3016.79 1475.47C3015.91 1479.46 3011.47 1487.43 3007.67 1495.47C3004.51 1502.17 3003.89 1509.71 3002.99 1522.16C3002.45 1529.77 2999.43 1536.41 2998.1 1542.21C2996.84 1547.71 2994.54 1552.89 2989.22 1557.35C2980.49 1564.66 2974.09 1566.69 2967.41 1571.37C2965.62 1572.49 2963.86 1573.37 2960.09 1573.82C2956.31 1574.28 2952.15 1574.65 2946.24 1573.31C2945.93 1573 2938.11 1569.55 2926.08 1564.25L2925.54 1564.01C2921.05 1562.03 2920.28 1561.31 2913.51 1558.16C2906.75 1555.02 2894.05 1549.39 2884.93 1544.4"
                          stroke="#918375" stroke-linecap="round"/>
                    <path id="00_045_010A,00_047_011LOOP"
                          d="M3152.8 1407.88C3148.86 1410.07 3147.57 1410.93 3146.04 1411.36C3142.78 1411.79 3132.32 1414.42 3124.08 1415.93C3117.52 1417.9 3108.82 1420.1 3104.72 1423.99C3100.14 1428.34 3094.56 1431.53 3089.71 1435.08C3084.06 1439.22 3079.64 1443.48 3073.6 1449.24C3064.04 1458.35 3057.41 1461.65 3044.24 1467.27C3033.53 1471.85 3019.99 1475.34 3016.96 1475.77C3013.03 1471.84 3007.46 1462.29 2990.4 1450.91C2967.53 1435.66 2950.81 1423.57 2946.11 1411.94C2935.93 1386.81 2933.16 1373.83 2927.23 1364.89C2920.35 1354.52 2912.75 1348.84 2902.08 1340.88"
                          stroke="#918375" stroke-linecap="round"/>
                    <path id="00_044_010LOOP,00_045_010A"
                          d="M2785.57 1344.02C2785.57 1337.96 2782.4 1322.02 2778.21 1312.15C2775.11 1304.83 2771.8 1294.39 2769.23 1287.48C2763.97 1273.31 2755.78 1255.29 2750.97 1246.29C2746.49 1237.9 2738.82 1224.86 2733.66 1217.91M2902.08 1340.88C2896.83 1336.97 2894.65 1336.55 2882.42 1334.18C2844.62 1326.86 2833.21 1335.57 2829.49 1336.31C2821.84 1337.83 2796.96 1333.65 2786.05 1344.31"
                          stroke="#918375" stroke-linecap="round"/>
                    <path id="00_055_012A,00_057_028"
                          d="M4371.96 1395.65C4374.96 1392.66 4391.89 1380.69 4407.78 1371.11C4433.24 1355.74 4448.18 1346.53 4457.47 1337.49C4464.76 1330.39 4478.71 1316.73 4485.25 1309.45M4485.82 1308.88C4493.54 1300.29 4496.34 1294.88 4512.87 1277.32C4517.77 1272.12 4534.85 1270.74 4558.93 1270.49C4584.32 1270.23 4615.24 1259.72 4624.27 1250.46C4636.34 1237.64 4643.48 1225.43 4645.85 1220.29C4652.71 1205.43 4700.39 1154.32 4702.44 1152.27"
                          stroke="#918375" stroke-linecap="round"/>
                    <path id="00_056_012B,00_057_028"
                          d="M4485.82 1308.88C4493.54 1300.29 4496.34 1294.88 4512.87 1277.32C4517.77 1272.12 4534.86 1270.74 4558.93 1270.49C4584.32 1270.23 4615.24 1259.72 4624.27 1250.46C4636.34 1237.64 4643.48 1225.43 4645.85 1220.29C4652.71 1205.43 4700.39 1154.32 4702.44 1152.27M4457.47 1337.49C4457.57 1337.39 4457.68 1337.28 4457.79 1337.18M4457.79 1337.18C4465.16 1330 4478.81 1316.62 4485.25 1309.45M4457.79 1337.18C4457.78 1337.1 4457.76 1337.03 4457.75 1336.96M4457.79 1337.18C4458.84 1343.24 4462.79 1355.1 4466.26 1367.01C4471.55 1385.13 4482.29 1394.09 4488.34 1403.15C4493.88 1411.45 4498.87 1416.69 4500.39 1424.22C4502.59 1435.09 4506.91 1446.8 4506.92 1458.81C4506.94 1471.64 4502.42 1478.4 4499.65 1484.43C4496.4 1491.51 4491.38 1497.97 4487.62 1505.74C4483.22 1514.84 4475.84 1521.02 4472.31 1528.32C4467.79 1535.61 4462.81 1542.61 4453.77 1549.15C4451.75 1550.66 4450.26 1552.15 4448.72 1555.19"
                          stroke="#918375" stroke-linecap="round"/>
                    <path id="00_058_013LOOP,00_059_013A"
                          d="M5021.36 1133.99C5028.21 1125.36 5029.51 1115 5034.36 1104.76C5041.49 1089.71 5053.09 1075.85 5060.08 1064.56C5073.61 1042.73 5093.3 1022.2 5106.44 1010.42C5116.38 1001.82 5131.85 992.185 5147.92 985.22C5153.91 982.502 5156.48 981.848 5159.67 980.812"
                          stroke="#918375" stroke-linecap="round"/>
                    <path id="00_057_028,00_058_013LOOP"
                          d="M4705.2 1149.22C4712.67 1154.58 4723.37 1158.84 4748.26 1177.03C4759.52 1185.26 4769.46 1200.08 4777.28 1210.31C4784.41 1219.64 4806.36 1234.92 4839.31 1242.49C4855.18 1246.14 4883.69 1244.63 4899.24 1244.91C4923.07 1245.34 4933.55 1232.89 4939.99 1225.11C4946.22 1217.59 4950.18 1208.76 4954.74 1198.05C4958.72 1188.7 4969.45 1183.58 4979.64 1177.66C4993.18 1169.8 5012.14 1145.59 5021.35 1133.99"
                          stroke="#918375" stroke-linecap="round"/>
                    <path id="00_052_026,00_057_028"
                          d="M4702.44 1152.27C4700.39 1154.32 4652.71 1205.43 4645.85 1220.29C4643.48 1225.43 4636.34 1237.64 4624.27 1250.46C4615.24 1259.72 4584.31 1270.23 4558.93 1270.49C4534.85 1270.74 4517.77 1272.12 4512.87 1277.32C4496.34 1294.88 4493.54 1300.29 4485.82 1308.88C4483.95 1308.25 4480.12 1306.34 4476.71 1304.78C4468.44 1300.8 4456.19 1298.37 4443.57 1299.91C4417.53 1300.84 4398.85 1305.06 4375.87 1315.87C4364.82 1321.07 4352.18 1326.41 4340.33 1331.19L4340.02 1331.32C4330.17 1335.3 4313.57 1342 4249.93 1335.08C4215.41 1331.33 4160.22 1323.77 4131.32 1320.41C4100.03 1316.76 4092.49 1316.75 4077.81 1319.55C4034.37 1327.84 4019.71 1331.48 4016.68 1333.32"
                          stroke="#918375" stroke-linecap="round"/>
                    <path id="00_059_013A,00_061_029"
                          d="M5160.24 980.812C5171.1 978.526 5185.73 990.122 5197.33 997.523C5207.93 1004.28 5212.16 1014.59 5220.21 1023.93C5225.97 1030.61 5228.9 1043.53 5236.32 1061.9C5242.13 1076.29 5249.5 1094.39 5254.37 1105.42C5257.92 1113.47 5270.06 1129.79 5278.84 1143.74C5283.54 1151.19 5287.53 1164.62 5289.16 1207.06C5289.74 1222.08 5292.05 1231.01 5294.95 1239.71C5299.59 1253.63 5304.92 1263.86 5308.47 1272.88C5313.97 1286.82 5312.58 1284.65 5317.42 1294.02M5316.84 1292.87C5321.71 1302.29 5331.97 1326.97 5335.53 1338.25C5336.49 1341.8 5337.77 1346.26 5338.74 1349.52C5339.72 1352.77 5340.36 1354.68 5341.02 1352.79"
                          stroke="#918375" stroke-linecap="round"/>
                    <path id="00_058_013LOOP,00_060_013B"
                          d="M5197.39 1213.43C5161.57 1185.92 5140.32 1148.31 5136.39 1136.61C5134.89 1132.13 5133.15 1127.5 5126.7 1122.64C5099.71 1102.3 5070.16 1117.05 5060.73 1122.26C5050.67 1128.75 5038.97 1135.26 5030.53 1134.3C5027.92 1133.97 5024.71 1133.97 5021.39 1133.97"
                          stroke="#918375" stroke-linecap="round"/>
                    <path id="00_060_013B,00_061_029"
                          d="M5316.85 1292.87C5321.71 1302.29 5331.97 1326.97 5335.53 1338.25C5336.5 1341.8 5337.77 1346.26 5338.75 1349.52C5339.72 1352.77 5340.36 1354.69 5341.02 1352.79M5317.42 1294.59C5315.49 1289.42 5301.42 1276.3 5291.74 1265.6C5271.85 1243.6 5213.4 1221.43 5200.82 1215.14"
                          stroke="#918375" stroke-linecap="round"/>
                    <path id="00_062_014LOOP,00_064_014B"
                          d="M5488.39 1401.11C5500.61 1406.41 5522.83 1420.18 5538.13 1430.36C5557.07 1442.95 5569.3 1469.75 5574.35 1479.59C5577.34 1485.42 5579.41 1492.11 5583.12 1497.95C5592.85 1513.26 5622.99 1512.9 5638.46 1511.57"
                          stroke="#918375" stroke-linecap="round"/>
                    <path id="00_064_014B,00_066_031"
                          d="M6038.79 1520.13C6036.22 1520.37 6025.48 1523.64 6014.75 1525.74C5996.46 1531.12 5975.02 1537.1 5966.28 1539.48C5961.16 1540.88 5936.52 1540.49 5906.54 1549.52C5894.99 1553.01 5891.2 1561.06 5882.13 1563.73C5875.86 1565.58 5844.95 1563.73 5816.95 1558.64M6038.82 1519.9C6041.57 1519.9 6046.58 1519.4 6052.11 1517.15C6056.4 1515.4 6060.4 1513.87 6064.55 1512C6070.73 1509.21 6074.73 1504.09 6079.62 1500.7C6085.63 1496.54 6090.54 1491.79 6101.09 1481.5M5710.64 1478.63C5719.79 1493.49 5722.64 1498.06 5730.25 1507.25C5733.28 1510.91 5736.37 1512.59 5738.52 1514.2C5740.67 1515.81 5754.61 1533.3 5757.46 1535.02M5756.75 1534.32C5765.69 1543.1 5792.4 1549.79 5817.52 1558.64M5638.46 1511.57C5653.88 1510.25 5669.85 1509.7 5679.74 1505.46C5686.41 1502.26 5693.31 1496.43 5699.95 1489.79L5710.38 1479.36"
                          stroke="#918375" stroke-linecap="round"/>
                    <path id="00_036_020,00_057_028"
                          d="M4560.7 1032.25C4562.5 1033.21 4573.79 1041.35 4578.52 1043.81C4589.87 1049.71 4597.7 1052.96 4598.76 1058.44C4599.73 1063.49 4599.11 1073.48 4599.64 1081.36C4600.16 1089.24 4601.2 1094.81 4603.47 1099.58C4605.75 1104.36 4609.23 1108.18 4612.67 1111.28C4623.47 1121.01 4630.86 1123.16 4634.65 1125.54C4636.88 1126.94 4645.9 1130.87 4658.1 1135.52C4663.21 1137.47 4668.23 1139.83 4677.68 1143.6C4688.52 1147.19 4696.51 1149.5 4700.02 1150.47C4701.44 1150.91 4702.14 1151.26 4703.38 1151.61"
                          stroke="#918375" stroke-linecap="round"/>
                    <path id="00_029_015,00_036_020"
                          d="M4556.12 1031.68C4546.32 1024.5 4534.84 1014.3 4532.75 1012.76C4529.41 1010.31 4527.29 1005.18 4510.2 1003.98C4497.76 1003.12 4490.27 1003.44 4486.72 1003.56C4473.57 1004 4469.04 1005.05 4466.93 1006.28C4464.82 1007.51 4462.27 1008.82 4460.72 1009.75C4448.82 1019.53 4440.05 1026.05 4433.81 1031.68C4427.57 1037.31 4423.93 1041.95 4422.47 1044.04C4418.08 1050.31 4412.46 1056.21 4407.85 1060.54C4401.36 1066.61 4389.98 1076.98 4382.78 1083.51C4378.39 1087.49 4372.31 1089.05 4368.58 1095.01C4365.43 1100.03 4361.58 1105.18 4357.71 1112.57C4353.32 1120.94 4342.56 1138.45 4331.38 1142.42C4324.9 1144.73 4315.08 1147.39 4301.91 1157.27C4295.24 1162.28 4288.98 1165.89 4272.71 1168.35C4243.68 1172.73 4222.79 1176.28 4219.48 1176.28C4205.49 1176.28 4192.25 1176.19 4182.91 1176.51C4161.79 1178.7 4153.31 1183.59 4142.41 1185.24C4122.32 1188.28 4125.75 1190.57 4109.75 1190.57"
                          stroke="#918375" stroke-linecap="round"/>
                    <path id="00_025_006B,00_029_015"
                          d="M3756.39 1050.21C3757.67 1050.21 3786.05 1050 3803.97 1050.21M3803.97 1050.54C3807.08 1054.26 3811.33 1060.16 3816.3 1067.65C3822.65 1077.21 3831.87 1089.42 3846.21 1105.36C3854.07 1114.09 3862.44 1120.66 3882.31 1135.88C3907.72 1155.35 3935.37 1163.69 3958.33 1170.52C3973.8 1175.13 3997.33 1181.06 4018.68 1184.24C4058.24 1190.13 4101.96 1188.7 4113.18 1190.57"
                          stroke="#918375" stroke-linecap="round"/>
                    <path id="00_025_006B,00_028_016"
                          d="M3756.39 1050.21C3757.67 1050.21 3786.05 1050 3803.97 1050.21C3803.97 1050.21 3895.5 1063.5 3962.5 1045.5C4029.5 1027.5 4027.5 1021.5 4073 1031C4118.5 1040.5 4164 1008.5 4164 1008.5"
                          stroke="#918375" stroke-linecap="round"/>
                    <path id="00_065_030,00_067_032"
                          d="M6132.44 1374.03C6134.72 1371.18 6136.54 1369.66 6139.04 1367.54C6149.29 1358.83 6164.68 1348.06 6167.94 1345.42C6168.95 1344.54 6170.19 1343.3 6171.21 1342.53C6172.22 1341.77 6172.97 1341.52 6173.74 1341.26M5968.98 1459.76C5975.84 1449.48 5996.17 1436.41 6001.54 1431.29C6006.92 1426.15 6019.41 1416.42 6029.03 1411.24C6039.52 1405.65 6047.91 1400.52 6052.79 1397.96C6054.91 1396.78 6056.42 1395.18 6059.96 1393.1C6061.73 1392.06 6074.92 1387.12 6093.75 1378.83C6104.92 1374.01 6108.2 1373.25 6113.06 1373C6117.17 1373 6124.64 1373.25 6132.32 1373.5"
                          stroke="#918375" stroke-linecap="round"/>
                    <path id="00_064_014B,00_065_030"
                          d="M5710.64 1478.63C5719.79 1493.49 5722.64 1498.06 5730.25 1507.25C5733.28 1510.91 5736.37 1512.59 5738.52 1514.2C5740.67 1515.81 5754.61 1533.3 5757.46 1535.02M5756.75 1534.32C5765.69 1543.1 5792.4 1549.79 5817.52 1558.64M5638.46 1511.57C5653.88 1510.25 5669.85 1509.7 5679.74 1505.46C5686.41 1502.26 5693.31 1496.43 5699.95 1489.79L5710.38 1479.36M5816.95 1558.64C5844.95 1563.73 5875.86 1565.58 5882.13 1563.73C5891.2 1561.06 5894.99 1553.01 5906.54 1549.52M5906.11 1549.5C5917.25 1541.15 5921.1 1533.86 5927.65 1527.09C5935.36 1519.12 5936.99 1511.01 5940.24 1505.17C5944.01 1498.43 5954.12 1474.05 5969.55 1458.62"
                          stroke="#918375" stroke-linecap="round"/>
                    <path id="00_063_014A,00_065_030"
                          d="M5637.04 1336.34C5648.87 1344.23 5656.01 1353.42 5659.23 1360.08C5664.02 1370 5675.65 1391.66 5685.3 1404.27C5690.97 1411.68 5693.83 1424.75 5695.69 1438.31C5698.61 1459.48 5703.78 1464.34 5710.64 1478.63C5719.78 1493.49 5722.64 1498.06 5730.25 1507.25C5733.28 1510.91 5736.37 1512.59 5738.52 1514.2C5740.67 1515.81 5754.6 1533.3 5757.46 1535.02M5756.75 1534.32C5765.69 1543.1 5792.4 1549.79 5817.52 1558.64M5816.95 1558.64C5844.95 1563.73 5875.86 1565.58 5882.13 1563.73C5891.2 1561.06 5894.99 1553.01 5906.54 1549.52M5906.11 1549.5C5917.25 1541.15 5921.1 1533.85 5927.65 1527.09C5935.36 1519.12 5936.98 1511 5940.24 1505.17C5944.01 1498.43 5954.12 1474.05 5969.55 1458.62"
                          stroke="#918375" stroke-linecap="round"/>
                    <path id="00_071_033,00_072_016LOOP"
                          d="M6600.53 1329.45C6608.3 1321.69 6637.77 1304.38 6652.14 1305.38C6669.69 1306.59 6673.2 1312.88 6701.12 1319.61C6713.3 1321.9 6718.2 1323.11 6726.93 1325.95C6732.82 1327.59 6741.71 1329.6 6753.3 1331.68"
                          stroke="#918375" stroke-linecap="round"/>
                    <path id="00_072_016LOOP,00_073_016A"
                          d="M6886.65 1290.09C6881.24 1290.09 6875.99 1290.09 6865.46 1291.96C6822.28 1302.74 6815.71 1307.61 6810.19 1311.7L6810.16 1311.73C6810.16 1311.73 6808 1314.02 6787.42 1325.45C6766.85 1336.88 6755.42 1332.31 6755.42 1332.31"
                          stroke="#918375" stroke-linecap="round"/>
                    <path id="00_069_015A,00_071_033"
                          d="M6495.75 1292.51C6507.56 1300.7 6513.5 1308.83 6518.2 1314.33C6523.24 1320.23 6525.34 1329.21 6528.6 1335.33C6532.4 1342.47 6540.81 1344.31 6553.23 1350.22C6561.92 1354.35 6587.12 1337.14 6596.53 1333.45"
                          stroke="#918375" stroke-linecap="round"/>
                    <path id="00_068_015LOOP,00_069_015A"
                          d="M6402.33 1280.03C6412.55 1279.88 6431.79 1279.88 6443.02 1280.02C6454.26 1280.17 6456.93 1280.47 6459.67 1280.77M6460.5 1280.87C6469.41 1282.89 6486.98 1286.42 6495.75 1292.51"
                          stroke="#918375" stroke-linecap="round"/>
                    <path id="00_067_032,00_068_015LOOP"
                          d="M6175.45 1341.74C6179.61 1340.56 6187.37 1337.56 6193.36 1333.84C6199.59 1329.96 6202.63 1323.83 6204.28 1318.75C6205.75 1314.23 6208.32 1310.38 6211.45 1306.79C6215 1302.71 6218.47 1300.8 6222.06 1299.46C6227.76 1297.32 6243.79 1296.01 6262.21 1297.5C6271.2 1298.23 6282.39 1303.47 6294.17 1304.54C6313.98 1306.32 6328.75 1298.71 6332.33 1297.07C6338.5 1294.24 6343.38 1292.14 6349.81 1289.75C6354.09 1288.16 6374.01 1282.91 6389.26 1280.62L6401.06 1280.3"
                          stroke="#918375" stroke-linecap="round"/>
                    <path id="00_072_016LOOP,00_074_016B"
                          d="M6901.33 1458.91C6898.44 1459.33 6896.82 1459.73 6895.18 1459.93C6891.93 1460.13 6887.86 1459.31 6875.15 1455.62C6855.21 1446.21 6849.8 1438.37 6847.49 1432.99C6844.22 1425.42 6842.43 1401.74 6841.58 1383.62C6840.97 1370.39 6840.12 1363.9 6837.7 1357.75C6833.19 1346.29 6826.75 1335.7 6821.58 1328.19C6816.08 1320.21 6813.72 1312.31 6811.43 1311.73C6809.14 1311.16 6801.71 1317.45 6801.71 1317.45C6801.71 1317.45 6790.85 1324.88 6779.99 1329.45C6769.13 1334.03 6762.97 1333.92 6755.42 1332.31"
                          stroke="#918375" stroke-linecap="round"/>
                    <path id="00_068_015LOOP,00_070_015B"
                          d="M6401.66 1280.78C6406.56 1288.48 6417.78 1301.12 6426.95 1314.49C6435.58 1327.07 6441.04 1337 6447.36 1348.62C6453.49 1359.89 6452.31 1377.73 6454.76 1396.44C6456.9 1412.84 6469.87 1425.63 6475.85 1435.5C6483.34 1447.86 6492.36 1457.29 6503.25 1466.1C6514.17 1474.93 6532.39 1484.02 6559.71 1495.94C6599.11 1513.12 6630.25 1531.21 6657.11 1531.21"
                          stroke="#918375" stroke-linecap="round"/>
                    <path id="00_073_016A,00_076_035"
                          d="M6887.87 1288.87C6897.6 1291.3 6917.13 1297.8 6928.62 1307.59C6936.19 1314.05 6940.86 1326.35 6948.59 1338.35C6961.57 1358.52 6959.46 1367.75 6980.03 1380.89M6980.03 1381.46C6992.61 1387.18 7016.19 1389.18 7029.81 1391C7043.43 1392.81 7065.76 1402.61 7085.77 1398.61M7084.88 1398.8C7090.16 1397.82 7113.29 1395.16 7128.04 1390.36C7135.98 1387.77 7142.99 1382.54 7152.75 1379.56C7168.44 1374.76 7185.82 1371.58 7199.08 1367.76C7205.12 1366.25 7209.72 1365.59 7212.92 1365.25C7216.11 1364.91 7217.75 1364.91 7221.44 1363.92M7420.14 1013.39C7415.84 1017.1 7415.24 1018.92 7413.37 1021.39C7403.57 1031.18 7390.08 1038.53 7379.69 1044.33C7370.46 1047.71 7358.12 1049.89 7348.76 1055.37C7339.84 1060.58 7329.81 1066.5 7324.57 1074.05C7319.04 1082.04 7312.91 1090.56 7307.1 1101.97C7296.99 1121.84 7291.91 1133.19 7287.52 1145.11C7282.29 1159.32 7277.19 1182.19 7275.27 1195.97C7273.14 1211.29 7269.82 1233.27 7267.93 1257.55C7266.38 1277.47 7263.35 1295.73 7262.42 1308.05C7261.49 1320.29 7265.55 1332.17 7255.65 1342.04C7243.67 1353.99 7227.77 1361.3 7221.69 1362.51"
                          stroke="#918375" stroke-linecap="round"/>
                    <path id="00_070_015B,00_076_035"
                          d="M6659.97 1535.21C6703.98 1548.35 6723.11 1584.62 6731.17 1596.9C6753.03 1630.22 6777.89 1638.73 6806.37 1654.25C6824.36 1664.06 6839.87 1664.86 6847.93 1663.46C6882.8 1657.44 6924.26 1646.58 6938.31 1641.66C6951.76 1636.96 6964.38 1635.33 6971.39 1630.78C6987.04 1620.61 7004.37 1588.38 7015.39 1569.94C7022.3 1558.38 7025.6 1544.61 7033.32 1516.54C7037.33 1501.96 7041.76 1491.85 7050.19 1476.75C7059.78 1459.58 7056.01 1458.24 7066.91 1446.62C7078.35 1434.5 7078.35 1427.78 7078.34 1417.99L7078.34 1417.47C7078.34 1414.28 7084.91 1402.87 7086.34 1398.61M7084.88 1398.8C7090.17 1397.82 7113.29 1395.16 7128.04 1390.36C7135.98 1387.77 7143 1382.54 7152.75 1379.56C7168.45 1374.76 7185.82 1371.58 7199.09 1367.76C7205.12 1366.25 7209.72 1365.59 7212.92 1365.25C7216.11 1364.91 7217.76 1364.91 7221.45 1363.92M7420.15 1013.39C7415.85 1017.1 7415.24 1018.92 7413.37 1021.39C7403.57 1031.18 7390.08 1038.53 7379.69 1044.33C7370.46 1047.71 7358.12 1049.89 7348.76 1055.37C7339.85 1060.58 7329.81 1066.5 7324.58 1074.05C7319.05 1082.04 7312.91 1090.56 7307.1 1101.97C7297 1121.84 7291.91 1133.19 7287.52 1145.11C7282.3 1159.32 7277.2 1182.19 7275.28 1195.97C7273.15 1211.29 7269.83 1233.27 7267.94 1257.55C7266.38 1277.47 7263.36 1295.73 7262.42 1308.05C7261.5 1320.29 7265.56 1332.17 7255.65 1342.04C7243.67 1353.99 7227.78 1361.3 7221.7 1362.51"
                          stroke="#918375" stroke-linecap="round"/>
                    <path id="00_074_016B,00_076_035"
                          d="M6980.03 1381.46C6992.61 1387.18 7016.2 1389.18 7029.81 1391C7043.43 1392.81 7065.76 1402.61 7085.77 1398.61M6979.62 1381.84C6978.41 1383.87 6973.53 1387.93 6969.24 1394.04C6961.5 1405.08 6957.21 1413.6 6953.94 1419.75C6951.28 1424.76 6947.03 1429.53 6941.71 1435.44C6937.36 1440.29 6931.93 1441.37 6927.03 1445.23C6921.68 1449.46 6916.03 1453.6 6910.93 1456.45C6909.5 1457.27 6907.88 1458.08 6905.64 1458.5C6903.39 1458.91 6900.57 1458.91 6897.66 1458.91M7084.88 1398.8C7090.16 1397.82 7113.29 1395.16 7128.04 1390.36C7135.98 1387.77 7143 1382.54 7152.75 1379.56C7168.44 1374.76 7185.82 1371.58 7199.09 1367.76C7205.12 1366.25 7209.72 1365.59 7212.92 1365.25C7216.11 1364.91 7217.76 1364.91 7221.44 1363.92M7420.14 1013.39C7415.84 1017.1 7415.24 1018.92 7413.37 1021.39C7403.57 1031.18 7390.08 1038.53 7379.69 1044.33C7370.46 1047.71 7358.12 1049.89 7348.76 1055.37C7339.84 1060.58 7329.81 1066.5 7324.58 1074.05C7319.04 1082.04 7312.91 1090.56 7307.1 1101.97C7296.99 1121.84 7291.91 1133.19 7287.52 1145.11C7282.29 1159.32 7277.19 1182.19 7275.28 1195.97C7273.14 1211.29 7269.83 1233.27 7267.93 1257.55C7266.38 1277.47 7263.36 1295.73 7262.42 1308.05C7261.49 1320.29 7265.55 1332.17 7255.65 1342.04C7243.67 1353.99 7227.78 1361.3 7221.69 1362.51"
                          stroke="#918375" stroke-linecap="round"/>
                    <path id="00_070_015B,00_075_034"
                          d="M6659.97 1535.21C6703.98 1548.35 6723.11 1584.62 6731.17 1596.9C6753.03 1630.21 6777.89 1638.73 6806.37 1654.25C6824.36 1664.06 6839.87 1664.86 6847.93 1663.46C6882.8 1657.44 6924.26 1646.58 6938.31 1641.66C6951.76 1636.96 6964.38 1635.33 6971.39 1630.77C6987.04 1620.61 7004.37 1588.38 7015.39 1569.93C7022.3 1558.38 7025.6 1544.61 7033.32 1516.54C7037.33 1501.96 7041.76 1491.85 7050.19 1476.75C7059.78 1459.58 7056.01 1458.24 7066.91 1446.62C7078.35 1434.5 7078.35 1427.78 7078.34 1417.99L7078.34 1417.47C7078.34 1414.28 7084.91 1402.87 7086.34 1398.61M7084.88 1398.8C7090.17 1397.82 7113.29 1395.16 7128.04 1390.36C7135.98 1387.77 7143 1382.54 7152.75 1379.56C7168.45 1374.76 7185.82 1371.58 7199.09 1367.76C7205.12 1366.25 7209.72 1365.59 7212.92 1365.25C7216.11 1364.91 7217.76 1364.91 7221.45 1363.92M7221.7 1362.51C7227.78 1361.3 7243.67 1353.99 7255.65 1342.04C7265.56 1332.17 7261.5 1320.29 7262.42 1308.05C7263.36 1295.73 7266.38 1277.47 7267.94 1257.55C7269.83 1233.27 7273.15 1211.29 7275.28 1195.97C7277.2 1182.19 7282.3 1159.32 7287.52 1145.11M7287.85 1142.01C7287.85 1138.36 7289.06 1129.81 7292.74 1103.22C7293.88 1094.96 7293.97 1088.76 7298.22 1072.34C7307.28 1037.37 7316.02 1010.98 7317.84 1002.73C7321.27 987.291 7325.19 976.675 7334.36 943.388C7338.28 929.191 7342.97 918.499 7348.15 908.384C7353.86 897.242 7363.15 890.312 7375.07 879.296C7393.16 868.85 7403.59 865.781 7406.65 863.953"
                          stroke="#918375" stroke-linecap="round"/>
                    <path id="00_074_016B,00_075_034"
                          d="M6980.03 1381.46C6992.61 1387.18 7016.2 1389.18 7029.81 1391C7043.43 1392.81 7065.76 1402.61 7085.77 1398.61M6979.62 1381.84C6978.41 1383.87 6973.53 1387.93 6969.24 1394.04C6961.5 1405.08 6957.21 1413.6 6953.94 1419.75C6951.28 1424.76 6947.03 1429.53 6941.71 1435.44C6937.36 1440.29 6931.93 1441.37 6927.03 1445.23C6921.68 1449.46 6916.03 1453.6 6910.93 1456.45C6909.5 1457.27 6907.88 1458.08 6905.64 1458.49C6903.39 1458.91 6900.57 1458.91 6897.66 1458.91M7084.88 1398.8C7090.16 1397.82 7113.29 1395.16 7128.04 1390.36C7135.98 1387.77 7143 1382.54 7152.75 1379.56C7168.44 1374.76 7185.82 1371.58 7199.09 1367.76C7205.12 1366.25 7209.72 1365.59 7212.92 1365.25C7216.11 1364.91 7217.76 1364.91 7221.44 1363.92M7221.69 1362.51C7227.78 1361.3 7243.67 1353.99 7255.65 1342.04C7265.55 1332.17 7261.49 1320.29 7262.42 1308.05C7263.36 1295.73 7266.38 1277.47 7267.93 1257.55C7269.83 1233.27 7273.14 1211.29 7275.28 1195.97C7277.19 1182.19 7282.29 1159.32 7287.52 1145.11M7287.85 1142.01C7287.85 1138.36 7289.06 1129.81 7292.73 1103.22C7293.88 1094.96 7293.96 1088.76 7298.22 1072.34C7307.27 1037.37 7316.01 1010.98 7317.84 1002.73C7321.26 987.291 7325.18 976.675 7334.36 943.388C7338.28 929.191 7342.97 918.499 7348.15 908.384C7353.86 897.242 7363.15 890.312 7375.07 879.296C7393.15 868.85 7403.59 865.781 7406.65 863.953"
                          stroke="#918375" stroke-linecap="round"/>
                    <path id="00_073_016A,00_075_034"
                          d="M6887.87 1288.87C6897.6 1291.3 6917.13 1297.8 6928.62 1307.59C6936.19 1314.05 6940.86 1326.35 6948.59 1338.35C6961.57 1358.52 6959.46 1367.75 6980.03 1380.89M6980.03 1381.46C6992.61 1387.18 7016.19 1389.18 7029.81 1391C7043.43 1392.81 7065.76 1402.61 7085.77 1398.61M7084.88 1398.8C7090.16 1397.82 7113.29 1395.16 7128.04 1390.36C7135.98 1387.77 7142.99 1382.54 7152.75 1379.56C7168.44 1374.76 7185.82 1371.58 7199.08 1367.76C7205.12 1366.25 7209.72 1365.59 7212.92 1365.25C7216.11 1364.91 7217.75 1364.91 7221.44 1363.92M7221.69 1362.51C7227.77 1361.3 7243.67 1353.99 7255.65 1342.04C7265.55 1332.17 7261.49 1320.29 7262.42 1308.05C7263.35 1295.73 7266.38 1277.47 7267.93 1257.55C7269.82 1233.27 7273.14 1211.29 7275.27 1195.97C7277.19 1182.19 7282.29 1159.32 7287.52 1145.11M7287.84 1142.01C7287.84 1138.36 7289.06 1129.81 7292.73 1103.22C7293.87 1094.96 7293.96 1088.76 7298.22 1072.34C7307.27 1037.37 7316.01 1010.98 7317.84 1002.73C7321.26 987.291 7325.18 976.675 7334.36 943.388C7338.28 929.191 7342.97 918.499 7348.15 908.384C7353.86 897.242 7363.15 890.312 7375.07 879.296C7393.15 868.85 7403.59 865.781 7406.65 863.953"
                          stroke="#918375" stroke-linecap="round"/>
                    <path id="00_075_034,00_077_036"
                          d="M7404.96 863.605C7413.1 863.605 7419.13 864.203 7443.21 866.917C7454.84 868.226 7460.2 869.947 7467.29 874.155C7473.7 877.965 7483.39 885.583 7490.25 893.025C7495.63 898.864 7496.75 905.241 7499.02 910.695C7500.95 915.335 7502.18 919.754 7504.6 926.39C7506.42 931.364 7511.53 934.557 7518.63 937.125C7523.92 939.04 7527.84 940.898 7532.98 941.813C7539.98 943.06 7545.36 943.924 7550.94 945.283C7557.63 946.912 7563.46 949.957 7570.86 952.222C7582.2 958.409 7588.82 963.537 7594.71 967.156C7597 968.682 7597.9 969.579 7598.83 970.503"
                          stroke="#918375" stroke-linecap="round"/>
                    <path id="00_076_035,00_077_036"
                          d="M7570.86 952.223C7582.2 958.41 7588.82 963.537 7594.71 967.157C7597 968.683 7597.9 969.58 7598.82 970.504M7420.36 1012.18C7422.16 1010.67 7426.97 1007.07 7432.42 1004.63C7435.73 1003.15 7440.56 1001.61 7454.81 1000.71C7466.04 999.992 7485.49 1000.4 7496.7 999.95C7514.18 999.251 7518.18 995.271 7522.71 993.011C7531.69 988.528 7544.74 980.795 7548.99 977.158C7552.07 974.517 7555.63 972.334 7559.55 967.804C7563.18 962.668 7566.81 958.736 7568.16 956.929C7568.92 956.018 7570.66 954.302 7571.58 953.378"
                          stroke="#918375" stroke-linecap="round"/>
                    <path id="00_077_036,00_078_017LOOP"
                          d="M7599.73 970.503C7601.53 975.024 7605.75 979.834 7608.33 985.279C7611.49 991.955 7616.91 1001.83 7627.31 1015.3C7633.61 1023.46 7648.58 1025.14 7662.74 1029.65C7676.55 1034.06 7684.57 1037.54 7700.59 1038.29C7715.11 1038.97 7742.61 1040.53 7757.68 1041.75C7772.74 1042.97 7774.54 1043.86 7775.91 1044.33C7777.28 1044.79 7778.18 1044.79 7779.1 1044.79"
                          stroke="#918375" stroke-linecap="round"/>
                    <path id="00_078_017LOOP,00_079_017A"
                          d="M7779.58 1044.77C7782.5 1044.77 7790.22 1044.58 7800.26 1044.03C7808.18 1043.6 7813.13 1041.08 7816.46 1039.06C7822.51 1035.39 7827.52 1030.57 7829.93 1028.82C7832.04 1027.28 7835.08 1025.6 7838.13 1023.75C7841.54 1021.9 7846.34 1020.06 7860.68 1020.51C7864.04 1020.79 7865.51 1021.15 7868.12 1022.08"
                          stroke="#918375" stroke-linecap="round"/>
                    <path id="00_078_017LOOP,00_080_017B"
                          d="M7778.48 1044.82C7783.63 1048.68 7794.94 1057.5 7799.63 1065.4C7806.1 1076.3 7813.33 1082.93 7814.44 1085.88C7816.21 1090.6 7817.21 1097.48 7817.67 1101.57C7818.15 1105.79 7819.05 1108.76 7823.46 1116.3C7825.98 1120.61 7829.37 1122.59 7831.31 1125.27C7834.22 1129.29 7840.6 1132.9 7850.56 1139.18C7855.61 1142.37 7859.98 1143.99 7867.54 1147.86C7869.39 1148.81 7870.68 1149.34 7872.06 1149.35C7877.18 1149.38 7881 1146.77 7894.08 1146.67"
                          stroke="#918375" stroke-linecap="round"/>
                    <path id="00_080_017B,00_081_037038039040041"
                          d="M7894.07 1146.67C7897.98 1146.65 7904.76 1146.95 7914.44 1146.31C7923.76 1145.69 7926.38 1141.25 7930.71 1138.21C7936.13 1134.41 7940.41 1130.36 7945.72 1127.34C7955.97 1121.51 7962.92 1117.07 7964.39 1116.61C7968.44 1115.05 7978.9 1114.12 7989.41 1114.49C7993.17 1114.67 7993.71 1114.85 7994.28 1115.04C7995.01 1115.59 7995.74 1116.14 8002.05 1118.52C8008.36 1120.9 8020.23 1125.1 8028.54 1130C8036.84 1134.91 8041.23 1140.39 8044.12 1143.85C8048.18 1148.69 8052.54 1151.91 8060.89 1156.32C8066.14 1159.1 8074.17 1161.47 8079.13 1163.06"
                          stroke="#918375" stroke-linecap="round"/>
                    <path id="00_079_017A,00_081_037038039040041"
                          d="M7867.56 1020.97C7867.93 1020.97 7868.29 1020.97 7876.06 1022.43C7883.83 1023.9 7898.98 1026.82 7911.54 1030.51C7924.09 1034.21 7933.59 1038.59 7939.67 1041.85C7952.9 1048.96 7955.53 1055.45 7959.04 1059.51C7961.32 1062.15 7962 1064.68 7964.57 1069.19C7966.05 1071.78 7966.98 1074.08 7968.36 1078.23C7970.34 1084.16 7972.87 1087.73 7974.44 1090.41C7977.13 1095 7979.66 1093.98 7983.09 1102.55C7983.86 1104.47 7993.1 1114 7993.38 1114.55M7994.28 1115.04C7995.01 1115.59 7995.74 1116.14 8002.05 1118.52C8008.36 1120.9 8020.23 1125.1 8028.54 1130C8036.84 1134.91 8041.23 1140.39 8044.12 1143.85C8048.18 1148.69 8052.54 1151.91 8060.89 1156.32C8066.14 1159.1 8074.17 1161.47 8079.13 1163.06"
                          stroke="#918375" stroke-linecap="round"/>
                    <path id="00_081_037038039040041&#239;&#188;&#140;01_001_001"
                          d="M8092.83 1165.42C8102.13 1164.82 8117.48 1160.23 8120.78 1159.04C8125.43 1157.38 8130.19 1152.14 8136.62 1146.63C8144.43 1139.94 8149.38 1130.94 8153.25 1125.41C8155.15 1122.69 8156.77 1121.51 8158.79 1119.76C8161.3 1117.6 8168.7 1112.86 8178.39 1107.61C8184.09 1104.51 8189.75 1100.87 8194.85 1097.99C8198.19 1096.1 8202.33 1094.76 8206.01 1092.83C8207.66 1092.18 8210.22 1091.45 8212.26 1090.98C8214.31 1090.51 8215.77 1090.33 8218.94 1090.14"
                          stroke="#918375" stroke-linecap="round"/>
                    <path id="00_018_005LOOP,00_019_005A"
                          d="M2935.8 1029.39C2939.95 1026.91 2945.15 1018.68 2953.69 1013.04C2960.63 1008.46 2963.08 999.925 2965.39 994.493C2967.71 989.042 2968.93 980.346 2970.39 973.044C2972.81 960.953 2971.85 954.915 2973.1 949.483C2974.48 943.446 2978.5 936.161 2981.84 930.522C2985.83 923.782 2993.06 914.506 2999.34 909.055C3005.36 903.834 3011.84 900.303 3017.05 896.965C3022.66 893.376 3027.99 891.586 3032.95 889.919L3033.1 889.869C3040.23 887.473 3050.6 885.7 3061.82 883.624C3073.94 882.786 3083.08 881.949 3107.2 879.873C3113.91 879.448 3119.69 879.448 3125.64 879.448M2852.4 1022.27C2856.55 1024.34 2862.38 1026.84 2874.63 1028.3C2894.32 1030.65 2911.09 1028.94 2935.01 1029.76M2851.78 1021.68C2839.21 1011.96 2820.35 1000.53 2796.29 954.843C2783.32 930.194 2769.99 921.601 2761.78 908.63"
                          stroke="#918375" stroke-linecap="round"/>
                    <path id="00_015_004A012,00_018_005LOOP"
                          d="M2575.73 502.098C2590.2 502.081 2605.72 510.256 2618.42 514.842C2634.74 520.729 2639.23 531.843 2646.09 537.936C2650.53 541.877 2655.34 547.339 2659.31 552.823C2666.26 562.417 2670.26 567.704 2673.75 573.789C2677.4 580.158 2680.28 584.732 2681.81 589.742C2683.84 596.397 2688.25 601.794 2685.31 612.025C2681.81 624.169 2686.06 643.994 2687.43 645.813C2690.33 649.688 2696.97 656.401 2703.52 663.279C2709.9 669.97 2703.52 663.279 2718.57 681.961C2724.46 689.273 2722.41 712.74 2722.61 721.565C2723.18 747.051 2713.76 756.272 2713.46 757.339M2761.78 908.63C2753.44 895.461 2750.38 884.282 2747.54 873.539C2746.27 868.76 2739.04 847.152 2731.14 815.873C2725.48 793.447 2715.18 767.627 2712.89 757.91"
                          stroke="#918375" stroke-linecap="round"/>
                    <path id="00_016_004B012,00_018_005LOOP"
                          d="M2541.64 668.61C2563.94 671.637 2571.25 672.679 2578.35 675.292C2585.8 678.036 2595.91 689.195 2618.93 693.223C2633 695.684 2651.76 702.155 2656.89 702.757C2660.67 703.695 2664.73 713.515 2675.19 718.015C2679.6 719.911 2699.05 731.504 2706.61 742.765C2712.9 752.125 2709.85 749.248 2712.9 757.339M2761.78 908.63C2753.45 895.461 2750.39 884.282 2747.54 873.539C2746.28 868.76 2739.05 847.152 2731.15 815.873C2725.49 793.448 2715.19 767.627 2712.9 757.911"
                          stroke="#918375" stroke-linecap="round"/>
                    <path id="00_018_005LOOP,00_020_005B"
                          d="M2852.4 1022.27C2856.55 1024.34 2862.38 1026.84 2874.63 1028.3C2894.32 1030.65 2911.09 1028.94 2935.01 1029.76C2969.46 1030.93 2976.15 1043.07 2983.43 1048.7C2996.28 1058.64 2991.24 1051.68 2999.24 1061.4M2851.78 1021.68C2839.21 1011.96 2820.35 1000.53 2796.29 954.843C2783.32 930.194 2769.99 921.601 2761.78 908.63M2999.28 1061.64C3001.12 1061.81 3006.46 1062.15 3013.09 1060.48C3029.55 1056.34 3033.15 1055.11 3036.44 1053.59C3039.01 1052.41 3041.39 1049.57 3054.02 1042.96C3058.21 1040.77 3065.51 1037.51 3074.57 1032.89C3079.28 1030.5 3084.66 1026.93 3095.07 1022.05C3097.45 1021.37 3098.62 1021.03 3103.12 1020.53C3106.95 1020.36 3113.93 1020.36 3121.12 1020.36"
                          stroke="#918375" stroke-linecap="round"/>
                    <path id="00_018_005LOOP,00_021_005C"
                          d="M2852.4 1022.27C2856.55 1024.34 2862.38 1026.84 2874.63 1028.3C2894.32 1030.65 2911.09 1028.94 2935.01 1029.76C2969.46 1030.93 2976.15 1043.07 2983.43 1048.7C2996.28 1058.64 2991.24 1051.68 2999.24 1061.4C3012.39 1076.26 3023.21 1098.01 3030.95 1113.89C3041.21 1134.94 3046.59 1145.59 3049.93 1151.03C3052.97 1155.98 3058.45 1160.42 3063.77 1164.74L3064.09 1164.99C3070.74 1170.39 3076.17 1173.95 3086.54 1178.11C3117.1 1190.38 3124.51 1186.05 3141.35 1189.37C3161.76 1193.39 3183.27 1201.88 3189.12 1205C3190.79 1206.04 3192.85 1207.28 3195.36 1208.95C3197.86 1210.62 3200.75 1212.68 3206.23 1214.81M2851.78 1021.68C2839.21 1011.96 2820.35 1000.53 2796.29 954.843C2783.32 930.194 2769.99 921.601 2761.78 908.63"
                          stroke="#918375" stroke-linecap="round"/>
                    <path id="00_014_004LOOP,00_016_004B012"
                          d="M2541.64 668.61C2535.97 667.842 2532.91 667.99 2524.61 669.945C2506.53 674.205 2494.62 680.442 2492.05 681.955C2484.16 686.599 2479.44 692.275 2475.33 698.049C2470.53 704.781 2467.28 714.736 2460.15 726.746C2457.11 731.858 2454.52 737.544 2451.17 744.991C2448.89 750.05 2449.03 756.979 2448.12 762.32C2447.07 768.534 2446.6 772.804 2444.48 778.875C2442.72 783.899 2439.93 789.194 2436.43 793.774C2433.49 797.627 2430.2 801.063 2422.78 810.16C2420.21 813.311 2419.56 815.657 2418.5 817.325C2415.48 822.084 2406.82 821.136 2399.22 821.892C2393.14 822.498 2388.88 825.365 2383.42 828.875"
                          stroke="#918375" stroke-linecap="round"/>
                    <path id="00_014_004LOOP,00_015_004A012"
                          d="M2575.73 502.098C2567.86 502.107 2558.79 504.35 2550.53 508.337C2543.22 511.861 2536.32 516.403 2533.22 520.193C2528.33 526.172 2520.97 537.909 2516.36 547.408C2511.92 556.546 2500.99 573.567 2495.99 583.424C2490.68 593.885 2485.99 602.82 2482.48 611.054C2480.34 616.072 2479.27 625.712 2466.95 644.833C2461.19 653.766 2456.26 658.011 2455.28 660.735C2453 667.139 2449.81 674.99 2448.45 683.839C2447.85 687.777 2446.4 702.333 2447.7 721.565C2448.46 732.755 2450.87 740.761 2451.17 744.991C2448.89 750.05 2449.03 756.978 2448.12 762.32C2447.07 768.533 2446.6 772.803 2444.48 778.875C2442.72 783.899 2439.93 789.194 2436.43 793.774C2433.49 797.627 2430.2 801.062 2422.78 810.16C2420.21 813.311 2419.56 815.657 2418.5 817.325C2415.48 822.084 2406.82 821.135 2399.22 821.892C2393.14 822.498 2388.88 825.365 2383.42 828.875"
                          stroke="#918375" stroke-linecap="round"/>
                    <path id="00_030_007LOOP,00_031_007A018"
                          d="M3733.1 740.764C3734.83 737.859 3750.15 726.342 3754.25 719.045C3758.76 711.009 3761.62 700.797 3764.23 690.289C3769.07 670.808 3775.03 664.608 3783.74 657.311C3790.81 651.395 3798.36 649.996 3806.76 647.966C3824.84 643.597 3852.46 641.824 3877.24 642.113C3888.74 642.979 3895.16 643.574 3902.73 643.863C3906.26 644.151 3909.15 644.729 3912.12 647.074M3682.23 757.91C3708.48 748.539 3725.71 742.535 3735.88 740.671"
                          stroke="#918375" stroke-linecap="round"/>
                    <path id="00_030_007LOOP,00_032_007B018"
                          d="M3682.23 757.911C3708.48 748.54 3725.71 742.535 3735.88 740.672C3749.67 738.144 3761.64 737.027 3771.51 733.821C3773.58 733.356 3805.07 722.141 3807.4 722.141M3806.83 722.141C3814.83 720.998 3816.38 719.655 3879.75 718.474"
                          stroke="#918375" stroke-linecap="round"/>
                    <path id="00_027_017,00_030_007LOOP"
                          d="M3603.93 820.209C3609.65 817.351 3618.12 812.756 3625.65 807.063C3631.34 802.764 3639.3 796.433 3650.94 784.089C3656.62 778.056 3662.59 772.211 3668.54 767.621"
                          stroke="#918375" stroke-linecap="round"/>
                    <path id="00_026_014.00_009_BE001"
                          d="M4025.85 961.239C4026.8 960.811 4031.09 958.358 4041.29 953.413C4048.94 949.7 4060.73 947.506 4074.19 946.039C4085.94 944.757 4093.03 946.023 4095.94 946.743C4099.05 947.513 4103.71 950.271 4114.07 959.427C4121.73 966.189 4132.52 979.086 4142.03 988.405C4151.54 997.725 4158.99 1003.55 4164.99 1007.83C4182.24 1020.14 4192.5 1025.5 4197 1028L4203.5 1032.5C4219.5 1040.5 4296.5 1032.93 4296.5 1032.93"
                          stroke="#918375" stroke-linecap="round"/>
                    <path id="00_033_007C018,00_028_016"
                          d="M4164.82 1006.55C4163.87 1004.82 4163.28 1003.88 4162.73 1002.79C4161.69 1000.52 4159.93 994.16 4157.41 981.013C4156.14 971.27 4154.95 960.487 4152.33 951.783C4150.46 945.578 4149.14 941.666 4144.82 936.506C4135.62 925.53 4127.2 915.57 4121.95 905.807C4118.54 899.449 4113.6 890.378 4110.91 882.451C4106.17 868.531 4103.08 857 4097.44 846.268C4094.27 840.238 4089.99 833.358 4083.97 825.268C4077.96 817.179 4070.94 807.652 4066.12 803.241C4058.52 796.285 4048.53 795.11 4044.53 794.996C4044.53 794.996 4022 832.5 3987.5 846.268C3953 860.035 3923 868.5 3895 866.5C3867 864.5 3864.5 873 3852.5 869"
                          stroke="#918375" stroke-linecap="round"/>
                    <path id="00_033_007C018,00_036_020"
                          d="M3852.5 869C3864.5 873 3867 864.5 3895 866.5C3923 868.5 3953 860.035 3987.5 846.268C4022 832.5 4044.53 794.996 4044.53 794.996C4044.53 794.996 4131 718.5 4234.5 846.5C4338 974.5 4465 953.909 4501.5 970.5C4538 987.091 4561 1031 4561 1031"
                          stroke="#918375" stroke-linecap="round"/>
                    <path id="00_032_007B018,00_028_016"
                          d="M4164.82 1006.55C4163.87 1004.82 4163.28 1003.88 4162.73 1002.79C4161.69 1000.52 4159.93 994.159 4157.41 981.013C4156.14 971.27 4154.95 960.487 4152.33 951.783C4150.46 945.577 4149.14 941.666 4144.82 936.506C4135.62 925.53 4127.2 915.57 4121.95 905.806C4118.54 899.448 4113.6 890.377 4110.91 882.451C4106.17 868.531 4103.08 857 4097.44 846.267C4094.27 840.238 4089.99 833.357 4083.97 825.268C4077.96 817.179 4070.94 807.652 4066.12 803.24C4058.52 796.284 4055 796.5 4044.53 794.995C4034.06 793.491 4016 786 4006.5 775.5C3997 764.999 3914 717.5 3881 719.5"
                          stroke="#918375" stroke-linecap="round"/>
                    <path id="00_032_007B018,00_036_020"
                          d="M3881 719.5C3914 717.5 3997 764.999 4006.5 775.5C4016 786 4034.06 793.491 4044.53 794.995C4044.53 794.995 4131 718.5 4234.5 846.5C4338 974.5 4465 953.909 4501.5 970.5C4538 987.091 4561 1031 4561 1031"
                          stroke="#918375" stroke-linecap="round"/>
                    <path id="00_031_007A018,00_036_020"
                          d="M4501.5 970.5C4465 953.909 4338 974.5 4234.5 846.5C4131 718.5 4044.53 794.995 4044.53 794.995C4022.06 795.491 4019.5 746 4004.5 719.5C3989.5 693 3932.5 640.5 3914.5 649"
                          stroke="#918375" stroke-linecap="round"/>
                    <path id="00_028_016,00_009_BE001"
                          d="M4165 1009C4165 1009 4187.5 1022.5 4203.5 1032C4219.5 1041.5 4297 1032 4297 1032"
                          stroke="#918375"/>
                    <path id="00_031_007A018,00_028_016"
                          d="M4164.82 1006.55C4163.87 1004.82 4163.28 1003.88 4162.73 1002.79C4161.69 1000.52 4159.93 994.159 4157.41 981.013C4156.14 971.27 4154.95 960.487 4152.33 951.783C4150.46 945.577 4149.14 941.666 4144.82 936.506C4135.62 925.53 4127.2 915.57 4121.95 905.806C4118.54 899.448 4113.6 890.377 4110.91 882.451C4106.17 868.531 4103.08 857 4097.44 846.267C4094.27 840.238 4089.99 833.357 4083.97 825.268C4083.97 825.268 4067 794.5 4044.53 794.995C4022.06 795.491 4019.5 746 4004.5 719.5C3989.5 693 3932.5 640.5 3914.5 649"
                          stroke="#918375" stroke-linecap="round"/>
                </g>
                <g id="static_nodes">
                    <g id="00_003_001A">
                        <circle id="Ellipse 33" cx="814.518" cy="1167.56" r="1" fill="#FF0000"/>
                    </g>
                    <g id="00_004_001B">
                        <circle id="Ellipse 33_2" cx="830.52" cy="1593.93" r="1" fill="#FF0000"/>
                    </g>
                    <g id="00_005_002003004005">
                        <circle id="Ellipse 33_3" cx="1008.84" cy="1468.19" r="1" fill="#FF0000"/>
                    </g>
                    <g id="00_008_002B021">
                        <circle id="Ellipse 33_4" cx="1632.97" cy="1216.71" r="1" fill="#FF0000"/>
                    </g>
                    <g id="00_007_002A006007008009010">
                        <circle id="Ellipse 33_5" cx="1684.41" cy="822.35" r="1" fill="#FF0000"/>
                    </g>
                    <g id="00_011_003A">
                        <circle id="Ellipse 33_6" cx="2075.34" cy="759.48" r="1" fill="#FF0000"/>
                    </g>
                    <g id="00_012_003B">
                        <circle id="Ellipse 33_7" cx="2028.47" cy="872.646" r="1" fill="#FF0000"/>
                    </g>
                    <g id="00_013_011">
                        <circle id="Ellipse 33_8" cx="2259.38" cy="844.069" r="1" fill="#FF0000"/>
                    </g>
                    <g id="00_040_022">
                        <circle id="Ellipse 33_9" cx="2139.35" cy="1109.26" r="1" fill="#FF0000"/>
                    </g>
                    <g id="00_038_008A">
                        <circle id="Ellipse 33_10" cx="2015.9" cy="1154.99" r="1" fill="#FF0000"/>
                    </g>
                    <g id="00_039_008B">
                        <circle id="Ellipse 33_11" cx="1914.16" cy="1275.01" r="1" fill="#FF0000"/>
                    </g>
                    <g id="00_043_009B">
                        <circle id="Ellipse 33_12" cx="2482.28" cy="1192.71" r="1" fill="#FF0000"/>
                    </g>
                    <g id="00_045_010A">
                        <circle id="Ellipse 33_13" cx="2901.81" cy="1340.54" r="1" fill="#FF0000"/>
                    </g>
                    <g id="00_046_010B">
                        <circle id="Ellipse 33_14" cx="2883.52" cy="1545.15" r="1" fill="#FF0000"/>
                    </g>
                    <g id="00_048_011A025">
                        <circle id="Ellipse 33_15" cx="3383.05" cy="1387.4" r="1" fill="#FF0000"/>
                    </g>
                    <g id="00_049_011B025">
                        <circle id="Ellipse 33_16" cx="3532.79" cy="1459.42" r="1" fill="#FF0000"/>
                    </g>
                    <g id="00_050_011C025">
                        <circle id="Ellipse 33_17" cx="3492.79" cy="1577.16" r="1" fill="#FF0000"/>
                    </g>
                    <g id="00_019_005A">
                        <circle id="Ellipse 33_18" cx="3131.55" cy="879.504" r="1" fill="#FF0000"/>
                    </g>
                    <g id="00_020_005B">
                        <circle id="Ellipse 33_19" cx="3122.41" cy="1020.1" r="1" fill="#FF0000"/>
                    </g>
                    <g id="00_021_005C">
                        <circle id="Ellipse 33_20" cx="3203.57" cy="1214.43" r="1" fill="#FF0000"/>
                    </g>
                    <g id="00_022_013">
                        <circle id="Ellipse 33_21" cx="3383.03" cy="1151.56" r="1" fill="#FF0000"/>
                    </g>
                    <g id="00_024_006A">
                        <circle id="Ellipse 33_22" cx="3589.93" cy="1024.68" r="1" fill="#FF0000"/>
                    </g>
                    <g id="00_025_006B">
                        <circle id="Ellipse 33_23" cx="3756.82" cy="1050.97" r="1" fill="#FF0000"/>
                    </g>
                    <g id="00_016_004B012">
                        <circle id="Ellipse 33_24" cx="2548.58" cy="670.32" r="1" fill="#FF0000"/>
                    </g>
                    <g id="00_015_004A012">
                        <circle id="Ellipse 33_25" cx="2572.58" cy="500" r="1" fill="#FF0000"/>
                    </g>
                    <g id="00_042_009A">
                        <circle id="Ellipse 33_26" cx="2593.16" cy="966.379" r="1" fill="#FF0000"/>
                    </g>
                    <g id="00_027_017">
                        <circle id="Ellipse 33_27" cx="3599.07" cy="824.636" r="1" fill="#FF0000"/>
                    </g>
                    <g id="00_031_007A018">
                        <circle id="Ellipse 33_28" cx="3913.42" cy="649.744" r="1" fill="#FF0000"/>
                    </g>
                    <g id="00_032_007B018">
                        <circle id="Ellipse 33_29" cx="3875.7" cy="717.186" r="1" fill="#FF0000"/>
                    </g>
                    <g id="00_033_007C018">
                        <circle id="Ellipse 33_30" cx="3852.84" cy="872.646" r="1" fill="#FF0000"/>
                    </g>
                    <g id="00_009_BE001">
                        <circle id="Ellipse 33_31" cx="4204" cy="1033" r="1" fill="#FF0000"/>
                    </g>
                    <g id="00_028_016">
                        <circle id="Ellipse 33_32" cx="4165" cy="1009" r="1" fill="#FF0000"/>
                    </g>
                    <g id="00_029_015">
                        <circle id="Ellipse 33_33" cx="4116.89" cy="1186.99" r="1" fill="#FF0000"/>
                    </g>
                    <g id="00_026_014">
                        <circle id="Ellipse 33_34" cx="4026" cy="961" r="1" fill="#FF0000"/>
                    </g>
                    <g id="00_036_020">
                        <circle id="Ellipse 33_35" cx="4559.27" cy="1030.39" r="1" fill="#FF0000"/>
                    </g>
                    <g id="00_053_027">
                        <circle id="Ellipse 33_36" cx="3844.86" cy="1463.99" r="1" fill="#FF0000"/>
                    </g>
                    <g id="00_055_012A">
                        <circle id="Ellipse 33_37" cx="4370.67" cy="1394.26" r="1" fill="#FF0000"/>
                    </g>
                    <g id="00_056_012B">
                        <circle id="Ellipse 33_38" cx="4457.55" cy="1550.86" r="1" fill="#FF0000"/>
                    </g>
                    <g id="00_057_028">
                        <circle id="Ellipse 33_39" cx="4705.58" cy="1151.56" r="1" fill="#FF0000"/>
                    </g>
                    <g id="00_052_026">
                        <circle id="Ellipse 33_40" cx="4010.6" cy="1332.54" r="1" fill="#FF0000"/>
                    </g>
                    <g id="00_059_013A">
                        <circle id="Ellipse 33_41" cx="5162.81" cy="978.953" r="1" fill="#FF0000"/>
                    </g>
                    <g id="00_060_013B">
                        <circle id="Ellipse 33_42" cx="5201.68" cy="1213.29" r="1" fill="#FF0000"/>
                    </g>
                    <g id="00_061_029">
                        <circle id="Ellipse 33_43" cx="5336.56" cy="1347.03" r="1" fill="#FF0000"/>
                    </g>
                    <g id="00_063_014A">
                        <circle id="Ellipse 33_44" cx="5632.62" cy="1333.31" r="1" fill="#FF0000"/>
                    </g>
                    <g id="00_064_014B">
                        <circle id="Ellipse 33_45" cx="5632.62" cy="1511.63" r="1" fill="#FF0000"/>
                    </g>
                    <g id="00_065_030">
                        <circle id="Ellipse 33_46" cx="5970.98" cy="1457.91" r="1" fill="#FF0000"/>
                    </g>
                    <g id="00_066_031">
                        <circle id="Ellipse 33_47" cx="6103.57" cy="1477.34" r="1" fill="#FF0000"/>
                    </g>
                    <g id="00_067_032">
                        <circle id="Ellipse 33_48" cx="6179.02" cy="1339.02" r="1" fill="#FF0000"/>
                    </g>
                    <g id="00_069_015A">
                        <circle id="Ellipse 33_49" cx="6497.94" cy="1294.44" r="1" fill="#FF0000"/>
                    </g>
                    <g id="00_071_033">
                        <circle id="Ellipse 33_50" cx="6603.1" cy="1329.88" r="1" fill="#FF0000"/>
                    </g>
                    <g id="00_073_016A">
                        <circle id="Ellipse 33_51" cx="6895.73" cy="1294.44" r="1" fill="#FF0000"/>
                    </g>
                    <g id="00_074_016B">
                        <circle id="Ellipse 33_52" cx="6895.73" cy="1457.91" r="1" fill="#FF0000"/>
                    </g>
                    <g id="00_070_015B">
                        <circle id="Ellipse 33_53" cx="6657.97" cy="1532.21" r="1" fill="#FF0000"/>
                    </g>
                    <g id="00_075_034">
                        <circle id="Ellipse 33_54" cx="7407.83" cy="863.501" r="1" fill="#FF0000"/>
                    </g>
                    <g id="00_076_035">
                        <circle id="Ellipse 33_55" cx="7420.41" cy="1015.53" r="1" fill="#FF0000"/>
                    </g>
                    <g id="00_077_036">
                        <circle id="Ellipse 33_56" cx="7601.02" cy="973.237" r="1" fill="#FF0000"/>
                    </g>
                    <g id="00_079_017A">
                        <circle id="Ellipse 33_57" cx="7873.07" cy="1022.39" r="1" fill="#FF0000"/>
                    </g>
                    <g id="00_080_017B">
                        <circle id="Ellipse 33_58" cx="7892.5" cy="1145.84" r="1" fill="#FF0000"/>
                    </g>
                    <g id="00_081_037038039040041">
                        <circle id="Ellipse 33_59" cx="8089.11" cy="1165.28" r="1" fill="#FF0000"/>
                    </g>
                </g>
                <g id="interactive_nodes">
                    <g id="00_001_001">
                        <text id="00_001_001_2" fill="#2BFF00" xml:space="preserve" style="white-space: pre"
                              font-family="Inter" font-size="10" letter-spacing="0em"><tspan x="390" y="921.716">00_001_001</tspan></text>
                    </g>
                    <g id="00_002_001LOOP">
                        <text id="00_002_001LOOP_2" fill="#2BFF00" xml:space="preserve" style="white-space: pre"
                              font-family="Inter" font-size="10" letter-spacing="0em"><tspan x="668.912" y="1221.2">00_002_001LOOP</tspan></text>
                    </g>
                    <g id="00_006_002LOOP">
                        <text id="00_006_002LOOP_2" fill="#2BFF00" xml:space="preserve" style="white-space: pre"
                              font-family="Inter" font-size="10" letter-spacing="0em"><tspan x="1237.03" y="1137.76">00_006_002LOOP</tspan></text>
                    </g>
                    <g id="00_037_008LOOP">
                        <text id="00_037_008LOOP_2" fill="#2BFF00" xml:space="preserve" style="white-space: pre"
                              font-family="Inter" font-size="10" letter-spacing="0em"><tspan x="1741.12" y="1239.49">00_037_008LOOP</tspan></text>
                    </g>
                    <g id="00_010_003LOOP">
                        <text id="00_010_003LOOP_2" fill="#2BFF00" xml:space="preserve" style="white-space: pre"
                              font-family="Inter" font-size="10" letter-spacing="0em"><tspan x="1823.43" y="813.123">00_010_003LOOP</tspan></text>
                    </g>
                    <g id="00_041_009LOOP">
                        <text id="00_041_009LOOP_2" fill="#2BFF00" xml:space="preserve" style="white-space: pre"
                              font-family="Inter" font-size="10" letter-spacing="0em"><tspan x="2226.94" y="1120.61">00_041_009LOOP</tspan></text>
                    </g>
                    <g id="00_018_005LOOP">
                        <text id="00_018_005LOOP_2" fill="#2BFF00" xml:space="preserve" style="white-space: pre"
                              font-family="Inter" font-size="10" letter-spacing="0em"><tspan x="2758.47" y="910.285">00_018_005LOOP</tspan></text>
                    </g>
                    <g id="00_047_011LOOP">
                        <text id="00_047_011LOOP_2" fill="#2BFF00" xml:space="preserve" style="white-space: pre"
                              font-family="Inter" font-size="10" letter-spacing="0em"><tspan x="3136.85" y="1419.33">00_047_011LOOP</tspan></text>
                    </g>
                    <g id="00_023_006LOOP">
                        <text id="00_023_006LOOP_2" fill="#2BFF00" xml:space="preserve" style="white-space: pre"
                              font-family="Inter" font-size="10" letter-spacing="0em"><tspan x="3536.91" y="1148.05">00_023_006LOOP</tspan></text>
                    </g>
                    <g id="00_030_007LOOP">
                        <text id="00_030_007LOOP_2" fill="#2BFF00" xml:space="preserve" style="white-space: pre"
                              font-family="Inter" font-size="10" letter-spacing="0em"><tspan x="3659.22" y="769.686">00_030_007LOOP</tspan></text>
                    </g>
                    <g id="00_009_BE001_2">
                        <text id="00_009_BE001_3" fill="#FF0000" xml:space="preserve" style="white-space: pre"
                              font-family="Inter" font-size="10" letter-spacing="0em"><tspan x="4300.12" y="1041.24">00_009_BE001</tspan></text>
                        <ellipse id="Ellipse 34" cx="4299.55" cy="1031.03" rx="1.71812" ry="1.71115" fill="#FFA000"/>
                    </g>
                    <g id="00_044_010LOOP">
                        <text id="00_044_010LOOP_2" fill="#2BFF00" xml:space="preserve" style="white-space: pre"
                              font-family="Inter" font-size="10" letter-spacing="0em"><tspan x="2716.18" y="1204.06">00_044_010LOOP</tspan></text>
                    </g>
                    <g id="00_054_012LOOP">
                        <text id="00_054_012LOOP_2" fill="#2BFF00" xml:space="preserve" style="white-space: pre"
                              font-family="Inter" font-size="10" letter-spacing="0em"><tspan x="4030.74" y="1562.21">00_054_012LOOP</tspan></text>
                    </g>
                    <g id="00_058_013LOOP">
                        <text id="00_058_013LOOP_2" fill="#2BFF00" xml:space="preserve" style="white-space: pre"
                              font-family="Inter" font-size="10" letter-spacing="0em"><tspan x="4965.77" y="1183.48">00_058_013LOOP</tspan></text>
                    </g>
                    <g id="00_062_014LOOP">
                        <text id="00_062_014LOOP_2" fill="#2BFF00" xml:space="preserve" style="white-space: pre"
                              font-family="Inter" font-size="10" letter-spacing="0em"><tspan x="5475.59" y="1413.24">00_062_014LOOP</tspan></text>
                    </g>
                    <g id="00_068_015LOOP">
                        <text id="00_068_015LOOP_2" fill="#2BFF00" xml:space="preserve" style="white-space: pre"
                              font-family="Inter" font-size="10" letter-spacing="0em"><tspan x="6320.33" y="1308.08">00_068_015LOOP</tspan></text>
                    </g>
                    <g id="00_072_016LOOP">
                        <text id="00_072_016LOOP_2" fill="#2BFF00" xml:space="preserve" style="white-space: pre"
                              font-family="Inter" font-size="10" letter-spacing="0em"><tspan x="6745.55" y="1340.09">00_072_016LOOP</tspan></text>
                    </g>
                    <g id="00_078_017LOOP">
                        <text id="00_078_017LOOP_2" fill="#2BFF00" xml:space="preserve" style="white-space: pre"
                              font-family="Inter" font-size="10" letter-spacing="0em"><tspan x="7738.89" y="1053.17">00_078_017LOOP</tspan></text>
                    </g>
                    <g id="00_081_037038039040041_2">
                        <text id="00_081_037038039040041_3" fill="#2BFF00" xml:space="preserve" style="white-space: pre"
                              font-family="Inter" font-size="10" letter-spacing="0em"><tspan x="8086" y="1177.64">00_081_037038039040041</tspan></text>
                    </g>
                    <g id="00_014_004LOOP">
                        <text id="00_014_004LOOP_2" fill="#2BFF00" xml:space="preserve" style="white-space: pre"
                              font-family="Inter" font-size="10" letter-spacing="0em"><tspan x="2414.4" y="807.408">00_014_004LOOP</tspan></text>
                    </g>
                </g>
            </g>
            <g id="chapter1">
                <circle id="Ellipse" cx="8276" cy="1091" r="1" fill="#FF00EA"/>
            </g>
        </g>
    </g>
</svg>
