<svg width="8397" height="2154" viewBox="0 0 8397 2154" fill="none" xmlns="http://www.w3.org/2000/svg">
    <g id="&#228;&#184;&#128;&#231;&#171;&#160;frame">
        <g id="&#231;&#172;&#172;&#228;&#184;&#128;&#231;&#171;&#160;&#230;&#173;&#163;&#229;&#188;&#143;">
            <g id="&#231;&#172;&#172;&#228;&#184;&#128;&#231;&#171;&#160;1">
                <g id="Group 1">
                    <path id="01_002_001LOOP,01_003_001A"
                          d="M731.42 923.882C739.848 916.847 753.486 889.215 764.017 869.359C774.414 849.754 781.857 834.742 784.943 825.935C795.72 795.182 803.851 776.973 808.7 762.691C811.903 753.258 814.059 744.97 819.426 735.233C827.538 720.517 836.647 713.073 844.015 708.032C854.188 701.071 859.121 702.81 867.89 704.528"
                          stroke="#918375" stroke-linecap="round"/>
                    <path id="01_006_002LOOP,01_007_002A"
                          d="M1497.63 707.964C1494.7 709.499 1491.85 710.989 1489.44 711.99C1487.04 712.991 1485.14 713.487 1482.23 714.759C1469.77 721.54 1462.37 727.515 1445.53 731.812C1432.82 735.055 1416.3 736.843 1404.06 739.826C1390.54 743.122 1358.29 752.09 1346.99 766.436C1341.24 773.735 1334.85 789.291 1334.85 810.482C1333.66 826.12 1331.41 845.947 1328.82 857.446C1326.9 865.979 1324.99 866.749 1322.52 868.299C1307.05 878.037 1285.95 887.646 1253.53 883.282L1210.26 877.491"
                          stroke="#918375" stroke-linecap="round"/>
                    <path id="01_005_002003004,01_006_002LOOP"
                          d="M1053.69 796.736C1064.2 805.665 1072.85 810.429 1092.89 821.062C1101.19 824.677 1115.07 819.645 1123.84 824.8C1132.43 827.298 1150.75 833.847 1176.41 851.878C1183.95 857.179 1187.75 861.962 1194.2 866.711C1203.56 873.605 1191.85 864.891 1207.52 875.773"
                          stroke="#918375" stroke-linecap="round"/>
                    <path id="01_003_001A,01_005_002003004"
                          d="M869.355 705.101C883.605 706.819 896.441 709.459 925.625 718.62C941.785 723.693 958.099 724.238 981.586 727.197C998.263 729.298 1007.95 738.414 1010.77 743.713C1017.03 755.501 1021.35 760.082 1026.83 768.673M1026.29 768.101C1031.77 774.973 1045.43 789.722 1053.69 796.737"
                          stroke="#918375" stroke-linecap="round"/>
                    <path id="01_006_002LOOP,01_009_002C"
                          d="M1564.49 946.516C1561.88 947.665 1560.42 947.665 1558.56 948.251C1554.51 949.976 1541.41 951.114 1524.21 950.723C1515.05 949.573 1509.87 947.959 1500.94 947.855C1484.73 947.665 1473.38 948.382 1461.2 948.82C1450.5 949.206 1431.12 950.223 1420.72 949.384C1408.83 948.424 1404.53 947.838 1400.89 944.769C1397.03 941.516 1394.58 938.337 1392.6 935.958C1386.68 928.837 1381.35 920.685 1377.3 916.808C1372.67 912.376 1363.88 906.749 1357.37 897.232C1348.31 884.007 1345.63 876.244 1332.48 867.653C1330.06 866.075 1324.99 866.748 1322.52 868.299C1307.05 878.036 1285.95 887.645 1253.52 883.282L1209.71 877.491"
                          stroke="#918375" stroke-linecap="round"/>
                    <path id="01_006_002LOOP,01_008_002B"
                          d="M1514.07 817.506C1510.34 817.9 1508.88 818.283 1506.83 818.474C1495.49 819.848 1485.21 823.696 1464.84 826.988C1453.01 827.962 1433.59 829.817 1423.33 829.289L1423.17 829.281C1411.91 828.701 1405.86 828.39 1394.08 823.441C1375.24 815.524 1360.89 808.087 1355.35 808.813C1347.92 809.786 1337.79 810.482 1334.85 810.482C1333.66 826.12 1331.41 845.947 1328.82 857.446C1326.9 865.979 1324.99 866.748 1322.52 868.299C1307.05 878.036 1295.21 885.509 1253.52 883.282L1209.71 877.491"
                          stroke="#918375" stroke-linecap="round"/>
                    <path id="01_010_005006,01_011_003LOOP"
                          d="M1728.91 563.638C1737.14 562.281 1760.94 552.83 1768.92 552.83C1780.56 552.829 1817.9 558.021 1844.56 578.07C1872.43 599.031 1882.91 624.462 1890.6 639.238"
                          stroke="#918375" stroke-linecap="round"/>
                    <path id="01_009_002C,01_010_005006"
                          d="M1592.98 763.309C1596.33 756.755 1601.35 740.328 1605.96 730.018C1608.37 724.611 1609.44 718.299 1610.35 711.175C1612.14 697.084 1617.46 690.959 1619.48 686.335C1620.75 684.032 1622.94 681.33 1625.49 678.259C1626.6 676.712 1627.32 675.188 1630.26 671.309C1648.48 656.966 1652.89 649.877 1660.2 640C1665.84 632.382 1667.72 620.814 1672.46 607.163C1674.88 600.206 1686.71 586.517 1694.13 581.66C1719.04 565.361 1717.95 565.445 1728.91 563.636M1593.54 762.373C1594.27 765.427 1596.72 769.852 1600.57 781.165C1603.31 789.211 1611.7 811.208 1617.8 823.068C1620.53 828.382 1620.91 835.92 1621.47 864.851C1621.74 878.641 1618.73 887.027 1616.35 892.225C1613.94 897.492 1612.51 903.163 1608.66 908.172C1605.09 912.823 1601.17 919.3 1593.65 925.075C1588.84 928.772 1584.3 930.849 1580.99 934.682C1577.69 938.918 1573.31 941.223 1568.91 943.718C1567.8 944.3 1566.71 944.681 1564.49 945.072"
                          stroke="#918375" stroke-linecap="round"/>
                    <path id="01_008_002B,01_010_005006"
                          d="M1519.55 816.782C1520.25 816.045 1529.75 813.874 1545.54 810.263L1547.2 809.883C1558.53 807.294 1565.92 801.034 1573.75 793.177C1590.76 776.11 1590.43 768.314 1592.98 763.309C1596.33 756.755 1601.35 740.328 1605.96 730.018C1608.37 724.611 1609.44 718.299 1610.35 711.175C1612.15 697.084 1617.46 690.959 1619.48 686.335C1620.75 684.032 1622.94 681.33 1625.5 678.259C1626.6 676.712 1627.33 675.188 1630.26 671.309C1648.48 656.966 1652.89 649.877 1660.2 640C1665.84 632.382 1667.72 620.814 1672.46 607.163C1674.88 600.206 1686.71 586.517 1694.14 581.66C1719.04 565.361 1717.95 565.445 1728.92 563.636"
                          stroke="#918375" stroke-linecap="round"/>
                    <path id="01_007_002A,01_010_005006"
                          d="M1498.73 705.673C1503.13 704.149 1514.13 701.114 1521.91 697.855C1524.77 696.658 1529.27 696.131 1539.35 695.558C1557.78 694.51 1571.28 694.985 1578.24 692.523C1601.5 682.007 1606.21 678.56 1623.14 673.027C1626.87 672.053 1628.38 671.309 1630.26 671.309C1648.48 656.966 1652.89 649.877 1660.2 640C1665.84 632.382 1667.72 620.814 1672.46 607.163C1674.88 600.206 1686.71 586.517 1694.14 581.66C1719.04 565.361 1717.96 565.445 1728.92 563.636"
                          stroke="#918375" stroke-linecap="round"/>
                    <path id="01_011_003LOOP,01_012_003A007"
                          d="M1890.6 639.236C1899.53 656.413 1900.99 657.849 1915.26 675.318C1928.66 691.719 1948.1 714.933 1959.06 721.775C1971.49 727.844 1981.01 730.89 1985.74 731.265C1988.31 731.64 1991.2 732.391 1994.18 733.163C1994.18 732.444 2009.42 732.139 2036.23 732.69C2047.8 732.928 2055.25 731.441 2064.04 731.065C2082.74 730.265 2097.23 732.139 2104.92 733.41C2118.09 735.589 2130.89 739.775 2137.34 741.051C2148.6 743.28 2154.52 739.426 2160.62 738.875C2166 737.604 2179.14 738.313 2196.49 740.675C2202.86 741.596 2204.28 741.956 2205.74 742.327"
                          stroke="#918375" stroke-linecap="round"/>
                    <path id="01_011_003LOOP,01_013_003B007"
                          d="M1890.6 639.236C1899.53 656.413 1900.99 657.849 1915.26 675.318C1928.66 691.719 1948.1 714.933 1959.06 721.775C1971.49 727.844 1981.01 730.89 1985.74 731.265C1988.31 731.64 1991.2 732.391 1994.18 733.163M1993.64 733.164C1998.99 733.908 2016.25 742.805 2029.82 757.146C2035.55 763.206 2036.47 770.686 2041.13 784.756C2047.19 803.077 2052.63 810.521 2056.57 818.444C2059.98 825.286 2070.18 834.567 2079.88 845.118C2088.11 854.076 2095.35 858.692 2103.89 860.372C2125.13 864.548 2142.36 866.214 2147.37 866.401C2155.28 867.714 2164.45 867.754 2184.32 878.215"
                          stroke="#918375" stroke-linecap="round"/>
                    <path id="01_012_003A007,01_014_004LOOP"
                          d="M2211.22 743.473C2214.41 745.348 2220.78 749.098 2229.69 755.497C2235.37 759.572 2242.13 764.527 2251.22 773.185C2259.37 780.958 2268.84 791.252 2273.12 796.731C2278.51 803.638 2284.85 813.459 2296.22 828.318C2303.37 837.674 2305.5 844.725 2310.83 852.253C2319.02 863.829 2324.12 871.191 2327.96 876.345C2330.09 879.213 2334.54 885.989 2340.02 888.899C2345.5 891.809 2352.78 892.337 2358.65 894.025C2364.52 895.714 2385.74 907.448 2393.73 910.136"
                          stroke="#918375" stroke-linecap="round"/>
                    <path id="01_013_003B007,01_014_004LOOP"
                          d="M2393.73 910.136C2385.75 907.448 2364.53 895.714 2358.65 894.026C2352.78 892.337 2345.5 891.809 2340.02 888.899C2334.54 885.989 2326.81 874.632 2324.67 871.764C2323.21 872.921 2321.23 874.045 2319.97 874.8C2317.64 875.929 2315.47 877.076 2312.22 878.778C2299.23 883.137 2288.42 889.319 2273.2 887.461C2265.48 886.519 2258.9 886.725 2240.86 883.84C2212.46 879.3 2188.67 878.064 2184.73 878.064"
                          stroke="#918375" stroke-linecap="round"/>
                    <path id="01_014_004LOOP,01_016_004B"
                          d="M2702.29 1129.87C2698.4 1130.38 2695.94 1130.88 2693.9 1131.13C2690.29 1131.38 2685.09 1132.91 2673.21 1134.93C2666.32 1135.18 2654.43 1135.49 2645.63 1134.79C2631.21 1133.65 2623.26 1133.48 2619.14 1132.77C2612.47 1131.63 2607.06 1129.61 2602.54 1128.35C2599.8 1127.2 2598.93 1124.57 2597.58 1123.28C2595.34 1121.3 2591.29 1117.77 2586.11 1113.77C2583.19 1110.96 2577.69 1106.32 2566.22 1100.35C2558.94 1096.55 2548.18 1092.57 2542.89 1088.63C2532.81 1081.11 2528.47 1075.25 2524.84 1068.8C2520.69 1061.42 2518.27 1057.27 2515.85 1051.07C2512.37 1042.13 2510.45 1036.1 2508.89 1027.37L2507.18 1015.52C2506.39 1010.48 2503.89 998.702 2502.14 995.214C2499.3 989.519 2493.87 980.691 2490.21 977.602C2484.92 973.122 2477.06 967.33 2472.56 963.399C2466.47 958.077 2461.63 951.969 2459.75 948.953C2456.38 943.554 2453.6 938.918 2451.44 935.105C2449.18 931.115 2444.37 924.135 2427.12 917.616C2423.11 916.098 2421.27 915.826 2416.18 915.154C2405.51 913.746 2397.09 911.624 2393.75 910.344"
                          stroke="#918375" stroke-linecap="round"/>
                    <path id="01_014_004LOOP,01_017_004C"
                          d="M2393.75 910.344C2397.09 911.624 2405.51 913.746 2416.18 915.154C2421.27 915.826 2423.11 916.098 2427.12 917.616C2444.37 924.135 2449.18 931.115 2451.44 935.105C2453.6 938.918 2456.38 943.554 2459.75 948.953C2461.63 951.969 2466.47 958.077 2472.56 963.399C2477.06 967.33 2484.92 973.122 2490.21 977.602C2493.87 980.691 2499.3 989.519 2502.14 995.214C2503.89 998.702 2506.39 1010.48 2507.18 1015.52L2509.37 1027.55C2510.93 1036.27 2512.85 1042.31 2516.33 1051.25C2518.75 1057.45 2521.18 1061.6 2525.32 1068.98C2528.95 1075.43 2533.29 1081.29 2543.38 1088.81C2548.66 1092.75 2559.42 1096.73 2566.7 1100.52M2566.92 1100.86C2567.81 1102.25 2570.54 1115.67 2575.14 1124.91C2576.66 1127.95 2580.91 1136.06 2583.36 1140.95C2588.3 1150.79 2602.61 1151.94 2606.3 1157.91C2609.9 1163.71 2611.37 1167.18 2614.73 1173.84C2616.8 1177.96 2618.54 1181.93 2622.91 1186.38C2625.67 1189.19 2629.17 1190.11 2632.68 1191.02L2632.88 1191.07C2638.35 1192.5 2646.98 1195.28 2656.06 1197.15L2656.86 1197.32C2663.99 1198.79 2668.71 1199.76 2673.04 1200.32"
                          stroke="#918375" stroke-linecap="round"/>
                    <path id="01_017_004C,01_018_008009010011012"
                          d="M2673.04 1200.32C2678.16 1200.99 2692.02 1199.74 2701.63 1198.57L2701.79 1198.56L2701.79 1198.56C2705.42 1198.33 2708.97 1198.1 2711.84 1197.75C2713.19 1197.63 2714.9 1197.75 2716.54 1197.07C2722.51 1193.61 2736.47 1186.14 2745.14 1179.92C2755.52 1172.49 2757.91 1165.73 2761.65 1160.36C2765.93 1154.22 2772.57 1149.55 2776.45 1146.16C2779.38 1143.59 2783.65 1139.58 2787.27 1136.07C2789.89 1133.55 2796.87 1132.35 2800.99 1130.47C2801.72 1130.09 2802.43 1129.6 2803.16 1129.22C2803.88 1128.85 2804.6 1128.6 2805.33 1128.35"
                          stroke="#918375" stroke-linecap="round"/>
                    <path id="01_016_004B,01_018_008009010011012"
                          d="M2787.27 1136.07C2789.89 1133.55 2796.87 1132.35 2800.99 1130.47C2801.71 1130.09 2802.43 1129.6 2803.15 1129.22C2803.88 1128.85 2804.59 1128.6 2805.33 1128.35M2704.48 1129.65C2710.14 1129.15 2722.65 1127.9 2736.35 1128.51C2742.85 1128.8 2747.7 1130.32 2749.97 1131.21C2752.25 1132.1 2769.11 1138.4 2771.59 1138.53C2774.07 1138.65 2781.21 1138.53 2785.6 1137.26"
                          stroke="#918375" stroke-linecap="round"/>
                    <path id="01_014_004LOOP,01_015_004A"
                          d="M2393.75 910.344C2397.09 911.624 2405.51 913.746 2416.18 915.154C2421.27 915.826 2423.11 916.098 2427.12 917.616C2444.37 924.135 2449.18 931.115 2451.44 935.105C2453.6 938.918 2456.38 943.554 2459.75 948.953C2461.63 951.969 2466.47 958.077 2472.56 963.399C2477.06 967.33 2484.92 973.122 2490.21 977.602C2493.87 980.691 2499.3 989.519 2502.14 995.214C2503.89 998.702 2506.39 1010.48 2507.18 1015.52L2509.37 1027.55C2510.93 1036.27 2512.85 1042.31 2516.33 1051.25C2518.75 1057.45 2521.18 1061.6 2525.32 1068.98M2525.27 1068.78C2530.2 1071.65 2537.32 1073.36 2548.19 1073.95C2561.37 1074.65 2572.47 1074.23 2577.3 1072.61C2582.6 1070.82 2587.95 1069.25 2593.22 1067.76C2600.31 1065.76 2605.89 1066.76 2617.61 1066.63"
                          stroke="#918375" stroke-linecap="round"/>
                    <path id="01_015_004A,01_018_008009010011012"
                          d="M2787.28 1136.07C2789.89 1133.55 2796.87 1132.35 2800.99 1130.47C2801.72 1130.09 2802.43 1129.6 2803.16 1129.22C2803.88 1128.85 2804.6 1128.6 2805.33 1128.35M2749.98 1131.21C2752.25 1132.1 2769.11 1138.4 2771.59 1138.53C2774.08 1138.66 2781.22 1138.53 2785.6 1137.26M2617.61 1066.63C2625.95 1066.54 2641.71 1067.98 2652.17 1069.11C2662.62 1070.23 2667.28 1071.46 2673.68 1072.83C2680.08 1074.2 2688.08 1075.68 2692.53 1076.56C2696.98 1077.45 2697.65 1077.69 2699.01 1077.95C2700.46 1078.2 2701.17 1078.44 2702.88 1079.32C2710.55 1083.65 2714.38 1087.11 2719.56 1093.56C2726.16 1100.49 2731.11 1105.77 2738.4 1114.7C2741.52 1118.53 2747.29 1126.47 2749.43 1130.64"
                          stroke="#918375" stroke-linecap="round"/>
                    <path id="01_018_008009010011012,01_019_005LOOP"
                          d="M2806.3 1126.32C2810.12 1125.12 2819.36 1121.89 2833.97 1120.48C2850.35 1118.89 2863.7 1121.87 2875.19 1128.87C2897.83 1142.66 2912.67 1154.49 2915.36 1158.31C2922.37 1168.25 2926.53 1176.63 2930.97 1181.28"
                          stroke="#918375" stroke-linecap="round"/>
                    <path id="01_020_005A,01_022_013014015016017018"
                          d="M3116.05 1042.68C3124.34 1032.4 3134.19 1022.48 3148.27 1006.06C3157.55 992.151 3172.06 976.988 3187.76 966.868C3191.43 964.328 3193.82 961.826 3201.13 956.722"
                          stroke="#918375" stroke-linecap="round"/>
                    <path id="01_019_005LOOP,01_020_005A"
                          d="M2930.97 1181.28C2937.97 1188.6 2946.54 1205.58 2960.23 1220.52C2967.72 1228.68 2972.79 1233.04 2977.8 1235.46C2988.88 1240.82 3003.53 1244.67 3013.05 1245.18M3012.5 1244.8C3019.71 1238.13 3040.6 1204.57 3053.18 1183.79C3062.86 1167.79 3060.05 1148.83 3062.88 1136.19C3065.83 1122.99 3070.49 1105.92 3077.77 1092.8C3086.34 1077.36 3105.12 1056.24 3116.05 1042.68"
                          stroke="#918375" stroke-linecap="round"/>
                    <path id="01_019_005LOOP,01_021_005B"
                          d="M3115.04 1258.03C3118.18 1258.03 3121.23 1258.03 3121.78 1257.82C3122.32 1257.62 3120.41 1257.22 3110.61 1256.61C3083.64 1255.2 3064 1254.41 3058.32 1252.57C3050.24 1249.95 3022.58 1245.7 3013.05 1245.18C3003.53 1244.67 2988.88 1240.82 2977.8 1235.46C2972.79 1233.04 2967.72 1228.68 2960.23 1220.52C2946.54 1205.58 2937.97 1188.6 2930.97 1181.28"
                          stroke="#918375" stroke-linecap="round"/>
                    <path id="01_021_005B,01_026_020"
                          d="M3123.36 1256.28C3127.06 1257.89 3131.37 1259.82 3135.69 1262.08C3140.89 1264.78 3145.26 1267.87 3152.81 1276.24C3164.78 1289.48 3164.11 1294.97 3165.96 1299.81C3168.67 1306.95 3181.64 1316.55 3192.46 1320.79C3196.78 1322.48 3205.01 1321.12 3214.15 1321.76"
                          stroke="#918375" stroke-linecap="round"/>
                    <path id="01_026_020,01_027_007LOOP"
                          d="M3214.15 1321.76C3233.41 1323.11 3244.68 1324.99 3246.68 1324.52C3252.82 1323.05 3257.64 1317.91 3261.34 1314.2C3265.69 1309.86 3270.9 1306.3 3275.24 1304.68C3280.71 1302.63 3286.35 1295.65 3313.12 1293.07C3321.85 1290.8 3326.17 1290.15 3332.95 1288.55C3334.51 1288.22 3335.43 1288.22 3338.23 1287.25"
                          stroke="#918375" stroke-linecap="round"/>
                    <path id="01_027_007LOOP,01_028_007A021_BE001"
                          d="M3341.93 1286.28C3348.09 1285.64 3371.97 1280.51 3386.06 1277.26C3393.35 1275.57 3397.16 1271.46 3404.26 1264.7C3408.96 1260.22 3413.22 1256.3 3416.93 1253.39C3420.7 1250.43 3425.26 1248.23 3429.28 1246.45C3435.14 1244.35 3441.3 1243.7 3456.04 1243.06C3466.15 1243.05 3511.23 1240.84 3530.43 1241.17"
                          stroke="#918375" stroke-linecap="round"/>
                    <path id="01_027_007LOOP,01_029_007B"
                          d="M3373.68 1280.69C3376.14 1284.22 3381.42 1288.2 3387.13 1293.68C3391.6 1297.97 3397.46 1303.33 3412.26 1324.1C3421.87 1337.59 3420.65 1351.09 3421.42 1356.59C3422.58 1364.92 3425.87 1374.62 3431.12 1379.66C3439.45 1387.65 3452.06 1385.95 3462.6 1386.77C3465.72 1387.02 3469.4 1385.65 3480.14 1385.16C3502.46 1384.16 3518.19 1384.36 3520.65 1382.91"
                          stroke="#918375" stroke-linecap="round"/>
                    <path id="01_029_007B,01_030_027"
                          d="M3520.66 1382.91C3525.82 1379.88 3535.42 1375.03 3555.33 1374.02C3560.46 1374.66 3565.04 1375.94 3571.38 1377.24C3577.71 1378.53 3585.66 1379.81 3593.84 1382.09C3596.6 1382.79 3603.64 1384.96 3610.62 1392.25C3615.31 1397.14 3618.01 1404.25 3622.12 1408.34C3626.46 1412.65 3633.18 1418.4 3640.77 1421.85"
                          stroke="#918375" stroke-linecap="round"/>
                    <path id="01_030_027,01_031_028"
                          d="M3640.77 1421.85C3651.78 1426.84 3667.25 1430 3670.11 1430.64C3675.42 1431.82 3676.67 1442.81 3680.18 1453.55C3683.52 1463.79 3694.3 1477.98 3701.7 1486.35C3709.14 1494.78 3717.69 1498.59 3730.4 1504.16C3743.54 1509.91 3757.49 1505.48 3763.25 1502.69C3773.41 1497.76 3780.07 1487.47 3788.46 1477.64C3798.77 1465.57 3808.35 1463.91 3826.59 1452.13C3839.76 1443.63 3846.51 1435.61 3850.45 1430.02C3853.93 1425.3 3858.85 1421.03 3865 1418.65C3866.65 1418.43 3875.18 1420.44 3877.37 1418.65"
                          stroke="#918375" stroke-linecap="round"/>
                    <path id="01_031_028,01_032_032033034035036_HE001"
                          d="M3877.54 1418.7C3879 1417.94 3886.31 1417.55 3900.43 1418.5C3928.46 1420.39 3938.22 1428.3 3942.85 1432.34C3947.13 1436.07 3953.33 1440.21 3959.96 1446.18C3965.58 1451.25 3970.26 1457.91 3975.42 1464.64C3980.16 1470.82 3981.68 1479.44 3985.36 1489.24C3987.66 1495.35 3993.08 1500.6 4000.25 1506.75C4006.33 1511.97 4027.17 1518.27 4052.01 1525.77C4064.3 1529.48 4071.09 1529.47 4082.49 1527.55C4091.97 1525.96 4097.97 1529.84 4112.85 1530.05C4122.02 1530.18 4129.61 1517.58 4135.15 1514.28C4145.49 1508.12 4162.38 1510.64 4167.53 1508.71C4185.48 1507.55 4209.86 1507.93 4217.54 1508.5C4223.04 1508.7 4231.79 1508.7 4240.8 1508.7"
                          stroke="#918375" stroke-linecap="round"/>
                    <path id="01_031_028,01_080_029_BE002"
                          d="M3877.54 1418.7C3879 1417.94 3886.31 1417.55 3900.43 1418.5C3928.46 1420.39 3938.22 1428.3 3942.85 1432.34C3947.13 1436.07 3953.33 1440.21 3959.96 1446.18C3965.58 1451.25 3970.26 1457.91 3975.42 1464.63M3976.39 1465.01C3979.69 1463.85 3984.61 1459.85 3987.9 1452.41C3990.79 1445.85 3994.18 1437.19 3998.06 1431.61C4001.46 1426.71 4005.22 1419.9 4011.12 1412.96C4016.84 1406.21 4025.82 1402.57 4031.18 1401.01C4037.97 1399.04 4046.07 1398.33 4053.24 1396.98C4060.01 1396.78 4068.51 1395.64 4078.78 1393.91C4084.67 1393.32 4091.96 1393.32 4099.47 1393.32"
                          stroke="#918375" stroke-linecap="round"/>
                    <path id="01_022_013014015016017018,01_023_006LOOP"
                          d="M3202.11 956.205C3203.23 953.856 3214.46 943.866 3221.61 936.721C3225.54 932.791 3228.39 929.328 3232.91 923.731C3239 916.195 3240.27 912.486 3242.12 909.237C3244.84 904.447 3250.45 900.076 3254.27 896.681C3257.03 894.223 3259.79 892.391 3261.48 890.769C3263.04 889.273 3270.76 890.006 3283.87 891.779C3296.06 893.427 3305.01 891.797 3310.93 890.618C3322.56 888.302 3329.32 886.478 3334.43 884.559C3343.14 881.285 3354.5 871.71 3358.46 868.905C3364.02 864.976 3366.66 860.488 3369.63 856.792C3374.77 850.401 3380.23 843.646 3383.49 840.685C3387.57 836.976 3390.97 830.066 3395.64 825.913C3400.22 821.842 3401.78 819.072 3408.22 819.072"
                          stroke="#918375" stroke-linecap="round"/>
                    <path id="01_024_006A019,01_033_037038"
                          d="M3523.52 719.045C3530.83 719.932 3538.39 725.037 3550.34 732.845C3557.52 737.542 3569.4 748.15 3576.33 753.642C3584.32 759.985 3593.12 767.861 3596.75 771.536C3599.09 773.903 3600.8 775.265 3610.53 784.336C3616.59 789.982 3620.09 790.522 3624.78 790.894C3630.65 791.359 3638.62 791.994 3649.51 792.487C3652.47 793.215 3657.6 795.414 3664.87 798.111C3667.73 799.107 3668.89 799.35 3670.09 799.6"
                          stroke="#918375" stroke-linecap="round"/>
                    <path id="01_023_006LOOP,01_024_006A019"
                          d="M3408.21 819.072C3408.21 818.587 3412.89 809.924 3415.34 805.9C3420.05 798.156 3428.82 787.749 3433.97 777.836C3438.05 770.011 3440.91 765.755 3442.2 762.945C3447.33 751.746 3457.23 742.972 3460.18 740.025C3467.55 732.64 3484.21 723.595 3489.96 721.267C3504.57 715.347 3518.46 718.431 3523.52 719.045"
                          stroke="#918375" stroke-linecap="round"/>
                    <path id="01_037_008C,01_038_039"
                          d="M3784.09 1229.44C3805.31 1234.01 3829.25 1233.66 3845.59 1234.89C3862.82 1236.19 3878.89 1229.25 3898.49 1215.46C3909.14 1207.97 3914.84 1196.19 3922.84 1178.76C3937.38 1147.05 3943.69 1123.09 3945.1 1118.41C3948.27 1107.86 3955.95 1098.9 3961.63 1091.74C3964.29 1088.38 3984.55 1068.08 4000.13 1047.59C4015.29 1036.85 4025.38 1037.66 4032.97 1033.71C4034.86 1032.72 4037.2 1031.74 4041.03 1029.25"
                          stroke="#918375" stroke-linecap="round"/>
                    <path id="01_034_008LOOP,01_037_008C"
                          d="M3738.16 915.291C3736.74 921.201 3734.4 929.978 3731.08 938.369C3725.78 951.792 3700.04 984.162 3688.33 996.642C3681.9 1003.5 3678.18 1026.64 3676.97 1048.69C3676.25 1061.85 3679.09 1070.7 3682.39 1089.41C3684.52 1101.48 3686.18 1110.19 3686.42 1128.42C3686.63 1143.8 3686.18 1161.5 3692.07 1173.14C3697.87 1184.61 3714.41 1201.93 3726.32 1212.66C3733.77 1219.37 3748.49 1221.78 3784.09 1229.44"
                          stroke="#918375" stroke-linecap="round"/>
                    <path id="01_034_008LOOP,01_035_008A"
                          d="M3738.15 915.291C3742.54 925.027 3750.4 931.285 3754.77 936.689C3759.54 942.575 3768.09 951.935 3771.67 954.234C3775.68 956.814 3778.21 961.547 3781.89 964.559C3785.76 967.72 3792 966.85 3797.17 964.941C3804.37 962.28 3807.4 957.728 3812.22 954.734C3813.6 953.877 3814.98 953.175 3823.3 953.045C3831.63 952.915 3846.87 953.391 3855.29 953.873"
                          stroke="#918375" stroke-linecap="round"/>
                    <path id="01_035_008A,01_038_039"
                          d="M4000.13 1047.59C4015.29 1036.85 4025.38 1037.67 4032.97 1033.71C4034.86 1032.72 4037.2 1031.74 4041.03 1029.25M3855.3 953.874C3869.9 956.273 3881.39 959.631 3885.9 961.562C3886.71 961.807 3887.39 961.807 3889.47 962.528M3889.36 962.596C3895.45 964.062 3912.43 971.927 3924.05 976.408C3931.26 979.19 3946.59 995.33 3962.86 1008.65C3974.86 1020.42 3975.79 1022.79 3982.62 1031.16C3986.64 1035.62 3991.45 1039.59 3999.59 1047.59"
                          stroke="#918375" stroke-linecap="round"/>
                    <path id="01_033_037038,01_034_008LOOP"
                          d="M3671.59 798.247C3671.59 798.009 3671.59 797.771 3672.04 797.768C3678.9 797.713 3689.02 811.418 3695.13 817.921C3697.94 820.91 3700.54 823.926 3703.18 828.253C3705.62 832.24 3709.04 836.42 3716.15 843.849C3721.08 849.004 3723.29 853.713 3728.23 862.936C3731.15 868.403 3730.65 872.202 3731 877.843C3731.45 885.159 3732.68 903.836 3738.16 915.291"
                          stroke="#918375" stroke-linecap="round"/>
                    <path id="01_036_008B,01_038_039"
                          d="M4000.13 1047.59C4015.29 1036.85 4025.38 1037.66 4032.97 1033.71C4034.86 1032.72 4037.2 1031.74 4041.02 1029.25M3962.86 1008.64C3974.85 1020.42 3975.79 1022.79 3982.62 1031.16C3986.64 1035.62 3991.45 1039.59 3999.58 1047.59M3796.49 1128.02C3817.29 1136.96 3833.71 1134.75 3842.19 1133.29C3864.17 1129.49 3876.25 1107.14 3884.04 1099.48C3890.38 1093.25 3899.86 1086.41 3907.43 1082.43C3914.83 1078.54 3919.25 1074.05 3929.39 1067.63C3939.27 1061.37 3944.29 1051.36 3948.09 1039.26C3949.03 1031.08 3950.92 1024.19 3955.87 1016.28C3957.53 1014.3 3959.4 1012.34 3962.74 1008.85"
                          stroke="#918375" stroke-linecap="round"/>
                    <path id="01_034_008LOOP,01_036_008B"
                          d="M3738.15 915.291C3736.73 921.201 3734.39 929.978 3731.08 938.369C3725.77 951.792 3700.03 984.162 3688.33 996.642M3688.28 997.191C3689.92 1013.23 3705.16 1037.91 3723.36 1051.51C3739.14 1063.3 3749.13 1087.74 3756.24 1101.38C3760.07 1108.75 3774.1 1118.4 3796.49 1128.02"
                          stroke="#918375" stroke-linecap="round"/>
                    <path id="01_038_039,01_039_009LOOP"
                          d="M4043.39 1024.37C4052.21 1014.11 4071.04 995.472 4077 986.163C4081.19 979.607 4083.92 970.668 4086.65 963.932C4089.8 956.143 4095.78 946.391 4103.19 936.555C4107.73 930.541 4109.64 923.634 4112.85 917.425C4116.17 911.005 4118.54 902.458 4120.77 895.722C4121.31 894.077 4122.49 892.629 4124.71 891.583C4130.03 889.072 4147.59 889.498 4169.34 890.777C4186.77 891.802 4196.63 912.658 4200.88 922.029"
                          stroke="#918375" stroke-linecap="round"/>
                    <path id="01_039_009LOOP,01_041_009B040"
                          d="M4200.88 922.031C4204.05 929.044 4208.53 935.976 4216.68 945.525C4225.61 955.999 4230.79 963.88 4238.44 972.918C4247.26 983.335 4259.95 995.908 4262.7 1004.19C4265.45 1012.5 4259.51 1024.31 4257.02 1036.21C4255.01 1045.87 4257.01 1059.44 4258.74 1068.01C4260.35 1076.06 4266.87 1085.79 4271.84 1098.22C4275.34 1107 4281.23 1113.73 4285.19 1124.58C4288.35 1133.24 4293.09 1140.08 4299.52 1151.19C4305.7 1161.88 4311.88 1174.68 4316.34 1186.84C4318.31 1192.26 4321.28 1197.97 4325.47 1203.64C4327.7 1206.24 4330.15 1208.29 4335.64 1210.4"
                          stroke="#918375" stroke-linecap="round"/>
                    <path id="01_041_009B040,01_042_041042043"
                          d="M4338.61 1210.4C4342.05 1211.93 4349.94 1216.07 4390.86 1216.34C4404.3 1215.58 4410.29 1214.54 4414.97 1213.76C4417.7 1213.5 4422.62 1212.87 4427.63 1215.97"
                          stroke="#918375" stroke-linecap="round"/>
                    <path id="01_043_010LOOP,01_045_010B"
                          d="M4553.37 1363.62C4580.49 1361.2 4598.45 1361.53 4602.71 1358.13C4612.9 1349.98 4620.54 1343.16 4628.06 1342.36C4650.1 1341.05 4674.76 1340.53 4686.26 1339.74C4693.29 1339.47 4702.73 1339.47 4712.47 1339.47"
                          stroke="#918375" stroke-linecap="round"/>
                    <path id="01_042_041042043,01_043_010LOOP"
                          d="M4427.58 1215.48C4441.44 1250.67 4446.89 1258.44 4450.09 1262.3C4451.83 1264.63 4453.78 1267.69 4457.29 1273.96M4456.68 1272.67C4459.18 1278.42 4466.86 1290.1 4472.4 1299.81C4477.46 1308.69 4483.95 1321.56 4486.72 1330C4489.09 1337.22 4496.96 1350.4 4507.53 1359.65C4515.56 1366.69 4524.11 1366.24 4553.36 1363.62"
                          stroke="#918375" stroke-linecap="round"/>
                    <path id="01_040_009A040,01_042_041042043"
                          d="M4357.52 1018.9C4379.54 1022.26 4390.8 1026.35 4401.25 1033.06C4422.5 1046.71 4432.05 1060.52 4434.77 1065.92C4443.06 1082.43 4434.09 1106.93 4426.65 1121.22C4422.48 1129.23 4416.76 1135.95 4414.27 1146.53C4411.13 1159.91 4418.66 1193.13 4427.58 1215.48"
                          stroke="#918375" stroke-linecap="round"/>
                    <path id="01_039_009LOOP,01_040_009A040"
                          d="M4264.43 1007.32C4265.41 1007.32 4267.88 1008.34 4286.75 1011.17C4303.59 1013.69 4335.49 1015.53 4357.52 1018.9"
                          stroke="#918375" stroke-linecap="round"/>
                    <path id="01_043_010LOOP,01_044_010A"
                          d="M4553.37 1363.62C4580.49 1361.2 4598.45 1361.53 4602.71 1358.13C4612.9 1349.98 4620.54 1343.15 4628.06 1342.36M4628.21 1342.18C4634.98 1336.51 4647.89 1328.69 4659.65 1319.28C4666.99 1313.4 4668.7 1303.82 4673.28 1292.08C4675.68 1285.94 4678.89 1275.76 4690.44 1253.89C4696.26 1242.87 4703.38 1239.79 4708.67 1236.58C4710.91 1235.22 4714.28 1233.73 4719.7 1233.02"
                          stroke="#918375" stroke-linecap="round"/>
                    <path id="01_044_010A,01_047_044"
                          d="M4719.7 1233.02C4735.58 1230.93 4748.97 1241.54 4763.92 1249.17C4775.62 1255.13 4787.43 1271.39 4790.67 1276.91C4793.62 1281.92 4796.62 1287.39 4799.52 1293.44C4804.71 1304.24 4808.52 1328.55 4814.98 1340.72C4822.95 1355.74 4839.8 1358.16 4854.26 1365.62C4861.13 1369.16 4861.16 1369.46 4864.45 1371.76C4871.42 1376.61 4888.46 1398.28 4896.29 1411.25C4902.41 1421.4 4907.21 1431.74 4909.94 1437.27C4910.62 1438.52 4911.3 1439.93 4911.98 1441.18C4912.66 1442.44 4913.34 1443.49 4915.05 1444.58"
                          stroke="#918375" stroke-linecap="round"/>
                    <path id="01_045_010B,01_047_044"
                          d="M4915.05 1444.58C4913.34 1443.49 4912.66 1442.44 4911.98 1441.18C4911.3 1439.93 4910.62 1438.52 4909.94 1437.27C4907.21 1431.74 4902.41 1421.4 4896.29 1411.25C4888.46 1398.27 4871.42 1376.61 4864.45 1371.75C4863.42 1372.65 4857.88 1375.61 4857.03 1376.5C4853.78 1379.87 4850.78 1385.34 4837.78 1388.06C4830.98 1389.47 4825.6 1389.61 4819.4 1389.29C4809.18 1388.75 4799.93 1387.55 4795.08 1384.48C4787.76 1379.83 4780.21 1373.54 4771.61 1365.27C4765.3 1359.2 4756.46 1347.53 4748.64 1345.19C4737.29 1341.79 4718.36 1338.98 4713.96 1338.98"
                          stroke="#918375" stroke-linecap="round"/>
                    <path id="01_046_010C,01_047_044"
                          d="M4915.05 1444.58C4913.34 1443.49 4912.66 1442.44 4911.98 1441.18C4911.29 1439.93 4910.62 1438.52 4909.94 1437.27C4907.21 1431.74 4902.41 1421.4 4896.28 1411.25C4888.46 1398.28 4871.41 1376.61 4864.44 1371.75C4863.42 1372.65 4857.88 1375.61 4857.02 1376.5C4853.78 1379.87 4850.78 1385.34 4837.78 1388.06C4836.43 1391.23 4826.96 1397.99 4812.17 1412.52C4806.4 1418.2 4805.15 1423.93 4802.44 1428.74C4799.19 1434.5 4793.6 1435.32 4789.34 1437.11C4788.15 1437.47 4786.8 1437.82 4784.25 1438C4781.7 1438.18 4778.15 1438.65 4774.33 1438.65C4751.99 1437.6 4741.83 1437.6 4735.1 1438.65C4730.85 1439.69 4723.59 1441.63 4684.68 1441.63"
                          stroke="#918375" stroke-linecap="round"/>
                    <path id="01_043_010LOOP,01_046_010C"
                          d="M4551.5 1364.88C4555.49 1371.15 4567.29 1377.22 4572.59 1385.1C4578.36 1393.68 4580.88 1403.45 4587.14 1411.6C4594.96 1421.78 4611.98 1428.14 4624.03 1431.29C4631.7 1433.3 4663.82 1441.63 4684.68 1441.63"
                          stroke="#918375" stroke-linecap="round"/>
                    <path id="01_048_011LOOP,01_050_011B045"
                          d="M5094.09 1303.03C5098.11 1296.71 5114.33 1286.27 5136.31 1280.24C5147.73 1277.1 5173.04 1260.92 5191.13 1247.04C5198.83 1241.13 5209.03 1235.39 5218.18 1230.42C5228.94 1224.57 5240.8 1219.83 5250.31 1214.52C5254.35 1212.75 5259.1 1210.63 5264.5 1208.16C5267.22 1207.09 5269.89 1206.39 5272.65 1205.67"
                          stroke="#918375" stroke-linecap="round"/>
                    <path id="a01_a053_a012A,a01_a053_a012A_HE" opacity="0.01" d="M5545.7 895.583H5682.72"
                          stroke="#918375" stroke-linecap="round"/>
                    <path id="01_052_012LOOP,01_053_012A"
                          d="M5545.69 895.582C5541.4 895.582 5519.28 895.852 5516.1 895.582C5502.2 894.265 5486.69 895.332 5481.04 895.721L5481.03 895.721C5475.21 896.122 5457.93 896.652 5443.67 895.32C5437.97 894.788 5425.58 894.039 5415.16 882.982C5405.29 872.493 5399.37 863.746 5394.43 858.018M5345.31 823.716C5349.7 822.667 5363.16 830.341 5381.4 844.461C5388.27 850.185 5390.28 852.983 5394.38 857.986"
                          stroke="#918375" stroke-linecap="round"/>
                    <path id="01_051_049050052,01_052_012LOOP"
                          d="M5245.94 992.767C5246.24 980.271 5244.25 963.415 5245.25 938.028C5246.16 915.24 5255.69 894.833 5270.5 873.346C5302.05 827.576 5318.58 829.748 5329.42 826.197C5334.72 824.457 5340.25 824.067 5345.31 823.717"
                          stroke="#918375" stroke-linecap="round"/>
                    <path id="01_049_011A,01_051_049050052"
                          d="M5189.48 1139.95C5199.58 1129.39 5214.43 1108.28 5224.27 1092.3C5237.59 1070.67 5244.9 1036.92 5245.95 992.768"
                          stroke="#918375" stroke-linecap="round"/>
                    <path id="01_052_012LOOP,01_054_012B053054"
                          d="M5345.31 823.716C5349.7 822.667 5363.16 830.341 5381.4 844.461C5388.27 850.185 5390.28 852.983 5394.38 857.986M5394.43 858.018C5399.37 863.746 5405.29 872.493 5415.16 882.982M5415.26 883.218C5425.13 990.891 5463.2 1002.53 5466.75 1007.44C5471.65 1014.22 5475.61 1026.6 5476.26 1037.45C5476.73 1045.42 5477.39 1052.82 5479.04 1057.2C5479.68 1058.91 5481.69 1063.13 5487.35 1071.7C5495.98 1084.73 5504.49 1091.48 5508.52 1094.11C5516.34 1099.22 5522.97 1102.07 5525.25 1102.6C5527.05 1103.02 5534.82 1104.18 5547.21 1105.37C5561.16 1106.71 5568.78 1103.67 5576.15 1103.26"
                          stroke="#918375" stroke-linecap="round"/>
                    <path id="01_023_006LOOP,01_025_006B019"
                          d="M3408.76 819.072C3424.11 819.072 3419.37 825.881 3429.86 833.479C3434.92 837.145 3436.98 843.184 3439.96 849.276C3442.75 854.988 3442.94 859.677 3444.1 866.684C3445.2 873.315 3447.32 878.567 3448.75 883.974C3450.2 889.455 3452.49 895.303 3457.76 906.595C3461.35 914.299 3469.4 927.997 3473.99 935.826C3481.3 948.273 3487.62 952.817 3499.87 957.831C3509.2 961.653 3516.55 958.26 3531.64 949.378"
                          stroke="#918375" stroke-linecap="round"/>
                    <path id="01_025_006B019,01_033_037038"
                          d="M3670.08 799.6C3668.89 799.35 3667.72 799.108 3664.87 798.111C3657.6 795.415 3652.47 793.215 3649.51 792.487C3638.71 791.998 3630.78 791.37 3624.92 790.906L3624.78 790.894C3620.09 790.523 3616.59 789.982 3610.53 784.336C3600.8 775.266 3599.09 773.904 3596.75 771.536C3597.13 772.35 3595.39 775.998 3593.58 780.599C3591.51 787.647 3588.47 795.111 3588.29 806.788C3588.16 814.897 3588.16 829.599 3587.37 842.872C3586.58 856.145 3585.04 867.64 3583.49 875.728C3581.93 883.817 3580.65 888.514 3577.25 894.489C3569.51 908.102 3563.21 919.592 3556.34 927.649C3547.04 938.56 3541.59 943.521 3531.64 949.378"
                          stroke="#918375" stroke-linecap="round"/>
                    <path id="01_050_011B045,01_056_047048_BE003"
                          d="M5676.91 1490.43C5675 1489.86 5673.93 1489.3 5672.71 1488.88C5671.49 1488.45 5670.16 1488.18 5667.84 1487.46C5655.81 1484.51 5639.65 1485.73 5629.55 1487.62C5623.45 1488.76 5613.89 1493.13 5595.59 1488.14C5588.23 1486.14 5578.24 1483.07 5570.52 1479.68C5557.08 1473.77 5546.04 1467.76 5539.16 1459.95C5534.46 1454.61 5533.02 1449.73 5530.82 1445.72C5526.09 1437.1 5523.34 1428.57 5512.62 1420.14C5505.34 1414.41 5491.46 1405.28 5484.76 1398.6C5476.47 1390.34 5473.53 1381.33 5472.83 1372.57C5472.16 1364.1 5474.45 1364.31 5467.87 1344.26C5464.52 1336.69 5457.97 1319.95 5455.55 1314.06C5452.72 1307.16 5448.52 1297.53 5441.77 1288.68C5436.53 1281.8 5429.41 1270.83 5419.92 1260.07C5415.23 1254.76 5412.75 1253.14 5410.78 1251.94C5406.58 1249.39 5401.51 1244.65 5393.75 1243.48C5382.56 1241.8 5370.24 1252.17 5355.72 1243.76C5346.4 1238.37 5338.46 1231.6 5332.8 1226.13C5329.17 1222.61 5317.44 1211 5297.24 1207.24C5283 1204.59 5276.3 1204.59 5274.7 1204.59"
                          stroke="#918375" stroke-linecap="round"/>
                    <path id="01_050_011B045,01_055_046055"
                          d="M5274.7 1204.59C5276.3 1204.59 5283 1204.59 5297.24 1207.24C5317.44 1211 5329.17 1222.61 5332.8 1226.13C5338.46 1231.6 5346.4 1238.37 5355.72 1243.76C5370.24 1252.17 5382.56 1241.8 5393.75 1243.48C5401.51 1244.65 5406.58 1249.39 5410.78 1251.94C5412.75 1253.14 5415.23 1254.76 5419.92 1260.07C5429.41 1270.83 5436.53 1281.8 5441.77 1288.68C5448.52 1297.53 5452.72 1307.16 5455.55 1314.06C5457.97 1319.95 5464.52 1336.69 5467.87 1344.26C5470.54 1344.82 5477.78 1346.09 5493.88 1348.34C5505.12 1349.91 5522.79 1350.59 5532.54 1351.02C5543.61 1351.52 5549.81 1347.27 5557.62 1341.07C5562.06 1337.56 5566.28 1332.6 5573.81 1326.83C5588.19 1315.82 5597.85 1314.55 5607.12 1311.02C5621.05 1305.73 5638.87 1301.88 5647.09 1302.46"
                          stroke="#918375" stroke-linecap="round"/>
                    <path id="01_055_046055,01_057_056"
                          d="M5926.99 1051.52C5923.44 1052.09 5921.57 1052.65 5920.22 1052.93L5920.12 1052.94C5917.92 1053.23 5913 1053.87 5903.7 1058.93C5898.26 1063.53 5891.58 1071.9 5884.94 1081.98C5878.3 1092.06 5871.89 1103.5 5862.22 1116.7C5852.55 1129.9 5840 1144.41 5833.31 1152.38C5826.62 1160.36 5825.71 1161.71 5825.28 1163.17C5822.83 1171.4 5818.07 1186.46 5816.24 1194.6C5814.75 1201.24 5814.59 1208.2 5811.77 1219.35C5808 1234.28 5805.63 1246.31 5798.91 1254.35M5647.64 1302.45C5653.13 1303.89 5719.23 1304.4 5728.77 1301.02C5740.01 1297.05 5748.38 1295.09 5754.82 1291.72C5766.82 1285.46 5776.43 1278.19 5780.74 1273.83C5783.84 1270.69 5792.6 1262.06 5800.01 1253.2"
                          stroke="#918375" stroke-linecap="round"/>
                    <path id="01_058_058,01_059_013LOOP"
                          d="M5889.02 1206.67C5895.05 1209.48 5901.85 1213.03 5911.67 1216.12C5916.64 1217.69 5921.76 1218.66 5928.25 1219.79C5934.73 1220.93 5942.48 1222.04 5952.48 1222.62C5962.47 1223.19 6025.09 1212.44 6039.34 1203.27"
                          stroke="#918375" stroke-linecap="round"/>
                    <path id="01_055_046055,01_058_058"
                          d="M5647.64 1302.45C5653.13 1303.89 5719.23 1304.4 5728.77 1301.02C5740.01 1297.05 5748.38 1295.09 5754.82 1291.72C5766.82 1285.46 5776.43 1278.19 5780.74 1273.83C5783.84 1270.69 5792.6 1262.06 5800.01 1253.2M5798.91 1254.35C5805.63 1246.31 5808 1234.28 5811.77 1219.35C5814.59 1208.2 5814.75 1201.24 5816.24 1194.61M5816.45 1194.78C5821.38 1193.64 5826.61 1194.02 5833.99 1193.06C5840.02 1192.28 5845.17 1194.44 5865.41 1197.67C5872.57 1198.81 5880.27 1202.59 5889.02 1206.67"
                          stroke="#918375" stroke-linecap="round"/>
                    <path id="01_060_013A060,01_062_014LOOP"
                          d="M6175.52 1083.09C6186.28 1071.98 6199.13 1070.05 6206.9 1067.33C6215.3 1064.39 6223.47 1058.68 6233.57 1053.54C6239.5 1048.97 6246.26 1043.53 6252.47 1038.66C6255.09 1036.48 6298.73 1003.33 6301.87 1001.67"
                          stroke="#918375" stroke-linecap="round"/>
                    <path id="01_059_013LOOP,01_060_013A060"
                          d="M6039.34 1203.85C6058.92 1197.65 6063.9 1189.7 6074.8 1182.91C6086.28 1175.76 6097.59 1165.86 6107.42 1156.69C6130.15 1135.49 6133.86 1127.44 6142.67 1119.32C6150.39 1112.19 6156.64 1102.56 6175.52 1083.09"
                          stroke="#918375" stroke-linecap="round"/>
                    <path id="01_057_056,01_079_057_BE004"
                          d="M5930.32 1047.83C5935.45 1041.92 5948.94 1030 5961.61 1012.18C5969.13 1001.6 5970.18 992.299 5971.97 976.364L5972.01 975.935C5976.13 939.29 5973.83 930.425 5975.12 921.746C5976.89 909.853 5982.06 902.317 5986.71 895.547L5986.76 895.479C5990.37 893.043 5993.87 887.677 5998.78 882.545L6005.9 875.1M6006.27 877.103C6001.65 872.591 6024.93 867.771 6043.89 861.379C6054.27 857.88 6065.89 858.888 6077.35 859.588C6083.48 859.962 6090.15 861.686 6102.64 865.555C6115.12 869.424 6133.2 875.72 6144.68 881.237"
                          stroke="#918375" stroke-linecap="round"/>
                    <path id="01_061_013B,01_079_057_BE004"
                          d="M6144.68 881.237C6133.2 875.72 6115.12 869.424 6102.63 865.555C6090.15 861.686 6083.48 859.962 6077.35 859.588C6065.88 858.888 6054.27 857.88 6043.89 861.379C6024.93 867.771 6001.65 872.591 6006.27 877.103C6012.25 882.949 6032.56 889.692 6036.54 901.837C6038.21 906.967 6039.89 912.645 6039.06 921.987C6038.21 931.388 6039 941.9 6041.44 950.091C6045.33 963.166 6060.35 995.201 6068.38 1009.12"
                          stroke="#918375" stroke-linecap="round"/>
                    <path id="01_059_013LOOP,01_061_013B"
                          d="M6068.93 1009.12C6076.87 1022.89 6078.41 1021.16 6081.69 1036.18C6084.89 1050.81 6087.09 1063.74 6084.68 1077.38C6081.13 1097.49 6079.16 1114.2 6076.74 1127.55C6073.02 1148.02 6069.18 1162.66 6067.79 1168.79C6066.27 1175.49 6062.56 1189.59 6062.56 1189.59C6061.67 1198.72 6040.98 1203.37 6040.98 1203.37"
                          stroke="#918375" stroke-linecap="round"/>
                    <path id="01_063_014A,01_066_061062"
                          d="M6492.15 549.169C6517.3 533.305 6536.77 561.075 6587.62 601.361C6609.71 618.864 6613.29 645.349 6617.95 663.595C6622.43 681.09 6634.47 700.431 6648.88 715.947C6661.62 727.067 6684.5 736.869 6712.1 746.178C6722.87 750.213 6728.32 750.319 6732.65 758.363"
                          stroke="#918375" stroke-linecap="round"/>
                    <path id="01_062_014LOOP,01_063_014A"
                          d="M6312.29 994.567C6340 976.938 6351.54 940.418 6364.69 908.508C6386.14 856.474 6397 783.98 6403.8 758.263C6406.67 747.43 6407.64 748.669 6416.97 713.643C6430.09 664.381 6439.91 609.286 6450.13 586.499C6460.74 562.855 6477.33 558.518 6492.15 549.169"
                          stroke="#918375" stroke-linecap="round"/>
                    <path id="01_064_014B,01_066_061062"
                          d="M6732.65 758.363C6728.32 750.32 6722.87 750.214 6712.1 746.179C6684.51 736.87 6672.91 732.019 6648.89 715.948C6624.86 699.877 6621.39 721.709 6614.38 736.883C6607.37 752.057 6581.33 748.771 6562.23 751.989C6543.14 755.206 6526.15 754.561 6507.95 752.077"
                          stroke="#918375" stroke-linecap="round"/>
                    <path id="01_062_014LOOP,01_064_014B"
                          d="M6312.29 994.568C6340 976.939 6351.54 940.418 6364.69 908.508C6386.14 856.475 6397 783.98 6403.8 758.263M6404.33 757.827C6406.19 755.245 6409.92 751.979 6420.16 747.915C6427.38 745.047 6439.66 743.528 6455.28 744.462C6470.91 745.396 6489.75 749.592 6507.95 752.076"
                          stroke="#918375" stroke-linecap="round"/>
                    <path id="01_065_014C,01_066_061062"
                          d="M6732.65 758.936C6689.9 746.909 6651.73 751.216 6637.29 773.727C6629.07 786.534 6620.29 797.144 6612.52 819.834C6604.75 842.524 6592.7 881.254 6583.25 906.531C6573.8 931.808 6567.32 942.459 6561.82 949.236C6556.31 956.014 6551.99 958.596 6544.05 960.572C6536.11 962.547 6524.68 963.838 6516.32 964.019"
                          stroke="#918375" stroke-linecap="round"/>
                    <path id="01_062_014LOOP,01_065_014C"
                          d="M6312.29 994.568C6340 976.939 6351.54 940.418 6364.69 908.509M6516.32 964.02C6503 964.308 6489.9 957.717 6474.33 947.32C6458.35 936.648 6451.77 924.767 6449.28 920.698C6443.72 911.618 6417.59 906.194 6406.23 905.661C6394.39 905.105 6388.14 914.957 6373.66 915.129C6370.65 915.164 6369.72 914.644 6369.09 913.994C6368.46 913.344 6368.15 912.375 6367.68 911.393C6367.21 910.41 6366.6 909.441 6365.96 907.466"
                          stroke="#918375" stroke-linecap="round"/>
                    <path id="01_066_061062,01_067_015LOOP"
                          d="M6732.88 759.147C6733.83 765.482 6738.32 784.283 6742.04 802.626C6743.08 807.777 6743.16 814.573 6744.13 824.635C6746.09 845.066 6744.77 849.895 6744.13 861.354C6743.83 866.72 6749.88 883.645 6752.93 888.844C6756.13 894.317 6763.34 903.991 6779.9 914.577C6788.26 919.924 6791.75 921.532 6803.39 928.371C6813.9 934.546 6834.46 944.862 6847.03 949.185C6859.6 953.507 6863.74 951.177 6867.15 948.645C6873.11 943.45 6877.64 938.044 6884.84 931.18"
                          stroke="#918375" stroke-linecap="round"/>
                    <path id="01_068_015A,01_071_063"
                          d="M7009.17 939.341C7037.87 962.066 7036.67 978.122 7038.56 986.468C7040.95 996.972 7041.23 1007.5 7042.37 1024.13C7043.95 1047.32 7044.27 1067.86 7046.91 1080.53C7050.3 1096.76 7056.8 1108.79 7059.83 1115.92C7061.37 1123.05 7064.39 1136.92 7068.76 1153.19C7070.49 1159.24 7071.24 1160.82 7072.02 1163.63"
                          stroke="#918375" stroke-linecap="round"/>
                    <path id="01_067_015LOOP,01_068_015A"
                          d="M6884.46 931.226C6904.2 908.757 6924.86 909.852 6942.09 911.621C6952.62 912.703 6966.46 916.929 6978.52 921.701C6990.58 926.472 7000.37 932.37 7009.17 939.34"
                          stroke="#918375" stroke-linecap="round"/>
                    <path id="01_067_015LOOP,01_069_015B"
                          d="M6878.74 936.391C6879.98 936.901 6887.96 946.795 6897.5 958.857C6901.47 963.88 6907.2 972.883 6910.76 978.722C6915.75 986.886 6920.81 997.086 6930.55 1010.94C6940.19 1024.64 6948.67 1029.37 6959.35 1032.1"
                          stroke="#918375" stroke-linecap="round"/>
                    <path id="01_069_015B,01_071_063"
                          d="M7046.91 1080.53C7050.3 1096.76 7056.79 1108.79 7059.83 1115.92C7061.37 1123.05 7064.39 1136.92 7068.75 1153.19C7070.49 1159.24 7071.24 1160.82 7072.01 1163.63M6959.35 1032.1C6969.27 1034.63 6989 1037.04 7000.72 1041.77C7014.91 1047.49 7020.24 1054.94 7025.87 1059.52C7030.27 1063.59 7045.7 1079.14 7046.7 1080.71"
                          stroke="#918375" stroke-linecap="round"/>
                    <path id="01_072_016LOOP,01_074_016B"
                          d="M7242.1 1448.76C7232.84 1448.76 7223.84 1448.76 7217.61 1447.55C7194.79 1431.96 7172.25 1404.81 7165.43 1387.27C7160.34 1366.81 7159.32 1354.96 7156.93 1346.67C7153.5 1334.77 7138.37 1331.46 7107.17 1289.37"
                          stroke="#918375" stroke-linecap="round"/>
                    <path id="01_071_063,01_072_016LOOP"
                          d="M7071.77 1160.41C7074.6 1166.3 7078.01 1181.7 7076.31 1209.23C7073.76 1250.66 7093.3 1270.66 7107.17 1289.37"
                          stroke="#918375" stroke-linecap="round"/>
                    <path id="01_067_015LOOP,01_070_015C_BE006"
                          d="M6878.99 937.627C6878.99 942.649 6864.26 960.508 6868.02 991.463C6872.08 1024.84 6854.91 1047.92 6853.05 1053.22C6847.55 1068.85 6838.34 1083.7 6832.15 1108.03C6825.6 1133.78 6838.24 1158.1 6847.11 1174.98C6856.27 1192.43 6873.57 1219.14 6882.74 1229.88C6888.05 1236.09 6898.81 1233.82 6910.84 1240.51C6919.48 1245.31 6926.15 1247.26 6930.15 1246.7"
                          stroke="#918375" stroke-linecap="round"/>
                    <path id="01_072_016LOOP,01_073_016A"
                          d="M7107.17 1289.37C7138.37 1331.46 7153.5 1334.77 7156.93 1346.67M7157.4 1345.31C7167.27 1343.02 7179.33 1332.94 7184.26 1329.84C7190.69 1325.81 7199.87 1309.44 7219.65 1309.43C7229.82 1309.43 7234.6 1315.1 7240.76 1323.06"
                          stroke="#918375" stroke-linecap="round"/>
                    <path id="01_073_016A,01_075_064_BE007"
                          d="M7240.77 1323.06C7261.58 1349.98 7260.84 1370.38 7274.4 1385.9C7292.05 1406.09 7313.74 1408.7 7325.39 1411.8C7330.58 1412.33 7337.02 1412.84 7344.43 1413.61C7347.91 1413.88 7350.85 1413.88 7353.88 1415.43C7354.85 1416.45 7359.98 1418.17 7371.98 1422.03C7389.53 1427.67 7412.05 1417.74 7429.25 1408.5C7443.06 1401.08 7451.47 1394.08 7459.82 1382.02C7466.95 1371.74 7470.65 1361.73 7480.47 1346.05C7484.9 1340.64 7494.69 1333.97 7508.44 1326.27C7514.4 1323.14 7518.3 1321.62 7522.31 1320.04"
                          stroke="#918375" stroke-linecap="round"/>
                    <path id="01_074_016B,01_075_064_BE007"
                          d="M7246.92 1449.38C7249.92 1447.8 7254.57 1448.86 7256.06 1447.83C7259.02 1446.28 7282.47 1446.4 7304.29 1436.37C7317.99 1430.07 7341.73 1416.61 7343.2 1414.03L7354.71 1415.28C7359.1 1416.43 7359.98 1418.17 7371.97 1422.03C7389.53 1427.67 7412.04 1417.74 7429.25 1408.5C7443.06 1401.08 7451.46 1394.08 7459.82 1382.02C7466.95 1371.74 7470.64 1361.73 7480.47 1346.05C7484.89 1340.64 7494.69 1333.97 7508.44 1326.27C7514.4 1323.14 7518.3 1321.62 7522.31 1320.04"
                          stroke="#918375" stroke-linecap="round"/>
                    <path id="01_073_016A,01_076_065"
                          d="M7240.77 1323.07C7261.58 1349.98 7260.84 1370.38 7274.4 1385.9C7292.05 1406.09 7313.74 1408.7 7325.39 1411.8C7330.58 1412.33 7337.02 1412.84 7344.43 1413.62C7347.91 1413.88 7350.85 1413.88 7353.88 1415.43C7354.85 1416.45 7359.98 1418.17 7371.98 1422.03L7373.9 1422.63C7376.83 1427.24 7405.2 1438.66 7417.53 1459.5C7423 1468.75 7426.39 1491.02 7437.66 1509.35"
                          stroke="#918375" stroke-linecap="round"/>
                    <path id="01_074_016B,01_076_065"
                          d="M7246.92 1449.38C7249.92 1447.8 7254.57 1448.86 7256.06 1447.83C7259.02 1446.28 7282.47 1446.4 7304.29 1436.37C7317.99 1430.07 7341.73 1416.61 7343.2 1414.04L7353.62 1415.28C7354.59 1416.3 7359.98 1418.17 7371.97 1422.03L7373.9 1422.73M7373.9 1422.63C7376.83 1427.24 7405.2 1438.66 7417.52 1459.5C7423 1468.75 7426.38 1491.02 7437.65 1509.35L7444.05 1517.8"
                          stroke="#918375" stroke-linecap="round"/>
                    <path id="01_078_066,01_082_068"
                          d="M7764.67 1614.02C7768.25 1610.93 7783.22 1603.39 7790.63 1599.17C7798.05 1594.95 7816.09 1593.44 7825.14 1589.39C7827.67 1587.63 7837.05 1582.55 7845.92 1578.76"
                          stroke="#918375" stroke-linecap="round"/>
                    <path id="01_077_QTE2LOOP,01_078_066"
                          d="M7647.89 1682.12C7675.38 1687.37 7697.87 1689.47 7710.13 1685.71C7720.08 1682.67 7723.72 1675.78 7736.76 1649.16C7749.14 1623.87 7757.65 1621.15 7762.48 1616.31"
                          stroke="#918375" stroke-linecap="round"/>
                    <path id="01_085_066,01_077_QTE2LOOP"
                          d="M7569.87 1606.84C7573.21 1614.32 7579.15 1624.91 7588 1647.6C7593.97 1662.92 7606.61 1670.86 7617.54 1676.15C7624.33 1679.44 7635.18 1679.7 7647.89 1682.12"
                          stroke="#918375" stroke-linecap="round"/>
                    <path id="01_084_017LOOP,01_085_066"
                          d="M7513.66 1560.65C7524.57 1569.96 7555.24 1589.81 7563.1 1597.26C7565.08 1599.07 7567.92 1602.46 7569.87 1606.84"
                          stroke="#918375" stroke-linecap="round"/>
                    <path id="01_076_065,01_084_017LOOP"
                          d="M7443.5 1517.23C7454.46 1535.05 7472.55 1535.84 7489.24 1544.55C7502.45 1551.45 7495.46 1549.87 7513.65 1560.65"
                          stroke="#918375" stroke-linecap="round"/>
                    <path id="01_081_067,01_083_069079"
                          d="M7836.37 1486.03C7849.36 1483.28 7873.31 1493.69 7894.23 1508.06C7898.31 1510.54 7899.56 1510.97 7902.93 1510.32C7906.3 1509.67 7911.99 1507.11 7917.6 1505.31C7943.08 1489.57 7953.49 1474.36 7959.74 1461.3C7967.94 1444.19 7971.22 1428.62 7972.01 1422.1"
                          stroke="#918375" stroke-linecap="round"/>
                    <path id="01_082_068,01_083_069079"
                          d="M7845.93 1578.76C7850.99 1571.46 7859.78 1547.45 7873.46 1532.1C7884.86 1519.3 7893.39 1510.69 7894.23 1508.06C7898.31 1510.54 7899.56 1510.97 7902.93 1510.32C7906.3 1509.67 7911.99 1507.11 7917.6 1505.31C7943.07 1489.57 7953.49 1474.36 7959.74 1461.3C7967.94 1444.19 7971.22 1428.62 7972.01 1422.1"
                          stroke="#918375" stroke-linecap="round"/>
                    <path id="01_083_069079,02_001_001002003004"
                          d="M7972.01 1422.1C7974.62 1400.3 7984.74 1367.73 7992.03 1357.6C7999.14 1347.72 8031.85 1337.71 8046.93 1333.38"
                          stroke="#918375" stroke-linecap="round"/>
                    <path id="01_078_066,01_081_067"
                          d="M7763.89 1614.79C7763.89 1613.92 7773.1 1598.16 7789.77 1566C7806.77 1533.21 7808.7 1510.56 7809.75 1506.38C7810.74 1502.46 7812.5 1499.51 7814.6 1496.65C7821.46 1487.29 7831.08 1487.15 7836.37 1486.03"
                          stroke="#918375" stroke-linecap="round"/>
                    <path id="01_047_044,01_048_011LOOP"
                          d="M4916.62 1447.15C4924.39 1448.04 4932.18 1451.66 4944.69 1459.56C4958.59 1468.34 4971.16 1467.51 4975.04 1466.39C4995.24 1460.56 5014.87 1447.18 5026.54 1439.05C5045.92 1425.55 5057.27 1404.26 5063.17 1394.02C5067.49 1386.53 5070.72 1368.56 5074.21 1350.61C5077.12 1335.63 5082.84 1321.91 5097.04 1297.82"
                          stroke="#918375" stroke-linecap="round"/>
                    <path id="01_048_011LOOP,01_049_011A"
                          d="M5097.05 1297.82C5106.57 1281.67 5124.11 1259.84 5134.01 1245.16C5147.61 1225 5150.84 1210.59 5153.44 1197.27C5157.24 1177.8 5161.65 1164.88 5171.38 1154.23C5177.21 1149.49 5182.01 1146.28 5185.25 1144.48C5186.78 1143.57 5188.07 1142.67 5189.39 1141.75"
                          stroke="#918375" stroke-linecap="round"/>
                    <path id="01_001_001,01_002_001LOOP"
                          d="M415.002 1157.43C419.76 1160.74 439.655 1167.42 467.276 1174.54C490.841 1180.62 518.228 1152.46 534.279 1139.49C552.963 1124.39 567.102 1116.5 578.36 1107.65C590.428 1098.16 604.779 1079.64 613.61 1066.67C622.654 1053.39 623.233 1036.15 626.045 1013.57C629.071 989.254 636.833 979.204 645.64 971.232C658.296 959.775 674.462 946.562 682.091 935.25C687.576 927.118 713.335 921.018 731.421 924.455"
                          stroke="#918375" stroke-linecap="round"/>
                    <path id="01_004_001B,01_005_002003004"
                          d="M1026.28 768.101C1031.76 774.973 1045.43 789.722 1053.69 796.737M902.42 839.119C912.008 830.276 904.318 837.738 915.155 828.536C930.224 815.739 955.546 804.293 979.983 790.043C994.857 784.155 1003.94 779.995 1014.78 774.973C1017.59 774.12 1023 771.537 1025.74 768.673"
                          stroke="#918375" stroke-linecap="round"/>
                    <path id="01_002_001LOOP,01_004_001B"
                          d="M731.969 924.455C755.536 924.455 788.164 908.898 814.163 900.926C841.221 892.629 866.545 868.874 883.521 853.218C893.11 844.376 894.871 845.457 905.708 836.255"
                          stroke="#918375" stroke-linecap="round"/>
                </g>
                <g id="Group 139">
                    <g id="01_002_001LOOP">
                        <text id="01_002_001LOOP_2" fill="#2BFF00" xml:space="preserve" style="white-space: pre"
                              font-family="Inter" font-size="10" letter-spacing="0em"><tspan x="668.344" y="953.945">01_002_001LOOP</tspan></text>
                    </g>
                    <g id="01_001_001">
                        <text id="01_001_001_2" fill="#2BFF00" xml:space="preserve" style="white-space: pre"
                              font-family="Inter" font-size="10" letter-spacing="0em"><tspan x="412.213" y="1162.42">01_001_001</tspan></text>
                    </g>
                    <g id="01_006_002LOOP">
                        <text id="01_006_002LOOP_2" fill="#2BFF00" xml:space="preserve" style="white-space: pre"
                              font-family="Inter" font-size="10" letter-spacing="0em"><tspan x="1190.11" y="873.764">01_006_002LOOP</tspan></text>
                    </g>
                    <g id="01_011_003LOOP">
                        <text id="01_011_003LOOP_2" fill="#2BFF00" xml:space="preserve" style="white-space: pre"
                              font-family="Inter" font-size="10" letter-spacing="0em"><tspan x="1892.74" y="658.419">01_011_003LOOP</tspan></text>
                    </g>
                    <g id="01_014_004LOOP">
                        <text id="01_014_004LOOP_2" fill="#2BFF00" xml:space="preserve" style="white-space: pre"
                              font-family="Inter" font-size="10" letter-spacing="0em"><tspan x="2381.63" y="920.727">01_014_004LOOP</tspan></text>
                    </g>
                    <g id="01_019_005LOOP">
                        <text id="01_019_005LOOP_2" fill="#2BFF00" xml:space="preserve" style="white-space: pre"
                              font-family="Inter" font-size="10" letter-spacing="0em"><tspan x="2913.26" y="1184.18">01_019_005LOOP</tspan></text>
                    </g>
                    <g id="01_027_007LOOP">
                        <text id="01_027_007LOOP_2" fill="#2BFF00" xml:space="preserve" style="white-space: pre"
                              font-family="Inter" font-size="10" letter-spacing="0em"><tspan x="3327.6" y="1299.87">01_027_007LOOP</tspan></text>
                    </g>
                    <g id="01_028_007A021_BE001">
                        <text id="01_028_007A021_BE001_2" fill="#FF0000" xml:space="preserve" style="white-space: pre"
                              font-family="Inter" font-size="10" letter-spacing="0em"><tspan x="3561.71" y="1252.44">01_028_007A021_BE001</tspan></text>
                        <ellipse id="01_028_007A021_BE001_3" cx="3561.15" cy="1242.24" rx="1.68422" ry="1.67738"
                                 fill="#FFA000"/>
                    </g>
                    <g id="01_080_029_BE002">
                        <text id="01_080_029_BE002_2" fill="#FF0000" xml:space="preserve" style="white-space: pre"
                              font-family="Inter" font-size="10" letter-spacing="0em"><tspan x="4142.67" y="1395.62">01_080_029_BE002</tspan></text>
                        <ellipse id="01_080_029_BE002_3" cx="4142.11" cy="1385.42" rx="1.68422" ry="1.67738"
                                 fill="#FFA000"/>
                    </g>
                    <g id="01_053_012A_HE002">
                        <text id="01_053_012A_HE002_2" fill="#FF0000" xml:space="preserve" style="white-space: pre"
                              font-family="Inter" font-size="10" letter-spacing="0em"><tspan x="5705.78" y="908.802">01_053_012A_HE002</tspan></text>
                    </g>
                    <g id="01_079_057_BE004">
                        <text id="01_079_057_BE004_2" fill="#FF0000" xml:space="preserve" style="white-space: pre"
                              font-family="Inter" font-size="10" letter-spacing="0em"><tspan x="6178.22" y="895.056">01_079_057_BE004</tspan></text>
                        <ellipse id="01_079_057_BE004_3" cx="6177.66" cy="884.861" rx="1.68422" ry="1.67738"
                                 fill="#FFA000"/>
                    </g>
                    <g id="01_070_015C_BE006">
                        <text id="01_070_015C_BE006_2" fill="#FF0000" xml:space="preserve" style="white-space: pre"
                              font-family="Inter" font-size="10" letter-spacing="0em"><tspan x="6957.58" y="1258.17">01_070_015C_BE006</tspan></text>
                        <ellipse id="01_070_015C_BE006_3" cx="6957.02" cy="1247.97" rx="1.68422" ry="1.67738"
                                 fill="#FFA000"/>
                    </g>
                    <g id="01_075_064_BE007">
                        <text id="01_075_064_BE007_2" fill="#FF0000" xml:space="preserve" style="white-space: pre"
                              font-family="Inter" font-size="10" letter-spacing="0em"><tspan x="7557.17" y="1320.02">01_075_064_BE007</tspan></text>
                        <ellipse id="01_075_064_BE007_3" cx="7556.61" cy="1309.82" rx="1.68422" ry="1.67738"
                                 fill="#FFA000"/>
                    </g>
                    <g id="01_054_012B053054_HE003">
                        <text id="01_054_012B053054_HE003_2" fill="#FF0000" xml:space="preserve"
                              style="white-space: pre" font-family="Inter" font-size="10" letter-spacing="0em"><tspan x="5705.78" y="1113.84">01_054_012B053054_HE003</tspan></text>
                    </g>
                    <g id="01_056_047048_BE003">
                        <text id="01_056_047048_BE003_2" fill="#FF0000" xml:space="preserve" style="white-space: pre"
                              font-family="Inter" font-size="10" letter-spacing="0em"><tspan x="5710.16" y="1494.13">01_056_047048_BE003</tspan></text>
                        <ellipse id="01_056_047048_BE003_3" cx="5709.6" cy="1483.93" rx="1.68422" ry="1.67738"
                                 fill="#FFA000"/>
                    </g>
                    <g id="01_032_032033034035036_HE001">
                        <text id="01_032_032033034035036_HE001_2" fill="#FF0000" xml:space="preserve"
                              style="white-space: pre" font-family="Inter" font-size="10" letter-spacing="0em"><tspan x="4277.5" y="1510.17">01_032_032033034035036_HE001</tspan></text>
                        <ellipse id="01_032_032033034035036_HE001_3" cx="4276.94" cy="1499.97" rx="1.68422" ry="1.67738"
                                 fill="#FFA000"/>
                    </g>
                    <g id="01_031_028">
                        <text id="01_031_028_2" fill="#2BFF00" xml:space="preserve" style="white-space: pre"
                              font-family="Inter" font-size="10" letter-spacing="0em"><tspan x="3791.27" y="1485.44">01_031_028</tspan></text>
                    </g>
                    <g id="01_023_006LOOP">
                        <text id="01_023_006LOOP_2" fill="#2BFF00" xml:space="preserve" style="white-space: pre"
                              font-family="Inter" font-size="10" letter-spacing="0em"><tspan x="3374.73" y="853.145">01_023_006LOOP</tspan></text>
                    </g>
                    <g id="01_034_008LOOP">
                        <text id="01_034_008LOOP_2" fill="#2BFF00" xml:space="preserve" style="white-space: pre"
                              font-family="Inter" font-size="10" letter-spacing="0em"><tspan x="3724.4" y="898.964">01_034_008LOOP</tspan></text>
                    </g>
                    <g id="01_039_009LOOP">
                        <text id="01_039_009LOOP_2" fill="#2BFF00" xml:space="preserve" style="white-space: pre"
                              font-family="Inter" font-size="10" letter-spacing="0em"><tspan x="4155.2" y="904.691">01_039_009LOOP</tspan></text>
                    </g>
                    <g id="01_043_010LOOP">
                        <text id="01_043_010LOOP_2" fill="#2BFF00" xml:space="preserve" style="white-space: pre"
                              font-family="Inter" font-size="10" letter-spacing="0em"><tspan x="4539.21" y="1359.44">01_043_010LOOP</tspan></text>
                    </g>
                    <g id="01_048_011LOOP">
                        <text id="01_048_011LOOP_2" fill="#2BFF00" xml:space="preserve" style="white-space: pre"
                              font-family="Inter" font-size="10" letter-spacing="0em"><tspan x="5081.43" y="1328.51">01_048_011LOOP</tspan></text>
                    </g>
                    <g id="01_052_012LOOP">
                        <text id="01_052_012LOOP_2" fill="#2BFF00" xml:space="preserve" style="white-space: pre"
                              font-family="Inter" font-size="10" letter-spacing="0em"><tspan x="5326.97" y="832.528">01_052_012LOOP</tspan></text>
                    </g>
                    <g id="01_053_012A">
                        <text id="01_053_012A_2" fill="#2BFF00" xml:space="preserve" style="white-space: pre"
                              font-family="Inter" font-size="10" letter-spacing="0em"><tspan x="5538.53" y="908.128">01_053_012A</tspan></text>
                    </g>
                    <g id="01_054_012B053054">
                        <text id="01_054_012B053054_2" fill="#2BFF00" xml:space="preserve" style="white-space: pre"
                              font-family="Inter" font-size="10" letter-spacing="0em"><tspan x="5542.92" y="1114.31">01_054_012B053054</tspan></text>
                    </g>
                    <g id="01_055_046055">
                        <text id="01_055_046055_2" fill="#2BFF00" xml:space="preserve" style="white-space: pre"
                              font-family="Inter" font-size="10" letter-spacing="0em"><tspan x="5619.64" y="1323.93">01_055_046055</tspan></text>
                    </g>
                    <g id="01_059_013LOOP">
                        <text id="01_059_013LOOP_2" fill="#2BFF00" xml:space="preserve" style="white-space: pre"
                              font-family="Inter" font-size="10" letter-spacing="0em"><tspan x="6047.51" y="1209.85">01_059_013LOOP</tspan></text>
                    </g>
                    <g id="01_062_014LOOP">
                        <text id="01_062_014LOOP_2" fill="#2BFF00" xml:space="preserve" style="white-space: pre"
                              font-family="Inter" font-size="10" letter-spacing="0em"><tspan x="6312.78" y="1003.67">01_062_014LOOP</tspan></text>
                    </g>
                    <g id="01_067_015LOOP">
                        <text id="01_067_015LOOP_2" fill="#2BFF00" xml:space="preserve" style="white-space: pre"
                              font-family="Inter" font-size="10" letter-spacing="0em"><tspan x="6844.41" y="941.818">01_067_015LOOP</tspan></text>
                    </g>
                    <g id="01_072_016LOOP">
                        <text id="01_072_016LOOP_2" fill="#2BFF00" xml:space="preserve" style="white-space: pre"
                              font-family="Inter" font-size="10" letter-spacing="0em"><tspan x="7098.71" y="1285.45">01_072_016LOOP</tspan></text>
                    </g>
                    <g id="01_077_QTE2LOOP">
                        <text id="01_077_QTE2LOOP_2" fill="#2BFF00" xml:space="preserve" style="white-space: pre"
                              font-family="Inter" font-size="10" letter-spacing="0em"><tspan x="7644.6" y="1692.09">01_077_QTE2LOOP</tspan></text>
                    </g>
                </g>
                <g id="Group 140">
                    <g id="01_004_001B">
                        <circle id="Ellipse 33" cx="906.939" cy="837.236" r="1" fill="#FF0000"/>
                    </g>
                    <g id="01_003_001A">
                        <circle id="Ellipse 33_2" cx="870.766" cy="702.073" r="1" fill="#FF0000"/>
                    </g>
                    <g id="01_005_002003004">
                        <circle id="Ellipse 33_3" cx="1056.01" cy="797.146" r="1" fill="#FF0000"/>
                    </g>
                    <g id="01_007_002A">
                        <circle id="Ellipse 33_4" cx="1502.15" cy="708.946" r="1" fill="#FF0000"/>
                    </g>
                    <g id="01_008_002B">
                        <circle id="Ellipse 33_5" cx="1520.78" cy="818.908" r="1" fill="#FF0000"/>
                    </g>
                    <g id="01_009_002C">
                        <circle id="Ellipse 33_6" cx="1565.72" cy="944.908" r="1" fill="#FF0000"/>
                    </g>
                    <g id="01_010_005006">
                        <circle id="Ellipse 33_7" cx="1729.05" cy="562.328" r="1" fill="#FF0000"/>
                    </g>
                    <g id="01_012_003A007">
                        <circle id="Ellipse 33_8" cx="2208.07" cy="742.164" r="1" fill="#FF0000"/>
                    </g>
                    <g id="01_013_003B007">
                        <circle id="Ellipse 33_9" cx="2182.86" cy="877.328" r="1" fill="#FF0000"/>
                    </g>
                    <g id="01_015_004A">
                        <circle id="Ellipse 33_10" cx="2614.74" cy="1067.47" r="1" fill="#FF0000"/>
                    </g>
                    <g id="01_016_004B">
                        <circle id="Ellipse 33_11" cx="2703.52" cy="1130.47" r="1" fill="#FF0000"/>
                    </g>
                    <g id="01_017_004C">
                        <circle id="Ellipse 33_12" cx="2678.31" cy="1202.64" r="1" fill="#FF0000"/>
                    </g>
                    <g id="01_018_008009010011012">
                        <circle id="Ellipse 33_13" cx="2813.14" cy="1129.33" r="1" fill="#FF0000"/>
                    </g>
                    <g id="01_021_005B">
                        <circle id="Ellipse 33_14" cx="3122.25" cy="1258.76" r="1" fill="#FF0000"/>
                    </g>
                    <g id="01_026_020">
                        <circle id="Ellipse 33_15" cx="3213.6" cy="1321.09" r="1" fill="#FF0000"/>
                    </g>
                    <g id="01_028_007A021_BE001_4">
                        <circle id="Ellipse 33_16" cx="3476.68" cy="1238.62" r="1" fill="#FF0000"/>
                    </g>
                    <g id="01_029_007B">
                        <circle id="Ellipse 33_17" cx="3515.77" cy="1384.76" r="1" fill="#FF0000"/>
                    </g>
                    <g id="01_030_027">
                        <circle id="Ellipse 33_18" cx="3640.73" cy="1422.56" r="1" fill="#FF0000"/>
                    </g>
                    <g id="01_031_028_3">
                        <circle id="Ellipse 33_19" cx="3882.98" cy="1420.27" r="1" fill="#FF0000"/>
                    </g>
                    <g id="01_080_029_BE002_4">
                        <circle id="Ellipse 33_20" cx="4062.75" cy="1393.93" r="1" fill="#FF0000"/>
                    </g>
                    <g id="01_032_032033034035036_HE001_4">
                        <circle id="Ellipse 33_21" cx="4176.75" cy="1509.62" r="1" fill="#FF0000"/>
                    </g>
                    <g id="01_020_005A">
                        <circle id="Ellipse 33_22" cx="3123.35" cy="1037.69" r="1" fill="#FF0000"/>
                    </g>
                    <g id="01_022_013014015016017018">
                        <circle id="Ellipse 33_23" cx="3204.46" cy="950.637" r="1" fill="#FF0000"/>
                    </g>
                    <g id="01_024_006A019">
                        <circle id="Ellipse 33_24" cx="3526.73" cy="716.964" r="1" fill="#FF0000"/>
                    </g>
                    <g id="01_033_037038">
                        <circle id="Ellipse 33_25" cx="3669.23" cy="797.146" r="1" fill="#FF0000"/>
                    </g>
                    <g id="01_035_008A">
                        <circle id="Ellipse 33_26" cx="3865.44" cy="954.072" r="1" fill="#FF0000"/>
                    </g>
                    <g id="01_036_008B">
                        <circle id="Ellipse 33_27" cx="3798.58" cy="1127.04" r="1" fill="#FF0000"/>
                    </g>
                    <g id="01_037_008C">
                        <circle id="Ellipse 33_28" cx="3783.23" cy="1231.27" r="1" fill="#FF0000"/>
                    </g>
                    <g id="01_038_039">
                        <circle id="Ellipse 33_29" cx="4046.3" cy="1028.53" r="1" fill="#FF0000"/>
                    </g>
                    <g id="01_040_009A040">
                        <circle id="Ellipse 33_30" cx="4366.38" cy="1020.51" r="1" fill="#FF0000"/>
                    </g>
                    <g id="01_041_009B040">
                        <circle id="Ellipse 33_31" cx="4342.27" cy="1210.65" r="1" fill="#FF0000"/>
                    </g>
                    <g id="01_042_041042043">
                        <circle id="Ellipse 33_32" cx="4433.25" cy="1223.25" r="1" fill="#FF0000"/>
                    </g>
                    <g id="01_045_010B">
                        <circle id="Ellipse 33_33" cx="4714.96" cy="1340.09" r="1" fill="#FF0000"/>
                    </g>
                    <g id="01_044_010A">
                        <circle id="Ellipse 33_34" cx="4724.82" cy="1231.27" r="1" fill="#FF0000"/>
                    </g>
                    <g id="01_046_010C">
                        <circle id="Ellipse 33_35" cx="4694.13" cy="1442.04" r="1" fill="#FF0000"/>
                    </g>
                    <g id="01_047_044">
                        <circle id="Ellipse 33_36" cx="4916.65" cy="1439.75" r="1" fill="#FF0000"/>
                    </g>
                    <g id="01_049_011A">
                        <circle id="Ellipse 33_37" cx="5190.68" cy="1139.64" r="1" fill="#FF0000"/>
                    </g>
                    <g id="01_051_049_050052">
                        <circle id="Ellipse 33_38" cx="5247.68" cy="994.163" r="1" fill="#FF0000"/>
                    </g>
                    <g id="01_025_006B019">
                        <circle id="Ellipse 33_39" cx="3526.73" cy="954.072" r="1" fill="#FF0000"/>
                    </g>
                    <g id="01_050_011B045">
                        <circle id="Ellipse 33_40" cx="5276.18" cy="1206.07" r="1" fill="#FF0000"/>
                    </g>
                    <g id="01_056_047048_BE003_4">
                        <circle id="Ellipse 33_41" cx="5569.95" cy="1479.84" r="1" fill="#FF0000"/>
                    </g>
                    <g id="01_055_046055_3">
                        <circle id="Ellipse 33_42" cx="5649.24" cy="1302.76" r="1" fill="#FF0000"/>
                    </g>
                    <g id="01_057_056">
                        <circle id="Ellipse 33_43" cx="5930.59" cy="1051.44" r="1" fill="#FF0000"/>
                    </g>
                    <g id="01_058_058">
                        <circle id="Ellipse 33_44" cx="5894.41" cy="1209.51" r="1" fill="#FF0000"/>
                    </g>
                    <g id="01_061_013B">
                        <circle id="Ellipse 33_45" cx="6070.89" cy="1010.2" r="1" fill="#FF0000"/>
                    </g>
                    <g id="01_079_057_BE004_4">
                        <circle id="Ellipse 33_46" cx="6091.72" cy="862.437" r="1" fill="#FF0000"/>
                    </g>
                    <g id="01_060_013A060">
                        <circle id="Ellipse 33_47" cx="6180.88" cy="1079.4" r="1" fill="#FF0000"/>
                    </g>
                    <g id="01_065_014C">
                        <circle id="Ellipse 33_48" cx="6522.5" cy="964.382" r="1" fill="#FF0000"/>
                    </g>
                    <g id="01_063_014A">
                        <circle id="Ellipse 33_49" cx="6501.68" cy="544" r="1" fill="#FF0000"/>
                    </g>
                    <g id="01_064_014B">
                        <circle id="Ellipse 33_50" cx="6514.1" cy="751.799" r="1" fill="#FF0000"/>
                    </g>
                    <g id="01_066_061062">
                        <circle id="Ellipse 33_51" cx="6732.96" cy="758.2" r="1" fill="#FF0000"/>
                    </g>
                    <g id="01_068_015A">
                        <circle id="Ellipse 33_52" cx="7009.56" cy="937.363" r="1" fill="#FF0000"/>
                    </g>
                    <g id="01_069_015B">
                        <circle id="Ellipse 33_53" cx="6956.95" cy="1030.82" r="1" fill="#FF0000"/>
                    </g>
                    <g id="01_070_015C_BE006_4">
                        <circle id="Ellipse 33_54" cx="6846.96" cy="1171.71" r="1" fill="#FF0000"/>
                    </g>
                    <g id="01_071_063">
                        <circle id="Ellipse 33_55" cx="7070.58" cy="1157.96" r="1" fill="#FF0000"/>
                    </g>
                    <g id="01_073_016A">
                        <circle id="Ellipse 33_56" cx="7244.14" cy="1323.38" r="1" fill="#FF0000"/>
                    </g>
                    <g id="01_074_016B">
                        <circle id="Ellipse 33_57" cx="7242.67" cy="1448.91" r="1" fill="#FF0000"/>
                    </g>
                    <g id="01_075_064_BE007_4">
                        <circle id="Ellipse 33_58" cx="7460.8" cy="1381.33" r="1" fill="#FF0000"/>
                    </g>
                    <g id="01_083_069079">
                        <circle id="Ellipse 33_59" cx="7973.08" cy="1413.4" r="1" fill="#FF0000"/>
                    </g>
                    <g id="01_076_065">
                        <circle id="Ellipse 33_60" cx="7444.36" cy="1517.64" r="1" fill="#FF0000"/>
                    </g>
                    <g id="01_084_017LOOP">
                        <circle id="Ellipse 33_61" cx="7514.89" cy="1559.34" r="1" fill="#FF0000"/>
                    </g>
                    <g id="01_085_066">
                        <circle id="Ellipse 33_62" cx="7565.31" cy="1600.58" r="1" fill="#FF0000"/>
                    </g>
                    <g id="01_081_067">
                        <circle id="Ellipse 33_63" cx="7832.4" cy="1486.71" r="1" fill="#FF0000"/>
                    </g>
                    <g id="01_078_066">
                        <circle id="Ellipse 33_64" cx="7763.34" cy="1613.85" r="1" fill="#FF0000"/>
                    </g>
                    <g id="01_082_068">
                        <circle id="Ellipse 33_65" cx="7845.92" cy="1578.34" r="1" fill="#FF0000"/>
                    </g>
                </g>
                <g id="chapter0">
                    <ellipse id="Ellipse" cx="312.063" cy="1156.65" rx="1.06271" ry="1.64557" fill="#00FFAA"/>
                </g>
                <g id="chapter2">
                    <ellipse id="Ellipse_2" cx="8058.06" cy="1333.65" rx="1.06271" ry="1.64557" fill="#FF00EA"/>
                </g>
            </g>
        </g>
    </g>
</svg>
