<svg width="8179" height="2154" viewBox="0 0 8179 2154" fill="none" xmlns="http://www.w3.org/2000/svg">
    <g id="&#231;&#172;&#172;&#228;&#186;&#140;&#231;&#171;&#160;frame" clip-path="url(#clip0_2061_8430)">
        <g id="Frame 96">
            <g id="dot">
                <g id="02_003_001A">
                    <circle id="Ellipse 33" cx="1229" cy="927" r="1" fill="#FF0000"/>
                </g>
                <g id="02_004_001B">
                    <circle id="Ellipse 33_2" cx="1240" cy="1088" r="1" fill="#FF0000"/>
                </g>
                <g id="02_005_005006">
                    <circle id="Ellipse 33_3" cx="1330" cy="1022" r="1" fill="#FF0000"/>
                </g>
                <g id="02_007_002A">
                    <circle id="Ellipse 33_4" cx="1635" cy="629" r="1" fill="#FF0000"/>
                </g>
                <g id="02_008_002B">
                    <circle id="Ellipse 33_5" cx="1640" cy="797" r="1" fill="#FF0000"/>
                </g>
                <g id="02_010_009">
                    <circle id="Ellipse 33_6" cx="2035" cy="1004" r="1" fill="#FF0000"/>
                </g>
                <g id="02_011_010015016">
                    <circle id="Ellipse 33_7" cx="2009" cy="1191" r="1" fill="#FF0000"/>
                </g>
                <g id="02_015_011012">
                    <circle id="Ellipse 33_8" cx="2385" cy="697" r="1" fill="#FF0000"/>
                </g>
                <g id="02_013_003A">
                    <circle id="Ellipse 33_9" cx="2259" cy="800" r="1" fill="#FF0000"/>
                </g>
                <g id="02_017_004A">
                    <circle id="Ellipse 33_10" cx="2730" cy="362" r="1" fill="#FF0000"/>
                </g>
                <g id="02_018_004B">
                    <circle id="Ellipse 33_11" cx="2744" cy="488" r="1" fill="#FF0000"/>
                </g>
                <g id="02_014_003B">
                    <circle id="Ellipse 33_12" cx="2358" cy="889" r="1" fill="#FF0000"/>
                </g>
                <g id="02_019_013014">
                    <circle id="Ellipse 33_13" cx="2555" cy="955" r="1" fill="#FF0000"/>
                </g>
                <g id="02_021_005A">
                    <circle id="Ellipse 33_14" cx="2865" cy="751" r="1" fill="#FF0000"/>
                </g>
                <g id="02_022_005B">
                    <circle id="Ellipse 33_15" cx="2920" cy="905" r="1" fill="#FF0000"/>
                </g>
                <g id="02_023_005C">
                    <circle id="Ellipse 33_16" cx="2950" cy="975" r="1" fill="#FF0000"/>
                </g>
                <g id="02_025_006A">
                    <circle id="Ellipse 33_17" cx="2657" cy="1195" r="1" fill="#FF0000"/>
                </g>
                <g id="02_026_006B">
                    <circle id="Ellipse 33_18" cx="2544" cy="1348" r="1" fill="#FF0000"/>
                </g>
                <g id="02_028_018">
                    <circle id="Ellipse 33_19" cx="3397" cy="726" r="1" fill="#FF0000"/>
                </g>
                <g id="02_029_019">
                    <circle id="Ellipse 33_20" cx="3398" cy="848" r="1" fill="#FF0000"/>
                </g>
                <g id="02_030_020">
                    <circle id="Ellipse 33_21" cx="3505" cy="851" r="1" fill="#FF0000"/>
                </g>
                <g id="02_032_007A021">
                    <circle id="Ellipse 33_22" cx="3771" cy="736" r="1" fill="#FF0000"/>
                </g>
                <g id="02_035_022">
                    <circle id="Ellipse 33_23" cx="3901" cy="436" r="1" fill="#FF0000"/>
                </g>
                <g id="02_036_QTE2">
                    <circle id="Ellipse 33_24" cx="4055" cy="691" r="1" fill="#FF0000"/>
                </g>
                <g id="02_037_023">
                    <circle id="Ellipse 33_25" cx="4233" cy="635" r="1" fill="#FF0000"/>
                </g>
                <g id="02_038_025">
                    <circle id="Ellipse 33_26" cx="4220" cy="771" r="1" fill="#FF0000"/>
                </g>
                <g id="02_039_024">
                    <circle id="Ellipse 33_27" cx="4261" cy="900" r="1" fill="#FF0000"/>
                </g>
                <g id="02_041_027QTE3">
                    <circle id="Ellipse 33_28" cx="4496" cy="862" r="1" fill="#FF0000"/>
                </g>
                <g id="02_042_028">
                    <circle id="Ellipse 33_29" cx="4585" cy="803" r="1" fill="#FF0000"/>
                </g>
                <g id="02_043_029">
                    <circle id="Ellipse 33_30" cx="4545" cy="959" r="1" fill="#FF0000"/>
                </g>
                <g id="02_044_030QTE4">
                    <circle id="Ellipse 33_31" cx="4647" cy="1064" r="1" fill="#FF0000"/>
                </g>
                <g id="02_047_QTE5">
                    <circle id="Ellipse 33_32" cx="4850" cy="1032" r="1" fill="#FF0000"/>
                </g>
                <g id="02_046_032033">
                    <circle id="Ellipse 33_33" cx="4752" cy="1199" r="1" fill="#FF0000"/>
                </g>
                <g id="02_045_031">
                    <circle id="Ellipse 33_34" cx="4872" cy="780" r="1" fill="#FF0000"/>
                </g>
                <g id="02_049_035">
                    <circle id="Ellipse 33_35" cx="4940" cy="1244" r="1" fill="#FF0000"/>
                </g>
                <g id="02_048_034">
                    <circle id="Ellipse 33_36" cx="4980" cy="1097" r="1" fill="#FF0000"/>
                </g>
                <g id="02_051_037">
                    <circle id="Ellipse 33_37" cx="5425" cy="817" r="1" fill="#FF0000"/>
                </g>
                <g id="02_050_036">
                    <circle id="Ellipse 33_38" cx="5425" cy="617" r="1" fill="#FF0000"/>
                </g>
                <g id="02_033_007B039">
                    <circle id="Ellipse 33_39" cx="3966" cy="884" r="1" fill="#FF0000"/>
                </g>
                <g id="02_054_008A">
                    <circle id="Ellipse 33_40" cx="4420" cy="1185" r="1" fill="#FF0000"/>
                </g>
                <g id="02_055_008B">
                    <circle id="Ellipse 33_41" cx="4534" cy="1594" r="1" fill="#FF0000"/>
                </g>
                <g id="02_056_040">
                    <circle id="Ellipse 33_42" cx="5599" cy="1070" r="1" fill="#FF0000"/>
                </g>
                <g id="02_058_009A">
                    <circle id="Ellipse 33_43" cx="5945" cy="1140" r="1" fill="#FF0000"/>
                </g>
                <g id="02_059_009B">
                    <circle id="Ellipse 33_44" cx="5944" cy="1310" r="1" fill="#FF0000"/>
                </g>
                <g id="02_060_041">
                    <circle id="Ellipse 33_45" cx="6071" cy="1371" r="1" fill="#FF0000"/>
                </g>
                <g id="02_062_010A">
                    <circle id="Ellipse 33_46" cx="6358" cy="1110" r="1" fill="#FF0000"/>
                </g>
                <g id="02_063_010B">
                    <circle id="Ellipse 33_47" cx="6380" cy="1257" r="1" fill="#FF0000"/>
                </g>
                <g id="02_064_010C">
                    <circle id="Ellipse 33_48" cx="6396" cy="1345" r="1" fill="#FF0000"/>
                </g>
                <g id="02_065_042">
                    <circle id="Ellipse 33_49" cx="6463" cy="1293" r="1" fill="#FF0000"/>
                </g>
                <g id="02_069_011C">
                    <circle id="Ellipse 33_50" cx="6766" cy="890" r="1" fill="#FF0000"/>
                </g>
                <g id="02_068_011B">
                    <circle id="Ellipse 33_51" cx="6811" cy="819" r="1" fill="#FF0000"/>
                </g>
                <g id="02_067_011A">
                    <circle id="Ellipse 33_52" cx="6782" cy="671" r="1" fill="#FF0000"/>
                </g>
                <g id="02_072_048049">
                    <circle id="Ellipse 33_53" cx="7007" cy="1208" r="1" fill="#FF0000"/>
                </g>
                <g id="02_074_012A">
                    <circle id="Ellipse 33_54" cx="7337" cy="1260" r="1" fill="#FF0000"/>
                </g>
                <g id="02_075_012B">
                    <circle id="Ellipse 33_55" cx="7325" cy="1424" r="1" fill="#FF0000"/>
                </g>
                <g id="02_076_050">
                    <circle id="Ellipse 33_56" cx="7518" cy="1362" r="1" fill="#FF0000"/>
                </g>
                <g id="02_078_013A">
                    <circle id="Ellipse 33_57" cx="7713" cy="968" r="1" fill="#FF0000"/>
                </g>
                <g id="02_079_013B">
                    <circle id="Ellipse 33_58" cx="7736" cy="1186" r="1" fill="#FF0000"/>
                </g>
            </g>
            <g id="vedio">
                <g id="02_001_001002003004">
                    <text id="02_001_001002003004_2" fill="#2BFF00" xml:space="preserve" style="white-space: pre"
                          font-family="Inter" font-size="10" letter-spacing="0em"><tspan x="820" y="963.636">02_001_001002003004</tspan></text>
                </g>
                <g id="02_002_001LOOP">
                    <text id="02_002_001LOOP_2" fill="#2BFF00" xml:space="preserve" style="white-space: pre"
                          font-family="Inter" font-size="10" letter-spacing="0em"><tspan x="1025" y="1024.64">02_002_001LOOP</tspan></text>
                </g>
                <g id="02_006_002LOOP">
                    <text id="02_006_002LOOP_2" fill="#2BFF00" xml:space="preserve" style="white-space: pre"
                          font-family="Inter" font-size="10" letter-spacing="0em"><tspan x="1458" y="1064.64">02_006_002LOOP</tspan></text>
                </g>
                <g id="02_009_007008">
                    <text id="02_009_007008_2" fill="#2BFF00" xml:space="preserve" style="white-space: pre"
                          font-family="Inter" font-size="10" letter-spacing="0em"><tspan x="1831" y="1018.64">02_009_007008</tspan></text>
                </g>
                <g id="02_024_006LOOP">
                    <text id="02_024_006LOOP_2" fill="#2BFF00" xml:space="preserve" style="white-space: pre"
                          font-family="Inter" font-size="10" letter-spacing="0em"><tspan x="2365" y="1213.64">02_024_006LOOP</tspan></text>
                </g>
                <g id="02_012_003LOOP">
                    <text id="02_012_003LOOP_2" fill="#2BFF00" xml:space="preserve" style="white-space: pre"
                          font-family="Inter" font-size="10" letter-spacing="0em"><tspan x="2216" y="941.636">02_012_003LOOP</tspan></text>
                </g>
                <g id="02_016_004LOOP">
                    <text id="02_016_004LOOP_2" fill="#2BFF00" xml:space="preserve" style="white-space: pre"
                          font-family="Inter" font-size="10" letter-spacing="0em"><tspan x="2563" y="634.636">02_016_004LOOP</tspan></text>
                </g>
                <g id="02_020_005LOOP">
                    <text id="02_020_005LOOP_2" fill="#2BFF00" xml:space="preserve" style="white-space: pre"
                          font-family="Inter" font-size="10" letter-spacing="0em"><tspan x="2709" y="949.636">02_020_005LOOP</tspan></text>
                </g>
                <g id="02_027_017">
                    <text id="02_027_017_2" fill="#2BFF00" xml:space="preserve" style="white-space: pre"
                          font-family="Inter" font-size="10" letter-spacing="0em"><tspan x="3186" y="888.636">02_027_017</tspan></text>
                </g>
                <g id="02_031_007LOOP">
                    <text id="02_031_007LOOP_2" fill="#2BFF00" xml:space="preserve" style="white-space: pre"
                          font-family="Inter" font-size="10" letter-spacing="0em"><tspan x="3668" y="889.636">02_031_007LOOP</tspan></text>
                </g>
                <g id="02_034_QTE1LOOP">
                    <text id="02_034_QTE1LOOP_2" fill="#2BFF00" xml:space="preserve" style="white-space: pre"
                          font-family="Inter" font-size="10" letter-spacing="0em"><tspan x="3798" y="572.636">02_034_QTE1LOOP</tspan></text>
                </g>
                <g id="02_053_008LOOP">
                    <text id="02_053_008LOOP_2" fill="#2BFF00" xml:space="preserve" style="white-space: pre"
                          font-family="Inter" font-size="10" letter-spacing="0em"><tspan x="4126" y="1228.64">02_053_008LOOP</tspan></text>
                </g>
                <g id="02_057_009LOOP">
                    <text id="02_057_009LOOP_2" fill="#2BFF00" xml:space="preserve" style="white-space: pre"
                          font-family="Inter" font-size="10" letter-spacing="0em"><tspan x="5759" y="1078.64">02_057_009LOOP</tspan></text>
                </g>
                <g id="02_061_010LOOP">
                    <text id="02_061_010LOOP_2" fill="#2BFF00" xml:space="preserve" style="white-space: pre"
                          font-family="Inter" font-size="10" letter-spacing="0em"><tspan x="6237" y="1281.64">02_061_010LOOP</tspan></text>
                </g>
                <g id="02_066_011LOOP">
                    <text id="02_066_011LOOP_2" fill="#2BFF00" xml:space="preserve" style="white-space: pre"
                          font-family="Inter" font-size="10" letter-spacing="0em"><tspan x="6625" y="1060.64">02_066_011LOOP</tspan></text>
                </g>
                <g id="02_070_043">
                    <text id="02_070_043_2" fill="#2BFF00" xml:space="preserve" style="white-space: pre"
                          font-family="Inter" font-size="10" letter-spacing="0em"><tspan x="6959" y="969.636">02_070_043</tspan></text>
                </g>
                <g id="02_073_012LOOP">
                    <text id="02_073_012LOOP_2" fill="#2BFF00" xml:space="preserve" style="white-space: pre"
                          font-family="Inter" font-size="10" letter-spacing="0em"><tspan x="7126" y="1319.64">02_073_012LOOP</tspan></text>
                </g>
                <g id="02_077_013LOOP">
                    <text id="02_077_013LOOP_2" fill="#2BFF00" xml:space="preserve" style="white-space: pre"
                          font-family="Inter" font-size="10" letter-spacing="0em"><tspan x="7563" y="1218.64">02_077_013LOOP</tspan></text>
                </g>
                <g id="02_080_051">
                    <text id="02_080_051_2" fill="#2BFF00" xml:space="preserve" style="white-space: pre"
                          font-family="Inter" font-size="10" letter-spacing="0em"><tspan x="7934" y="1256.64">02_080_051</tspan></text>
                </g>
                <g id="02_052_038_BE001">
                    <text id="02_052_038_BE001_2" fill="#FF0000" xml:space="preserve" style="white-space: pre"
                          font-family="Inter" font-size="10" letter-spacing="0em"><tspan x="5422" y="973.636">02_052_038_BE001</tspan></text>
                    <circle id="Ellipse 34" cx="5421.5" cy="963.5" r="1.5" fill="#FFA000"/>
                </g>
                <g id="02_071_044045046047_BE002">
                    <text id="02_071_044045046047_BE002_2" fill="#FF0000" xml:space="preserve" style="white-space: pre"
                          font-family="Inter" font-size="10" letter-spacing="0em"><tspan x="7237" y="1126.64">02_071_044045046047_BE002</tspan></text>
                    <circle id="Ellipse 34_2" cx="7236.5" cy="1116.5" r="1.5" fill="#FFA000"/>
                </g>
            </g>
            <g id="lines">
                <path id="02_002_001LOOP,02_003_001A"
                      d="M1034.3 1021.46C1056.56 1023.74 1075.34 1012.24 1090 1006C1109.86 997.548 1120.42 967.178 1133.63 960.925C1148.91 953.695 1162.26 938.09 1172.54 931.322C1187.13 921.723 1192.35 920.786 1201.55 920.786C1208.06 920.786 1222.42 924.8 1229.5 927.309"
                      stroke="#918375" stroke-linecap="round"/>
                <path id="02_001_001002003004,02_002_001LOOP"
                      d="M742 951.253C801.5 932 835 930.501 879.101 951.254C901.25 961.677 924.519 981.365 934.821 988.164C944.234 994.375 966.914 1014.55 1034.3 1021.46"
                      stroke="#918375" stroke-linecap="round"/>
                <path id="02_002_001LOOP,02_004_001B"
                      d="M1034.3 1021.46C1056.56 1023.74 1075.34 1012.24 1090 1006C1092.59 1009.28 1095.5 1012.38 1099 1017.5C1101.78 1021.56 1107.45 1027.62 1111.5 1033.5C1114.41 1037.73 1119.37 1045.21 1124 1050.5C1129.25 1056.5 1134.16 1063.22 1140.5 1068C1147.39 1073.19 1151.13 1073.91 1155.27 1075.94C1163.39 1079.91 1167.48 1078.67 1173.32 1081.24C1178.74 1083.62 1185.13 1085.62 1190.2 1087.08C1195.52 1088.62 1203.78 1089.28 1212.12 1090.19C1228.46 1091.97 1232.65 1089.28 1236.03 1088.19L1238.37 1087.1C1239.15 1086.73 1239.93 1086.37 1241.5 1085.99"
                      stroke="#918375" stroke-linecap="round"/>
                <path id="02_006_002LOOP,02_008_002B"
                      d="M1438.5 1060.5C1442.94 1059.81 1454.87 1060.68 1470.75 1054.75C1484.37 1049.65 1495.12 1043.17 1501.84 1038.96C1512 1032.58 1520.46 1012.37 1527.43 999.71C1536.87 982.571 1537.87 972.344 1546.56 940.864C1550.77 925.576 1552.07 919 1557 905.5C1563.18 888.57 1587.01 839.143 1596.75 828.885C1603.57 821.703 1608.26 811.242 1617.21 805.255C1620.69 803.498 1624.82 801.673 1627.8 800.273C1629.29 799.568 1638.98 797.502 1640.5 796.786"
                      stroke="#918375" stroke-linecap="round"/>
                <path id="02_008_002B,02_009_007008"
                      d="M1641 797C1652.42 797 1671.48 797.479 1680.84 803.223C1694.13 811.379 1702.44 817.606 1711.07 823.383C1724.62 832.457 1729.79 843.521 1736.29 852.527C1743.84 862.994 1748.53 873.756 1753.21 882.405C1757.92 891.123 1759.33 903.256 1761.86 914.432C1764.04 924.081 1766.54 934.225 1771.2 945.012C1779.73 964.803 1785.93 975.257 1793.15 984.263C1801.92 995.22 1809.69 1001.91 1819.05 1007.67C1821.94 1009.12 1825.5 1010.54 1829.12 1011.28C1832.73 1012.01 1836.3 1012.01 1844.29 1014.17"
                      stroke="#918375" stroke-linecap="round"/>
                <path id="02_006_002LOOP,02_007_002A"
                      d="M1438.5 1060.5C1442.94 1059.81 1454.87 1060.68 1470.75 1054.75C1484.37 1049.65 1495.12 1043.17 1501.84 1038.96C1512 1032.58 1520.46 1012.37 1527.43 999.71C1536.87 982.571 1537.87 972.344 1546.56 940.864C1550.77 925.576 1552.07 919 1557 905.5M1556.5 906.786C1558.31 896.637 1560.95 874.936 1564.36 854.685C1567.04 838.79 1567.77 826.143 1568.98 810.326C1570.14 795.221 1572.62 773.308 1574.09 758.398C1575.25 746.659 1578.45 736.064 1580.65 724.742C1585.46 699.895 1595.43 677.785 1601.31 661.473C1605.2 650.678 1613.93 644.624 1619.3 637.747C1620.76 636.355 1622.68 635.674 1624.4 634.303C1626.11 632.931 1627.55 630.89 1630.5 628.786"
                      stroke="#918375" stroke-linecap="round"/>
                <path id="02_007_002A,02_009_007008"
                      d="M1844.29 1014.17C1836.3 1012.01 1832.73 1012.01 1829.12 1011.28C1825.5 1010.54 1821.93 1009.12 1819.05 1007.67C1809.69 1001.91 1801.92 995.22 1793.15 984.263C1785.93 975.257 1779.73 964.803 1771.19 945.012C1766.54 934.225 1764.04 924.081 1761.85 914.432C1759.33 903.256 1757.92 891.123 1753.21 882.405C1748.53 873.756 1743.84 862.994 1736.28 852.527C1733.53 843.213 1733.64 810.986 1731.21 797.915C1727.44 787.589 1727.21 777.757 1725.03 769.014C1722.61 759.339 1727.07 742.442 1725.03 731C1719.5 700 1711.07 676.13 1699.5 659C1688.83 643.213 1689 637.443 1666.5 632.5C1647.94 628.423 1642.75 628.601 1638.64 626.557"
                      stroke="#918375" stroke-linecap="round"/>
                <path id="02_005_005006,02_006_002LOOP"
                      d="M1438.5 1060.38C1437.6 1060.81 1434.42 1061.02 1426.33 1060.39C1420.94 1059.96 1412.98 1058.47 1408.57 1057.81C1400.93 1056.67 1394.6 1053.5 1390.71 1052.21C1389.88 1051.93 1389.12 1051.99 1382.26 1049.11C1375.41 1046.24 1362.47 1040.49 1354.82 1036.89C1345.14 1032.33 1334.88 1024.84 1329 1021"
                      stroke="#918375" stroke-linecap="round"/>
                <path id="02_003_001A,02_005_005006"
                      d="M1329 1021C1323.98 1017.72 1322.42 1016.62 1316.86 1012.27C1309.28 1006.32 1305.99 1002.1 1303.25 999.41C1298.71 994.947 1294.13 986.613 1290.79 982.092C1286.2 975.894 1281.66 970.259 1277.87 965.635C1276.92 964.482 1276.35 963.379 1272.73 959.849C1262.65 950.019 1255.06 943.785 1253.93 942.821C1251.15 940.466 1248.21 938.117 1246 936.5C1243.79 934.883 1240 932.071 1237.5 931C1234 929.5 1231.83 928.597 1229.5 927.5"
                      stroke="#918375" stroke-linecap="round"/>
                <path id="02_004_001B,02_005_005006"
                      d="M1242.5 1084.79C1244.63 1084.36 1250.09 1083.49 1254.47 1082.96C1257.75 1082.55 1260.5 1081.35 1267.66 1078.22C1269.75 1077.31 1271.19 1077.25 1272.79 1076.5C1274.48 1075.69 1280.91 1072.96 1291.49 1066.73C1301.81 1060.66 1306.9 1054.62 1308.35 1053.66C1311.4 1051.62 1314.07 1047.3 1318.11 1043C1321.01 1039.92 1323.08 1036.31 1324.53 1033.83C1325.98 1031.36 1327.36 1028.56 1328.2 1025.97C1328.43 1025.32 1328.73 1024.68 1328.89 1024.03C1329.04 1023.38 1329.04 1022.74 1329.5 1020.79"
                      stroke="#918375" stroke-linecap="round"/>
                <path id="02_009_007008,02_010_009"
                      d="M1846.39 1014.6C1852.33 1014.2 1869.72 1013.41 1881.94 1012.02C1894.08 1010.65 1900.04 1005.46 1903.83 1001.5C1908.4 996.704 1916.71 990.79 1925.08 986.973C1932.36 983.653 1939 982.011 1946.16 981.003C1952.13 979.613 1962.99 977.091 1973.55 979.011C1984.5 981.003 2001 983.5 2033.5 1005.5"
                      stroke="#918375" stroke-linecap="round"/>
                <path id="02_009_007008,02_011_010015016"
                      d="M1860 1014C1869.12 1029.47 1873.91 1040.6 1876.49 1049.55C1878.83 1057.67 1881.06 1064.86 1885.63 1078.75C1891.29 1096 1897.76 1116.94 1900.54 1123.31C1904.52 1132.43 1905.71 1140.01 1917.79 1157.06C1932.7 1178.09 1947.43 1184.55 1954.21 1187.15C1960.58 1189.34 1965.35 1189.74 1974.23 1190.33C1981.54 1190.54 1994.52 1190.54 2007.91 1190.54"
                      stroke="#918375" stroke-linecap="round"/>
                <path id="02_012_003LOOP,02_014_003B"
                      d="M2222.04 926.941C2231.83 920.532 2248.55 911.609 2258.94 906.142C2272.86 898.815 2281.12 897.198 2289.26 895.641C2303.8 892.858 2314.77 890.263 2331.08 889.383C2334.93 889.211 2337.68 888.868 2341.33 888.691C2344.98 888.514 2349.45 888.514 2354.05 888.514"
                      stroke="#918375" stroke-linecap="round"/>
                <path id="02_010_009,02_012_003LOOP"
                      d="M2033.64 1005.62C2049.1 1014.81 2060.38 1018.65 2066.47 1019.88C2077.5 1022.11 2099.92 1020.06 2110.19 1017.81C2118.72 1015.94 2126.33 1012.44 2132.59 1008.27C2139.97 1003.35 2152.65 992.034 2168.12 974.666C2181.02 960.185 2192.63 949.624 2198.34 944.949C2203.28 940.909 2208.59 935.744 2222.04 926.94"
                      stroke="#918375" stroke-linecap="round"/>
                <path id="02_013_003A,02_015_011012"
                      d="M2257.98 800.314C2266.46 774.571 2272.12 764.626 2275.41 759.268C2283.92 745.389 2295.99 732.076 2305.95 722.975C2311.68 717.746 2317.92 714.291 2322.97 710.647C2329.57 705.881 2339.45 703.879 2344.65 702.827C2354.04 701.088 2358.88 700.401 2376.37 699.875C2380.07 699.703 2381.1 699.36 2384.25 699.006"
                      stroke="#918375" stroke-linecap="round"/>
                <path id="02_012_003LOOP,02_013_003A"
                      d="M2219.73 925.999C2221.8 919.772 2226.64 907.34 2228.92 898.083C2230.48 891.789 2232.56 884.724 2234.47 876.399C2234.96 874.292 2235.68 872.583 2239.99 858.468C2244.29 844.354 2252.2 817.896 2257.99 800.314"
                      stroke="#918375" stroke-linecap="round"/>
                <path id="02_014_003B,02_019_013014"
                      d="M2354.38 889.191C2361.76 890.009 2375.81 894.123 2381.62 896.824C2386.74 899.205 2391.52 900.343 2395.66 903.837C2404.06 910.93 2415.07 920.563 2425.16 929.422C2434.73 937.813 2454.17 945.691 2475.33 954.426C2490.47 960.679 2509.58 954.884 2529.22 953.825C2532.79 954.029 2534.01 954.438 2537.71 954.649C2541.41 954.859 2547.54 954.859 2553.86 954.859"
                      stroke="#918375" stroke-linecap="round"/>
                <path id="02_015_011012,02_016_004LOOP"
                      d="M2387.83 697.143C2390.71 695.495 2401.39 694.665 2409.49 692.609C2417.79 690.501 2424.56 689.709 2432.8 687.045C2453.32 680.418 2464.55 671.173 2475.77 664.13C2489.17 655.708 2496.42 651.324 2502.83 647.595C2508.44 644.333 2514.19 641.809 2519.15 639.126C2523.95 636.531 2525.83 636.028 2531 635C2534.08 634.789 2539 635.5 2549 632"
                      stroke="#918375" stroke-linecap="round"/>
                <path id="02_019_013014,02_020_005LOOP"
                      d="M2555.02 953.647C2622.34 958.874 2635.13 956.574 2653.37 950.189C2672.08 943.646 2686.8 936.818 2698.11 935.364C2718.17 930.425 2726.31 929.258 2730.65 928.97C2732.7 928.683 2734.43 928.108 2737.94 925.773"
                      stroke="#918375" stroke-linecap="round"/>
                <path id="02_020_005LOOP,02_022_005B"
                      d="M2737.95 925.774C2742.56 919.432 2756.76 893.421 2762 883.5M2916.68 905.344C2882.7 911.951 2861.42 904.499 2848.4 901.636C2838.4 899.438 2823.44 893.045 2809.27 888.698C2804.39 886.697 2798.05 884.386 2788.02 882.661C2781.98 882.075 2774 882.075 2762.33 883.8"
                      stroke="#918375" stroke-linecap="round"/>
                <path id="02_023_005C,02_027_017"
                      d="M2948.67 975.128C2975.42 977.576 3003.2 975.738 3024.17 969.928C3036.96 966.381 3039.89 961.059 3049.5 957C3057.45 953.64 3070.28 943.902 3077 937.5C3082.55 932.207 3089.39 924.813 3095.5 917C3103.87 906.284 3110.78 893.942 3116.5 889C3123.5 882.956 3130.02 885.326 3137 883C3143.98 880.674 3147.31 882.814 3159.77 881.647C3167.59 879.922 3174.61 878.162 3182.7 877.291C3187.92 876.995 3195.39 876.995 3203.09 876.995"
                      stroke="#918375" stroke-linecap="round"/>
                <path id="02_020_005LOOP,02_021_005A"
                      d="M2737.95 925.774C2742.56 919.433 2756.76 893.421 2762 883.5C2769.87 868.615 2775.09 855.009 2782.92 836.996C2786.91 827.819 2797.09 810.917 2812.46 790.325C2830.7 765.877 2853.41 755.674 2863.35 751.284"
                      stroke="#918375" stroke-linecap="round"/>
                <path id="02_022_005B,02_027_017"
                      d="M3079.36 874.947C3092.71 879.294 3103.77 884.538 3107.25 885.984C3109 886.855 3110.72 888.004 3115.98 889.189M3079 874.999C3057.9 877.276 3005.22 879.176 2995.41 882.065C2986.15 884.795 2975.87 888.387 2964.92 892.407C2955.97 895.692 2944.8 899.876 2916.68 905.344M3116.5 888.999C3123.5 882.956 3130.02 885.325 3137 882.999C3143.98 880.674 3147.31 882.813 3159.77 881.646C3167.58 879.921 3174.61 878.162 3182.7 877.291C3187.91 876.995 3195.39 876.995 3203.09 876.995"
                      stroke="#918375" stroke-linecap="round"/>
                <path id="02_020_005LOOP,02_023_005C"
                      d="M2737.95 925.774C2740.24 925.774 2756.95 925.774 2781.33 926.349C2792.05 926.602 2808.64 936.732 2833.87 948.631C2856.61 959.353 2881.77 965.216 2898.76 968.16C2911.13 970.304 2929.44 973.369 2948.67 975.128"
                      stroke="#918375" stroke-linecap="round"/>
                <path id="02_016_004LOOP,02_017_004A"
                      d="M2549 632C2557.54 627.966 2577.51 611.98 2588.37 603.213C2600.76 593.216 2602.82 580.236 2607.78 565.418C2619.5 530.436 2625.38 520.803 2631.93 505.255C2640.39 485.172 2650.2 470.775 2656.74 456.951C2667.33 434.567 2678.15 418.153 2686.31 404.217C2694.8 389.717 2710.66 372.788 2721.49 362.328"
                      stroke="#918375" stroke-linecap="round"/>
                <path id="02_016_004LOOP,02_018_004B"
                      d="M2745.37 485.216C2739.35 488.252 2723.05 497.171 2714.82 503.159C2710.12 506.573 2696.89 518.228 2690 526.5C2684.23 533.424 2666.18 547.385 2657.5 553C2649 558.5 2618.24 566.982 2607.78 565.419C2602.82 580.236 2600.76 593.217 2588.37 603.213C2577.51 611.98 2557.54 627.966 2549 632"
                      stroke="#918375" stroke-linecap="round"/>
                <path id="02_017_004A,02_027_017"
                      d="M2721.49 362.328C2733.77 350.463 2756.21 353.166 2779.65 368.622C2802.31 383.566 2807.65 411.14 2814.03 425.765C2817.83 434.491 2821.7 442.316 2824.63 452.117C2827.73 462.478 2832.07 474.749 2834.56 482.867C2837.72 493.155 2842.44 509.168 2845.39 519.354C2848.49 530.03 2852.84 541.641 2856.22 549.425C2860.9 560.224 2869.52 570.709 2877.17 579.476C2892.91 597.494 2903.8 598.399 2911.26 602.818C2916.91 607.885 2921.87 615.284 2925.7 623.716C2927.3 627.467 2928.19 630.142 2930.47 636.953C2932.78 645.629 2939.4 663.203 2946.1 680.363C2953.87 700.253 2969.61 707.418 2976.3 711.765C2983 716.115 2984.14 726.546 2987.06 738.741C2989.39 748.636 2990.55 761.354 2992 773.862M2992 773.862C2992.29 778.775 2994.5 792.208 2994.5 800.5M2992 773.862C2992.29 778.775 2994 786.208 2994 794.5L2994.5 800.5M2994.5 800.5C2999.57 808.265 3007.35 816.544 3015.78 826.143C3029.36 841.599 3041.04 850.828 3050.32 856.647C3062.36 864.187 3068.91 870.584 3079.36 874.948C3092.71 879.294 3103.77 884.538 3107.25 885.984C3109 886.855 3110.72 888.005 3115.98 889.19M3116.5 889C3123.5 882.956 3130.02 885.326 3137 883C3143.98 880.674 3147.31 882.814 3159.77 881.647C3167.59 879.922 3174.61 878.162 3182.7 877.291C3187.92 876.995 3195.39 876.995 3203.09 876.995"
                      stroke="#918375" stroke-linecap="round"/>
                <path id="02_018_004B,02_027_017"
                      d="M2992 773.862C2990.55 761.353 2989.39 748.636 2987.06 738.741C2984.14 726.546 2983 716.115 2976.3 711.764C2969.61 707.418 2953.87 700.253 2946.1 680.363C2939.4 663.203 2932.78 645.628 2930.47 636.953C2928.19 630.142 2927.3 627.466 2925.7 623.716C2921.87 615.284 2916.91 607.885 2911.26 602.817C2903.8 598.398 2892.91 597.493 2877.17 579.476C2869.52 570.709 2860.9 560.224 2856.22 549.425C2852.84 541.641 2848.49 530.029 2845.39 519.353C2842.44 509.168 2833 496.5 2823 486C2813 475.499 2807.5 469.5 2790 471C2772.5 472.5 2745 486 2745 486M2992 773.862C2992.29 778.774 2994.5 792.207 2994.5 800.5M2992 773.862C2992.29 778.774 2994 786.208 2994 794.5L2994.5 800.5M2994.5 800.5C2999.57 808.265 3007.35 816.543 3015.78 826.142C3029.35 841.599 3041.04 850.828 3050.32 856.647C3062.36 864.186 3068.91 870.583 3079.36 874.947C3092.71 879.294 3103.77 884.538 3107.25 885.984C3109 886.855 3110.72 888.005 3115.98 889.189M3116.5 889C3123.5 882.956 3130.02 885.325 3137 883C3143.98 880.674 3147.31 882.813 3159.77 881.646C3167.59 879.921 3174.61 878.162 3182.7 877.291C3187.92 876.995 3195.39 876.995 3203.09 876.995"
                      stroke="#918375" stroke-linecap="round"/>
                <path id="02_021_005A,02_027_017"
                      d="M3116.5 889C3123.5 882.956 3130.02 885.326 3137 883C3143.98 880.674 3147.31 882.814 3159.77 881.647C3167.59 879.922 3174.61 878.162 3182.7 877.291C3187.92 876.995 3195.39 876.995 3203.09 876.995M3115.98 889.189C3110.72 888.005 3109 886.855 3107.25 885.984C3103.77 884.538 3092.71 879.294 3079.36 874.948C3068.91 870.584 3062.36 864.187 3050.32 856.647C3041.04 850.828 3029.35 841.599 3015.78 826.143C3007.35 816.544 2999.57 808.265 2994.5 800.5C2994.5 792.208 2976.5 780 2971.5 776L2941 745.5C2941 745.5 2919.5 732.5 2901.5 735C2883.5 737.5 2865 751 2865 751"
                      stroke="#918375" stroke-linecap="round"/>
                <path id="02_011_010015016,02_024_006LOOP"
                      d="M2008 1190.73C2027.33 1190.73 2066.47 1234.82 2113 1232C2162.5 1229 2161.99 1197.2 2231.25 1199.5C2276.8 1201.02 2301.01 1206.44 2322.17 1209.22C2355.87 1213.64 2379.64 1209.25 2387.01 1206.94"
                      stroke="#918375" stroke-linecap="round"/>
                <path id="02_024_006LOOP,02_026_006B"
                      d="M2386.5 1207.5C2388.82 1214.92 2397.18 1228.02 2403 1235C2408 1241 2409.81 1240.45 2414.7 1248.1C2424.91 1264.08 2442.55 1284.7 2458.02 1302.65C2468.86 1315.24 2478.69 1324.88 2503.98 1339.83C2513.75 1345.61 2529.76 1346.86 2542.27 1348.28"
                      stroke="#918375" stroke-linecap="round"/>
                <path id="02_030_020,02_031_007LOOP"
                      d="M3509.45 855.309C3518.67 864.267 3534.63 870.742 3545.68 876.106C3551.88 878.476 3557.03 881.161 3560.84 881.756C3604 888.499 3653.5 881.756 3660.5 881.756"
                      stroke="#918375" stroke-linecap="round"/>
                <path id="02_028_018,02_030_020"
                      d="M3393.3 726.728C3413.12 722.642 3434.83 736.476 3450.62 750.43C3464.27 762.495 3470.54 788.728 3475.3 798.566C3480.76 809.854 3483.62 817.278 3487.78 825.895C3491.48 833.579 3500.2 846.327 3509.45 855.309"
                      stroke="#918375" stroke-linecap="round"/>
                <path id="02_027_017,02_028_018"
                      d="M3208 877.907C3215.08 876.73 3238.76 874.342 3256.36 872.275C3273.35 870.279 3291.24 860.809 3307.74 841.738C3314 834.5 3318.19 823.5 3320.5 817C3323.49 808.603 3336.85 773.473 3346.68 758.548C3353.59 748.049 3361.23 742.499 3366.89 735.656C3372.09 729.361 3383.18 728.813 3393.3 726.728"
                      stroke="#918375" stroke-linecap="round"/>
                <path id="02_029_019,02_030_020"
                      d="M3500.84 847.305C3496.79 847.891 3487.49 850.252 3476.71 851.149C3465.86 852.051 3455.44 853.803 3427.56 854.114C3412.83 854.278 3403.61 850.288 3394.27 847.607"
                      stroke="#918375" stroke-linecap="round"/>
                <path id="02_027_017,02_029_019"
                      d="M3208 877.907C3215.08 876.731 3238.76 874.342 3256.36 872.275C3273.35 870.279 3291.24 860.809 3307.74 841.738C3314 834.5 3318.19 823.5 3320.5 817M3394.27 847.606C3385.81 845.174 3376.24 843.185 3363.7 835.79C3356.12 831.322 3348.84 827.204 3340.39 822.756C3336.6 821.274 3333.09 820.084 3329.31 818.903C3327.27 818.309 3324.96 817.723 3320.84 817.119"
                      stroke="#918375" stroke-linecap="round"/>
                <path id="02_034_QTE1LOOP,02_035_022"
                      d="M3800.62 558.63C3804.64 546.773 3813.66 527.13 3822.29 510.681C3837.9 480.919 3850.44 466.655 3857.56 460.671C3879.07 444.9 3887.05 440.315 3894.51 435.456C3896.24 434.58 3897.94 434.58 3899.69 434.58"
                      stroke="#918375" stroke-linecap="round"/>
                <path id="02_032_007A021,02_034_QTE1LOOP"
                      d="M3770.61 733.969C3773.18 715.152 3777.77 688.175 3780.04 666.299C3781.9 648.343 3786.84 616.658 3789.74 599.179C3793.04 579.296 3795.51 573.697 3800.62 558.63"
                      stroke="#918375" stroke-linecap="round"/>
                <path id="02_031_007LOOP,02_032_007A021"
                      d="M3666.16 877.585C3674.72 876.452 3688.42 870.751 3698.75 867.008C3709.23 863.213 3717.64 852.447 3725.66 843.561C3731.81 836.745 3737.5 828.999 3743.5 814.999C3756.37 784.97 3769.76 740.253 3770.61 733.969"
                      stroke="#918375" stroke-linecap="round"/>
                <path id="02_035_022,02_036_QTE2"
                      d="M3899.97 435.057C3902.03 434.715 3906.84 434.705 3911.51 437.115C3918 440.469 3923.74 446.766 3926 450.557C3928.98 455.567 3932.72 460.896 3936.16 466.234C3942.23 475.645 3943.4 486.363 3945.82 499.314C3947.1 506.114 3948.93 512.606 3952.01 526.307C3954.41 537.016 3959.87 555.028 3963.01 565.372C3968.13 582.184 3972.36 589.494 3976.67 593.482C3981.21 597.678 3986.49 599.859 3990.13 603.48C3994.8 608.129 4004.06 618.768 4007.72 625.373C4010 629.494 4012.02 634.326 4015.64 643.972C4017.79 649.699 4020.98 656.379 4023.23 662.607C4025.11 667.798 4026.5 671.916 4029.26 676.918C4031.88 681.66 4035.46 685.715 4043.04 688.994C4045.8 689.522 4047.88 689.863 4050.12 690.38C4051.33 690.556 4052.69 690.556 4054.1 691.591"
                      stroke="#918375" stroke-linecap="round"/>
                <path id="02_036_QTE2,02_038_025"
                      d="M4054 691.172C4057.8 696.87 4060.55 701.692 4066.73 711.819C4076.7 728.163 4089.84 740.296 4096.89 746.322C4102.53 751.139 4116.32 757.178 4133.2 764.589C4144.34 769.475 4150.88 770.666 4180.95 770.677C4188.45 770.335 4192.54 769.653 4198.24 769.301C4203.93 768.949 4211.1 768.949 4218.49 768.949"
                      stroke="#918375" stroke-linecap="round"/>
                <path id="02_037_023,02_041_027QTE3"
                      d="M4234.98 634.127C4248.52 634.641 4261.55 644.448 4272.57 656.651C4276.71 661.231 4280.63 668.643 4287.1 686.926C4293.57 705.209 4299.96 725.282 4307 748C4314.04 770.718 4321.47 795.193 4325.91 806.09C4332.95 823.403 4338.8 831.852 4343.36 837.094C4349.44 843.189 4361.32 851.651 4374.68 859.665C4379.67 862.559 4381.03 863.071 4383.99 864.633C4388.33 865.465 4405.76 870.126 4420.41 872.241C4429.59 873.566 4435.57 872.914 4442.06 872.116C4451.48 870.957 4461.7 868.113 4470.22 865.382C4479.64 862.191 4483.65 861.029 4488.62 860.112C4490.32 860 4492.62 860 4495 860"
                      stroke="#918375" stroke-linecap="round"/>
                <path id="02_038_025,02_041_027QTE3"
                      d="M4221.59 769C4227.63 769 4241.75 767.614 4249.9 766.554C4256.68 765.673 4263.73 761.314 4270.81 758.511C4276.62 756.212 4284.61 753.271 4291.39 751.155C4294.08 750.457 4297.13 750.1 4300.33 749.927C4301.85 749.754 4303.19 749.407 4306.59 748M4307 748C4314.04 770.718 4321.47 795.192 4325.91 806.09C4332.95 823.403 4338.8 831.852 4343.36 837.094C4349.44 843.189 4361.32 851.651 4374.68 859.665C4379.67 862.558 4381.03 863.071 4383.99 864.632C4388.33 865.465 4405.76 870.126 4420.41 872.241C4429.59 873.566 4435.57 872.914 4442.06 872.116C4451.48 870.957 4461.7 868.112 4470.21 865.381C4479.64 862.191 4483.65 861.029 4488.62 860.112C4490.32 860 4492.62 860 4495 860"
                      stroke="#918375" stroke-linecap="round"/>
                <path id="02_039_024,02_041_027QTE3"
                      d="M4264.43 899.777C4271 900.414 4277.06 900.483 4283.04 900.14C4289.01 899.797 4294.72 899.04 4301.52 897.411C4308.32 895.782 4316.03 893.304 4322.23 890.824C4328.44 888.343 4337.67 884.065 4341.5 882.5C4352.5 878 4369.5 875 4383.5 864.5M4383.99 864.632C4388.33 865.465 4405.76 870.126 4420.41 872.241C4429.59 873.566 4435.58 872.914 4442.06 872.116C4451.48 870.957 4461.7 868.112 4470.22 865.381C4479.64 862.191 4483.65 861.029 4488.63 860.112C4490.32 860 4492.62 860 4495 860"
                      stroke="#918375" stroke-linecap="round"/>
                <path id="02_036_QTE2,02_039_024"
                      d="M4054 691.172C4057.8 696.87 4060.55 701.692 4066.73 711.819C4076.7 728.163 4089.84 740.296 4096.89 746.322C4102.5 751.115 4116.18 757.117 4132.95 764.478L4133.2 764.589M4134 765C4135.5 769 4139 771.5 4143.5 776C4146.5 779 4147 779.5 4152.32 787.964C4160.38 800.796 4172.5 825.95 4181.58 841.842C4190.65 857.735 4195.4 864.136 4199.43 868.982C4203.46 873.827 4206.63 876.924 4209.43 879.38C4212.23 881.836 4214.57 883.556 4218.25 885.716C4221.93 887.876 4226.89 890.422 4231.44 892.353C4235.99 894.284 4239.98 895.523 4245.48 896.746C4250.97 897.97 4257.86 899.14 4264.43 899.777"
                      stroke="#918375" stroke-linecap="round"/>
                <path id="02_036_QTE2,02_037_023"
                      d="M4054 691.172C4057.8 696.871 4060.55 701.692 4066.73 711.819C4076.7 728.163 4089.84 740.296 4096.89 746.322M4097 746C4099.74 746 4112.76 746.213 4118.73 742.417C4127.23 737.013 4132.93 726.259 4141.8 712.137C4153.98 692.749 4164.85 678.118 4169.23 673.132C4181.28 659.437 4196.38 644.851 4203.98 639.837C4212.1 634.474 4221.57 633.617 4234.98 634.127"
                      stroke="#918375" stroke-linecap="round"/>
                <path id="02_041_027QTE3,02_042_028"
                      d="M4495 860.008C4495.59 860.008 4496.64 859.415 4502.66 851.175C4508.14 843.673 4517.72 828.848 4524.47 819.728C4533.93 806.944 4540.37 803.098 4545.74 800.633C4561.17 793.553 4578.38 798.272 4586.2 802.548"
                      stroke="#918375" stroke-linecap="round"/>
                <path id="02_042_028,02_044_030QTE4"
                      d="M4586.2 802.548C4588.48 803.79 4593.08 808.734 4600.7 819.478C4604.99 825.525 4608.61 833.782 4612.9 845.396C4617.19 857.011 4621.64 871.989 4625.41 892.903C4629.19 913.817 4632.15 940.214 4633.75 961.894C4635.36 983.575 4635.5 999.739 4635.95 1011.63C4636.4 1023.51 4637.14 1030.63 4638.26 1036.52C4639.39 1042.41 4640.87 1046.86 4642.4 1052.34"
                      stroke="#918375" stroke-linecap="round"/>
                <path id="02_043_029,02_044_030QTE4"
                      d="M4635.95 1011.63C4636.4 1023.51 4637.14 1030.63 4638.26 1036.52C4639.39 1042.41 4640.87 1046.86 4642.4 1052.34M4540.94 958C4549.7 978.716 4562.4 990.851 4579.76 1001.91C4592.46 1010 4601.36 1009.49 4606.19 1009.78C4615.85 1010.66 4622.96 1011.55 4625.68 1011.99C4627.5 1012.14 4632.71 1011.99 4635.5 1011.99"
                      stroke="#918375" stroke-linecap="round"/>
                <path id="02_041_027QTE3,02_043_029"
                      d="M4495.9 861.806C4495.9 862.102 4498.27 866.407 4502.9 875.146C4507.79 884.356 4511.31 896.192 4515.64 909.86C4520.35 924.737 4524.35 933.397 4525.99 936.527C4528.68 941.654 4534.06 949.983 4540.94 958.364"
                      stroke="#918375" stroke-linecap="round"/>
                <path id="02_046_032033,02_047_QTE5"
                      d="M4749.39 1198.72C4759.29 1201.11 4762.31 1196.54 4767 1193C4771.62 1189.51 4777.95 1180.7 4780.2 1164.77C4781.88 1152.92 4782.75 1133.19 4784.71 1117.55C4786.67 1101.9 4789.2 1090.88 4791.18 1083.33C4794.15 1071.97 4798.26 1064.35 4802.91 1057.29C4810.84 1045.27 4821.14 1040.69 4825.13 1038.36C4832.42 1035.27 4839.21 1033.16 4841.84 1032.56C4843.13 1032.25 4845.96 1032.86 4849 1032.56"
                      stroke="#918375" stroke-linecap="round"/>
                <path id="02_044_030QTE4,02_046_032033"
                      d="M4645.51 1060.55C4645.81 1061.89 4653.49 1066.84 4672.82 1089.37C4675.5 1092.5 4679.05 1095 4682 1101.5C4685.15 1108.44 4691.27 1119.5 4692 1123C4694.26 1133.76 4703.3 1165.74 4711.84 1177.22C4723.35 1192.68 4735.62 1195.39 4749.39 1198.72"
                      stroke="#918375" stroke-linecap="round"/>
                <path id="02_047_QTE5,02_049_035"
                      d="M4849 1032C4850.79 1032 4860.37 1035.87 4868.77 1041.99C4873.39 1045.35 4878.32 1052.58 4883.58 1060.09C4887.04 1065.04 4889.32 1071.1 4892.85 1084.27C4895.31 1093.46 4897.42 1108.17 4898.87 1116.14C4901.85 1132.45 4903.98 1147.66 4904.5 1156C4905.23 1167.7 4905.14 1182.47 4907.38 1194.02C4910.22 1208.62 4915.97 1219.21 4919.56 1225.07C4927.86 1233.99 4930.72 1236.39 4933.2 1238.42C4934.33 1239.26 4935.23 1239.71 4937.5 1241.07"
                      stroke="#918375" stroke-linecap="round"/>
                <path id="02_047_QTE5,02_048_034"
                      d="M4849 1032C4850.79 1032 4860.37 1035.87 4868.77 1041.99C4873.39 1045.35 4878.32 1052.58 4883.58 1060.09C4887.04 1065.04 4889.32 1071.1 4892.85 1084.27C4895.31 1093.46 4897.42 1108.17 4898.87 1116.14C4901.85 1132.45 4903.98 1147.66 4904.5 1156M4905.15 1155.82C4908.04 1155.69 4915.88 1154.19 4920.75 1150.84C4932.11 1143.05 4935.99 1134.72 4939.98 1128.4C4944.83 1120.72 4950.9 1112.09 4957.49 1106.01C4963.12 1100.81 4971.63 1097.41 4981.83 1093.67"
                      stroke="#918375" stroke-linecap="round"/>
                <path id="02_049_035,02_050_036"
                      d="M5179 1147.96C5182.61 1148.31 5195.28 1146.24 5206.23 1138.17C5211.81 1134.05 5220.73 1115.45 5239.28 1062.74C5252.42 1025.4 5260.22 991.78 5269 958C5282.12 907.512 5299.59 865.685 5312 852C5321.67 841.341 5332.85 826.373 5337.85 799.798C5347.29 749.684 5349.23 709.413 5352.39 697.682C5360.14 668.975 5379.16 647.636 5397.78 629.531C5402.8 625.46 5407.6 622.331 5410.97 620.371C5414.35 618.412 5416.15 617.716 5418 617M4942.71 1239.29C4942.71 1239.54 4943.22 1240.3 4944.41 1241.31C4947.59 1243.99 4956.08 1241.19 4965.75 1236.97C4980.34 1230.61 4985.32 1219.84 4989.8 1213.97C4992.16 1210.88 4995.76 1205.01 4999.01 1198.97C5002.26 1192.94 5004.89 1186.8 5007.12 1180.01C5009.35 1173.22 5011.1 1165.96 5012.32 1159.65C5013.53 1153.34 5014.16 1148.21 5014.73 1139.55C5015.3 1130.9 5015.81 1118.88 5016.69 1109.37C5017.65 1099 5018.5 1094.5 5020 1090.5C5021.13 1087.5 5027.96 1070.47 5031 1067C5032.43 1065.37 5037.23 1057.53 5046.35 1049.59C5057.13 1040.22 5064.61 1040.85 5074.06 1040.37C5082.35 1039.95 5092.9 1046.85 5104.85 1057.83C5112.39 1064.76 5115.74 1075.14 5119.16 1084.31C5125.45 1101.21 5126.48 1110.84 5129.43 1117.83C5134.09 1128.87 5141.77 1133.14 5153.94 1139.77C5171.41 1145.49 5179.75 1147.1 5181.83 1147.57C5182.84 1147.78 5183.77 1147.91 5186.34 1148.05"
                      stroke="#918375" stroke-linecap="round"/>
                <path id="02_048_034,02_050_036"
                      d="M5179 1147.96C5182.61 1148.31 5195.29 1146.24 5206.23 1138.17C5211.82 1134.05 5220.73 1115.45 5239.28 1062.74C5252.42 1025.4 5260.22 991.78 5269 958C5282.12 907.512 5299.59 865.685 5312 852C5321.67 841.341 5332.85 826.373 5337.86 799.798C5347.29 749.684 5349.23 709.413 5352.4 697.682C5360.15 668.975 5379.16 647.636 5397.78 629.531C5402.81 625.46 5407.61 622.331 5410.98 620.371C5414.35 618.412 5416.15 617.716 5418 617M4981.83 1093.67C4985.84 1092.2 4989.74 1092.08 4993.99 1091.7C5000.48 1091.19 5007.59 1090.81 5009.92 1090.62C5011.49 1090.56 5017.05 1090.62 5019.5 1090.62M5020 1090.5C5021.13 1087.5 5027.96 1070.47 5031 1067C5032.43 1065.37 5037.23 1057.53 5046.36 1049.59C5057.13 1040.22 5064.62 1040.85 5074.07 1040.37C5082.35 1039.95 5092.91 1046.85 5104.85 1057.83C5112.39 1064.76 5115.74 1075.14 5119.16 1084.31C5125.46 1101.21 5126.48 1110.84 5129.43 1117.83C5134.1 1128.87 5141.77 1133.14 5153.94 1139.77C5171.41 1145.49 5179.75 1147.1 5181.83 1147.57C5182.84 1147.78 5183.77 1147.91 5186.34 1148.05"
                      stroke="#918375" stroke-linecap="round"/>
                <path id="02_049_035,02_051_037"
                      d="M5179 1147.96C5182.61 1148.31 5195.28 1146.24 5206.23 1138.17C5211.81 1134.05 5220.73 1115.45 5239.28 1062.74C5252.42 1025.4 5260.22 991.78 5269 958C5282.12 907.512 5299.59 865.685 5312 852C5344.4 854.303 5383.35 834.039 5393.73 828.642L5394 828.5C5404.75 824.383 5413.3 818.857 5417.59 817.875C5419.44 817.465 5420.66 817.236 5423.75 817M4942.71 1239.29C4942.71 1239.54 4943.22 1240.3 4944.41 1241.31C4947.59 1243.99 4956.08 1241.19 4965.75 1236.97C4980.34 1230.61 4985.32 1219.84 4989.8 1213.97C4992.16 1210.88 4995.76 1205.01 4999.01 1198.97C5002.26 1192.94 5004.89 1186.8 5007.12 1180.01C5009.35 1173.22 5011.1 1165.96 5012.32 1159.65C5013.53 1153.34 5014.16 1148.21 5014.73 1139.55C5015.3 1130.9 5015.81 1118.88 5016.69 1109.37C5017.65 1099 5018.5 1094.5 5020 1090.5C5021.13 1087.5 5027.96 1070.47 5031 1067C5032.43 1065.37 5037.23 1057.53 5046.35 1049.59C5057.13 1040.22 5064.61 1040.85 5074.06 1040.37C5082.35 1039.95 5092.9 1046.85 5104.85 1057.83C5112.39 1064.76 5115.74 1075.14 5119.16 1084.31C5125.45 1101.21 5126.48 1110.84 5129.43 1117.83C5134.09 1128.87 5141.77 1133.14 5153.94 1139.77C5171.41 1145.49 5179.75 1147.1 5181.83 1147.57C5182.84 1147.78 5183.77 1147.91 5186.34 1148.05"
                      stroke="#918375" stroke-linecap="round"/>
                <path id="02_048_034,02_051_037"
                      d="M5179 1147.96C5182.61 1148.31 5195.29 1146.24 5206.23 1138.17C5211.82 1134.05 5220.73 1115.45 5239.28 1062.74C5252.42 1025.4 5260.22 991.78 5269 958C5282.12 907.512 5299.59 865.685 5312 852C5344.4 854.303 5383.35 834.039 5393.73 828.642L5394 828.5C5404.75 824.383 5413.3 818.857 5417.59 817.875C5419.45 817.465 5420.66 817.236 5423.75 817M4981.83 1093.67C4985.84 1092.2 4989.74 1092.08 4993.99 1091.7C5000.48 1091.19 5007.59 1090.81 5009.92 1090.62C5011.49 1090.56 5017.05 1090.62 5019.5 1090.62M5020 1090.5C5021.13 1087.5 5027.96 1070.47 5031 1067C5032.43 1065.37 5037.23 1057.53 5046.36 1049.59C5057.13 1040.22 5064.62 1040.85 5074.07 1040.37C5082.35 1039.95 5092.91 1046.85 5104.85 1057.83C5112.39 1064.76 5115.74 1075.14 5119.16 1084.31C5125.46 1101.21 5126.48 1110.84 5129.43 1117.83C5134.1 1128.87 5141.77 1133.14 5153.94 1139.77C5171.41 1145.49 5179.75 1147.1 5181.83 1147.57C5182.84 1147.78 5183.77 1147.91 5186.34 1148.05"
                      stroke="#918375" stroke-linecap="round"/>
                <path id="02_049_035,02_052_038_BE001"
                      d="M4942.71 1239.29C4942.71 1239.54 4943.22 1240.3 4944.41 1241.31C4947.59 1243.99 4956.08 1241.19 4965.75 1236.97C4980.34 1230.61 4985.32 1219.84 4989.8 1213.97C4992.16 1210.88 4995.76 1205.01 4999.01 1198.97C5002.26 1192.94 5004.89 1186.8 5007.12 1180.01C5009.35 1173.22 5011.1 1165.96 5012.32 1159.65C5013.53 1153.34 5014.16 1148.21 5014.73 1139.55C5015.3 1130.9 5015.81 1118.88 5016.69 1109.37C5017.65 1099 5018.5 1094.5 5020 1090.5C5021.13 1087.5 5027.96 1070.47 5031 1067C5032.43 1065.37 5037.23 1057.53 5046.35 1049.59C5057.13 1040.22 5064.61 1040.85 5074.06 1040.37C5082.35 1039.95 5092.9 1046.85 5104.85 1057.83C5112.39 1064.76 5115.74 1075.14 5119.16 1084.31C5125.45 1101.21 5126.48 1110.84 5129.43 1117.83C5134.09 1128.87 5141.77 1133.14 5153.94 1139.77C5171.41 1145.49 5179.75 1147.1 5181.83 1147.57C5182.84 1147.78 5183.77 1147.91 5186.34 1148.05M5179 1147.96C5182.61 1148.31 5195.28 1146.24 5206.23 1138.17C5211.81 1134.05 5220.73 1115.45 5239.28 1062.74C5252.42 1025.4 5260.22 991.78 5269 958M5269 957C5271.93 957 5385.92 959.235 5400.5 963.5"
                      stroke="#918375" stroke-linecap="round"/>
                <path id="02_048_034,02_052_038_BE001"
                      d="M5179 1147.96C5182.61 1148.31 5195.29 1146.24 5206.23 1138.17C5211.82 1134.05 5220.73 1115.45 5239.28 1062.74C5252.42 1025.4 5260.22 991.78 5269 958M5269 957C5271.93 957 5385.93 959.235 5400.5 963.5M4981.83 1093.67C4985.84 1092.2 4989.74 1092.08 4993.99 1091.7C5000.48 1091.19 5007.59 1090.81 5009.92 1090.62C5011.49 1090.56 5017.05 1090.62 5019.5 1090.62M5020 1090.5C5021.13 1087.5 5027.96 1070.47 5031 1067C5032.43 1065.37 5037.23 1057.53 5046.36 1049.59C5057.13 1040.22 5064.62 1040.85 5074.07 1040.37C5082.35 1039.95 5092.91 1046.85 5104.85 1057.83C5112.39 1064.76 5115.74 1075.14 5119.16 1084.31C5125.46 1101.21 5126.48 1110.84 5129.43 1117.83C5134.1 1128.87 5141.77 1133.14 5153.94 1139.77C5171.41 1145.49 5179.75 1147.1 5181.83 1147.57C5182.84 1147.78 5183.77 1147.91 5186.34 1148.05"
                      stroke="#918375" stroke-linecap="round"/>
                <path id="02_031_007LOOP,02_033_007B039"
                      d="M3666.16 877.585C3674.72 876.452 3688.42 870.752 3698.75 867.008C3709.23 863.213 3717.64 852.448 3725.66 843.562C3731.81 836.746 3737.5 829 3743.5 815M3743.5 815.5C3749.74 815.5 3798.69 822.261 3861 836.012C3908.05 846.394 3938.25 865.306 3964.53 884.34"
                      stroke="#918375" stroke-linecap="round"/>
                <path id="02_056_040,02_057_009LOOP"
                      d="M5596.5 1073C5599.5 1074.5 5602.03 1074.39 5611.23 1082.41C5634.56 1102.76 5648.15 1104.08 5653.4 1104.93C5658.4 1105.74 5664.25 1105.27 5672.26 1103.93C5685.7 1101.67 5698.63 1095.97 5711.04 1089.64C5728.35 1080.82 5743.71 1072.24 5754.29 1068.77"
                      stroke="#918375" stroke-linecap="round"/>
                <path id="02_025_006A,02_027_017"
                      d="M2658.77 1197.17C2692.23 1208.35 2704.13 1222.16 2754.38 1271.98C2778.9 1296.29 2781.95 1313.09 2819.5 1318.5M2820 1318.79C2825.08 1318.79 2846.03 1316.89 2872.72 1308.93C2905.24 1299.24 2915.07 1286.59 2935.15 1263.19C2946.68 1249.75 2959.08 1222.58 2973.91 1192.12C2982 1175.5 2988.82 1167.53 2995.98 1159.88C3003.92 1151.41 3022.24 1141.7 3045.66 1128.64C3065.72 1117.46 3081.03 1101.82 3096.31 1082.73C3114.6 1059.89 3124.8 1038.6 3130.69 1025.86C3140.51 1004.65 3144.91 988.208 3149.55 965.681C3153.87 944.734 3157.68 925.008 3165.18 904.856C3168.22 898.77 3172.68 893.331 3178.42 888.227C3180.99 886.283 3199.09 879.651 3202 879"
                      stroke="#918375" stroke-linecap="round"/>
                <path id="02_026_006B,02_027_017"
                      d="M2542.27 1348.28C2546.46 1348.75 2549.55 1350.62 2557.47 1351.54C2575.68 1353.67 2598.69 1356.22 2616.5 1355.99C2631.73 1355.79 2644.73 1350.17 2652.47 1347.59C2661.53 1344.58 2671.43 1334.35 2681.54 1325.44C2688.9 1318.97 2696.3 1315.16 2702.66 1311.19C2708.01 1307.86 2713.66 1303.96 2719.77 1301.16C2725.93 1298.33 2738.5 1293 2754.5 1272.5M2754.38 1271.98C2778.9 1296.29 2781.95 1313.09 2819.5 1318.5M2820 1318.79C2825.08 1318.79 2846.03 1316.89 2872.72 1308.93C2905.24 1299.24 2915.07 1286.59 2935.15 1263.19C2946.68 1249.75 2959.08 1222.58 2973.91 1192.12C2982 1175.5 2988.82 1167.53 2995.98 1159.88C3003.92 1151.41 3022.24 1141.7 3045.66 1128.64C3065.72 1117.46 3081.03 1101.82 3096.31 1082.73C3114.6 1059.89 3124.8 1038.6 3130.69 1025.86C3140.51 1004.65 3144.91 988.208 3149.55 965.681C3153.87 944.734 3157.68 925.008 3165.18 904.856C3168.22 898.77 3172.68 893.331 3178.41 888.227C3180.99 886.283 3199.59 879.151 3202.5 878.5"
                      stroke="#918375" stroke-linecap="round"/>
                <path id="02_024_006LOOP,02_025_006A"
                      d="M2387 1206.94C2397.97 1203.51 2428.43 1192.67 2473.18 1177.41C2510.43 1164.71 2544.09 1165.73 2567.65 1166.65C2595.29 1167.72 2631.02 1187.89 2658.77 1197.17"
                      stroke="#918375" stroke-linecap="round"/>
                <path id="02_058_009A,02_060_041"
                      d="M5939.77 1140.04C5949.79 1136.86 5958.3 1141.61 5966.79 1145.47C5973.65 1148.59 5981.63 1157.6 5992.96 1174.9C5997.02 1181.11 6000.39 1190.22 6005.51 1207.65C6010.63 1225.09 6016.78 1250.94 6021.39 1271.99C6026 1293.03 6028.87 1308.49 6030.76 1317.82C6033.22 1329.94 6037.05 1338.18 6041.61 1346.94C6050.43 1356.56 6062.49 1366.13 6064.97 1367.58C6066.22 1368.34 6067.45 1369.16 6069.96 1371.25"
                      stroke="#918375" stroke-linecap="round"/>
                <path id="02_057_009LOOP,02_058_009A"
                      d="M5754.29 1068.77C5767.26 1064.51 5778.29 1068.64 5789.58 1073.81C5794.01 1075.83 5798.66 1081.67 5805.67 1090.87C5809.68 1096.13 5813.19 1103.6 5819.71 1120.66C5826.23 1137.71 5835.29 1164.4 5841.3 1180.32C5851.92 1208.46 5862.06 1212.89 5867.82 1216.87C5873.87 1220.32 5879.69 1223.23 5883.5 1224.67C5885.29 1225.27 5886.8 1225.61 5888.36 1225.95M5888.5 1226C5888.5 1225.73 5892.38 1212.64 5900.93 1187.47C5907.64 1167.69 5914.24 1157.67 5917.06 1153.53C5921.58 1146.93 5928.17 1143.72 5939.77 1140.04"
                      stroke="#918375" stroke-linecap="round"/>
                <path id="02_059_009B,02_060_041"
                      d="M6030.76 1317.82C6033.22 1329.94 6037.05 1338.18 6041.61 1346.95C6050.43 1356.56 6062.49 1366.13 6064.97 1367.58C6066.22 1368.34 6067.45 1369.16 6069.96 1371.25M5943.68 1308.53C5957.38 1320.37 5974.49 1322.66 5983.39 1323.83C5990.55 1324.77 6001.4 1326.3 6011.17 1322.27C6019.81 1317.66 6028.78 1319.08 6030.5 1318"
                      stroke="#918375" stroke-linecap="round"/>
                <path id="02_057_009LOOP,02_059_009B"
                      d="M5754.29 1068.77C5767.26 1064.51 5778.29 1068.64 5789.58 1073.81C5794.01 1075.83 5798.66 1081.67 5805.67 1090.87C5809.68 1096.13 5813.19 1103.6 5819.71 1120.66C5826.23 1137.71 5835.29 1164.4 5841.3 1180.32C5851.92 1208.46 5862.06 1212.89 5867.82 1216.87C5873.87 1220.32 5879.69 1223.23 5883.5 1224.67C5885.29 1225.27 5886.8 1225.61 5888.36 1225.95M5888 1226C5889.29 1226.72 5895.59 1237.61 5902.3 1250.07C5905.47 1255.97 5911.36 1266.82 5916.51 1275.5C5925.48 1290.61 5934.91 1300.95 5943.68 1308.53"
                      stroke="#918375" stroke-linecap="round"/>
                <path id="02_060_041,02_061_010LOOP"
                      d="M6065.83 1367.16C6066.15 1367.8 6069.35 1371.65 6075.61 1376.62C6079.34 1379.59 6086.13 1381.35 6093.34 1383.17C6098.48 1384.46 6105.1 1384.27 6113.23 1383.87C6119.98 1383.54 6126.34 1380.97 6132.38 1378.15C6140.05 1374.58 6142.42 1370.88 6149.91 1362.59C6153.16 1358.99 6155.65 1353.63 6158.72 1347.14C6160.18 1344.05 6161.14 1341.22 6163.35 1335.9C6165.57 1330.59 6168.92 1322.83 6172.33 1316.24C6175.74 1309.65 6179.09 1304.46 6182.38 1300.03C6185.67 1295.59 6188.78 1292.07 6192.19 1288.74C6198.95 1282.13 6204.81 1277.97 6209.72 1275.07C6216.45 1271.1 6222.73 1268.92 6228.51 1267.56C6232.34 1266.65 6238.13 1266.03 6243.85 1265.62C6255.09 1265.2 6261.33 1265.36 6262.5 1265.77C6263.11 1266.01 6263.74 1266.33 6264.4 1266.66"
                      stroke="#918375" stroke-linecap="round"/>
                <path id="02_061_010LOOP,02_062_010A"
                      d="M6265 1266.1C6265 1265.84 6273.83 1235.16 6279 1217C6283.89 1199.84 6285.29 1196.23 6292.04 1175.82C6298.79 1155.41 6302.06 1148.75 6305.78 1142.71C6312.96 1131.07 6320.11 1124.11 6326.21 1119.71C6334.62 1113.63 6345.66 1110 6354.72 1107.82"
                      stroke="#918375" stroke-linecap="round"/>
                <path id="02_062_010A,02_065_042"
                      d="M6354.72 1107.82C6366.76 1104.93 6379.21 1110.23 6388.65 1114.71C6398.25 1119.27 6403.44 1126.18 6409.28 1134.14C6411.01 1136.5 6412.37 1139.2 6415.39 1148.38C6418.4 1157.56 6422.9 1173.22 6427.18 1191.41C6431.47 1209.59 6435.42 1229.83 6438.81 1244.04C6444.07 1266.02 6442.5 1260 6443.5 1263.5C6445.47 1270.38 6459.83 1289.04 6461 1290.61C6461.62 1291.41 6462.3 1292.19 6463 1293"
                      stroke="#918375" stroke-linecap="round"/>
                <path id="02_063_010B,02_065_042"
                      d="M6443.5 1263.5C6445.46 1270.38 6459.83 1289.04 6461 1290.61C6461.62 1291.41 6462.3 1292.19 6463 1293M6380.58 1257.49C6389.55 1259.02 6402.71 1260.59 6411.81 1261.4C6425.58 1262.21 6431.34 1262.47 6434.43 1262.87C6436.57 1263 6439.86 1263 6443.25 1263"
                      stroke="#918375" stroke-linecap="round"/>
                <path id="02_061_010LOOP,02_063_010B"
                      d="M6265 1266.1C6265 1265.84 6273.83 1235.16 6279 1217M6279.25 1217C6279.52 1217 6281.31 1217 6285.72 1217.46C6292.43 1218.16 6303.67 1222.92 6322.07 1231.6C6333.23 1236.86 6347.46 1245 6357.2 1249.76C6366.94 1254.53 6371.6 1255.97 6380.58 1257.49"
                      stroke="#918375" stroke-linecap="round"/>
                <path id="02_064_010C,02_065_042"
                      d="M6390.09 1345.97C6400.21 1347.51 6407.67 1346.51 6412.54 1345.52C6426.27 1342.75 6433.72 1336.21 6442.65 1327.1C6447.63 1322.01 6450.4 1314.93 6452.27 1310.54C6454.12 1306.56 6456.23 1302.87 6460.19 1296.99C6461.13 1295.71 6461.78 1295.06 6462.46 1293.59"
                      stroke="#918375" stroke-linecap="round"/>
                <path id="02_061_010LOOP,02_064_010C"
                      d="M6266 1267C6266.52 1267.26 6267.97 1268.05 6274.15 1272.65C6279.25 1276.44 6287.92 1283.79 6297.74 1292.41C6307.57 1301.03 6318.17 1310.86 6324.69 1316.64C6331.2 1322.42 6333.3 1323.86 6338.76 1326.83C6344.23 1329.79 6353 1334.25 6359.82 1337.33C6371.03 1342.4 6380.52 1344.51 6390.08 1345.97"
                      stroke="#918375" stroke-linecap="round"/>
                <path id="02_060_041,02_061_010LOOP_2"
                      d="M6065.83 1367.16C6066.15 1367.8 6069.35 1371.65 6075.61 1376.62C6079.34 1379.59 6086.13 1381.35 6093.34 1383.17C6098.48 1384.46 6105.1 1384.27 6113.23 1383.87C6119.98 1383.54 6126.34 1380.97 6132.38 1378.15C6140.05 1374.58 6142.42 1370.88 6149.91 1362.59C6153.16 1358.99 6155.65 1353.63 6158.72 1347.14C6160.18 1344.05 6161.14 1341.22 6163.35 1335.9C6165.57 1330.59 6168.92 1322.83 6172.33 1316.24C6175.74 1309.65 6179.09 1304.46 6182.38 1300.03C6185.67 1295.59 6188.78 1292.07 6192.19 1288.74C6198.95 1282.13 6204.81 1277.97 6209.72 1275.07C6216.45 1271.1 6222.73 1268.92 6228.51 1267.56C6232.34 1266.65 6238.13 1266.03 6243.85 1265.62C6255.09 1265.2 6261.33 1265.36 6262.5 1265.77C6263.11 1266.01 6263.74 1266.33 6264.4 1266.66"
                      stroke="#918375" stroke-linecap="round"/>
                <path id="02_066_011LOOP,02_068_011B"
                      d="M6617.03 1045.68C6621.2 1040.65 6623.55 1034.4 6628.43 1012.33C6632.72 992.886 6639.6 956.483 6645.72 931.177C6651.84 905.872 6652.5 903.5 6658.5 889.5C6667.98 867.383 6673.5 859.5 6686 845.5C6704.05 825.284 6715.5 816 6731.09 811.502C6758.68 803.543 6786.96 817.63 6808.08 818.93"
                      stroke="#918375" stroke-linecap="round"/>
                <path id="02_066_011LOOP,02_069_011C"
                      d="M6765.5 889.5C6724.2 865.218 6692 839.5 6686 845.5C6680 851.5 6667.98 867.383 6658.5 889.5C6652.5 903.5 6651.84 905.872 6645.72 931.177C6639.6 956.482 6632.72 992.886 6628.43 1012.33C6623.55 1034.4 6621.2 1040.65 6617.03 1045.68"
                      stroke="#918375" stroke-linecap="round"/>
                <path id="02_066_011LOOP,02_067_011A"
                      d="M6780.5 671.069C6761.38 674.801 6739.01 680.286 6721.71 704.936C6708.59 723.62 6697.05 742.333 6687.1 775.214C6679.78 799.418 6668.41 838.132 6663.77 859.484C6658.44 884.063 6658.5 888.978 6658.5 889.5C6652.5 903.5 6651.84 905.872 6645.72 931.177C6639.6 956.482 6632.72 992.886 6628.43 1012.33C6623.55 1034.4 6621.2 1040.65 6617.03 1045.68"
                      stroke="#918375" stroke-linecap="round"/>
                <path id="02_070_043,02_071_044045046047_BE002"
                      d="M6957.63 954.281C6959.21 978.853 6961.92 996.324 6967.5 1011C6977 1036 6981.5 1045.5 6983.5 1048.5C6989.37 1057.32 7003.18 1075.08 7005.93 1079.27C7008.67 1083.46 7013.09 1089.97 7018.43 1098.25M7018.31 1098C7019.12 1099.13 7026.5 1106.12 7035.41 1112.18C7040.2 1114.24 7044.51 1115.68 7051.44 1116.65C7056.73 1117.23 7205.5 1118 7216 1116.65"
                      stroke="#918375" stroke-linecap="round"/>
                <path id="02_067_011A,02_070_043"
                      d="M6780.5 671.07C6793.71 668.491 6809.53 670.564 6822.67 677.218C6840 686 6849 698 6861 715.5C6864.55 720.676 6866.97 723.432 6873 742.5C6879.55 759.742 6883.31 779.5 6890 787C6893.05 790.325 6909 815 6912.5 819C6914.75 821.569 6930.44 829.799 6938.7 844.662C6945 856 6948.88 863.5 6950.5 876.5C6953.41 899.907 6957.24 948.134 6957.63 954.281"
                      stroke="#918375" stroke-linecap="round"/>
                <path id="02_068_011B,02_070_043"
                      d="M6808.08 818.93C6832.37 820.426 6858.49 797.422 6872.72 788.966C6874.74 788.121 6876.6 787.569 6879.29 787.284C6881.98 787 6885.44 787 6889 787M6890 787C6893.05 790.325 6909 815 6912.5 819C6914.75 821.569 6930.44 829.799 6938.7 844.662C6945 856 6948.88 863.5 6950.5 876.5C6953.41 899.907 6957.24 948.134 6957.63 954.281"
                      stroke="#918375" stroke-linecap="round"/>
                <path id="02_069_011C,02_070_043"
                      d="M6766 890C6796.67 908.031 6806.53 905.084 6811.35 906.035C6819.23 907.588 6833.57 908.64 6850.7 907.554C6863.61 906.736 6886.07 895.612 6913.04 882.642C6924.4 877.512 6927.74 876.685 6933.52 876.275C6937.65 876.136 6944.23 876.136 6951 876.136M6950.5 876.5C6953.41 899.907 6957.24 948.134 6957.63 954.281"
                      stroke="#918375" stroke-linecap="round"/>
                <path id="02_065_042,02_066_011LOOP"
                      d="M6463 1293C6467.01 1289.57 6476.08 1274.69 6494.18 1237.2C6507.62 1209.38 6527.75 1162.79 6539.36 1137.34C6552.51 1108.51 6557.34 1102.63 6564.38 1094.86C6588.9 1067.82 6610.79 1053.21 6617.03 1045.68"
                      stroke="#918375" stroke-linecap="round"/>
                <path id="02_070_043,02_072_048049"
                      d="M6957.63 954.281C6959.21 978.853 6961.92 996.324 6967.5 1011C6977 1036 6981.5 1045.5 6983.5 1048.5C6983.72 1050.68 6985.26 1061.66 6989.34 1091.86C6992.29 1113.74 6995.22 1149.08 6998.2 1172.2C7001.18 1195.31 7003.65 1205.17 7006.28 1213.11"
                      stroke="#918375" stroke-linecap="round"/>
                <path id="02_073_012LOOP,02_074_012A"
                      d="M7114.48 1318.84C7121.02 1327.2 7129.21 1341.2 7135.15 1349.62C7141.08 1358.04 7144.07 1360.78 7146.68 1362.81C7149.3 1364.84 7151.46 1366.08 7155.97 1367.97C7160.48 1369.85 7167.28 1372.34 7174.8 1374.41C7182.33 1376.48 7185.96 1378.63 7195 1380.5C7197.81 1381.2 7207.37 1381.92 7210.61 1381.27C7224.5 1378.5 7224 1378.87 7238 1372.5C7248.84 1367.57 7267.33 1348.62 7272.79 1339.68C7283.8 1321.67 7283.91 1310.95 7286.28 1302.55C7290.82 1286.46 7298.94 1275.19 7307.77 1267.41C7318.54 1257.91 7332.42 1257.22 7340.4 1256.83L7340.62 1256.82"
                      stroke="#918375" stroke-linecap="round"/>
                <path id="02_072_048049,02_073_012LOOP"
                      d="M7006.29 1213.11C7010.87 1226.98 7015.98 1235.23 7020.51 1241.68C7027.1 1251.06 7036.88 1260.51 7048.33 1270.24C7055.05 1275.44 7063.61 1281.16 7071.73 1285.98C7079.86 1290.79 7088.93 1296.81 7098.64 1301.27C7099.72 1301.85 7104.89 1306.59 7114.48 1318.84"
                      stroke="#918375" stroke-linecap="round"/>
                <path id="02_073_012LOOP,02_075_012B"
                      d="M7114.48 1318.84C7121.02 1327.2 7129.21 1341.2 7135.15 1349.62C7141.08 1358.04 7144.07 1360.78 7146.68 1362.81C7149.3 1364.84 7151.46 1366.08 7155.97 1367.97C7160.48 1369.85 7167.28 1372.34 7174.8 1374.41C7182.33 1376.48 7185.96 1378.63 7195 1380.5C7197.81 1381.2 7207.37 1381.92 7210.61 1381.27C7224.5 1378.5 7224 1378.87 7238 1372.5C7240.08 1372.66 7249.56 1375.42 7267.82 1390.21C7283.8 1403.16 7293.25 1415.28 7298.23 1418.51C7305.64 1423.3 7311.6 1423.68 7325.43 1424.82"
                      stroke="#918375" stroke-linecap="round"/>
                <path id="02_076_050,02_077_013LOOP"
                      d="M7515 1364.06C7517.85 1356.2 7519.65 1349.63 7523.13 1332.53C7526.61 1315.43 7531.7 1288 7535.39 1270.83C7540.43 1247.4 7546.21 1235.74 7552.41 1224.4C7555.82 1218.65 7559.76 1212.9 7563.02 1209.12C7566.29 1205.33 7568.75 1203.69 7571.29 1202"
                      stroke="#918375" stroke-linecap="round"/>
                <path id="02_074_012A,02_076_050"
                      d="M7340.4 1256.83L7340.62 1256.82C7351.01 1256.3 7357.51 1261.9 7362.22 1265.39C7366.09 1268.26 7370.88 1275.7 7376.35 1284.73C7380.47 1291.55 7382.76 1299.73 7385.19 1309.73C7387.73 1320.2 7388.99 1329.69 7391.8 1337.5C7397.23 1352.63 7402.21 1359.5 7407.46 1365.14C7408.61 1366.22 7409.37 1366.82 7410.36 1367.66C7411.34 1368.49 7412.55 1369.55 7413.79 1370.63L7413.79 1370.63L7414 1371C7415.48 1372.65 7424.71 1382.28 7436.02 1395.57C7449.58 1411.51 7458.27 1414.53 7466.56 1415.78C7476.62 1417.3 7482.67 1412.56 7489.22 1407.84C7493.4 1404.83 7498.25 1398.32 7504.87 1387.42C7508.76 1381.01 7512.15 1371.91 7515 1364.06"
                      stroke="#918375" stroke-linecap="round"/>
                <path id="02_075_012B,02_076_050"
                      d="M7325.43 1424.82C7333.45 1425.48 7339.81 1423.7 7346.46 1421.53C7357.74 1417.86 7367.98 1411.46 7375.69 1405.83C7390.29 1395.17 7393.81 1387.24 7398.5 1380.5C7400.43 1378.64 7405 1373.5 7407 1372.5C7408.11 1371.95 7409.5 1371 7414 1371C7415.48 1372.65 7424.71 1382.28 7436.02 1395.57C7449.58 1411.51 7458.27 1414.53 7466.56 1415.78C7476.62 1417.3 7482.67 1412.56 7489.22 1407.84C7493.4 1404.83 7498.26 1398.32 7504.87 1387.42C7508.76 1381.01 7512.15 1371.91 7515 1364.06"
                      stroke="#918375" stroke-linecap="round"/>
                <path id="02_078_013A,02_080_051"
                      d="M7708.84 964.045C7722.42 958.714 7739.59 977.857 7755.39 997.711C7767.47 1012.89 7774.35 1038.08 7784.88 1075.78C7791.62 1099.89 7799.04 1135.79 7804 1156C7810.84 1180.9 7815.4 1189.06 7821.69 1197.87C7825.17 1202.31 7829.24 1206.69 7835.32 1212.14C7836.59 1212.78 7858.45 1235.55 7869.26 1246.7C7876.52 1254.18 7889.68 1260.89 7898.75 1262.9C7907.92 1264.94 7926.27 1256.59 7933.39 1253.8"
                      stroke="#918375" stroke-linecap="round"/>
                <path id="02_079_013B,02_080_051"
                      d="M7733 1188C7750.5 1185 7765.54 1172.52 7780.5 1164.5C7785.11 1162.03 7797.24 1156 7804 1156C7810.84 1180.9 7815.4 1189.06 7821.69 1197.87C7825.17 1202.32 7829.24 1206.69 7835.31 1212.15C7836.59 1212.78 7858.44 1235.55 7869.26 1246.7C7876.52 1254.19 7889.68 1260.89 7898.75 1262.91C7907.92 1264.94 7921.24 1259.65 7933.38 1253.8"
                      stroke="#918375" stroke-linecap="round"/>
                <path id="02_080_051,03_001_001"
                      d="M7933.38 1253.8C7933.38 1253.8 7941 1252.5 7949.5 1241C7958 1229.5 7967 1209.5 7971.5 1195C7976 1180.5 7973 1144.5 7983.5 1130C7994 1115.5 8002 1126.5 8009 1118"
                      stroke="#918375" stroke-linecap="round"/>
                <path id="02_077_013LOOP,02_078_013A"
                      d="M7573 1201C7585.73 1186.38 7595.5 1168.75 7600.5 1130.5C7604.7 1098.4 7619.32 1082.8 7636.22 1066.53C7645.49 1057.61 7653.65 1038.6 7663.63 1015.34L7663.83 1014.87C7678.62 980.405 7695.12 969.43 7708.83 964.046"
                      stroke="#918375" stroke-linecap="round"/>
                <path id="02_077_013LOOP,02_079_013B"
                      d="M7600.57 1130.49C7603.39 1130.49 7618.45 1134.24 7634.13 1141.67C7649.43 1148.91 7654.51 1157.61 7679.07 1176.97C7692.22 1187.34 7709.77 1191.98 7733 1188M7573 1201C7585.73 1186.38 7595.5 1168.75 7600.5 1130.5"
                      stroke="#918375" stroke-linecap="round"/>
                <path id="02_045_031,02_050_036"
                      d="M5179 1147.96C5182.61 1148.31 5195.28 1146.24 5206.23 1138.17C5211.81 1134.05 5220.73 1115.45 5239.28 1062.74C5252.42 1025.4 5260.22 991.78 5269 958C5282.12 907.512 5299.59 865.685 5312 852C5321.67 841.341 5332.85 826.373 5337.85 799.798C5347.29 749.684 5349.23 709.413 5352.39 697.682C5360.14 668.975 5379.16 647.636 5397.78 629.531C5402.81 625.46 5407.6 622.331 5410.98 620.371C5414.35 618.412 5416.15 617.716 5418 617M5186.34 1148.05C5183.77 1147.91 5182.84 1147.78 5181.83 1147.57C5179.75 1147.1 5171.41 1145.49 5153.94 1139.77C5141.77 1133.14 5134.09 1128.87 5129.43 1117.83C5126.48 1110.84 5125.45 1101.21 5119.16 1084.31C5115.74 1075.14 5112.39 1064.76 5104.85 1057.83C5092.9 1046.85 5082.35 1039.95 5074.06 1040.37C5064.61 1040.85 5057.13 1040.22 5046.35 1049.59C5037.23 1057.53 5032.43 1065.37 5031 1067C5026.96 1065.91 5024.11 1064.94 5022.5 1064C5019.3 1062.27 5012.6 1057.79 5002.25 1047.95C4995.61 1039.7 4986.29 1021.43 4977.67 987.494C4972.85 968.511 4968.62 945.775 4960.78 918.2C4952.95 890.624 4942.85 858.723 4933.43 838.666C4919.47 808.916 4908.45 787.05 4891.17 782.022C4884.78 780.163 4877.1 778.705 4868.99 781.789"
                      stroke="#918375" stroke-linecap="round"/>
                <path id="02_045_031,02_051_037"
                      d="M5179 1147.96C5182.61 1148.31 5195.28 1146.24 5206.23 1138.17C5211.81 1134.05 5220.73 1115.45 5239.28 1062.74C5252.42 1025.4 5260.22 991.78 5269 958C5282.12 907.512 5299.59 865.685 5312 852C5344.4 854.303 5383.35 834.039 5393.73 828.642L5394 828.5C5404.75 824.383 5413.3 818.857 5417.59 817.875C5419.44 817.465 5420.66 817.236 5423.75 817M5186.34 1148.05C5183.77 1147.91 5182.84 1147.78 5181.83 1147.57C5179.75 1147.1 5171.41 1145.49 5153.94 1139.77C5141.77 1133.14 5134.09 1128.87 5129.43 1117.83C5126.48 1110.84 5125.45 1101.21 5119.16 1084.31C5115.74 1075.14 5112.39 1064.76 5104.85 1057.83C5092.9 1046.85 5082.35 1039.95 5074.06 1040.37C5064.61 1040.85 5057.13 1040.22 5046.35 1049.59C5037.23 1057.53 5032.43 1065.37 5031 1067C5026.96 1065.91 5024.11 1064.94 5022.5 1064C5019.3 1062.27 5012.6 1057.79 5002.25 1047.95C4995.61 1039.7 4986.29 1021.43 4977.67 987.494C4972.85 968.511 4968.62 945.775 4960.78 918.2C4952.95 890.624 4942.85 858.723 4933.43 838.666C4919.47 808.916 4908.45 787.05 4891.17 782.022C4884.78 780.163 4877.1 778.705 4868.99 781.789"
                      stroke="#918375" stroke-linecap="round"/>
                <path id="02_045_031,02_052_038_BE001"
                      d="M5179 1147.96C5182.61 1148.31 5195.28 1146.24 5206.23 1138.17C5211.81 1134.05 5220.73 1115.45 5239.28 1062.74C5252.42 1025.4 5260.22 991.78 5269 958M5269 957C5271.93 957 5385.92 959.235 5400.5 963.5M5186.34 1148.05C5183.77 1147.91 5182.84 1147.78 5181.83 1147.57C5179.75 1147.1 5171.41 1145.49 5153.94 1139.77C5141.77 1133.14 5134.09 1128.87 5129.43 1117.83C5126.48 1110.84 5125.45 1101.21 5119.16 1084.31C5115.74 1075.14 5112.39 1064.76 5104.85 1057.83C5092.9 1046.85 5082.35 1039.95 5074.06 1040.37C5064.61 1040.85 5057.13 1040.22 5046.35 1049.59C5037.23 1057.53 5032.43 1065.37 5031 1067C5026.96 1065.91 5024.11 1064.94 5022.5 1064C5019.3 1062.27 5012.6 1057.79 5002.25 1047.95C4995.61 1039.7 4986.29 1021.43 4977.67 987.494C4972.85 968.511 4968.62 945.775 4960.78 918.2C4952.95 890.624 4942.85 858.723 4933.43 838.666C4919.47 808.916 4908.45 787.05 4891.17 782.022C4884.78 780.163 4877.1 778.705 4868.99 781.789"
                      stroke="#918375" stroke-linecap="round"/>
                <path id="02_044_030QTE4,02_045_031"
                      d="M4645.51 1060.55C4645.81 1061.89 4653.49 1066.84 4672.82 1089.37C4675.5 1092.5 4679.05 1095 4682 1101.5C4685.15 1108.44 4691.27 1119.5 4692 1123M4692 1122.52C4695.44 1120.94 4708.74 1107.14 4724.99 1082.92C4733.89 1069.65 4741.77 1052.89 4754.06 1017.61C4766.35 982.331 4782.21 928.662 4792.1 896.785C4804.69 856.211 4813.46 839.271 4821.72 824.338C4834.34 801.541 4853.51 787.677 4868.99 781.789"
                      stroke="#918375" stroke-linecap="round"/>
                <path id="02_050_036,02_056_040"
                      d="M5426.12 616.805C5428.12 616.805 5438.55 620.652 5452.79 634.235C5459.69 640.817 5465.4 655.144 5473.35 674.307C5477.43 684.134 5480.3 694.752 5483.75 710.408C5487.19 726.063 5490.78 746.583 5493.53 759.292C5497.26 776.503 5500.93 782.39 5505.23 788.294C5513.52 799.656 5523.29 809.361 5530.13 816.787C5544.01 831.857 5548.71 845.187 5553.63 859.903C5556.85 869.53 5557.59 866.282 5560.53 896C5563.48 925.717 5566.07 970.177 5567.71 994.257C5573.16 1028.88 5583.19 1062.4 5590.35 1069.44C5592.07 1070.64 5593.47 1071.07 5596.12 1072.8"
                      stroke="#918375" stroke-linecap="round"/>
                <path id="02_033_007B039,02_053_008LOOP"
                      d="M3964.53 884.34C3979.33 895.06 3995.12 910.557 4012.13 931.376C4029.14 952.195 4046.38 978.535 4058.62 999.528C4070.85 1020.52 4077.56 1035.37 4088.67 1074.86C4099.79 1114.36 4115.12 1178.06 4129.24 1225.48"
                      stroke="#918375" stroke-linecap="round"/>
                <path id="02_053_008LOOP,02_055_008B"
                      d="M4129.23 1225.48C4152.38 1303.22 4173.9 1339.4 4185.48 1353.87C4207.75 1381.73 4237.63 1394.53 4259.99 1403.06C4294.77 1416.32 4325.29 1425.53 4341.03 1433.53C4365.74 1446.07 4378.09 1467.12 4381.96 1478.75C4385.84 1490.37 4389.7 1501.96 4393.08 1515.98C4398.57 1538.68 4422.99 1558.99 4444.54 1575.49C4467.92 1593.39 4498.48 1594.4 4532.78 1594.42"
                      stroke="#918375" stroke-linecap="round"/>
                <path id="02_055_008B,02_056_040"
                      d="M4532.78 1594.42C4543.11 1594.42 4551.72 1588.64 4561.86 1582.36C4569.52 1577.62 4582.63 1561.53 4600.75 1530.86C4633.27 1475.82 4658.5 1422 4670.73 1409.5C4678.48 1401.58 4689.12 1394.15 4696.61 1391.01C4700.26 1389.79 4714.5 1384 4733 1359C4742.25 1346.5 4754 1324.5 4776 1324.5C4813.01 1324.5 4838.26 1400.1 4855.64 1414.84C4869.3 1426.43 4905.94 1456.77 4930.9 1460.34C4963.5 1465 4969.31 1461.77 5005.38 1454.01C5025.5 1449.67 5048.2 1439.87 5072.2 1428.14C5096.21 1416.41 5120.54 1401.86 5139.83 1387.31C5174.59 1361.11 5195.58 1331.86 5215.32 1301.65C5241.05 1262.28 5258.85 1225.26 5272.72 1206.44C5289.56 1183.58 5331.08 1165.52 5352.87 1157.86C5370.78 1151.56 5392.69 1146.14 5426.74 1136.29C5445 1131.01 5459.13 1131.44 5471.89 1127.76C5484.91 1124.01 5496.46 1118.57 5507.39 1114.22C5519.79 1109.28 5533.76 1092.47 5545.84 1077.28C5562.49 1054.28 5565.68 1006.04 5567.5 995.001M5567.71 994.258C5573.15 1028.88 5583.18 1062.4 5590.34 1069.44C5592.07 1070.64 5593.47 1071.07 5596.12 1072.81"
                      stroke="#918375" stroke-linecap="round"/>
                <path id="02_054_008A,02_056_040"
                      d="M4418.65 1184.61C4445.22 1187.6 4466.63 1200.01 4483.47 1210.75C4500.36 1221.52 4514.65 1240.12 4529.46 1261.16C4536.95 1271.8 4542.54 1283.64 4549.69 1304.26C4556.84 1324.89 4564.9 1354.28 4569.49 1370.28C4578.74 1402.53 4650.5 1398.5 4670.5 1409.5M4670.73 1409.5C4678.48 1401.58 4689.13 1394.15 4696.61 1391.01C4700.26 1389.79 4714.5 1384 4733 1359C4742.26 1346.5 4754 1324.5 4776 1324.5C4813.02 1324.5 4838.26 1400.1 4855.64 1414.84C4869.3 1426.43 4905.95 1456.77 4930.9 1460.34C4963.5 1465 4969.31 1461.77 5005.38 1454.01C5025.5 1449.67 5048.2 1439.87 5072.21 1428.14C5096.21 1416.41 5120.54 1401.86 5139.83 1387.31C5174.59 1361.11 5195.58 1331.86 5215.32 1301.65C5241.05 1262.28 5258.86 1225.26 5272.72 1206.44C5289.56 1183.58 5331.08 1165.52 5352.87 1157.86C5370.78 1151.56 5392.69 1146.14 5426.74 1136.29C5445.01 1131.01 5459.13 1131.44 5471.89 1127.76C5484.91 1124.01 5496.46 1118.57 5507.4 1114.22C5519.8 1109.28 5533.76 1092.47 5545.85 1077.28C5562.49 1054.28 5565.68 1006.04 5567.5 995.001M5567.71 994.258C5573.16 1028.88 5583.19 1062.4 5590.35 1069.44C5592.07 1070.64 5593.47 1071.07 5596.12 1072.81"
                      stroke="#918375" stroke-linecap="round"/>
                <path id="02_053_008LOOP,02_054_008A"
                      d="M4185.5 1353.5C4201.5 1357.5 4221.5 1347 4242 1320C4249.91 1309.58 4273.07 1256.76 4302 1225.5C4319 1207.13 4325.78 1196.62 4353.25 1186.86C4370.19 1180.84 4392.96 1181.73 4418.65 1184.61M4129.23 1225.48C4152.38 1303.22 4173.9 1339.4 4185.48 1353.87"
                      stroke="#918375" stroke-linecap="round"/>
                <path id="02_051_037,02_056_040"
                      d="M5427 817C5437.8 818.843 5466.16 825.746 5481.98 833.45C5508.91 846.563 5515.24 858.958 5524 867.911C5531.27 875.229 5539.96 883.2 5551.78 891.847C5554.53 893.598 5556.69 894.388 5560 896M5560.53 896C5563.47 925.718 5566.07 970.178 5567.71 994.257C5573.15 1028.88 5583.19 1062.4 5590.35 1069.44C5592.07 1070.64 5593.47 1071.07 5596.12 1072.8"
                      stroke="#918375" stroke-linecap="round"/>
            </g>
            <g id="chapter1">
                <ellipse id="Ellipse" cx="710.894" cy="952.432" rx="0.893529" ry="1.4321" fill="#00FFAA"/>
            </g>
            <g id="chapter3">
                <ellipse id="Ellipse_2" cx="8010.89" cy="1123.43" rx="0.893529" ry="1.4321" fill="#FF00EA"/>
            </g>
        </g>
    </g>
    <defs>
        <clipPath id="clip0_2061_8430">
            <rect width="8179" height="2154" fill="white"/>
        </clipPath>
    </defs>
</svg>
