<svg width="8350" height="2154" viewBox="0 0 8350 2154" fill="none" xmlns="http://www.w3.org/2000/svg">
    <g id="&#231;&#172;&#172;&#228;&#184;&#137;&#231;&#171;&#160;frame" clip-path="url(#clip0_2061_9734)">
        <g id="Frame 97">
            <g id="lines">
                <path id="03_005_001A,03_007_003004" d="M965.5 913C979.649 912.217 1008 920 1030 962" stroke="#918375"
                      stroke-linecap="round"/>
                <path id="03_004_001LOOP,03_005_001A"
                      d="M747.832 1095.29C773.776 1095.29 800.226 1070.57 826.113 1043.49C860.831 1007.17 880.406 963.054 899.742 945.246C927.175 919.98 935.318 916.357 965.5 913"
                      stroke="#918375" stroke-linecap="round"/>
                <path id="03_003_002,03_004_001LOOP" d="M608 1165C658.5 1109.91 701 1095.29 747.832 1095.29"
                      stroke="#918375" stroke-linecap="round"/>
                <path id="03_002_QTE1LOOP,03_003_002" d="M567 1222C598.5 1176 602.5 1171 608 1165" stroke="#918375"
                      stroke-linecap="round"/>
                <path id="03_001_001,03_002_QTE1LOOP"
                      d="M567 1222C545.703 1253.1 527.595 1286.5 463.526 1298.19C428.46 1304.58 374.5 1313 299.5 1292.5"
                      stroke="#918375" stroke-linecap="round"/>
                <path id="03_006_001B,03_007_003004"
                      d="M966.637 1028.03C981.24 1019.39 989.762 1012.2 994.249 1007.79C1000.99 1001.16 1002.53 996.949 1012.94 980.063C1022.58 966.897 1025.13 965.032 1026.41 964.16C1027.08 963.75 1027.8 963.404 1030 962"
                      stroke="#918375" stroke-linecap="round"/>
                <path id="03_004_001LOOP,03_006_001B"
                      d="M747.832 1095.29C773.776 1095.29 800.226 1070.57 826.113 1043.49M826 1044C835.423 1045.62 870.254 1046.92 883.267 1048.65C896.28 1050.37 904.339 1050.37 912.94 1049.1C921.542 1047.83 930.442 1045.3 939.778 1041.51C949.114 1037.73 958.616 1032.77 966.638 1028.03"
                      stroke="#918375" stroke-linecap="round"/>
                <path id="03_007_003004,03_008_002LOOP"
                      d="M1030.52 962.113C1030.77 962.643 1035.02 968.744 1044.07 984.595C1049.59 994.265 1054.62 1008.66 1059.19 1020.79C1063.77 1032.93 1067.14 1042.73 1070.81 1051.62C1077.77 1068.48 1084.96 1079.02 1089.62 1084.03C1095.46 1090.32 1103.85 1093.88 1116.02 1096.64"
                      stroke="#918375" stroke-linecap="round"/>
                <path id="03_009_002A,03_011_005006007008"
                      d="M1251.22 848.133C1261.63 838.566 1268.7 838.956 1274.28 838.842C1281.34 838.699 1288.6 842.077 1299.07 848.38C1307.31 853.338 1312.51 860.338 1315.97 865.782C1319.86 871.928 1322.36 879.251 1324.95 887.227C1330.07 903.027 1331.02 906.518 1334.09 912.408C1335.02 913.879 1337.34 919.125 1338 920"
                      stroke="#918375" stroke-linecap="round"/>
                <path id="03_008_002LOOP,03_009_002A"
                      d="M1116.02 1096.64C1123.25 1098.28 1129.96 1095.38 1136.58 1092.18C1147.78 1086.76 1152.77 1076.83 1159.02 1063.55C1162.49 1056.16 1167.08 1042.13 1170.9 1032.92C1176.58 1019.21 1181.66 1012.05 1186.18 1006.11C1194.66 997.306 1197.92 995.436 1201.71 993.495C1202.84 993.024 1204.22 992.626 1207.52 991.013M1206.99 990.237C1206.99 989.598 1208.68 981.552 1211.35 968.836L1211.4 968.59C1212.46 963.561 1212.61 961.513 1214.43 949.76C1216.25 938.006 1219.68 916.595 1223.27 901.229C1226.85 885.863 1230.49 877.192 1233.54 870.958C1238.45 860.932 1244.59 854.233 1251.22 848.134"
                      stroke="#918375" stroke-linecap="round"/>
                <path id="03_010_002B,03_011_005006007008"
                      d="M1324.95 887.227C1330.07 903.027 1331.02 906.519 1334.09 912.408C1335.02 913.88 1337.34 919.126 1338 920M1281.73 959.115C1285.26 955.71 1289 951.208 1292.38 946.752C1295.75 942.296 1298.54 937.907 1301.84 930.507C1305.15 923.107 1308.9 912.83 1311.63 906.304C1315.49 897.099 1317.81 893.192 1319 892C1319.5 891.5 1321 889.5 1324.5 887"
                      stroke="#918375" stroke-linecap="round"/>
                <path id="03_008_002LOOP,03_010_002B"
                      d="M1116.02 1096.64C1123.25 1098.28 1129.96 1095.38 1136.58 1092.18C1147.78 1086.76 1152.77 1076.83 1159.02 1063.55C1162.49 1056.16 1167.08 1042.13 1170.9 1032.92C1176.58 1019.21 1181.66 1012.05 1186.18 1006.11C1194.66 997.306 1197.92 995.436 1201.71 993.495C1202.84 993.023 1204.22 992.626 1207.52 991.012M1207 990.806C1207.97 990.699 1213.98 989.411 1230.88 986.872C1242.18 985.174 1251.3 980.441 1258.85 976.455C1268.04 971.6 1275.42 965.203 1281.73 959.115"
                      stroke="#918375" stroke-linecap="round"/>
                <path id="03_011_005006007008,03_012_003LOOP"
                      d="M1338.5 920C1340.76 925.193 1354.74 937.878 1366.89 945.033C1371.74 947.887 1380.17 949.833 1391.08 952.085C1399.41 953.805 1409.24 952.222 1421.77 950.089C1435.18 947.807 1444.99 945.567 1451.67 945.9C1467.93 946.71 1476.98 954.554 1481.96 958.342C1484.98 960.636 1491.5 971.059 1501.5 985.849C1509.82 998.154 1516.99 1003.69 1520.42 1005.99C1527.26 1009.11 1529.5 1009.5 1544 1010.5"
                      stroke="#918375" stroke-linecap="round"/>
                <path id="03_012_003LOOP,03_015_003C"
                      d="M1544.5 1010.5C1572 1012.5 1588.5 1038.5 1597.27 1051.74C1605.75 1064.54 1614.52 1081.73 1623.27 1110.97C1628.83 1129.58 1632.32 1156.98 1635.28 1181C1638.25 1205.02 1639.47 1225.12 1641.92 1246.6C1644.38 1268.08 1648.03 1290.31 1652.66 1310.3C1661.31 1347.71 1672.07 1371.01 1679.13 1382.07C1685.59 1390.69 1692.08 1397.51 1698.22 1402.73C1701.01 1404.91 1708.96 1412.9 1713 1416"
                      stroke="#918375" stroke-linecap="round"/>
                <path id="03_012_003LOOP,03_013_003A"
                      d="M1544.5 1010.5C1572 1012.5 1588.5 1038.5 1597.27 1051.74C1605.75 1064.54 1614.52 1081.73 1623.27 1110.97C1628.83 1129.58 1632.32 1156.98 1635.28 1181M1635.5 1181C1637.09 1183.12 1647.93 1194.03 1668.77 1208.85C1688.77 1223.09 1701.36 1219.94 1710.34 1221.77C1715.77 1222.09 1719.9 1223.54 1725.5 1224C1731 1224.45 1736 1225.5 1742 1227"
                      stroke="#918375" stroke-linecap="round"/>
                <path id="03_015_003C,03_017_009010"
                      d="M1713 1416.12C1714.79 1416.92 1723.58 1424.5 1732.65 1436.67C1735.09 1439.93 1737.28 1446.6 1741.29 1458.41C1746.15 1472.74 1750.72 1489.15 1756.44 1502.2C1763.18 1517.58 1781.61 1531.95 1793.59 1538.42C1809.97 1547.26 1828.83 1539.05 1838.99 1535.74C1844.39 1533.98 1850.34 1529.03 1857.45 1523.12C1864.75 1517.05 1873.42 1503.99 1883.34 1486.45C1888 1478.22 1890.68 1470.7 1893.41 1461.94C1896.14 1453.18 1902.89 1405.13 1908 1366.5"
                      stroke="#918375" stroke-linecap="round"/>
                <path id="03_013_003A,03_017_009010"
                      d="M1742.73 1227C1744.87 1227 1760.5 1230.98 1781.5 1239.84C1788.58 1242.83 1795.97 1248.49 1805.39 1255.51C1814.5 1262.31 1826.61 1276.98 1841.92 1296.85C1855.51 1314.49 1861.67 1329.34 1865.79 1337.77C1871.53 1349.51 1876.23 1353.91 1882.22 1358.23C1892.36 1363.37 1896.88 1364.98 1899.63 1365.69C1901.01 1365.99 1903.65 1366.19 1908 1367"
                      stroke="#918375" stroke-linecap="round"/>
                <path id="03_014_003B,03_017_009010"
                      d="M1841.92 1296.85C1855.51 1314.49 1861.67 1329.34 1865.79 1337.77C1871.53 1349.51 1876.23 1353.9 1882.22 1358.23C1892.36 1363.37 1896.88 1364.98 1899.63 1365.69C1901.01 1365.99 1903.65 1366.19 1908 1367M1841.81 1297.29C1836.31 1303.29 1816.64 1322.07 1794.5 1333.5C1786.62 1337.57 1780.31 1340.74 1769.23 1342.08"
                      stroke="#918375" stroke-linecap="round"/>
                <path id="03_012_003LOOP,03_014_003B"
                      d="M1544.5 1010.5C1572 1012.5 1588.5 1038.5 1597.27 1051.74C1605.75 1064.54 1614.52 1081.73 1623.27 1110.97C1628.83 1129.58 1632.32 1156.98 1635.28 1181C1638.25 1205.02 1639.47 1225.12 1641.92 1246.6C1644.38 1268.08 1648.03 1290.31 1652.66 1310.3M1769.23 1342.08C1758.22 1343.41 1739.77 1344.24 1719.58 1343.94C1695.43 1343.57 1666 1321 1653 1310.5"
                      stroke="#918375" stroke-linecap="round"/>
                <path id="03_012_003LOOP,03_016_003D"
                      d="M1544.5 1010.5C1572 1012.5 1588.5 1038.5 1597.27 1051.74C1605.75 1064.54 1614.52 1081.73 1623.27 1110.97C1628.83 1129.58 1632.32 1156.98 1635.28 1181C1638.25 1205.02 1639.47 1225.12 1641.92 1246.6C1644.38 1268.08 1648.03 1290.31 1652.66 1310.3C1661.31 1347.71 1672.07 1371.01 1679.13 1382.07M1753.46 1621.75C1744.58 1621.63 1731.08 1611.16 1718.93 1601.02C1714.44 1597.27 1709.26 1585.29 1701.31 1566.95L1701 1566.24C1696.82 1556.58 1694.54 1545.83 1691.44 1524.46C1688.35 1503.1 1685.01 1471.24 1683.3 1454.19C1681.45 1435.85 1680.9 1395.88 1679.5 1383"
                      stroke="#918375" stroke-linecap="round"/>
                <path id="03_017_009010,03_018_004LOOP"
                      d="M1908 1367.5C1913.11 1328.87 1916.5 1298.98 1923.87 1256.6C1931.25 1214.23 1938.01 1198.52 1943.48 1187.75C1948.95 1176.97 1952.93 1171.6 1958.83 1164.26"
                      stroke="#918375" stroke-linecap="round"/>
                <path id="03_016_003D,03_017_009010"
                      d="M1838.99 1535.74C1844.36 1533.99 1850.26 1529.09 1857.32 1523.23L1857.45 1523.12C1864.75 1517.05 1873.42 1503.99 1883.34 1486.45C1888 1478.22 1890.68 1470.7 1893.41 1461.94C1896.14 1453.18 1902.89 1406.13 1908 1367.5M1838.78 1536.35C1838.78 1536.72 1835.07 1550.06 1829 1571C1824.35 1587.02 1813.76 1599.52 1805.79 1606.48C1795.67 1615.32 1766.38 1621.92 1753.45 1621.75"
                      stroke="#918375" stroke-linecap="round"/>
                <path id="03_018_004LOOP,03_019_004A"
                      d="M1961.5 1161.62C1964.23 1159.28 1970.3 1153.02 1976.48 1147.63C1980.1 1144.48 1987.13 1139.74 1993.05 1136.06C2003.44 1129.59 2011.12 1127.05 2016.45 1125.54C2026.63 1122.66 2028.94 1122.97 2030.31 1122.08C2031.27 1121.46 2031.78 1119.41 2033.38 1113.24C2034.99 1107.07 2037.43 1096.57 2039.9 1087.73C2042.38 1078.9 2044.81 1072.05 2047.2 1066.46C2051.41 1056.56 2055.18 1051.09 2057.91 1047.79C2061.65 1043.27 2067.28 1039.16 2073.75 1035.28C2077.22 1033.21 2081.44 1031.6 2086.47 1029.98C2091.51 1028.35 2097.32 1026.95 2102.28 1025.99C2111.14 1024.28 2119.65 1024.17 2127.32 1024.45"
                      stroke="#918375" stroke-linecap="round"/>
                <path id="03_020_004B,03_021_005LOOP"
                      d="M2135.89 1139.61C2139 1135.42 2141.16 1131.39 2144.89 1119.32C2148.63 1107.26 2153.88 1087.28 2157.71 1074.32C2161.54 1061.36 2164.39 1053.36 2167 1049C2168.5 1046.5 2171.02 1043.36 2172 1042C2173.49 1039.93 2182 1030 2189.5 1025.5C2190.75 1024.75 2209.22 1015.82 2232.09 998.984C2240.77 992.595 2246.95 980.19 2253.82 968.602"
                      stroke="#918375" stroke-linecap="round"/>
                <path id="03_019_004A,03_021_005LOOP"
                      d="M2127 1024.85C2132.22 1025.32 2137.62 1026.98 2141.68 1028.4C2150.18 1031.36 2153.68 1033.4 2166.68 1049.4C2168.18 1046.9 2170.71 1043.76 2171.68 1042.4C2173.18 1040.33 2181.68 1030.4 2189.18 1025.9C2190.43 1025.15 2208.91 1016.22 2231.78 999.383C2240.46 992.994 2246.63 980.588 2253.5 969"
                      stroke="#918375" stroke-linecap="round"/>
                <path id="03_018_004LOOP,03_020_004B"
                      d="M1961.5 1161.62C1964.23 1159.28 1970.3 1153.02 1976.48 1147.63C1980.1 1144.48 1987.13 1139.74 1993.05 1136.06C2003.44 1129.59 2011.12 1127.05 2016.45 1125.54C2026.63 1122.66 2028.94 1122.97 2030.31 1122.08M2030.5 1122.5C2039.07 1130.84 2050.92 1144.09 2053.46 1146.87C2063.53 1157.88 2068.44 1159.81 2076.42 1162.46C2080.15 1163.7 2084.06 1163.7 2089.72 1163.52C2098.42 1163.23 2106.41 1161.06 2112.78 1158.61C2116.43 1157.21 2120.56 1154.66 2124.7 1151.34C2128.85 1148.02 2132.79 1143.8 2135.89 1139.61"
                      stroke="#918375" stroke-linecap="round"/>
                <path id="03_021_005LOOP,03_022_005A"
                      d="M2253.82 968.602C2257.5 962.404 2259.4 957.616 2264.34 947.568C2273.69 928.569 2281.27 914.698 2285.72 908.846C2293.32 898.853 2305.27 884.054 2316.5 877.5C2334.5 867 2339 866.5 2355.41 861.169M2355.5 861C2358.28 859.892 2370.13 848.951 2383.2 832.413C2389.39 824.575 2393.09 813.837 2400.35 792.769L2400.53 792.245C2405.96 776.463 2413.72 750.331 2419.66 733.176C2428.3 708.213 2435.13 697.512 2443.05 687.489C2457.91 670.817 2469.82 658.326 2479.28 651.643C2486.24 647.177 2499 633.5 2524.5 631.5"
                      stroke="#918375" stroke-linecap="round"/>
                <path id="03_022_005A,03_027_014015"
                      d="M2524.57 631.346C2527.81 631.346 2538.81 632.559 2551.57 640.39C2561.01 646.181 2566.41 654.799 2571.9 663.228C2575.59 668.891 2580.22 677.922 2585.14 692.105C2590.07 706.288 2592.4 717.401 2595 728C2597.6 738.6 2597.47 736.973 2600 747"
                      stroke="#918375" stroke-linecap="round"/>
                <path id="03_027_014015,03_028_006LOOP"
                      d="M2600 747C2602.53 757.027 2610.23 786.755 2614.55 800.378C2621.54 822.417 2628.28 833.65 2634.27 841.785C2651.56 860.626 2652.76 860.472 2655 862C2657.24 863.528 2666.82 865.875 2669.5 866.5"
                      stroke="#918375" stroke-linecap="round"/>
                <path id="03_033_005A_1,03_027_014015"
                      d="M2526.82 789.69C2537.58 786.705 2555.14 776.879 2574.11 765.253C2584.6 758.074 2589.74 753.756 2593.41 750.596C2595.06 749.254 2596.27 748.446 2599.36 747"
                      stroke="#918375" stroke-linecap="round"/>
                <path id="03_021_005LOOP,03_033_005A_1"
                      d="M2253.82 968.602C2257.5 962.404 2259.4 957.616 2264.34 947.568C2273.69 928.569 2281.27 914.698 2285.72 908.846C2293.32 898.853 2305.27 884.054 2316.5 877.5C2334.5 867 2339 866.5 2355.41 861.169M2355.5 861C2358.28 859.892 2370.13 848.951 2383.2 832.414C2389.39 824.575 2393.09 813.838 2400.35 792.769L2400.53 792.245M2401 793.038C2403.84 790.808 2413.99 786.049 2432.5 788C2437.99 788.579 2450.67 793.151 2463.5 793.038C2476.33 792.924 2486.07 792.927 2497.67 793.038C2512.92 793.183 2519.5 791.721 2526.82 789.69"
                      stroke="#918375" stroke-linecap="round"/>
                <path id="03_021_005LOOP,03_023_005B"
                      d="M2253.82 968.602C2257.5 962.404 2259.4 957.616 2264.34 947.568C2273.69 928.569 2281.27 914.698 2285.72 908.846C2293.32 898.853 2305.27 884.054 2316.5 877.5C2334.5 867 2339 866.5 2355.41 861.169M2355 861C2355.55 861.554 2357.23 862.948 2361.54 868.089C2370.03 878.202 2378.73 901.697 2389.06 939.33C2395.07 961.214 2398.84 989.706 2401.54 1007.86C2407.06 1044.96 2410.1 1061.28 2422.51 1087.81C2434.88 1105.65 2449.51 1121.73 2461.25 1131.94C2465.79 1135.77 2467.45 1136.88 2472.53 1140.54M2473 1140.5C2473.22 1138.31 2479.2 1122.53 2493.58 1109.95C2502 1102.58 2521 1090.5 2554.44 1102.58"
                      stroke="#918375" stroke-linecap="round"/>
                <path id="03_023_005B,03_024_QTE2"
                      d="M2554.45 1102.58C2567.77 1107.39 2586.37 1121.1 2606.89 1141.06C2611.8 1145.83 2613.76 1149.15 2620.53 1157.23C2636.08 1175.8 2648.5 1191.41 2653.99 1195.92C2663.45 1201.33 2672.48 1204.2 2680.57 1204.53C2686.7 1204.64 2696.93 1204.64 2707.48 1204.64"
                      stroke="#918375" stroke-linecap="round"/>
                <path id="03_089_005B_1,03_024_QTE2"
                      d="M2653.98 1195.92C2663.45 1201.33 2672.48 1204.2 2680.57 1204.53C2686.69 1204.64 2696.93 1204.64 2707.47 1204.64M2654 1196C2653.19 1198.03 2605 1210 2593.74 1218.43C2582.61 1226.75 2570.69 1228.37 2559.4 1228.9"
                      stroke="#918375" stroke-linecap="round"/>
                <path id="03_021_005LOOP,03_089_005B_1"
                      d="M2253.82 968.602C2257.5 962.404 2259.4 957.616 2264.34 947.568C2273.69 928.569 2281.27 914.698 2285.72 908.846C2293.32 898.853 2305.27 884.054 2316.5 877.5C2334.5 867 2339 866.5 2355.41 861.169M2355 861C2355.55 861.554 2357.23 862.948 2361.54 868.089C2370.03 878.202 2378.73 901.697 2389.06 939.33C2395.07 961.214 2398.84 989.706 2401.54 1007.86C2407.06 1044.96 2410.1 1061.28 2422.51 1087.81C2434.88 1105.65 2449.51 1121.73 2461.25 1131.94C2465.79 1135.77 2467.45 1136.88 2472.53 1140.54M2559.4 1228.9C2548.8 1229.4 2542.46 1224.12 2533.18 1217.1C2522.88 1209.31 2514.9 1194.97 2506.95 1182.34C2494.86 1164.7 2489.11 1157.25 2480.5 1147.5C2478.85 1145.95 2476.09 1142.45 2473 1141"
                      stroke="#918375" stroke-linecap="round"/>
                <path id="03_028_006LOOP,03_029_006A016"
                      d="M2669.47 865.979C2671.4 866.126 2678.51 867.016 2693.17 866.285C2704.68 865.711 2713.85 861.67 2719.72 858.849C2732.61 852.655 2739.18 844.253 2745.15 836.283C2751.85 827.325 2754.85 814.602 2757.51 797.369C2759.7 783.29 2761.95 758.156 2766.94 732.698C2771.92 707.239 2779.15 682.161 2784.71 665.185C2790.28 648.21 2793.97 640.096 2797.42 633.703C2803.97 622.885 2812.03 613.9 2821.32 605.867C2825.74 602.26 2829.58 599.604 2835.32 595.527"
                      stroke="#918375" stroke-linecap="round"/>
                <path id="03_032_007LOOP,03_035_007B"
                      d="M2928.8 490.096C2941.52 485.005 2961.76 490.047 2972.9 495.191C2977.61 497.363 2982.68 504.211 2989.02 513.474C2992.26 518.2 2994.4 523.705 3000.57 542.099C3006.74 560.492 3016.58 591.793 3023.26 611.306C3029.95 630.82 3033.17 637.596 3036.53 643.588C3039.89 649.58 3043.27 654.582 3045.91 658.046C3048.54 661.51 3050.31 663.285 3053.12 667.069"
                      stroke="#918375" stroke-linecap="round"/>
                <path id="03_029_006A016,03_032_007LOOP"
                      d="M2841.41 591.284C2842.71 590.639 2853.38 576.744 2865.34 555.979C2867.84 551.63 2873.31 543.12 2882.25 529.049C2890.03 516.817 2898.26 509.335 2905.17 503.646C2913.11 497.1 2921.89 492.863 2928.8 490.096"
                      stroke="#918375" stroke-linecap="round"/>
                <path id="03_028_006LOOP,03_031_006C025"
                      d="M2669.47 865.979C2671.4 866.126 2678.51 867.016 2693.17 866.285C2704.68 865.711 2713.85 861.67 2719.72 858.849C2732.61 852.655 2739.18 844.253 2745.15 836.283C2762.65 813.358 2803 805.5 2818.29 810.075C2834.73 814.994 2852.41 821.594 2872.5 838.6C2886.34 850.322 2905.25 870.958 2916.52 882.226C2929.97 895.691 2941.98 902.326 2958.21 910.442C2969.56 915.146 2982.85 917.87 3002.6 919.716C3013.57 920.344 3026.49 920.344 3039.8 920.344"
                      stroke="#918375" stroke-linecap="round"/>
                <path id="03_028_006LOOP,03_030_006B024"
                      d="M2669.47 865.979C2671.4 866.127 2678.51 867.016 2693.17 866.286C2704.68 865.712 2713.85 861.67 2719.72 858.849C2732.61 852.655 2739.18 844.254 2745.15 836.283C2762.65 813.358 2803 805.5 2818.29 810.075C2834.73 814.995 2852.41 821.595 2872.5 838.601M2872.5 838.5C2914.5 839.5 2922.31 808.829 2955 797C2975.74 789.494 2975.24 788.417 3001.17 791.471"
                      stroke="#918375" stroke-linecap="round"/>
                <path id="03_035_007B,03_036_019020021022023"
                      d="M3054.24 667.652C3055.59 668.734 3063.96 679.26 3077.32 701.308C3083.31 711.184 3085.79 718.112 3088.9 722.31C3094.05 729.244 3101.28 735.515 3109.41 740.942C3114.04 744.028 3120.24 746.907 3127 749.446C3133.75 751.984 3141.03 753.87 3147.67 755.178C3154.31 756.486 3160.1 757.16 3167.13 757.506C3174.15 757.853 3182.23 757.853 3190.56 757.853"
                      stroke="#918375" stroke-linecap="round"/>
                <path id="03_032_007LOOP,03_034_007A017018_BE001"
                      d="M2928.8 490.096C2941.52 485.005 2961.76 490.047 2972.9 495.191C2977.61 497.363 2982.68 504.211 2989.02 513.474C2992.26 518.2 2994.4 523.705 3000.57 542.099C3006.74 560.492 3016.58 591.793 3023.26 611.306M3024 612C3027.78 613.616 3036.5 617.437 3057.01 620.492C3066.23 621.865 3079.65 621.249 3090.49 620.779C3109.33 619.964 3121.24 617.718 3128.03 616.904C3131.05 616.494 3133.21 616.09 3137.01 615.882C3140.81 615.673 3146.2 615.673 3151.75 615.673"
                      stroke="#918375" stroke-linecap="round"/>
                <path id="03_036_019020021022023,03_041_028029030031032"
                      d="M3192 758C3220 762 3223.54 768.5 3234 777.5C3239.1 781.884 3244 792.003 3249.15 801.482C3255.02 812.296 3261.73 824.409 3269.6 834.089C3279.75 846.58 3298.47 852.512 3305.77 854.621C3311.57 856.158 3316.1 857.609 3318.9 858.69C3320.44 859.413 3325.15 861.392 3327 862.5"
                      stroke="#918375" stroke-linecap="round"/>
                <path id="03_031_006C025,03_041_028029030031032"
                      d="M3041.27 920C3042.98 918.69 3056.11 913.89 3080.38 903.467C3089.74 899.45 3096.92 892.82 3105.27 887.644C3107.29 886.433 3109.19 884.026 3120.27 876M3305.77 854.621C3311.57 856.159 3316.1 857.61 3318.9 858.691C3320.44 859.414 3325.15 861.392 3327 862.5M3120.5 876C3122.66 877.62 3153.1 889.733 3165.92 891.747C3193 896.001 3206 892.883 3233 888.5L3233.13 888.479C3236.03 888.009 3237.31 887.802 3254.76 881.839C3279.48 869.961 3291.09 861.799 3296.42 858.452C3298.89 857.077 3300.86 856.36 3305.61 855.078"
                      stroke="#918375" stroke-linecap="round"/>
                <path id="03_030_006B024,03_041_028029030031032"
                      d="M3001.17 791.471C3012.95 792.857 3023.25 799.213 3034.18 805.349C3044.78 811.303 3058.41 824.504 3073.9 840.48C3092.3 859.46 3110.33 872.511 3120.5 876C3122.66 877.62 3153.1 889.733 3165.92 891.747C3193 896 3206 892.883 3233 888.5L3233.13 888.479C3236.04 888.008 3237.31 887.802 3254.77 881.838C3279.49 869.96 3291.09 861.799 3296.42 858.452C3298.89 857.077 3300.86 856.36 3305.61 855.078M3305.77 854.621C3311.57 856.159 3316.1 857.609 3318.9 858.691C3320.44 859.413 3325.15 861.392 3327 862.5"
                      stroke="#918375" stroke-linecap="round"/>
                <path id="03_024_QTE2,03_025_012"
                      d="M2708.5 1205C2739 1201.5 2746.18 1193.94 2764.32 1185.93C2791.1 1174.09 2797.42 1157.83 2810.96 1135.32C2820.81 1118.95 2834.32 1091.15 2842.85 1075.37C2853.32 1056 2861.28 1048.41 2871.05 1040.28C2888.75 1025.56 2910.61 1027.25 2934.89 1033.7"
                      stroke="#918375" stroke-linecap="round"/>
                <path id="03_025_012,03_039_026"
                      d="M2934.89 1033.7C2945.2 1036.44 2952.13 1042.99 2957.84 1048.45C2962.02 1052.44 2970.91 1067.57 2986.89 1101.27C2996.43 1121.38 3004.39 1149.58 3011.33 1175.19C3018.27 1200.79 3022.8 1223.46 3025.64 1236.65C3031.25 1262.71 3043.97 1277.83 3054.15 1289.78C3056.46 1292.35 3057.97 1293.61 3060.14 1295.02C3062.3 1296.42 3065.07 1297.93 3067.93 1299.49"
                      stroke="#918375" stroke-linecap="round"/>
                <path id="03_024_QTE2,03_026_013"
                      d="M2708.5 1205C2739 1201.5 2746.18 1193.94 2764.32 1185.93C2791.1 1174.09 2797.42 1157.83 2810.96 1135.32M2811 1136C2825.5 1149.5 2840.37 1168.61 2856.44 1187.87C2872.04 1206.58 2881.46 1242.4 2893.31 1274.87C2907.1 1312.67 2931.48 1329 2946.83 1338.31"
                      stroke="#918375" stroke-linecap="round"/>
                <path id="03_026_013,03_040_027"
                      d="M2946.83 1338.31C2959.72 1346.13 2971.82 1371.51 2979.54 1387.4C2988.3 1405.46 3004.68 1438.87 3018.53 1450.17C3026.35 1456.55 3039.81 1453.29 3051.53 1448.75"
                      stroke="#918375" stroke-linecap="round"/>
                <path id="03_040_027,03_041_028029030031032"
                      d="M3051.53 1448.75C3064.17 1443.86 3069.76 1432.51 3083.87 1413.85C3092.29 1402.72 3095.12 1390.59 3099.04 1377.57C3101.82 1368.32 3104.23 1360.33 3108.61 1349.61C3110.72 1345.39 3114.26 1339.28 3117.05 1335.48C3119.84 1331.69 3121.77 1330.4 3126.68 1329.08M3305.77 854.621C3311.57 856.159 3316.1 857.61 3318.9 858.691C3320.44 859.414 3325.15 861.392 3327 862.5M3305.61 855.078C3300.86 856.36 3298.89 857.077 3296.42 858.452C3291.09 861.799 3279.48 869.961 3254.77 881.839C3237.31 887.802 3236.03 888.009 3233.13 888.479L3233 888.501C3232.79 892.922 3230.48 896.867 3229.95 898.45C3226.91 906.539 3223.98 914.874 3214.69 935.926C3209.81 948.795 3202.14 970.558 3197.56 987.311C3192.98 1004.07 3191.53 1015.46 3191.65 1049.46C3191.78 1083.45 3193.44 1138.38 3193.31 1174.91C3193.18 1211.45 3191.76 1229.14 3189.53 1241.19C3186.08 1259.73 3182.52 1277.46 3173.07 1288.41C3154.74 1309.64 3129.91 1328.17 3127 1329"
                      stroke="#918375" stroke-linecap="round"/>
                <path id="03_039_026,03_041_028029030031032"
                      d="M3068 1299.5C3073 1302.5 3085.04 1305.69 3096.29 1310.29C3105.34 1315.97 3116.6 1324.11 3121.59 1327.31C3122.85 1328.02 3123.93 1328.48 3125.05 1328.96M3305.77 854.621C3311.57 856.159 3316.1 857.61 3318.9 858.691C3320.44 859.414 3325.15 861.392 3327 862.5M3305.61 855.078C3300.86 856.36 3298.89 857.077 3296.42 858.452C3291.09 861.799 3279.48 869.961 3254.77 881.839C3237.31 887.802 3236.03 888.009 3233.13 888.479L3233 888.501C3232.79 892.922 3230.48 896.867 3229.95 898.45C3226.91 906.539 3223.99 914.874 3214.69 935.926C3209.81 948.795 3202.14 970.558 3197.56 987.311C3192.98 1004.07 3191.53 1015.46 3191.66 1049.46C3191.78 1083.45 3193.44 1138.38 3193.31 1174.91C3193.18 1211.45 3191.76 1229.14 3189.53 1241.19C3186.08 1259.73 3182.52 1277.46 3173.07 1288.41C3154.74 1309.64 3129.91 1328.17 3127 1329"
                      stroke="#918375" stroke-linecap="round"/>
                <path id="03_041_028029030031032,03_042_008LOOP"
                      d="M3327.15 862.988C3329.42 864.317 3341.94 871.897 3354.12 883.551C3367.8 896.651 3367.4 917.655 3369.13 935.143C3370.87 952.72 3374.09 968.101 3376.65 976.858C3381.94 994.904 3391.81 1006.85 3404.11 1018.2C3413.29 1026.68 3428.8 1029.39 3440.47 1030.36"
                      stroke="#918375" stroke-linecap="round"/>
                <path id="03_045_009LOOP,03_047_009B"
                      d="M3663.35 1096.61C3676.4 1110.83 3682.44 1115.32 3687.5 1118C3689.12 1118.76 3698.5 1124.5 3701 1127C3703.5 1129.5 3723.45 1152.09 3740.16 1183.73C3751.7 1205.6 3748.94 1220.13 3750.59 1231.86C3755.03 1263.46 3768.74 1302.68 3777.1 1315.85C3794 1342.5 3809.5 1351 3828 1352C3842.51 1352.78 3860.14 1340.44 3883.92 1355.62C3895.03 1362.72 3900.84 1377.12 3905.23 1388.01L3905.25 1388.05C3911.88 1404.51 3921.83 1422 3938.67 1422"
                      stroke="#918375" stroke-linecap="round"/>
                <path id="03_042_008LOOP,03_044_008B033"
                      d="M3440.47 1030.36C3453.77 1031.47 3468.85 1022.58 3483.4 1012.37C3491.17 1006.92 3496.02 993.609 3500.88 979.034C3504.73 967.501 3507.67 955.237 3513.94 940.68C3521.27 923.651 3531.51 911.506 3538.65 903.319C3542.38 899.288 3546.35 895.509 3550.85 892.051C3555.35 888.593 3560.26 885.57 3565.33 882.455M3565 883C3568.22 883 3580.76 884.512 3589.79 888.422C3601.35 893.432 3609.82 910.431 3615.82 921.656"
                      stroke="#918375" stroke-linecap="round"/>
                <path id="03_044_008B033,03_045_009LOOP"
                      d="M3615.82 921.655C3619.02 927.659 3621.62 934.769 3627.34 959.437C3633.05 984.105 3641.55 1026.24 3647.16 1050.87C3654.16 1081.62 3659.45 1090.42 3663.35 1096.61"
                      stroke="#918375" stroke-linecap="round"/>
                <path id="03_045_009LOOP,03_046_009A034_BE002"
                      d="M3663.35 1096.61C3676.4 1110.83 3682.44 1115.32 3687.5 1118C3689.12 1118.76 3698.5 1124.5 3701 1127C3703.5 1129.5 3723.45 1152.09 3740.16 1183.73M3740.5 1184.5C3740.85 1185.21 3745 1189.5 3752.75 1194.21C3756.86 1196.7 3761.83 1199.76 3769.29 1202.61C3776.49 1205.36 3780.95 1205.48 3782.76 1205.63C3785.64 1205.87 3792.87 1206.3 3802.61 1205.69C3809.74 1205.25 3815.83 1202.03 3822.33 1199.75C3828.76 1198.16 3836.05 1197.54 3842.39 1197.59C3844.71 1197.64 3872.42 1197.49 3874 1197.59"
                      stroke="#918375" stroke-linecap="round"/>
                <path id="03_043_008A,03_048_035036037"
                      d="M3776.45 721.318C3785.39 722.516 3794.6 729.31 3803.38 735.345C3810.7 740.373 3816.14 746.902 3822.71 755.66C3826.71 760.989 3831.15 768.772 3836.51 780.628C3841.87 792.484 3847.78 808.346 3853.54 829.58C3859.31 850.813 3864.75 876.939 3869.66 904.781C3874.56 932.624 3878.76 961.393 3883.49 983.833C3888.22 1006.27 3893.35 1021.51 3898.01 1033.02C3902.68 1044.52 3906.72 1051.83 3910.98 1058.4C3915.24 1064.96 3919.6 1070.56 3923.47 1074.69C3927.35 1078.81 3932.5 1082.5 3933.98 1083.87C3935.45 1085.23 3938.7 1087.98 3946.39 1092.85C3953.26 1097.2 3966.08 1105.51 3977.25 1111.7C3988.42 1117.88 3997.53 1121.72 4006.07 1124.54C4022.05 1129.81 4032.35 1131 4039.7 1132.33C4053.17 1134.75 4064.57 1138.74 4070.08 1141.41C4074.14 1143.37 4079.35 1147.69 4087.92 1156.56C4093.15 1161.97 4098.66 1170.58 4103.12 1177.42C4114.74 1195.21 4116.82 1199.2 4123.82 1206.76C4129.49 1211.3 4135.7 1214.96 4140.91 1217.08C4143.11 1217.88 4144.43 1218.12 4147.97 1218.37"
                      stroke="#918375" stroke-linecap="round"/>
                <path id="03_047_009B,03_048_035036037"
                      d="M3939 1422.2C3940.2 1422.32 3950.68 1422.62 3959.28 1422.2C3962.22 1422.06 3966.79 1419.75 3973.09 1416.57L3973.24 1416.49C3979.33 1413.41 3986.62 1405.72 3995.82 1396.35C4000.15 1391.95 4003.24 1387.71 4007.1 1381.73C4010.97 1375.75 4015.38 1368.03 4020.52 1356.08C4025.66 1344.13 4031.39 1328.2 4035.95 1308.94C4040.51 1289.69 4043.73 1267.59 4046.11 1247.1C4048.48 1226.6 4049.92 1208.37 4051.73 1194.64C4053.54 1180.9 4055.69 1172.21 4058.17 1164.95C4063.39 1152.15 4066.69 1145.7 4067.65 1144.12C4068.14 1143.26 4068.62 1142.3 4069.11 1141.3M4070.08 1141.41C4074.14 1143.37 4079.35 1147.69 4087.92 1156.56C4093.15 1161.97 4098.66 1170.58 4103.12 1177.42C4114.74 1195.21 4116.82 1199.2 4123.82 1206.76C4129.49 1211.29 4135.7 1214.96 4140.91 1217.08C4143.11 1217.88 4144.43 1218.12 4147.97 1218.37"
                      stroke="#918375" stroke-linecap="round"/>
                <path id="03_042_008LOOP,03_043_008A"
                      d="M3440.47 1030.36C3453.77 1031.47 3468.85 1022.58 3483.4 1012.37C3491.17 1006.92 3496.02 993.608 3500.88 979.034C3504.73 967.501 3507.67 955.236 3513.94 940.679C3521.27 923.65 3531.51 911.505 3538.65 903.318C3542.38 899.287 3546.35 895.509 3550.85 892.05C3555.35 888.592 3560.26 885.569 3565.33 882.455M3565 882.649C3565 882.338 3565.31 881.245 3568.97 870.968C3572.3 861.616 3578.7 843.895 3583.85 831.186C3592.02 811.021 3599.06 800.843 3605.55 793.487C3614.43 783.425 3623.25 776.641 3628.73 773.114C3634.24 769.568 3643.01 767.211 3651.88 765.091C3656.48 763.992 3664.99 763.592 3677.54 761.87C3686.5 760.64 3693.92 756.538 3705.65 748.963C3713.53 743.868 3724.52 735.012 3732.55 729.673C3750.82 717.509 3763.64 719.603 3776.45 721.318"
                      stroke="#918375" stroke-linecap="round"/>
                <path id="03_090_009C,03_048_035036037"
                      d="M4007.1 1381.73C4010.97 1375.75 4015.38 1368.03 4020.52 1356.08C4025.66 1344.13 4031.39 1328.2 4035.95 1308.94C4040.51 1289.69 4043.73 1267.59 4046.11 1247.1C4048.48 1226.6 4049.92 1208.37 4051.73 1194.64C4053.54 1180.9 4055.69 1172.21 4058.17 1164.95C4063.39 1152.15 4066.69 1145.7 4067.65 1144.12C4068.14 1143.26 4068.62 1142.3 4069.11 1141.3M4070.08 1141.41C4074.14 1143.37 4079.35 1147.69 4087.92 1156.56C4093.15 1161.97 4098.66 1170.58 4103.12 1177.42C4114.74 1195.21 4116.82 1199.2 4123.82 1206.76C4129.49 1211.29 4135.7 1214.96 4140.91 1217.08C4143.11 1217.88 4144.43 1218.12 4147.97 1218.37M4006.5 1383C4006.5 1383.39 4007.08 1401.86 4006.5 1433.05C4006.19 1449.82 3995.2 1471.15 3989.68 1486.86C3984.28 1502.21 3975.95 1511.07 3969.56 1516.98C3953.75 1531.61 3942.16 1533.63 3933.27 1535.79"
                      stroke="#918375" stroke-linecap="round"/>
                <path id="03_045_009LOOP,03_090_009C"
                      d="M3663.35 1096.61C3676.4 1110.83 3682.44 1115.32 3687.5 1118C3689.12 1118.76 3698.5 1124.5 3701 1127C3703.5 1129.5 3723.45 1152.09 3740.16 1183.73C3751.7 1205.6 3748.94 1220.13 3750.59 1231.86C3755.03 1263.46 3768.74 1302.68 3777.1 1315.85C3794 1342.5 3809.5 1351 3828 1352M3933.27 1535.79C3925.98 1537.56 3918.79 1534.25 3906.85 1526.21C3896.53 1519.26 3889.23 1506.87 3881.95 1496.49C3875.07 1486.68 3868.04 1470.36 3858.35 1445.27C3852.87 1431.1 3847.88 1413.44 3844.14 1401.72C3835.72 1376.93 3830.34 1358.94 3828 1352.5"
                      stroke="#918375" stroke-linecap="round"/>
                <path id="03_048_035036037,03_049_010LOOP"
                      d="M4148.5 1218.5C4156.43 1219.99 4164.53 1225.72 4174.85 1233.93C4180.44 1238.38 4184.74 1247.48 4188.96 1258.59C4191.17 1264.43 4192.28 1271.13 4193.91 1285.91C4195.53 1300.69 4197.31 1323.47 4198.76 1337.97C4200.77 1358.04 4203.27 1366.15 4205.42 1371.35C4208.28 1376.91 4214.38 1384.83 4221.74 1393C4224.66 1396.19 4231.5 1400.5 4236 1401.5"
                      stroke="#918375" stroke-linecap="round"/>
                <path id="03_049_010LOOP,03_051_010B038"
                      d="M4236.27 1401.53C4237.99 1402.31 4249.37 1402.71 4257.88 1401.43C4266.57 1400.14 4275.04 1392.1 4287.2 1379.24C4293.96 1372.11 4297.44 1365.14 4300.17 1360.32C4302.18 1356.78 4307.12 1344.16 4314.31 1316.81C4318.51 1300.86 4321.02 1280.29 4323.53 1267.71C4326.88 1250.9 4331.26 1243.89 4337.94 1235.46C4342.89 1229.96 4351.02 1221.97 4359.14 1214.64M4359.74 1215.28C4361.8 1217.02 4374.2 1232.4 4382.47 1245.76C4388.96 1256.23 4404.89 1274.96 4416 1284.03"
                      stroke="#918375" stroke-linecap="round"/>
                <path id="03_049_010LOOP,03_050_010A038"
                      d="M4236.27 1401.53C4237.99 1402.31 4249.37 1402.71 4257.88 1401.43C4266.57 1400.14 4275.04 1392.1 4287.2 1379.24C4293.96 1372.11 4297.44 1365.14 4300.17 1360.32C4302.18 1356.78 4307.12 1344.16 4314.31 1316.81C4318.51 1300.86 4321.02 1280.29 4323.53 1267.71C4326.88 1250.9 4331.26 1243.89 4337.94 1235.46C4342.89 1229.96 4351.02 1221.97 4359.14 1214.64M4359.5 1214.5C4359.5 1210.05 4363.44 1187.43 4381.59 1144.8C4389.25 1126.83 4404.53 1120.04 4414.37 1115.66C4424.35 1111.23 4435.89 1113.03 4447.86 1116.01"
                      stroke="#918375" stroke-linecap="round"/>
                <path id="03_050_010A038,03_052_011LOOP"
                      d="M4447.86 1116.01C4461.22 1119.33 4473.47 1141.05 4480.64 1158.43C4483.78 1166.03 4483.76 1188.07 4485.5 1217.55C4490.97 1250.19 4496.45 1267.65 4501.55 1275.75C4502.93 1277.63 4504.16 1279.11 4505.43 1282.13M4505.5 1282C4507.5 1285.19 4514.33 1296.59 4524.82 1318.67C4530.55 1330.72 4536.27 1344.9 4540.84 1354.71C4547.93 1369.91 4556.24 1380.04 4564.32 1388.68C4573.88 1398.9 4585.37 1403.19 4594.2 1405.3"
                      stroke="#918375" stroke-linecap="round"/>
                <path id="03_051_010B038,03_052_011LOOP"
                      d="M4416 1284.03C4429.58 1295.13 4451.41 1292.56 4469.43 1290.32C4478.31 1287.06 4484.54 1283.57 4493.38 1278.2C4495.48 1277.06 4497.02 1276.56 4501.73 1276.05M4501.55 1275.75C4502.93 1277.63 4504.16 1279.11 4505.43 1282.13M4505.5 1282C4507.5 1285.19 4514.33 1296.59 4524.82 1318.67C4530.55 1330.72 4536.27 1344.9 4540.84 1354.71C4547.93 1369.91 4556.24 1380.04 4564.32 1388.68C4573.88 1398.9 4585.37 1403.19 4594.2 1405.3"
                      stroke="#918375" stroke-linecap="round"/>
                <path id="03_053_011A039,03_058_047048049050051052053"
                      d="M4861.54 898.286C4880.5 878.5 4907.5 856 4917 828.5C4922.08 813.798 4928 786.5 4938.04 754.712C4949.81 717.44 4963.01 703.011 4971.33 696.884C4973.38 695.463 4975.25 694.221 4980.93 692"
                      stroke="#918375" stroke-linecap="round"/>
                <path id="03_052_011LOOP,03_053_011A039"
                      d="M4594.2 1405.3C4603.72 1407.58 4613.06 1403.86 4620.98 1400.47C4630.81 1396.27 4638.77 1386.12 4647.24 1374.69C4651.95 1368.33 4655.88 1359.73 4666.28 1335.45C4676.67 1311.16 4693.01 1271.16 4703.19 1247.35C4713.37 1223.54 4716.9 1217.14 4722.88 1208.57C4728.86 1199.99 4737.19 1189.43 4746.2 1180.23C4755.22 1171.03 4764.67 1163.51 4771.78 1158.35C4778.89 1153.2 4783.38 1150.64 4788 1148M4788 1147.51C4788 1147.2 4788 1146.89 4795.76 1113.18C4803.53 1079.48 4819.06 1012.4 4829.39 972.871C4845.83 909.923 4856.04 904.413 4861.54 898.286"
                      stroke="#918375" stroke-linecap="round"/>
                <path id="03_052_011LOOP,03_054_011B042"
                      d="M4594.2 1405.3C4603.72 1407.58 4613.06 1403.86 4620.98 1400.47C4630.81 1396.27 4638.77 1386.12 4647.24 1374.69C4651.95 1368.33 4655.88 1359.73 4666.28 1335.45C4676.67 1311.16 4693.01 1271.16 4703.19 1247.35C4713.37 1223.54 4716.9 1217.14 4722.88 1208.57C4728.86 1199.99 4737.19 1189.43 4746.2 1180.23C4755.22 1171.03 4764.67 1163.51 4771.78 1158.35C4778.89 1153.2 4783.38 1150.64 4788 1148M4788 1147.82C4791.12 1147.51 4814.78 1137.56 4837.35 1122.3C4856.14 1109.6 4872.27 1072.73 4886 1053.28C4891.47 1048.42 4898.7 1042.76 4906.37 1037.27C4909.7 1035.2 4911.87 1034.58 4917.88 1033"
                      stroke="#918375" stroke-linecap="round"/>
                <path id="03_053_011A039,03_055_040"
                      d="M4861.54 898.286C4880.5 878.5 4907.5 856 4917 828.5C4919 830.5 4941.63 835.905 4966.6 841.839C4979.49 844.902 4990.75 852.05 5000.89 859.717"
                      stroke="#918375" stroke-linecap="round"/>
                <path id="03_054_011B042,03_056_043"
                      d="M4919 1032.63C4921.94 1032.18 4936.88 1030.81 4982.58 1035.12C5006.97 1037.41 5026.61 1028.81 5039.19 1021.62"
                      stroke="#918375" stroke-linecap="round"/>
                <path id="03_056_043,03_088_044_BE004"
                      d="M5039.19 1021.62C5053.32 1013.54 5063.07 997.654 5068.71 989.043C5072.47 983.465 5075.66 978.219 5078.6 974.933C5080.64 972.774 5082.5 970 5090 964.5C5091 964 5091.28 963.956 5096.56 961.208C5101.35 958.716 5110.2 953.354 5115.41 950.432C5121.81 946.847 5125.58 946.051 5131.4 945.273C5134.79 944.82 5139.09 944.88 5145.21 945.842C5151.33 946.804 5159.14 948.828 5165.04 951.026C5170.94 953.225 5174.69 955.538 5179.87 959.379C5185.04 963.22 5191.52 968.52 5195.33 971.539C5200.02 975.254 5204.09 976.984 5211.75 979.316C5222.26 982.514 5229.83 982.155 5232.51 982.3C5234.09 982.445 5236.12 982.734 5240.13 982.931C5244.15 983.128 5283.38 982.831 5289.49 982.931"
                      stroke="#918375" stroke-linecap="round"/>
                <path id="03_055_040,03_088_044_BE004"
                      d="M5000.89 859.717C5012.92 868.819 5024.14 882.787 5033.55 895.64C5045.58 912.077 5051.78 936.013 5058.32 946.912C5063.06 952.438 5069.36 957.524 5076.25 961.176C5079.66 962.83 5084 964.5 5090 964.5C5091 964 5091.28 963.955 5096.56 961.208C5101.35 958.715 5110.2 953.353 5115.41 950.432C5121.81 946.846 5125.58 946.05 5131.4 945.272C5134.78 944.82 5139.09 944.88 5145.21 945.842C5151.33 946.804 5159.14 948.827 5165.04 951.026C5170.94 953.225 5174.69 955.537 5179.86 959.378C5185.04 963.219 5191.52 968.519 5195.33 971.538C5200.02 975.253 5204.09 976.984 5211.75 979.315C5222.26 982.513 5229.83 982.155 5232.51 982.3C5234.08 982.444 5236.12 982.733 5240.13 982.93C5244.15 983.127 5283.38 982.831 5289.49 982.93"
                      stroke="#918375" stroke-linecap="round"/>
                <path id="03_054_011B042,03_057_045046_BE005"
                      d="M4919 1032.63C4921.94 1032.18 4936.88 1030.81 4982.58 1035.12M4983 1035C4983 1035.27 4984.08 1039.75 4986.7 1049.11C4989.75 1060.01 4994.58 1069.76 4999.2 1077.76C5003.26 1084.8 5008.36 1089.51 5013.11 1093.68C5017.13 1097.2 5025.46 1100.74 5037.09 1104.78C5042.4 1106.62 5046.66 1107.05 5052.74 1106.99C5058.81 1106.94 5066.62 1106.12 5077.74 1103.87C5088.85 1101.62 5103.04 1097.96 5112.95 1096.07C5122.86 1094.19 5128.06 1094.19 5134.74 1094.87C5141.42 1095.54 5149.41 1096.9 5158.05 1097.6C5166.7 1098.3 5175.77 1098.3 5180.71 1098.23C5185.65 1098.16 5186.19 1098.03 5187.5 1097.96C5188.81 1097.89 5190.87 1097.89 5193 1097.89"
                      stroke="#918375" stroke-linecap="round"/>
                <path id="03_058_047048049050051052053,03_059_012LOOP"
                      d="M4986.24 690.141C4987.66 689.826 4995.56 686.982 5003.08 683.55C5005.45 682.467 5013.69 674.935 5028.05 662.706C5040.71 651.93 5051.28 646.564 5057.55 643.862C5066.34 640.079 5075.29 640.502 5087.62 642.006C5092.89 642.649 5101.84 647.624 5114.38 656.029C5126.32 664.028 5130.85 674.047 5137.56 691.883C5143.27 707.051 5151.99 735.237 5158.59 752.987"
                      stroke="#918375" stroke-linecap="round"/>
                <path id="03_062_012B055056,03_063_013LOOP"
                      d="M5358 824.541C5370.78 820.579 5381.28 816.594 5397.81 813.157C5408.49 810.937 5428.39 811.831 5442.55 816.539C5467.24 824.745 5476.23 848.795 5484.27 870.912C5489.56 885.465 5495.13 907.701 5500.15 923.492"
                      stroke="#918375" stroke-linecap="round"/>
                <path id="03_059_012LOOP,03_062_012B055056"
                      d="M5158.59 752.986C5167.81 777.811 5174.12 785.901 5176.74 789.314C5183.85 798.581 5195.91 805.79 5209.24 810.878C5219.62 813.441 5227.54 813.761 5233.22 814.157C5234.42 814.238 5237.92 814.466 5239.38 814.466C5244.08 814.466 5264.83 819.706 5299.65 827.383C5329.7 834.01 5349.46 827.184 5357.99 824.541"
                      stroke="#918375" stroke-linecap="round"/>
                <path id="03_059_012LOOP,03_060_012A054_BE006"
                      d="M5158.59 752.987C5167.81 777.812 5174.12 785.901 5176.74 789.314C5183.85 798.581 5195.91 805.79 5209.24 810.878C5219.62 813.441 5227.54 813.761 5233.22 814.157L5266.65 783.148C5275 774.5 5282.08 768.176 5285.24 765.559C5294.35 758.002 5308.72 745.577 5319.86 740.518C5325.59 737.914 5336.35 735.907 5345.5 734.465C5370.26 730.563 5374.78 735.446 5382.76 737.658C5388.89 739.358 5397.07 742.305 5401.07 743.923C5403.12 744.752 5405.88 745.54 5413.4 746.146C5429.33 747.431 5440.83 745.952 5443.43 745.147C5451.54 743.929 5458.7 743.529 5468.13 742.923C5475.91 742.717 5517.52 742.717 5531.83 742.717"
                      stroke="#918375" stroke-linecap="round"/>
                <path id="03_065_013B057057_1,03_066_014LOOP"
                      d="M5597.83 1114.47C5599.8 1143.5 5602.47 1151.83 5604.36 1156.79C5610.54 1173.03 5626.59 1188.05 5647.41 1200.86C5662.39 1210.07 5678.98 1213.44 5685.26 1216.17C5693.21 1221.02 5700.77 1229.05 5706 1237.48C5706.96 1239.27 5707.66 1240.68 5708.39 1244.26"
                      stroke="#918375" stroke-linecap="round"/>
                <path id="03_063_013LOOP,03_065_013B057057_1"
                      d="M5500.15 923.492C5508.12 948.531 5515.16 961.559 5519.9 969.22C5530.7 986.689 5554.54 992.298 5561.92 995.196C5572.19 999.232 5583.5 1002.08 5589.69 1002.08C5589.69 1002.55 5590.62 1007.52 5592.98 1032.09C5595 1053.09 5596.28 1091.61 5597.83 1114.47"
                      stroke="#918375" stroke-linecap="round"/>
                <path id="03_063_013LOOP,03_064_013A_BE007"
                      d="M5500.15 923.492C5508.12 948.531 5515.16 961.559 5519.9 969.22C5530.7 986.689 5554.54 992.298 5561.92 995.196C5572.19 999.232 5583.5 1002.08 5589.69 1002.08C5593.22 1002.08 5615.66 997.586 5631.19 993.165C5637.4 991.397 5658.07 991.85 5688.35 993.143C5701.74 994.202 5711.12 996.079 5728.16 997.163"
                      stroke="#918375" stroke-linecap="round"/>
                <path id="03_067_014A,03_069_058059060061062"
                      d="M5872.88 1270.31C5877.54 1274.78 5880.65 1280.84 5886.21 1293.04C5890.43 1302.33 5896.3 1318.4 5900.76 1333.31C5905.22 1348.22 5907.78 1361.6 5909.21 1373.33C5910.65 1385.05 5910.88 1394.71 5911.18 1403.94C5912.05 1431.24 5929.68 1449.38 5930.5 1452.5"
                      stroke="#918375" stroke-linecap="round"/>
                <path id="03_066_014LOOP,03_067_014A"
                      d="M5708.68 1245.4C5708.89 1248.21 5709.33 1255.15 5711.49 1263.53C5713.47 1271.19 5718.45 1273.87 5725.29 1281.36C5730.6 1287.18 5734.11 1289.32 5740.52 1292.58C5745.45 1295.09 5752.81 1295.41 5756.51 1296.29C5762.25 1297.64 5768.04 1297.37 5772.6 1298.35C5775.2 1299.11 5781.7 1299.55 5789.85 1299.66C5792.84 1299.77 5793.5 1299.5 5795 1299.66M5795 1299.5C5795 1299.27 5802.19 1288.6 5811.65 1273.68C5816.68 1265.74 5821.97 1261.61 5827.9 1257.73C5835.81 1252.56 5845.71 1254.76 5858.28 1259.45C5864.25 1261.67 5868.54 1266.15 5872.88 1270.31"
                      stroke="#918375" stroke-linecap="round"/>
                <path id="03_068_014B,03_069_058059060061062"
                      d="M5833.22 1412.83C5838.17 1420.82 5843.87 1428.15 5848.67 1433.33C5856.61 1441.88 5864.41 1445.8 5871.27 1448.62C5877.96 1451.37 5886.62 1451.57 5897.98 1451.99C5912.83 1452.53 5924.84 1452.04 5930.89 1452.98"
                      stroke="#918375" stroke-linecap="round"/>
                <path id="03_066_014LOOP,03_068_014B"
                      d="M5708.68 1245.4C5708.89 1248.21 5709.33 1255.15 5711.49 1263.53C5713.47 1271.19 5718.45 1273.87 5725.29 1281.36C5730.6 1287.18 5734.11 1289.32 5740.52 1292.58C5745.45 1295.09 5752.81 1295.41 5756.51 1296.29C5762.25 1297.64 5768.04 1297.37 5772.6 1298.35C5775.2 1299.11 5781.7 1299.55 5789.85 1299.66C5792.84 1299.77 5793.5 1299.5 5795 1299.66M5795.08 1299.56C5795.08 1299.79 5795.08 1300.73 5799.21 1316.1C5803.14 1330.72 5811.61 1358.95 5817.9 1377.71C5824.2 1396.47 5828.27 1404.85 5833.22 1412.83"
                      stroke="#918375" stroke-linecap="round"/>
                <path id="03_070_015LOOP,03_071_015A"
                      d="M6041.37 1590.06C6065.11 1593.02 6080.62 1583.47 6090.32 1576.66C6095.32 1573.15 6102.96 1563.09 6113.5 1547.42C6118.83 1539.5 6122.14 1530.38 6125.57 1520.13C6128.99 1509.89 6131.93 1498.48 6134.4 1486.64C6136.86 1474.81 6138.76 1462.88 6141.21 1452.33C6143.66 1441.78 6146.6 1432.97 6151.91 1421.43C6157.23 1409.89 6164.83 1395.89 6171.51 1385.31C6178.2 1374.73 6180.47 1368.46 6186 1363C6190.59 1358.47 6197.5 1351.5 6210 1347.5"
                      stroke="#918375" stroke-linecap="round"/>
                <path id="03_069_058059060061062,03_070_015LOOP"
                      d="M5930.89 1452.98C5938.03 1455.56 5942.73 1460.26 5945.49 1464.13C5946.62 1465.68 5947 1466 5947.5 1467C5947.73 1467.46 5948.69 1467.87 5955.1 1483.96C5961.05 1498.91 5971.53 1528.04 5978 1544.47C5987.99 1569.84 5999.44 1577.63 6009.5 1583.51C6014.45 1586.4 6025.95 1588.14 6041.37 1590.06"
                      stroke="#918375" stroke-linecap="round"/>
                <path id="03_071_015A,03_073_063"
                      d="M6210.49 1347.24C6217.39 1346.71 6238.43 1346.7 6249.62 1350.34C6259.37 1353.52 6265.09 1361.15 6268.74 1365.41C6273.83 1371.36 6279.53 1383.57 6286.39 1399.6C6298.36 1427.57 6302.75 1439.32 6307.66 1445.75C6311.68 1449.87 6315.96 1452.37 6324.07 1455.4C6326.14 1455.94 6330.36 1457 6332 1457"
                      stroke="#918375" stroke-linecap="round"/>
                <path id="03_072_015B,03_073_063"
                      d="M6332 1457C6330.36 1457 6326.14 1455.95 6324.07 1455.4C6315.96 1452.37 6311.68 1449.87 6307.66 1445.75C6302.75 1439.32 6298.36 1427.57 6286.39 1399.6C6285.68 1401.02 6282.78 1428.36 6276.5 1438C6270.83 1446.7 6268.33 1456.11 6258.9 1468.38C6242.81 1489.29 6228.19 1498.01 6218.39 1502.2"
                      stroke="#918375" stroke-linecap="round"/>
                <path id="03_070_015LOOP,03_072_015B"
                      d="M6041.37 1590.06C6065.11 1593.02 6080.62 1583.47 6090.32 1576.66C6095.32 1573.15 6102.96 1563.09 6113.5 1547.42C6118.83 1539.5 6122.14 1530.38 6125.57 1520.13M6218.39 1502.2C6208.58 1506.4 6195.55 1507.84 6177.68 1509.18C6153.97 1509.64 6140.67 1514.88 6138 1515.5C6136.39 1515.94 6130.86 1518.2 6126 1520"
                      stroke="#918375" stroke-linecap="round"/>
                <path id="03_073_063,03_074_016LOOP"
                      d="M6332 1457C6333.35 1457 6336.75 1457.22 6357.95 1467.84C6368.02 1472.89 6374.41 1480.68 6380.08 1487.14C6382.54 1489.95 6383.94 1492.02 6386.89 1497.34C6389.83 1502.65 6394.21 1511.18 6398.04 1520.13C6401.87 1529.08 6405.02 1538.18 6407.43 1544.27C6411.01 1553.34 6415.05 1558.43 6420.25 1563.41C6426.9 1569.78 6433.66 1572.4 6438.63 1573.99C6447.01 1576.66 6456.67 1577.06 6464.26 1576.61"
                      stroke="#918375" stroke-linecap="round"/>
                <path id="03_074_016LOOP,03_075_016A064065"
                      d="M6464.27 1576.61C6474.59 1576 6481.86 1570.74 6488.25 1565.45C6489.52 1564.39 6490.18 1563.24 6493.5 1557.55C6496.83 1551.86 6502.67 1541.53 6507.26 1534.12C6514.57 1522.3 6519.91 1516.71 6523.92 1513.26C6526.25 1511.38 6529.17 1509.24 6531.69 1507.64C6534.2 1506.03 6536.23 1505.02 6538.99 1503.3M6539.5 1503C6539.5 1502.63 6539 1499.97 6546.27 1472.43C6553.08 1446.62 6568.07 1397.25 6578.68 1365.04C6589.3 1332.83 6595.55 1319.4 6600.16 1310.74C6610.88 1290.54 6625.54 1282.01 6638.74 1276.5"
                      stroke="#918375" stroke-linecap="round"/>
                <path id="03_076_016B066,03_077_067068"
                      d="M6713 1398.45C6711.16 1399.26 6704.2 1406.76 6693.24 1423.13C6676.83 1447.62 6667.36 1467.24 6662.03 1473.86C6656.28 1481.01 6648.05 1487.06 6639.02 1492.26"
                      stroke="#918375" stroke-linecap="round"/>
                <path id="03_074_016LOOP,03_076_016B066"
                      d="M6464.27 1576.61C6474.59 1576 6481.86 1570.74 6488.25 1565.45C6489.52 1564.39 6490.18 1563.24 6493.5 1557.55C6496.83 1551.86 6502.67 1541.53 6507.26 1534.12C6514.57 1522.3 6519.91 1516.71 6523.92 1513.26C6526.25 1511.38 6529.17 1509.24 6531.69 1507.64C6534.2 1506.03 6536.23 1505.02 6538.99 1503.3M6639.03 1492.26C6630.41 1497.22 6617.65 1499.33 6602.77 1500.46C6579.35 1498.33 6561.73 1497.09 6550.14 1498.82C6547.67 1499.74 6545.12 1499.7 6539.5 1503"
                      stroke="#918375" stroke-linecap="round"/>
                <path id="03_079_017A,03_082_069"
                      d="M6973.67 984.201C6993.25 987.173 7008.92 1012.82 7019.41 1042.46C7025.33 1059.17 7031.11 1097.91 7036.5 1128C7047.09 1187.09 7049.53 1212.06 7051.66 1218.8C7059.84 1236.28 7067.67 1245.56 7072.99 1249.47C7075.5 1251.27 7077.62 1252.68 7083 1254.13"
                      stroke="#918375" stroke-linecap="round"/>
                <path id="03_078_017LOOP,03_079_017A"
                      d="M6843.2 1213.76C6850.92 1180.46 6865.1 1155.95 6878.44 1128.9C6892.24 1100.91 6886.88 1072.87 6891.5 1054.12C6898.46 1025.84 6923.48 1003.71 6948.37 986.938C6956.63 981.375 6965.51 982.962 6973.68 984.202"
                      stroke="#918375" stroke-linecap="round"/>
                <path id="03_077_067068,03_078_017LOOP"
                      d="M6712.46 1397.91C6716.83 1401.64 6721.23 1403.59 6724.19 1404.8C6726.04 1405.45 6728.62 1406.18 6733.5 1407.5C6761.29 1407.5 6770.99 1398.29 6785.43 1384.56L6785.76 1384.26C6810.43 1360.82 6819.25 1326.89 6825.97 1298.22C6831.18 1276.03 6837.63 1237.8 6843.2 1213.76"
                      stroke="#918375" stroke-linecap="round"/>
                <path id="03_075_016A064065,03_077_067068"
                      d="M6638.74 1276.5C6651.16 1271.32 6668.8 1280.44 6681.31 1290.38C6687.13 1295 6689.69 1305.88 6695.24 1326.02C6699.12 1340.1 6702.27 1362.72 6704.81 1375.66C6707.92 1391.48 6710.51 1395.5 6712.46 1397.91"
                      stroke="#918375" stroke-linecap="round"/>
                <path id="03_080_017B,03_082_069"
                      d="M7036.5 1128C7047.09 1187.09 7049.54 1212.06 7051.66 1218.8C7059.84 1236.28 7067.67 1245.56 7073 1249.47C7075.51 1251.27 7077.62 1252.68 7083 1254.13M6960.71 1166.88C6969.94 1169.91 6982.81 1166.19 6991.14 1162.93C7000.88 1158.25 7016.66 1141.51 7028.52 1130.81C7030.45 1129.6 7032.12 1128.64 7036 1127.66"
                      stroke="#918375" stroke-linecap="round"/>
                <path id="03_078_017LOOP,03_080_017B"
                      d="M6843.2 1213.76C6850.92 1180.46 6865.1 1155.95 6878.44 1128.9M6878.5 1129C6879.45 1129.95 6886.66 1132.63 6899 1144.5C6926.75 1171.19 6948.22 1162.78 6960.71 1166.88"
                      stroke="#918375" stroke-linecap="round"/>
                <path id="03_084_018A,03_087_070"
                      d="M7505.77 765.452C7513.93 764.498 7522.12 767.774 7530.81 770.501C7541.76 773.935 7552.34 781.135 7561.15 789.131C7575.93 802.542 7592.23 856.733 7600 878.5C7605.99 895.297 7608.12 907.5 7611.81 923.587C7620.68 962.292 7629.32 1009.9 7635.57 1039.04C7641.83 1068.19 7642.63 1072.43 7646.5 1080.5C7654.39 1095.2 7664.76 1111.05 7674.56 1121.26C7680.94 1127.45 7690.18 1135.68 7699.7 1144.17"
                      stroke="#918375" stroke-linecap="round"/>
                <path id="03_083_018LOOP,03_084_018A"
                      d="M7391.5 955C7399.75 933.008 7404.37 895.555 7427.5 844C7434.63 828.101 7449.93 798.873 7456.31 791.155C7471.32 772.967 7490.84 767.196 7505.77 765.452"
                      stroke="#918375" stroke-linecap="round"/>
                <path id="03_090_QTE3LOOP,03_091_069_1"
                      d="M7184.33 1326.92C7192.16 1324.26 7197.3 1318.23 7201.3 1313.83C7206.7 1307.87 7211.65 1294.09 7217.49 1276.34C7222.69 1260.52 7225.54 1250.59 7229.69 1244.27C7236.99 1233.15 7247.72 1223.72 7257.21 1213.73C7269.8 1200.49 7278.63 1186.31 7284.22 1175.9"
                      stroke="#918375" stroke-linecap="round"/>
                <path id="03_085_018B,03_087_070"
                      d="M7600 878.5C7605.99 895.297 7608.12 907.5 7611.81 923.587C7620.68 962.292 7629.32 1009.9 7635.58 1039.04C7641.83 1068.19 7642.63 1072.43 7646.5 1080.5C7654.39 1095.2 7664.76 1111.05 7674.56 1121.26C7680.94 1127.45 7690.18 1135.68 7699.7 1144.17M7542.45 916.999C7580.14 889.288 7580.12 884.543 7586 882C7586.61 881.736 7592.5 877.5 7599.5 878.5"
                      stroke="#918375" stroke-linecap="round"/>
                <path id="03_083_018LOOP,03_085_018B"
                      d="M7390.78 955.353C7393.88 954.426 7396.86 953.764 7401.43 953.083C7407.08 952.291 7418 946.156 7430.99 946.156C7446.71 946.156 7476.51 940.13 7494.94 936.855C7519.66 932.462 7529.83 926.276 7542.44 916.999"
                      stroke="#918375" stroke-linecap="round"/>
                <path id="03_091_069_1,03_083_018LOOP"
                      d="M7284.22 1175.9C7289.42 1166.2 7292.68 1154.42 7296.75 1131.92C7299.62 1116.07 7302.98 1091.06 7307.25 1071.33C7311.52 1051.6 7316.32 1037.88 7321.35 1026.26C7326.38 1014.64 7331.51 1005.55 7336.88 997.803C7346.9 983.348 7357.3 974.329 7365.96 967.83C7375.94 961.661 7384.53 957.437 7390.78 955.353"
                      stroke="#918375" stroke-linecap="round"/>
                <path id="03_082_069,03_090_QTE3LOOP"
                      d="M7084.5 1254C7095 1259.5 7093.87 1258.54 7104.2 1268.53C7113.94 1277.94 7119.94 1293.08 7125.95 1306.35C7130.56 1316.53 7138.15 1321.53 7147.67 1327.13C7159.7 1334.22 7174.55 1330.25 7184.33 1326.92"
                      stroke="#918375" stroke-linecap="round"/>
                <path id="03_086_018C,03_087_070"
                      d="M7646.5 1080.5C7654.39 1095.2 7664.76 1111.05 7674.56 1121.26C7680.94 1127.45 7690.18 1135.68 7699.7 1144.17M7531.05 1067.63C7545.19 1076.09 7563.43 1080.04 7583.06 1083.09C7602.88 1086.16 7618.86 1083.32 7628.89 1082C7637.1 1081.29 7642.03 1080.88 7645.47 1080.57"
                      stroke="#918375" stroke-linecap="round"/>
                <path id="03_087_070,04_001_001002"
                      d="M7699.7 1144.17C7699.7 1144.17 7737 1177.5 7794 1179.5C7851 1181.5 7987 1186.5 7987 1186.5"
                      stroke="#918375" stroke-linecap="round"/>
                <path id="03_083_018LOOP,03_086_018C"
                      d="M7390.78 955.353C7393.88 954.426 7396.86 953.764 7401.43 953.083C7407.08 952.292 7418 946.156 7430.99 946.156C7431.4 946.156 7449.57 957.253 7453 962.5C7458.88 971.491 7466.29 981.946 7475.29 1003.92C7483.29 1023.42 7492.67 1036.19 7499.66 1044.5C7506.16 1052.22 7517.19 1059.32 7531.05 1067.63"
                      stroke="#918375" stroke-linecap="round"/>
            </g>
            <g id="video">
                <g id="03_001_001">
                    <text id="03_001_001_2" fill="#2BFF00" xml:space="preserve" style="white-space: pre"
                          font-family="Inter" font-size="10" letter-spacing="0em"><tspan x="435" y="1313.64">03_001_001</tspan></text>
                </g>
                <g id="03_004_001LOOP">
                    <text id="03_004_001LOOP_2" fill="#2BFF00" xml:space="preserve" style="white-space: pre"
                          font-family="Inter" font-size="10" letter-spacing="0em"><tspan x="727" y="1104.64">03_004_001LOOP</tspan></text>
                </g>
                <g id="03_008_002LOOP">
                    <text id="03_008_002LOOP_2" fill="#2BFF00" xml:space="preserve" style="white-space: pre"
                          font-family="Inter" font-size="10" letter-spacing="0em"><tspan x="1127" y="1100.64">03_008_002LOOP</tspan></text>
                </g>
                <g id="03_012_003LOOP">
                    <text id="03_012_003LOOP_2" fill="#2BFF00" xml:space="preserve" style="white-space: pre"
                          font-family="Inter" font-size="10" letter-spacing="0em"><tspan x="1520" y="1006.64">03_012_003LOOP</tspan></text>
                </g>
                <g id="03_018_004LOOP">
                    <text id="03_018_004LOOP_2" fill="#2BFF00" xml:space="preserve" style="white-space: pre"
                          font-family="Inter" font-size="10" letter-spacing="0em"><tspan x="1948" y="1188.64">03_018_004LOOP</tspan></text>
                </g>
                <g id="03_021_005LOOP">
                    <text id="03_021_005LOOP_2" fill="#2BFF00" xml:space="preserve" style="white-space: pre"
                          font-family="Inter" font-size="10" letter-spacing="0em"><tspan x="2259" y="968.636">03_021_005LOOP</tspan></text>
                </g>
                <g id="03_024_QTE2">
                    <text id="03_024_QTE2_2" fill="#2BFF00" xml:space="preserve" style="white-space: pre"
                          font-family="Inter" font-size="10" letter-spacing="0em"><tspan x="2708" y="1215.64">03_024_QTE2</tspan></text>
                </g>
                <g id="03_028_006LOOP">
                    <text id="03_028_006LOOP_2" fill="#2BFF00" xml:space="preserve" style="white-space: pre"
                          font-family="Inter" font-size="10" letter-spacing="0em"><tspan x="2688" y="887.636">03_028_006LOOP</tspan></text>
                </g>
                <g id="03_032_007LOOP">
                    <text id="03_032_007LOOP_2" fill="#2BFF00" xml:space="preserve" style="white-space: pre"
                          font-family="Inter" font-size="10" letter-spacing="0em"><tspan x="2947" y="495.636">03_032_007LOOP</tspan></text>
                </g>
                <g id="03_034_007A017018_BE001">
                    <text id="03_034_007A017018_BE001_2" fill="#2BFF00" xml:space="preserve" style="white-space: pre"
                          font-family="Inter" font-size="10" letter-spacing="0em"><tspan x="3169" y="620.636">03_034_007A017018_BE001</tspan></text>
                </g>
                <g id="03_042_008LOOP">
                    <text id="03_042_008LOOP_2" fill="#2BFF00" xml:space="preserve" style="white-space: pre"
                          font-family="Inter" font-size="10" letter-spacing="0em"><tspan x="3424" y="1041.64">03_042_008LOOP</tspan></text>
                </g>
                <g id="03_045_009LOOP">
                    <text id="03_045_009LOOP_2" fill="#2BFF00" xml:space="preserve" style="white-space: pre"
                          font-family="Inter" font-size="10" letter-spacing="0em"><tspan x="3662" y="1090.64">03_045_009LOOP</tspan></text>
                </g>
                <g id="03_049_010LOOP">
                    <text id="03_049_010LOOP_2" fill="#2BFF00" xml:space="preserve" style="white-space: pre"
                          font-family="Inter" font-size="10" letter-spacing="0em"><tspan x="4248" y="1402.64">03_049_010LOOP</tspan></text>
                </g>
                <g id="03_052_011LOOP">
                    <text id="03_052_011LOOP_2" fill="#2BFF00" xml:space="preserve" style="white-space: pre"
                          font-family="Inter" font-size="10" letter-spacing="0em"><tspan x="4618" y="1414.64">03_052_011LOOP</tspan></text>
                </g>
                <g id="03_059_012LOOP">
                    <text id="03_059_012LOOP_2" fill="#2BFF00" xml:space="preserve" style="white-space: pre"
                          font-family="Inter" font-size="10" letter-spacing="0em"><tspan x="5162" y="749.636">03_059_012LOOP</tspan></text>
                </g>
                <g id="03_063_013LOOP">
                    <text id="03_063_013LOOP_2" fill="#2BFF00" xml:space="preserve" style="white-space: pre"
                          font-family="Inter" font-size="10" letter-spacing="0em"><tspan x="5503" y="932.636">03_063_013LOOP</tspan></text>
                </g>
                <g id="03_066_014LOOP">
                    <text id="03_066_014LOOP_2" fill="#2BFF00" xml:space="preserve" style="white-space: pre"
                          font-family="Inter" font-size="10" letter-spacing="0em"><tspan x="5693" y="1237.64">03_066_014LOOP</tspan></text>
                </g>
                <g id="03_070_015LOOP">
                    <text id="03_070_015LOOP_2" fill="#2BFF00" xml:space="preserve" style="white-space: pre"
                          font-family="Inter" font-size="10" letter-spacing="0em"><tspan x="6036" y="1596.64">03_070_015LOOP</tspan></text>
                </g>
                <g id="03_074_016LOOP">
                    <text id="03_074_016LOOP_2" fill="#2BFF00" xml:space="preserve" style="white-space: pre"
                          font-family="Inter" font-size="10" letter-spacing="0em"><tspan x="6449" y="1589.64">03_074_016LOOP</tspan></text>
                </g>
                <g id="03_078_017LOOP">
                    <text id="03_078_017LOOP_2" fill="#2BFF00" xml:space="preserve" style="white-space: pre"
                          font-family="Inter" font-size="10" letter-spacing="0em"><tspan x="6843" y="1225.64">03_078_017LOOP</tspan></text>
                </g>
                <g id="03_083_018LOOP">
                    <text id="03_083_018LOOP_2" fill="#2BFF00" xml:space="preserve" style="white-space: pre"
                          font-family="Inter" font-size="10" letter-spacing="0em"><tspan x="7360" y="974.636">03_083_018LOOP</tspan></text>
                </g>
                <g id="03_087_070">
                    <text id="03_087_070_2" fill="#2BFF00" xml:space="preserve" style="white-space: pre"
                          font-family="Inter" font-size="10" letter-spacing="0em"><tspan x="7700" y="1153.64">03_087_070</tspan></text>
                </g>
                <g id="03_046_009A034_BE002">
                    <text id="03_046_009A034_BE002_2" fill="#FF0000" xml:space="preserve" style="white-space: pre"
                          font-family="Inter" font-size="10" letter-spacing="0em"><tspan x="3882" y="1207.64">03_046_009A034_BE002</tspan></text>
                    <circle id="Ellipse 34" cx="3881.5" cy="1197.5" r="1.5" fill="#FFA000"/>
                </g>
                <g id="03_088_044_BE004">
                    <text id="03_088_044_BE004_2" fill="#FF0000" xml:space="preserve" style="white-space: pre"
                          font-family="Inter" font-size="10" letter-spacing="0em"><tspan x="5314" y="992.636">03_088_044_BE004</tspan></text>
                    <circle id="Ellipse 34_2" cx="5313.5" cy="982.5" r="1.5" fill="#FFA000"/>
                </g>
                <g id="03_057_045046_BE005">
                    <text id="03_057_045046_BE005_2" fill="#FF0000" xml:space="preserve" style="white-space: pre"
                          font-family="Inter" font-size="10" letter-spacing="0em"><tspan x="5211.01" y="1113.64">03_057_045046_BE005</tspan></text>
                    <circle id="Ellipse 34_3" cx="5210.51" cy="1103.5" r="1.5" fill="#FFA000"/>
                </g>
                <g id="03_060_012A054_BE006">
                    <text id="03_060_012A054_BE006_2" fill="#FF0000" xml:space="preserve" style="white-space: pre"
                          font-family="Inter" font-size="10" letter-spacing="0em"><tspan x="5553" y="747.636">03_060_012A054_BE006</tspan></text>
                    <circle id="Ellipse 34_4" cx="5552.5" cy="737.5" r="1.5" fill="#FFA000"/>
                </g>
                <g id="03_064_013A_BE007">
                    <text id="03_064_013A_BE007_2" fill="#FF0000" xml:space="preserve" style="white-space: pre"
                          font-family="Inter" font-size="10" letter-spacing="0em"><tspan x="5756" y="1006.64">03_064_013A_BE007</tspan></text>
                    <circle id="Ellipse 34_5" cx="5755.5" cy="996.5" r="1.5" fill="#FFA000"/>
                </g>
            </g>
            <g id="dot">
                <g id="03_002_QTE1LOOP">
                    <circle id="Ellipse 33" cx="566" cy="1224" r="1" fill="#FF0000"/>
                </g>
                <g id="03_003_002">
                    <circle id="Ellipse 33_2" cx="609" cy="1164" r="1" fill="#FF0000"/>
                </g>
                <g id="03_005_001A">
                    <circle id="Ellipse 33_3" cx="967" cy="913" r="1" fill="#FF0000"/>
                </g>
                <g id="03_006_001B">
                    <circle id="Ellipse 33_4" cx="966" cy="1030" r="1" fill="#FF0000"/>
                </g>
                <g id="03_007_003004">
                    <circle id="Ellipse 33_5" cx="1031" cy="962" r="1" fill="#FF0000"/>
                </g>
                <g id="03_009_002A">
                    <circle id="Ellipse 33_6" cx="1253" cy="847" r="1" fill="#FF0000"/>
                </g>
                <g id="03_010_002B">
                    <circle id="Ellipse 33_7" cx="1281" cy="962" r="1" fill="#FF0000"/>
                </g>
                <g id="03_011_005006007008">
                    <circle id="Ellipse 33_8" cx="1339" cy="922" r="1" fill="#FF0000"/>
                </g>
                <g id="03_013_003A">
                    <circle id="Ellipse 33_9" cx="1742" cy="1227" r="1" fill="#FF0000"/>
                </g>
                <g id="03_015_003C">
                    <circle id="Ellipse 33_10" cx="1713" cy="1416" r="1" fill="#FF0000"/>
                </g>
                <g id="03_014_003B">
                    <circle id="Ellipse 33_11" cx="1764" cy="1344" r="1" fill="#FF0000"/>
                </g>
                <g id="03_016_003D">
                    <circle id="Ellipse 33_12" cx="1756" cy="1623" r="1" fill="#FF0000"/>
                </g>
                <g id="03_017_009010">
                    <circle id="Ellipse 33_13" cx="1908" cy="1367" r="1" fill="#FF0000"/>
                </g>
                <g id="03_019_004A">
                    <circle id="Ellipse 33_14" cx="2127" cy="1025" r="1" fill="#FF0000"/>
                </g>
                <g id="03_020_004B">
                    <circle id="Ellipse 33_15" cx="2137" cy="1138" r="1" fill="#FF0000"/>
                </g>
                <g id="03_023_005B">
                    <circle id="Ellipse 33_16" cx="2555" cy="1102" r="1" fill="#FF0000"/>
                </g>
                <g id="03_089_005B_1">
                    <circle id="Ellipse 33_17" cx="2558" cy="1229" r="1" fill="#FF0000"/>
                </g>
                <g id="03_022_005A">
                    <circle id="Ellipse 33_18" cx="2525" cy="631" r="1" fill="#FF0000"/>
                </g>
                <g id="03_033_005A_1">
                    <circle id="Ellipse 33_19" cx="2528" cy="789" r="1" fill="#FF0000"/>
                </g>
                <g id="03_027_014015">
                    <circle id="Ellipse 33_20" cx="2601" cy="747" r="1" fill="#FF0000"/>
                </g>
                <g id="03_029_006A016">
                    <circle id="Ellipse 33_21" cx="2839" cy="595" r="1" fill="#FF0000"/>
                </g>
                <g id="03_031_006C025">
                    <circle id="Ellipse 33_22" cx="3040" cy="923" r="1" fill="#FF0000"/>
                </g>
                <g id="03_030_006B024">
                    <circle id="Ellipse 33_23" cx="3002" cy="791" r="1" fill="#FF0000"/>
                </g>
                <g id="03_035_007B">
                    <circle id="Ellipse 33_24" cx="3055" cy="670" r="1" fill="#FF0000"/>
                </g>
                <g id="03_036_019020021022023">
                    <circle id="Ellipse 33_25" cx="3193" cy="761" r="1" fill="#FF0000"/>
                </g>
                <g id="03_041_028029030031032">
                    <circle id="Ellipse 33_26" cx="3329" cy="864" r="1" fill="#FF0000"/>
                </g>
                <g id="03_039_026">
                    <circle id="Ellipse 33_27" cx="3068" cy="1300" r="1" fill="#FF0000"/>
                </g>
                <g id="03_025_012">
                    <circle id="Ellipse 33_28" cx="2936" cy="1034" r="1" fill="#FF0000"/>
                </g>
                <g id="03_026_013">
                    <circle id="Ellipse 33_29" cx="2948" cy="1340" r="1" fill="#FF0000"/>
                </g>
                <g id="03_040_027">
                    <circle id="Ellipse 33_30" cx="3051" cy="1449" r="1" fill="#FF0000"/>
                </g>
                <g id="03_043_008A">
                    <circle id="Ellipse 33_31" cx="3777" cy="722" r="1" fill="#FF0000"/>
                </g>
                <g id="03_044_008B033">
                    <circle id="Ellipse 33_32" cx="3617" cy="922" r="1" fill="#FF0000"/>
                </g>
                <g id="03_047_009B">
                    <circle id="Ellipse 33_33" cx="3939" cy="1422" r="1" fill="#FF0000"/>
                </g>
                <g id="03_090_009C">
                    <circle id="Ellipse 33_34" cx="3930" cy="1538" r="1" fill="#FF0000"/>
                </g>
                <g id="03_048_035036037">
                    <circle id="Ellipse 33_35" cx="4151" cy="1221" r="1" fill="#FF0000"/>
                </g>
                <g id="03_051_010B038">
                    <circle id="Ellipse 33_36" cx="4417" cy="1284" r="1" fill="#FF0000"/>
                </g>
                <g id="03_050_010A038">
                    <circle id="Ellipse 33_37" cx="4448" cy="1116" r="1" fill="#FF0000"/>
                </g>
                <g id="03_053_011A039">
                    <circle id="Ellipse 33_38" cx="4862" cy="898" r="1" fill="#FF0000"/>
                </g>
                <g id="03_054_011B042">
                    <circle id="Ellipse 33_39" cx="4919" cy="1033" r="1" fill="#FF0000"/>
                </g>
                <g id="03_055_040">
                    <circle id="Ellipse 33_40" cx="5001" cy="859" r="1" fill="#FF0000"/>
                </g>
                <g id="03_056_043">
                    <circle id="Ellipse 33_41" cx="5038" cy="1021" r="1" fill="#FF0000"/>
                </g>
                <g id="03_058_047048049050051052053">
                    <circle id="Ellipse 33_42" cx="4983" cy="693" r="1" fill="#FF0000"/>
                </g>
                <g id="03_062_012B055056">
                    <circle id="Ellipse 33_43" cx="5358" cy="825" r="1" fill="#FF0000"/>
                </g>
                <g id="03_065_013B057057_1">
                    <circle id="Ellipse 33_44" cx="5599" cy="1116" r="1" fill="#FF0000"/>
                </g>
                <g id="03_067_014A">
                    <circle id="Ellipse 33_45" cx="5874" cy="1272" r="1" fill="#FF0000"/>
                </g>
                <g id="03_068_014B">
                    <circle id="Ellipse 33_46" cx="5834" cy="1417" r="1" fill="#FF0000"/>
                </g>
                <g id="03_069_058059060061062">
                    <circle id="Ellipse 33_47" cx="5931" cy="1453" r="1" fill="#FF0000"/>
                </g>
                <g id="03_071_015A">
                    <circle id="Ellipse 33_48" cx="6211" cy="1349" r="1" fill="#FF0000"/>
                </g>
                <g id="03_072_015B">
                    <circle id="Ellipse 33_49" cx="6219" cy="1502" r="1" fill="#FF0000"/>
                </g>
                <g id="03_073_063">
                    <circle id="Ellipse 33_50" cx="6333" cy="1457" r="1" fill="#FF0000"/>
                </g>
                <g id="03_075_016A064065">
                    <circle id="Ellipse 33_51" cx="6642" cy="1276" r="1" fill="#FF0000"/>
                </g>
                <g id="03_076_016B066">
                    <circle id="Ellipse 33_52" cx="6635" cy="1495" r="1" fill="#FF0000"/>
                </g>
                <g id="03_077_067068">
                    <circle id="Ellipse 33_53" cx="6712" cy="1399" r="1" fill="#FF0000"/>
                </g>
                <g id="03_080_017B">
                    <circle id="Ellipse 33_54" cx="6963" cy="1170" r="1" fill="#FF0000"/>
                </g>
                <g id="03_079_017A">
                    <circle id="Ellipse 33_55" cx="6975" cy="985" r="1" fill="#FF0000"/>
                </g>
                <g id="03_082_069">
                    <circle id="Ellipse 33_56" cx="7084" cy="1254" r="1" fill="#FF0000"/>
                </g>
                <g id="03_090_QTE3LOOP">
                    <circle id="Ellipse 33_57" cx="7183" cy="1328" r="1" fill="#FF0000"/>
                </g>
                <g id="03_091_069_1">
                    <circle id="Ellipse 33_58" cx="7285" cy="1176" r="1" fill="#FF0000"/>
                </g>
                <g id="03_084_018A">
                    <circle id="Ellipse 33_59" cx="7507" cy="765" r="1" fill="#FF0000"/>
                </g>
                <g id="03_085_018B">
                    <circle id="Ellipse 33_60" cx="7545" cy="917" r="1" fill="#FF0000"/>
                </g>
                <g id="03_086_018C">
                    <circle id="Ellipse 33_61" cx="7531" cy="1069" r="1" fill="#FF0000"/>
                </g>
            </g>
            <g id="chapter2">
                <ellipse id="Ellipse" cx="269" cy="1295.49" rx="1" ry="1.4886" fill="#00FFAA"/>
            </g>
            <g id="chapter4">
                <ellipse id="Ellipse_2" cx="7988" cy="1185.49" rx="1" ry="1.4886" fill="#FF00EA"/>
            </g>
        </g>
    </g>
    <defs>
        <clipPath id="clip0_2061_9734">
            <rect width="8350" height="2154" fill="white"/>
        </clipPath>
    </defs>
</svg>
