<svg width="5129" height="2154" viewBox="0 0 5129 2154" fill="none" xmlns="http://www.w3.org/2000/svg">
    <g id="&#231;&#172;&#172;&#229;&#155;&#155;&#231;&#171;&#160;frame" clip-path="url(#clip0_2061_10399)">
        <g id="Frame 98">
            <g id="lines">
                <path id="04_001_001002,04_002_001LOOP"
                      d="M375 945.154C456 905.001 531.986 921.19 547.036 928.51C562.799 936.177 581.648 954.172 595.954 967.822C609.388 980.64 618.731 980.482 629.256 983.876C649.554 990.423 673.041 984.881 687.868 983.41C707.544 981.457 720.805 975.328 744 955.501"
                      stroke="#918375" stroke-linecap="round"/>
                <path id="04_002_001LOOP,04_003_001A003_BE001"
                      d="M747.5 953.5C786.379 920.266 814.668 891.237 829.229 884.594C834.81 882.904 841.63 881.433 848.581 880.464C851.833 879.976 854.169 879.323 860 878.828C860 878.601 860.113 877.804 861.017 874.845C862.928 868.592 868.624 857.479 875.678 844.837C880.737 835.772 885.967 830.621 890.568 826.109C893.058 823.666 896.184 821.256 901.308 818.156C906.432 815.056 913.541 811.427 920.927 808.877C928.313 806.327 935.76 804.966 941.684 804.322C951.739 803.228 957.665 804.134 963.5 805.272C974.704 807.456 985.567 810.54 993.242 812.542C997.05 813.536 1000.8 813.977 1007.97 814.269C1015.13 814.561 1025.63 814.561 1036 814.505"
                      stroke="#918375" stroke-linecap="round"/>
                <path id="04_005_001B004005006007008009,04_007_002LOOP"
                      d="M960.879 906.811C1000.76 921.837 1020.39 937.001 1032.43 946.993C1047.71 959.684 1065.23 983.478 1086.09 1014.67C1108.11 1047.61 1121.06 1071.65 1129.37 1081.66"
                      stroke="#918375" stroke-linecap="round"/>
                <path id="04_002_001LOOP,04_005_001B004005006007008009"
                      d="M747 954C785.879 920.767 814.668 891.238 829.229 884.595C834.81 882.905 841.63 881.433 848.581 880.465C851.833 879.977 854.524 879.496 860.355 879M860.967 878.895C861.64 878.895 865.354 878.895 886.613 883.608C904.678 887.612 936.824 897.746 960.878 906.81"
                      stroke="#918375" stroke-linecap="round"/>
                <path id="04_007_002LOOP,04_009_002B012013"
                      d="M1129.37 1081.65C1137.65 1091.63 1148.92 1101.9 1162.31 1112.93C1175.86 1124.08 1196.13 1132.18 1231.66 1142.85C1255.18 1149.92 1255.83 1152.49 1282.12 1157.49M1282.26 1157.01C1282.6 1157.01 1300.7 1157.01 1332.6 1156.33C1346.58 1156.04 1356.04 1154.3 1364.81 1152.42C1373.57 1150.54 1381.35 1148.17 1389.84 1144.76C1398.33 1141.34 1407.3 1136.94 1416.4 1131.29C1435.02 1119.74 1444.37 1111.06 1447.93 1108.01C1462.22 1095.75 1470.66 1093.31 1484.88 1086.91C1489.91 1084.65 1496.52 1083.42 1527.99 1081.45"
                      stroke="#918375" stroke-linecap="round"/>
                <path id="04_007_002LOOP,04_008_002A010_BE002"
                      d="M1129.37 1081.65C1137.65 1091.63 1148.92 1101.9 1162.31 1112.93C1175.86 1124.08 1196.13 1132.18 1231.66 1142.85C1255.18 1149.92 1255.83 1152.49 1282.12 1157.49M1280.94 1157.05C1281.25 1155.22 1283.35 1147.49 1286.25 1132.23C1287.06 1127.96 1287.99 1120.3 1291.03 1095.03C1293.31 1076.08 1295.95 1044.3 1298.03 1025.51C1300.68 1001.55 1303.69 992.464 1305.85 985.441C1307.15 981.218 1309.17 977.647 1312.84 972.026C1318.06 964.036 1324.96 957.858 1331.43 952.781C1337.62 947.914 1346.75 945.45 1356.44 943.508C1362.34 942.324 1367.96 943.58 1375.11 945.788C1382.44 948.055 1388.52 953.741 1393.88 957.434C1399.3 961.165 1403.18 961.898 1408.31 961.992C1412.6 962.071 1420.32 961.537 1426.7 960.799C1433.08 960.061 1437.88 958.963 1450.94 958.396"
                      stroke="#918375" stroke-linecap="round"/>
                <path id="04_007_002LOOP,04_010_002C011_BE003"
                      d="M1132.28 1087C1132.28 1087.32 1132.71 1088.44 1140.82 1120.36C1148.66 1151.26 1163.4 1212.23 1174.38 1250.41C1185.35 1288.59 1191.95 1302.18 1197.35 1311.5C1205.85 1326.17 1213.34 1332 1218.18 1335.3C1227.28 1341.51 1237.64 1342.99 1244.47 1343C1255.4 1343.02 1267.03 1331.25 1276.02 1321.96C1282.22 1315.56 1285.89 1307.49 1289.57 1299.53C1295.05 1287.68 1297.63 1276.97 1298.93 1272.05C1301.54 1262.15 1306.6 1247.74 1311.44 1239.5C1317.79 1228.69 1329.58 1227.37 1348.95 1224.94C1368.86 1222.44 1377.39 1227.99 1383.25 1230.01C1390.73 1232.59 1397.67 1234.46 1408.22 1234.62C1417.91 1234.77 1436.4 1234.46 1457.33 1234.06C1478.25 1233.66 1501.04 1233.02 1513.28 1232.53"
                      stroke="#918375" stroke-linecap="round"/>
                <path id="04_007_002LOOP,04_011_002D_BE004"
                      d="M1132.28 1087C1132.28 1087.32 1132.71 1088.44 1140.82 1120.36C1148.66 1151.26 1163.4 1212.23 1174.38 1250.41C1185.35 1288.59 1191.95 1302.18 1197.35 1311.5C1205.85 1326.17 1213.34 1332 1218.18 1335.3C1227.28 1341.51 1237.64 1342.99 1244.47 1343C1244.47 1343.23 1244.64 1349.77 1247.5 1359C1249.98 1367.01 1251.8 1374.12 1257.32 1383.76C1261.86 1391.68 1266.93 1397.29 1271.5 1401.82C1274.87 1405.16 1279.51 1407.19 1285.03 1409.52C1289.75 1411.5 1295.12 1411.16 1300.76 1410.41C1305.68 1409.75 1309.31 1407.33 1313.39 1404.09C1316.11 1401.93 1319.92 1398.09 1323.92 1393.66C1332.14 1384.55 1337.42 1377.67 1340.08 1375.41C1344.67 1372.89 1347.77 1372.66 1350.67 1372.78C1351.92 1372.89 1404.75 1372.19 1406.28 1372.78"
                      stroke="#918375" stroke-linecap="round"/>
                <path id="04_009_002B012013,04_015_014015016_BE005"
                      d="M1527.99 1081.45C1559.46 1079.48 1615.78 1077.28 1653.76 1076.31C1691.73 1075.35 1709.66 1075.69 1728.13 1076.04C1728.13 1075.72 1729.02 1074.14 1736.06 1056.46C1742.74 1039.69 1755.92 1007.19 1764.8 987.237C1773.68 967.28 1777.9 960.87 1782.5 954.988C1791.44 943.541 1798.97 937.068 1805.56 933.057C1816.62 926.337 1826.91 923.319 1833.36 922.137C1842.53 920.457 1850.45 920.785 1856.27 921.647C1864.42 922.855 1873.32 926.925 1881.83 931.489C1896.19 939.19 1903.94 947.908 1915.33 956.049C1928.48 965.448 1939.63 967.673 1953.1 970.12"
                      stroke="#918375" stroke-linecap="round"/>
                <path id="04_017_003LOOP,04_018_003A020021022_BE006"
                      d="M2081.05 1133.28C2096.89 1120.84 2105.4 1110.79 2108.31 1107.24C2113 1101.54 2126 1090 2141.05 1079.84C2144.69 1077.39 2149.57 1075.71 2156.33 1074.39C2202 1065.5 2218 1079.84 2307 1074.39"
                      stroke="#918375" stroke-linecap="round"/>
                <path id="04_016_017018019,04_017_003LOOP"
                      d="M1881.98 1109.63C1892.11 1118.17 1905.06 1130.58 1914.87 1138.81C1924.69 1147.05 1930.78 1150.96 1937.99 1154.3C1952.93 1161.23 1968.42 1163.82 1981.35 1165.01C1992.98 1166.07 2007.72 1164.16 2026.54 1160.31C2036.43 1158.29 2046.46 1153.8 2055.76 1149.21C2065.06 1144.61 2073.19 1139.46 2081.05 1133.28"
                      stroke="#918375" stroke-linecap="round"/>
                <path id="04_009_002B012013,04_016_017018019"
                      d="M1527.99 1081.45C1559.46 1079.48 1615.78 1077.28 1653.76 1076.31C1691.73 1075.35 1709.66 1075.69 1728.13 1076.04C1728.29 1076.04 1728.92 1076.34 1744.95 1076.73C1760.97 1077.12 1792.87 1077.9 1811.49 1078.78C1834.53 1079.85 1841.34 1082.33 1847 1084.61C1854.79 1087.74 1865.46 1095.71 1881.97 1109.63"
                      stroke="#918375" stroke-linecap="round"/>
                <path id="04_020_003B,04_039_QTE5LOOP"
                      d="M2228.58 1285.45C2231.66 1303.97 2235.67 1330.11 2239.02 1347.9C2242.36 1365.69 2244.93 1374.35 2247.13 1380.82C2250.75 1391.42 2256.77 1402.15 2263.72 1413.64C2271.97 1427.26 2287.17 1434.89 2303.63 1439.06"
                      stroke="#918375" stroke-linecap="round"/>
                <path id="04_040_023024025026027028,04_022_005"
                      d="M2392.5 1331C2403.81 1308.58 2408 1298.5 2425.5 1270C2430.59 1261.72 2442.18 1250.83 2454.07 1243.23C2467.32 1236.87 2480.25 1233.79 2491.73 1232.74C2497.43 1232.48 2502.88 1232.8 2508.49 1233.13"
                      stroke="#918375" stroke-linecap="round"/>
                <path id="04_039_QTE5LOOP,04_040_023024025026027028"
                      d="M2303.63 1439.06C2309.99 1440.67 2316.05 1437.7 2322.75 1434.72C2331.76 1430.71 2340.49 1422.03 2349.3 1412.18C2353.89 1407.05 2357.62 1400.72 2367.79 1379.95C2377.95 1359.17 2381.19 1353.42 2392.5 1331"
                      stroke="#918375" stroke-linecap="round"/>
                <path id="04_017_003LOOP,04_020_003B"
                      d="M2081.5 1133C2083.75 1133 2114.34 1122 2140.32 1133.71C2148.65 1137.46 2157.18 1144.57 2164.13 1150.28C2171.08 1155.99 2175.73 1160.96 2181.49 1168.49C2187.26 1176.02 2193.99 1185.96 2200.83 1199.26C2207.66 1212.56 2221.5 1251 2228.5 1285.5"
                      stroke="#918375" stroke-linecap="round"/>
                <path id="04_022_005,04_023_005A029030031_BE007"
                      d="M2497 1232C2497 1230.51 2497.85 1223.03 2500.53 1211.9C2502.01 1205.78 2505.14 1199.07 2508.65 1192.43C2512.16 1185.79 2516.32 1179.52 2520.06 1174.59C2526.62 1165.95 2532.97 1160.52 2538.93 1155.97C2545.71 1150.8 2554.19 1147.2 2563.8 1144.14C2575.51 1140.42 2584.61 1140.85 2589.44 1141.27C2596.28 1141.87 2601.85 1144.27 2606.9 1146.94C2615.23 1151.36 2621.69 1155.01 2625.29 1156.3C2627.39 1156.95 2630.06 1157.58 2647.22 1157.49C2664.39 1157.39 2789.5 1157.49 2789.5 1157.49"
                      stroke="#918375" stroke-linecap="round"/>
                <path id="04_013_035_2,04_027_QTE1"
                      d="M2697.06 1405.05C2702.22 1410.21 2709.5 1413.51 2727.23 1416.6C2736.93 1417.5 2755 1416.6 2755 1416.6C2767.42 1416.6 2780.87 1410.7 2798.7 1402.33"
                      stroke="#918375" stroke-linecap="round"/>
                <path id="04_025_005B032033034035,04_013_035_2"
                      d="M2625.69 1349.83C2638.17 1345.42 2651.64 1347.65 2657.4 1352.08C2662.5 1356 2667.55 1358.16 2678.5 1373.5C2688.63 1387.69 2682.5 1390.5 2697.06 1405.05"
                      stroke="#918375" stroke-linecap="round"/>
                <path id="04_025_005B032033034035,04_012_035_1_BE013"
                      d="M2625.69 1349.83C2625.69 1349.68 2625.69 1348.92 2625.65 1345.04C2625.56 1336.16 2625.68 1328.41 2626.71 1323.41C2628.25 1315.91 2631.57 1309.49 2633.94 1305.6C2635.72 1302.67 2641.02 1297.79 2650 1291.5C2655 1288 2663.81 1283.98 2667.5 1282.5C2674.5 1279.68 2682.44 1278.2 2690 1276.37C2693.22 1275.59 2702.65 1275.47 2707.27 1275.46C2711.9 1275.46 2718.72 1275.76 2724.05 1276.37C2729.39 1276.98 2733.03 1277.89 2740.21 1280.18C2747.39 1282.47 2758 1286.11 2766.99 1288.4C2775.99 1290.69 2783.04 1291.53 2800.39 1292.33C2817.74 1293.14 2845.19 1293.9 2859.55 1294.18C2873.92 1294.45 2888.5 1294.18 2888.5 1294.18"
                      stroke="#918375" stroke-linecap="round"/>
                <path id="04_022_005,04_025_005B032033034035"
                      d="M2625.69 1349.83C2619.48 1352.02 2615.95 1354.44 2602.71 1353.73C2598.87 1353.52 2592.06 1352.74 2582.85 1348.97C2576.48 1346.37 2570.5 1343 2566.06 1336.45C2562.16 1330.7 2559.22 1325.16 2556.3 1313.2C2554.06 1304.06 2550.83 1288.92 2548.71 1280.66C2546.19 1270.85 2544.5 1263.11 2533.95 1253.16C2516.16 1236.36 2511.6 1233.36 2507 1233"
                      stroke="#918375" stroke-linecap="round"/>
                <path id="04_036_006LOOP,04_038_006B043044045046047048"
                      d="M4049 485.017C4059.79 484.674 4071.9 489.553 4084.21 495.886C4095 501.438 4103.74 510.262 4111.39 518.711C4114.91 522.609 4117.35 526.278 4125.89 542.766C4134.44 559.254 4148.92 588.593 4157.4 605.141C4167.51 624.898 4171.49 629.056 4175.05 632.167C4179.34 635.913 4186.61 638.635 4198.3 642.191C4199.15 643.226 4199.2 649.954 4207.93 677.428C4214.59 698.405 4224.66 734.34 4232.6 758.212C4240.54 782.083 4245.77 792.975 4249.53 800.206C4255.13 810.976 4260.6 817.543 4266.94 824.588C4273.63 832.019 4280.11 836.74 4285.59 840.373C4291.98 844.614 4301.94 847.597 4315.05 849.753C4321.94 850.887 4329.44 850.291 4335.58 849.7C4346.34 848.664 4356.58 844.515 4366.69 839.546C4374.89 835.514 4383.19 827.293 4392.02 818.018C4395.92 813.914 4398.28 810.362 4401.57 804.423C4404.86 798.484 4408.91 790.094 4413.35 779.369C4417.78 768.644 4422.47 755.839 4426.97 745.488C4431.47 735.138 4435.63 727.631 4441.77 719.054C4447.91 710.477 4455.91 701.057 4462.12 694.585C4468.32 688.113 4472.48 684.874 4478.57 680.998C4492.38 672.202 4502.17 667.716 4504.92 666.973C4512.56 664.903 4514.23 665.731 4520.86 665.655C4555.43 665.26 4551.93 683.895 4589.93 685.395"
                      stroke="#918375" stroke-linecap="round"/>
                <path id="04_038_006B043044045046047048,05_001_001002003004"
                      d="M4617.03 686.714C4618.65 686.788 4776.8 662.848 4779 663" stroke="#918375"
                      stroke-linecap="round"/>
                <path id="04_036_006LOOP,04_037_006A042_BE012"
                      d="M4049 485.017C4059.79 484.674 4071.9 489.553 4084.21 495.886C4095 501.438 4103.74 510.262 4111.39 518.711C4114.91 522.609 4117.35 526.278 4125.89 542.766C4134.44 559.254 4148.92 588.593 4157.4 605.141C4167.51 624.898 4171.49 629.056 4175.05 632.167C4179.34 635.913 4167.59 629.382 4198.3 642.191C4229 655 4336 642.191 4336 642.191"
                      stroke="#918375" stroke-linecap="round"/>
                <path id="04_027_QTE1,04_029_037"
                      d="M2798.71 1402.33C2812.29 1395.95 2822.48 1395.45 2830.78 1396.34C2840.87 1397.42 2852.68 1403.13 2863.87 1409.94C2872.29 1415.06 2877.33 1422.16 2883.17 1431.27C2886.82 1436.97 2890.52 1445.72 2894.61 1460.33C2898.71 1474.94 2902.74 1495.38 2905.32 1507.5C2909.87 1507.67 2919.11 1507.4 2930.23 1511.37C2939.41 1514.64 2951.66 1518.04 2969.02 1521.32C2981.86 1523.75 3001.85 1522.6 3016.98 1521.17C3025.95 1520.33 3033.02 1516.21 3039.18 1514.17C3040.78 1513.64 3042.46 1513 3052.26 1510.15C3062.06 1507.3 3079.94 1502.28 3090.4 1499.53C3103.29 1496.15 3107.95 1495.61 3112.33 1494.68C3117.31 1493.62 3133.32 1493.74 3161.75 1495.33"
                      stroke="#918375" stroke-linecap="round"/>
                <path id="04_030_QTE2,04_031_038_BE009"
                      d="M3370.21 1506.23C3373.49 1521.64 3380.97 1530.21 3388.23 1541.47C3400.23 1560.08 3413.72 1571.69 3420.58 1576.35C3427.77 1581.24 3438.98 1583.37 3450.09 1585.35C3456.96 1586.57 3465.14 1586.08 3478.67 1583.86C3496.71 1580.89 3510.15 1572.82 3518.36 1567.45"
                      stroke="#918375" stroke-linecap="round"/>
                <path id="04_029_037,04_030_QTE2"
                      d="M3370.21 1506.23C3367.49 1506.58 3366.32 1506.91 3364.79 1507.08C3361.42 1507.25 3358.03 1507.59 3350.09 1508.09C3332.64 1508.26 3319.73 1507.28 3306.37 1506.99C3294.87 1506.74 3274.32 1506.74 3262.5 1506.57C3250.67 1506.4 3247.67 1506.09 3243.75 1505.89C3227.04 1505.04 3217.35 1503.48 3203.31 1501.06C3193.86 1499.43 3177.03 1496.19 3161.75 1495.33"
                      stroke="#918375" stroke-linecap="round"/>
                <path id="04_030_QTE2,04_032_039"
                      d="M3370.21 1506.23C3371 1499.44 3386.39 1447.21 3403.76 1423.09C3415.27 1407.13 3429.59 1399.06 3436.62 1395.24C3456.39 1384.49 3481.96 1390.97 3497.44 1396.78L3498.11 1397.03C3514.9 1403.34 3525.74 1407.41 3544 1407.41C3557.95 1407.41 3570.14 1398.32 3586.54 1383.17C3592.84 1377.35 3598.83 1365.66 3607.08 1350.59C3611.12 1343.19 3613.59 1339.91 3628 1265"
                      stroke="#918375" stroke-linecap="round"/>
                <path id="04_027_QTE1,04_028_036_BE008"
                      d="M3201.34 1682.65C3197.96 1682.65 3194.68 1682.65 3192.09 1682.43C3189.5 1682.22 3187.65 1681.81 3184.72 1681.61C3172.09 1680.77 3163.74 1678.91 3156.15 1675.9C3150.14 1673.52 3146.23 1669.58 3139.06 1665.95C3131.07 1661.91 3126.42 1657.27 3120.4 1653.41C3109.12 1646.16 3092.86 1640.74 3079.91 1638.31C3076.61 1637.69 3058.33 1639.65 3033.12 1636.85C3021.91 1635.61 3018.5 1635.26 3015.79 1634.47C3009.06 1632.5 2985.5 1628.5 2963.5 1612.5C2950.35 1602.94 2951.06 1604.64 2937 1585C2922.94 1565.36 2909.82 1533.5 2905.32 1507.5C2902.74 1495.38 2898.71 1474.94 2894.61 1460.33C2890.52 1445.72 2886.82 1436.97 2883.17 1431.27C2877.33 1422.16 2872.29 1415.06 2863.87 1409.94C2852.68 1403.13 2840.87 1397.42 2830.78 1396.34C2822.48 1395.45 2812.29 1395.95 2798.71 1402.33"
                      stroke="#918375" stroke-linecap="round"/>
                <path id="04_032_039,04_041_QTE3"
                      d="M3628 1264.89C3628 1264.41 3628.47 1260.64 3633.78 1237.36C3638.3 1217.55 3647.82 1181.8 3654.79 1157.56"
                      stroke="#918375" stroke-linecap="round"/>
                <path id="04_041_QTE3,04_042_040_1BE011"
                      d="M3655 1158C3664.04 1123.42 3714.5 1142.44 3742.5 1150C3770.5 1157.56 3839.5 1150 3839.5 1150L3915.5 1140.5"
                      stroke="#918375" stroke-linecap="round"/>
                <path id="04_041_QTE3,04_043_039_1" d="M3654.5 1158.5L3723.5 1009" stroke="#918375"
                      stroke-linecap="round"/>
                <path id="04_043_039_1,04_033_QTE3"
                      d="M3723.5 1008.5C3723.5 1008.5 3745.5 899.001 3795 850.001C3844.5 801.001 3885 948.501 3885 948.501"
                      stroke="#918375" stroke-linecap="round"/>
                <path id="04_033_QTE3,04_034_040_BE010"
                      d="M3885.5 950.5C3887 974 3920 1008 3939 1018C3958 1028 4027.5 997 4062.5 984.5C4097.5 972 4151.5 984.5 4151.5 984.5"
                      stroke="#918375" stroke-linecap="round"/>
                <path id="04_033_QTE3,04_035_041" d="M3887 949.5C3925 939 3925 756 3925 756" stroke="#918375"
                      stroke-linecap="round"/>
                <path id="04_035_041,04_036_006LOOP"
                      d="M3925.01 756.001C3922.51 645.001 4005.51 480.501 4047.51 485.001" stroke="#918375"
                      stroke-linecap="round"/>
            </g>
            <g id="dot">
                <g id="04_005_001B004005006007008009">
                    <circle id="Ellipse 33" cx="962" cy="907" r="1" fill="#FF0000"/>
                </g>
                <g id="04_016_017018019">
                    <circle id="Ellipse 33_2" cx="1883" cy="1110" r="1" fill="#FF0000"/>
                </g>
                <g id="04_020_003B">
                    <circle id="Ellipse 33_3" cx="2228" cy="1286" r="1" fill="#FF0000"/>
                </g>
                <g id="04_039_QTE5LOOP">
                    <circle id="Ellipse 33_4" cx="2305" cy="1439" r="1" fill="#FF0000"/>
                </g>
                <g id="04_040_023024025026027028">
                    <circle id="Ellipse 33_5" cx="2392" cy="1331" r="1" fill="#FF0000"/>
                </g>
                <g id="04_025_005B032033034035">
                    <circle id="Ellipse 33_6" cx="2626" cy="1350" r="1" fill="#FF0000"/>
                </g>
                <g id="04_027_QTE1">
                    <circle id="Ellipse 33_7" cx="2894" cy="1459" r="1" fill="#FF0000"/>
                </g>
                <g id="04_032_039">
                    <circle id="Ellipse 33_8" cx="3628" cy="1265" r="1" fill="#FF0000"/>
                </g>
                <g id="04_041_QTE3">
                    <circle id="Ellipse 33_9" cx="3654" cy="1158" r="1" fill="#FF0000"/>
                </g>
                <g id="04_043_039_1">
                    <circle id="Ellipse 33_10" cx="3723" cy="1011" r="1" fill="#FF0000"/>
                </g>
                <g id="04_033_QTE3">
                    <circle id="Ellipse 33_11" cx="3885" cy="949" r="1" fill="#FF0000"/>
                </g>
                <g id="04_035_041">
                    <circle id="Ellipse 33_12" cx="3924" cy="756" r="1" fill="#FF0000"/>
                </g>
                <g id="04_029_037">
                    <circle id="Ellipse 33_13" cx="3162" cy="1496" r="1" fill="#FF0000"/>
                </g>
                <g id="04_030_QTE2">
                    <circle id="Ellipse 33_14" cx="3368" cy="1506" r="1" fill="#FF0000"/>
                </g>
            </g>
            <g id="video">
                <g id="04_003_001A003_BE001">
                    <text id="04_003_001A003_BE001_2" fill="#FF0000" xml:space="preserve" style="white-space: pre"
                          font-family="Inter" font-size="10" letter-spacing="0em"><tspan x="1057" y="824.636">04_003_001A003_BE001</tspan></text>
                    <circle id="Ellipse 34" cx="1056.5" cy="814.5" r="1.5" fill="#FFA000"/>
                </g>
                <g id="04_011_002D_BE004">
                    <text id="04_011_002D_BE004_2" fill="#FF0000" xml:space="preserve" style="white-space: pre"
                          font-family="Inter" font-size="10" letter-spacing="0em"><tspan x="1431" y="1383.64">04_011_002D_BE004</tspan></text>
                    <circle id="Ellipse 34_2" cx="1430.5" cy="1373.5" r="1.5" fill="#FFA000"/>
                </g>
                <g id="04_010_002C011_BE003">
                    <text id="04_010_002C011_BE003_2" fill="#FF0000" xml:space="preserve" style="white-space: pre"
                          font-family="Inter" font-size="10" letter-spacing="0em"><tspan x="1540" y="1244.64">04_010_002C011_BE003</tspan></text>
                    <circle id="Ellipse 34_3" cx="1539.5" cy="1234.5" r="1.5" fill="#FFA000"/>
                </g>
                <g id="04_008_002A010_BE002">
                    <text id="04_008_002A010_BE002_2" fill="#FF0000" xml:space="preserve" style="white-space: pre"
                          font-family="Inter" font-size="10" letter-spacing="0em"><tspan x="1483" y="963.636">04_008_002A010_BE002</tspan></text>
                    <circle id="Ellipse 34_4" cx="1482.5" cy="953.5" r="1.5" fill="#FFA000"/>
                </g>
                <g id="04_015_014015016_BE005">
                    <text id="04_015_014015016_BE005_2" fill="#FF0000" xml:space="preserve" style="white-space: pre"
                          font-family="Inter" font-size="10" letter-spacing="0em"><tspan x="1974" y="981.636">04_015_014015016_BE005</tspan></text>
                    <circle id="Ellipse 34_5" cx="1973.5" cy="971.5" r="1.5" fill="#FFA000"/>
                </g>
                <g id="04_018_003A020021022_BE006">
                    <text id="04_018_003A020021022_BE006_2" fill="#FF0000" xml:space="preserve" style="white-space: pre"
                          font-family="Inter" font-size="10" letter-spacing="0em"><tspan x="2341" y="1080.64">04_018_003A020021022_BE006</tspan></text>
                    <circle id="Ellipse 34_6" cx="2340.5" cy="1070.5" r="1.5" fill="#FFA000"/>
                </g>
                <g id="04_023_005A029030031_BE007">
                    <text id="04_023_005A029030031_BE007_2" fill="#FF0000" xml:space="preserve" style="white-space: pre"
                          font-family="Inter" font-size="10" letter-spacing="0em"><tspan x="2807" y="1168.64">04_023_005A029030031_BE007</tspan></text>
                    <circle id="Ellipse 34_7" cx="2806.5" cy="1158.5" r="1.5" fill="#FFA000"/>
                </g>
                <g id="04_012_035_1_BE013">
                    <text id="04_012_035_1_BE013_2" fill="#FF0000" xml:space="preserve" style="white-space: pre"
                          font-family="Inter" font-size="10" letter-spacing="0em"><tspan x="2906" y="1303.64">04_012_035_1_BE013</tspan></text>
                    <circle id="Ellipse 34_8" cx="2905.5" cy="1293.5" r="1.5" fill="#FFA000"/>
                </g>
                <g id="04_034_040_BE010">
                    <text id="04_034_040_BE010_2" fill="#FF0000" xml:space="preserve" style="white-space: pre"
                          font-family="Inter" font-size="10" letter-spacing="0em"><tspan x="4159" y="992.636">04_034_040_BE010</tspan></text>
                    <circle id="Ellipse 34_9" cx="4158.5" cy="982.5" r="1.5" fill="#FFA000"/>
                </g>
                <g id="04_042_040_1BE011">
                    <text id="04_042_040_1BE011_2" fill="#FF0000" xml:space="preserve" style="white-space: pre"
                          font-family="Inter" font-size="10" letter-spacing="0em"><tspan x="3923" y="1150.64">04_042_040_1BE011</tspan></text>
                    <circle id="Ellipse 34_10" cx="3922.5" cy="1140.5" r="1.5" fill="#FFA000"/>
                </g>
                <g id="04_037_006A042_BE012">
                    <text id="04_037_006A042_BE012_2" fill="#FF0000" xml:space="preserve" style="white-space: pre"
                          font-family="Inter" font-size="10" letter-spacing="0em"><tspan x="4339" y="652.636">04_037_006A042_BE012</tspan></text>
                    <circle id="Ellipse 34_11" cx="4338.5" cy="642.5" r="1.5" fill="#FFA000"/>
                </g>
                <g id="04_001_001002">
                    <text id="04_001_001002_2" fill="#2BFF00" xml:space="preserve" style="white-space: pre"
                          font-family="Inter" font-size="10" letter-spacing="0em"><tspan x="491" y="925.636">04_001_001002</tspan></text>
                </g>
                <g id="04_002_001LOOP">
                    <text id="04_002_001LOOP_2" fill="#2BFF00" xml:space="preserve" style="white-space: pre"
                          font-family="Inter" font-size="10" letter-spacing="0em"><tspan x="741" y="964.636">04_002_001LOOP</tspan></text>
                </g>
                <g id="04_007_002LOOP">
                    <text id="04_007_002LOOP_2" fill="#2BFF00" xml:space="preserve" style="white-space: pre"
                          font-family="Inter" font-size="10" letter-spacing="0em"><tspan x="1121" y="1087.64">04_007_002LOOP</tspan></text>
                </g>
                <g id="04_009_002B012013">
                    <text id="04_009_002B012013_2" fill="#2BFF00" xml:space="preserve" style="white-space: pre"
                          font-family="Inter" font-size="10" letter-spacing="0em"><tspan x="1512" y="1101.64">04_009_002B012013</tspan></text>
                </g>
                <g id="04_017_003LOOP">
                    <text id="04_017_003LOOP_2" fill="#2BFF00" xml:space="preserve" style="white-space: pre"
                          font-family="Inter" font-size="10" letter-spacing="0em"><tspan x="2067" y="1148.64">04_017_003LOOP</tspan></text>
                </g>
                <g id="04_022_005">
                    <text id="04_022_005_2" fill="#2BFF00" xml:space="preserve" style="white-space: pre"
                          font-family="Inter" font-size="10" letter-spacing="0em"><tspan x="2508" y="1243.64">04_022_005</tspan></text>
                </g>
                <g id="04_031_038_BE009">
                    <text id="04_031_038_BE009_2" fill="#FF0000" xml:space="preserve" style="white-space: pre"
                          font-family="Inter" font-size="10" letter-spacing="0em"><tspan x="3530" y="1571.64">04_031_038_BE009</tspan></text>
                </g>
                <g id="04_013_035_2">
                    <text id="04_013_035_2_2" fill="#2BFF00" xml:space="preserve" style="white-space: pre"
                          font-family="Inter" font-size="10" letter-spacing="0em"><tspan x="2728" y="1421.64">04_013_035_2</tspan></text>
                </g>
                <g id="04_036_006LOOP">
                    <text id="04_036_006LOOP_2" fill="#2BFF00" xml:space="preserve" style="white-space: pre"
                          font-family="Inter" font-size="10" letter-spacing="0em"><tspan x="4049" y="496.636">04_036_006LOOP</tspan></text>
                </g>
                <g id="04_038_006B043044045046047048">
                    <text id="04_038_006B043044045046047048_2" fill="#2BFF00" xml:space="preserve"
                          style="white-space: pre" font-family="Inter" font-size="10" letter-spacing="0em"><tspan x="4603" y="698.636">04_038_006B043044045046047048</tspan></text>
                </g>
                <g id="04_028_036_BE008">
                    <text id="04_028_036_BE008_2" fill="#2BFF00" xml:space="preserve" style="white-space: pre"
                          font-family="Inter" font-size="10" letter-spacing="0em"><tspan x="3201" y="1675.64">04_028_036_BE008</tspan></text>
                </g>
            </g>
            <g id="chapter3">
                <ellipse id="Ellipse" cx="324" cy="942.387" rx="1" ry="1.38699" fill="#00FFAA"/>
            </g>
            <g id="chapter5">
                <ellipse id="Ellipse_2" cx="4782" cy="660.387" rx="1" ry="1.38699" fill="#FF00EA"/>
            </g>
        </g>
    </g>
    <defs>
        <clipPath id="clip0_2061_10399">
            <rect width="5129" height="2154" fill="white"/>
        </clipPath>
    </defs>
</svg>
