<svg width="9657" height="2154" viewBox="0 0 9657 2154" fill="none" xmlns="http://www.w3.org/2000/svg">
    <g id="&#231;&#172;&#172;&#228;&#186;&#148;&#231;&#171;&#160;frame" clip-path="url(#clip0_2061_10697)">
        <g id="Frame 99">
            <g id="lines">
                <path id="05_001_001002003004,05_002_001LOOP"
                      d="M518.834 1003.14C554.941 1000.25 578.019 991.79 590.738 985.833C602.533 980.31 613.469 969.124 627.759 951.68C665.091 906.107 670.438 880.708 695.457 858.431C720.425 836.199 734.958 841.231 750.466 838.041"
                      stroke="#918375" stroke-linecap="round"/>
                <path id="Vector 433" d="M371 1003.14C373.366 1003.14 476.7 1006.51 518.835 1003.14" stroke="#918375"
                      stroke-linecap="round"/>
                <path id="05_006_005006007008,05_007_002LOOP"
                      d="M1136.27 779.091C1141.04 780.105 1147.08 778.759 1154.76 776.666C1162.31 774.61 1166.83 770.94 1169.85 768.499C1174.01 765.145 1177.45 761.027 1182.15 753.721C1185.66 748.269 1190.66 738.789 1194.78 732.35C1201.23 722.288 1209.51 715.645 1217.44 709.696C1230.04 704.881 1241.39 702.817 1243.36 702.643C1244.64 702.47 1252.9 699.066 1264.23 691.91"
                      stroke="#918375" stroke-linecap="round"/>
                <path id="05_003_001A,05_006_005006007008"
                      d="M1038.25 516.497C1049.03 514.128 1058.38 520.669 1067.25 528.826C1072.32 533.489 1075.78 542.35 1080.21 553.866C1082.63 560.187 1084.17 567.925 1086.05 596.407C1087.92 624.89 1089.77 673.998 1091.3 701.549C1092.83 729.1 1093.99 733.607 1095.04 737.141C1096.85 743.16 1100.64 749.993 1105.41 757.628C1108.78 763.006 1113.13 767.287 1118.25 771.715C1122.94 775.773 1129.69 777.69 1136.27 779.09"
                      stroke="#918375" stroke-linecap="round"/>
                <path id="05_002_001LOOP,05_003_001A"
                      d="M750.467 838.042C771.034 833.811 782.344 830.885 798.857 818.184C815.369 805.483 825.744 784.939 829.541 772.409C841.467 733.054 858.482 695.041 879.033 672.829C888.412 662.692 891.555 657.326 913.726 643.335C920.249 639.219 926.845 637.349 938.124 633.717M938.661 633.475C940.629 633.475 948.983 631.78 956.55 626.915C964.898 621.549 970.678 613.124 978.612 598.89C985.659 586.249 988.606 572.772 995.49 559.174C1002.37 545.576 1003.76 543.38 1006.38 540.17C1012.57 532.59 1018.48 527.011 1022.78 523.753C1028.35 519.532 1034 517.431 1038.24 516.498"
                      stroke="#918375" stroke-linecap="round"/>
                <path id="05_004_001B,05_006_005006007008"
                      d="M1090.12 675.215C1090.12 703.836 1093.98 733.608 1095.04 737.143C1096.84 743.161 1100.63 749.995 1105.41 757.63C1108.78 763.008 1113.12 767.288 1118.25 771.716C1122.94 775.774 1129.68 777.691 1136.27 779.092M971.535 691.297C978.606 697.8 986.206 701.132 992.139 703.636C999.031 706.544 1008.7 707.561 1018.32 707.971C1028.96 708.424 1038.23 703.16 1045.8 698.244C1052.81 693.69 1058.7 685.05 1064.46 680.855C1069.74 678.18 1074.68 676.29 1079.33 675.589C1082.14 675.351 1085.83 675.351 1089.64 675.351"
                      stroke="#918375" stroke-linecap="round"/>
                <path id="05_002_001LOOP,05_004_001B"
                      d="M750.467 838.042C771.034 833.811 782.344 830.885 798.857 818.184C815.369 805.483 825.744 784.939 829.541 772.409C841.467 733.054 858.482 695.041 879.033 672.829C888.412 662.692 891.555 657.326 913.726 643.335C920.249 639.219 926.845 637.349 938.124 633.717M938.661 634.071C952.799 640.034 945.227 647.707 952.799 665.014C958.373 677.756 965.08 685.358 971.537 691.296"
                      stroke="#918375" stroke-linecap="round"/>
                <path id="05_005_001C,05_006_005006007008"
                      d="M1090.12 675.215C1090.12 703.836 1093.98 733.608 1095.04 737.143C1096.84 743.161 1100.63 749.995 1105.41 757.63C1108.78 763.008 1113.12 767.288 1118.25 771.716C1122.94 775.774 1129.69 777.691 1136.27 779.092M1045.8 698.244C1052.81 693.69 1058.7 685.05 1064.46 680.855C1069.74 678.18 1074.69 676.289 1079.34 675.589C1082.14 675.351 1085.83 675.351 1089.64 675.351M1045.8 698.46C1045.8 700.105 1041.13 712.831 1033.1 727.327C1027.34 737.718 1019.79 744.246 1012.95 749.421C1008.24 752.986 1000.45 757.729 992.612 761.758C977.377 769.584 964.184 773.039 953.402 775.295"
                      stroke="#918375" stroke-linecap="round"/>
                <path id="05_002_001LOOP,05_005_001C"
                      d="M750.467 838.041C771.034 833.81 782.344 830.884 798.857 818.183C815.369 805.482 825.744 784.938 829.541 772.407M953.404 775.294C940.32 778.032 926.798 778.174 915.08 777.726C903.897 777.299 887.746 772.029 870.295 766.68C857.567 762.779 849.209 765.053 838.759 767.989C836.802 768.674 835.884 769.122 834.799 769.651C833.715 770.18 832.491 770.777 829.839 771.844"
                      stroke="#918375" stroke-linecap="round"/>
                <path id="05_010_009,05_011_003LOOP"
                      d="M1515.86 770.023C1520.97 817.128 1520.22 832.494 1522.27 861.259C1524.53 892.862 1527.35 900.933 1531.39 911.435C1538.81 930.754 1546.78 938.007 1554.87 944.488C1561.31 948.32 1565.12 949.667 1570.12 951.889C1575.49 954.274 1579.67 957.256 1586.22 962.026"
                      stroke="#918375" stroke-linecap="round"/>
                <path id="05_008_002A,05_010_009"
                      d="M1405.01 495.066C1417.08 492.69 1429.93 498.275 1441.34 503.821C1453.31 509.634 1462.93 525.133 1474.34 549.021C1481.25 563.488 1486.75 584.334 1493.36 614.809C1499.97 645.284 1510.75 722.919 1515.86 770.024"
                      stroke="#918375" stroke-linecap="round"/>
                <path id="05_007_002LOOP,05_008_002A"
                      d="M1263.77 692.253C1265.58 691.852 1280.85 680.616 1293.9 667.797C1300.05 661.755 1305.64 650.01 1315.82 624.85C1323.05 606.96 1331.81 577.642 1337.46 560.866C1344.37 540.363 1349.58 531.955 1356.54 522.462C1369.82 504.358 1386.39 498.732 1405.01 495.066"
                      stroke="#918375" stroke-linecap="round"/>
                <path id="05_009_002B,05_010_009"
                      d="M1515.86 770.023C1512 767.169 1505.13 764.486 1503.34 763.464C1497.85 760.327 1492.78 759.012 1483.65 757.998C1466.41 754.536 1445.56 747.924 1432.35 736.314"
                      stroke="#918375" stroke-linecap="round"/>
                <path id="05_007_002LOOP,05_009_002B"
                      d="M1263.77 692.253C1265.58 691.852 1280.85 680.615 1293.9 667.797C1300.05 661.754 1305.64 650.01 1315.82 624.849M1316.11 624.531C1322.07 606.045 1337 622.93 1358.72 634.361C1365.85 638.113 1373.91 648.403 1388.14 668.155C1396.83 680.227 1405.77 698.329 1412.53 709.821C1422.32 726.473 1428.22 732.682 1432.35 736.314"
                      stroke="#918375" stroke-linecap="round"/>
                <path id="05_011_003LOOP,05_013_003B011"
                      d="M1586.36 962.225C1589.65 963.208 1608.08 977.666 1621.27 992.814C1633.87 1007.28 1632.36 1009.57 1639.29 1051.47C1643.4 1076.25 1649.3 1117.62 1651.82 1136.14"
                      stroke="#918375" stroke-linecap="round"/>
                <path id="05_015_004LOOP,05_017_004B013014"
                      d="M1761.34 1307.91C1766.98 1329.01 1772.05 1361.35 1775.75 1379.71C1782.74 1414.42 1799.28 1438.1 1807.41 1447.42C1812.19 1451.71 1816.54 1455.39 1820.5 1458.19C1822.82 1459.69 1825.77 1461.33 1830.79 1463.02"
                      stroke="#918375" stroke-linecap="round"/>
                <path id="05_013_003B011,05_015_004LOOP"
                      d="M1651.82 1136.14C1655.95 1166.54 1668.12 1200.28 1675.43 1210.11C1683.65 1221.15 1697.27 1221.56 1709.69 1225.18C1724.41 1229.48 1730.08 1239.75 1736.54 1246.05C1746.66 1255.92 1752.92 1276.44 1761.34 1307.91"
                      stroke="#918375" stroke-linecap="round"/>
                <path id="05_011_003LOOP,05_012_003A010_BE001"
                      d="M1586.36 962.225C1589.65 963.208 1608.08 977.666 1621.27 992.814C1633.87 1007.28 1632.36 1009.57 1639.29 1051.47M1639.89 1051.08C1661.36 1076.51 1663.62 1051.85 1698.95 1052.84C1714.06 1053.26 1725.41 1049.53 1742.45 1043.66C1758.06 1038.28 1770.99 1029.13 1783.13 1020.12C1802.88 1005.48 1814.15 996.932 1827.36 993.162C1842.89 988.728 1860.15 988.638 1877.31 990.971C1890.97 993.303 1914.69 997.968 1929.82 1000.37C1944.95 1002.77 1950.78 1002.77 1956.79 1003.95"
                      stroke="#918375" stroke-linecap="round"/>
                <path id="05_015_004LOOP,05_016_004A012_BE002"
                      d="M1761.53 1308.47C1770.82 1322 1785.38 1334.11 1794.33 1334.11C1806.24 1334.11 1821.81 1330.62 1827.63 1329.08C1836.92 1326.63 1848.68 1318.94 1859.37 1313.82C1878.98 1304.43 1881.95 1301.92 1884.64 1301.45C1886.01 1301.22 1891.11 1300.68 1898.51 1300.53C1902.81 1300.44 1911.05 1299.76 1921.81 1299.6C1931.95 1299.46 1943.18 1299.44 1946.55 1299.91C1950.17 1300.41 1954.17 1301.29 1960.11 1301.91C1969.47 1302.89 1973.69 1303.76 1983.93 1304.23C1992.61 1304.62 2008.38 1304.38 2017.06 1304.23C2025.73 1304.08 2026.84 1303.77 2029.08 1303.62C2031.32 1303.46 2034.65 1303.46 2038.08 1303.46"
                      stroke="#918375" stroke-linecap="round"/>
                <path id="05_020_005LOOP,05_022_005B016_BE003"
                      d="M1984.54 1566.49C1986.18 1566 2003.14 1554.59 2023.12 1544.48C2035.04 1538.44 2047.76 1543.3 2059.47 1546.74C2063.84 1548.03 2069.66 1552.65 2077.86 1559.28C2086.47 1566.25 2092.19 1578.42 2100.79 1598.7C2106.57 1612.36 2114.1 1633.31 2119.34 1645.83C2128.59 1667.92 2134.16 1673.93 2140.12 1679.89C2148.56 1688.33 2161.44 1691.82 2174.11 1691.82C2187.83 1691.82 2194.69 1685.45 2216.1 1687.29C2237.52 1689.13 2257.21 1689.45 2277.5 1689.79"
                      stroke="#918375" stroke-linecap="round"/>
                <path id="05_020_005LOOP,05_021_005A015017018019"
                      d="M1983.79 1567.83C1989.4 1559.86 1993.97 1549.94 1999.85 1532.83C2005.73 1515.72 2012.36 1491.45 2016.68 1476.69C2022.37 1457.26 2026.94 1448.82 2031.57 1441.37C2035.85 1434.49 2041.7 1429.01 2048.08 1423.77C2061.12 1413.04 2075.78 1414.36 2087.6 1416.03"
                      stroke="#918375" stroke-linecap="round"/>
                <path id="05_017_004B013014,05_020_005LOOP"
                      d="M1833.72 1464.16C1835.38 1465.52 1845.37 1475.2 1855.76 1488.7C1858.85 1492.7 1861.52 1499.06 1866.39 1511.06C1871.27 1523.07 1877.75 1540.85 1882.45 1552.51C1889.25 1569.39 1897.17 1579.53 1905.68 1588.81C1917.01 1601.16 1928.24 1602.87 1941.33 1603.73C1948.3 1604.18 1953.69 1600.01 1958.55 1596.82C1964.96 1592.62 1973.31 1582.7 1983.79 1567.83"
                      stroke="#918375" stroke-linecap="round"/>
                <path id="05_026_006A,05_014_QTE5LOOP"
                      d="M2369.78 1154.51C2381.71 1101.19 2385.29 1091.17 2390.63 1079.11C2395.96 1067.06 2402.94 1053.28 2407.7 1044.48C2414.41 1032.07 2420.76 1024.66 2428.07 1016.99C2434.86 1009.85 2441.75 1006.55 2446.88 1004.74"
                      stroke="#918375" stroke-linecap="round"/>
                <path id="05_014_QTE5LOOP,05_018_020021022"
                      d="M2446.88 1004.74C2452.66 1002.71 2458.92 1004.72 2464.06 1008.14C2466.69 1009.89 2468.66 1012.63 2474.6 1021.62C2490.56 1045.77 2502.49 1062.4 2507.18 1062.94"
                      stroke="#918375" stroke-linecap="round"/>
                <path id="05_018_020021022,05_029_007LOOP"
                      d="M2507.18 1062.94C2511.87 1063.48 2516.06 1060.96 2520.65 1057.73C2523.63 1055.62 2527.21 1051.63 2535.94 1036.36C2544.68 1021.09 2558.28 994.421 2566.99 978.267C2578.49 956.939 2586 948.722 2592.5 942.404C2602.62 932.558 2617.25 930.976 2630.73 932.942C2634.09 934.203 2637.31 936.172 2641.57 939.871C2645.82 943.57 2651.01 948.939 2656.36 954.471"
                      stroke="#918375" stroke-linecap="round"/>
                <path id="05_024_006LOOP,05_026_006A"
                      d="M2309.8 1421.44C2309.8 1420.72 2310.34 1419.1 2312.31 1413.71C2313.82 1409.6 2316.08 1402.6 2327.12 1352.11C2338.17 1301.62 2357.85 1207.84 2369.78 1154.51"
                      stroke="#918375" stroke-linecap="round"/>
                <path id="05_024_006LOOP,05_025_006B_BE004"
                      d="M2308.14 1422.96C2311.66 1418.64 2313.61 1416.69 2319.04 1412.7C2324.47 1408.71 2333.31 1402.75 2341.1 1398.39C2348.9 1394.03 2355.38 1391.46 2361.59 1389.57C2367.81 1387.68 2373.57 1386.55 2380.75 1385.39M2379.28 1385.39C2379.4 1385.39 2379.52 1385.39 2396.49 1384.74C2413.47 1384.09 2447.29 1382.79 2465.28 1382.21C2483.27 1381.64 2484.4 1381.82 2487.86 1381.92C2497.08 1382.17 2503.48 1382.2 2504.5 1382.48"
                      stroke="#918375" stroke-linecap="round"/>
                <path id="05_021_005A015017018019,05_024_006LOOP"
                      d="M2087.6 1416.03C2099.19 1417.66 2107.93 1426.06 2120.19 1439.66C2128.06 1453.48 2138.13 1462.71 2139.57 1464.53C2139.78 1465.46 2146.37 1470 2153.26 1475C2161.85 1481.23 2163.24 1487.77 2167.22 1497.53C2170.2 1504.82 2174.18 1517.25 2177.12 1524.79C2181.08 1534.92 2186.28 1540.22 2191.98 1545.51C2199.69 1552.66 2210.77 1552.3 2218.69 1551.37C2227.04 1550.39 2236.02 1543.19 2243.33 1536.41C2246.91 1533.09 2249.51 1529.31 2257.93 1513.37C2266.35 1497.43 2280.34 1469.26 2290.01 1451.5C2299.68 1433.75 2304.62 1427.27 2308.14 1422.96"
                      stroke="#918375" stroke-linecap="round"/>
                <path id="05_029_007LOOP,05_031_007B"
                      d="M2659.54 958.449C2659.91 958.449 2684.19 987.481 2686.96 993.034C2688.75 996.611 2691.06 1002.38 2699.48 1025.15C2705.75 1042.11 2714.12 1070.72 2721.78 1090.73C2729.45 1110.75 2735.66 1121.48 2740.18 1128.42C2746.79 1138.57 2755.89 1146 2766.25 1154.36"
                      stroke="#918375" stroke-linecap="round"/>
                <path id="05_030_007A,05_032_023024025"
                      d="M2816.13 1024.16C2826.9 1029.96 2834.36 1043.6 2842.52 1059.78C2855.15 1084.82 2859.54 1102.84 2860.8 1105.17C2862.26 1107.5 2864.79 1110.81 2868.29 1114.6C2870.06 1116.27 2871.79 1117.43 2875.92 1119.2"
                      stroke="#918375" stroke-linecap="round"/>
                <path id="05_029_007LOOP,05_030_007A"
                      d="M2659.54 958.449C2659.91 958.449 2684.19 987.481 2686.96 993.034C2688.12 994.774 2705.43 1013.05 2719.12 1015.62C2728.83 1017.44 2746.74 1013.88 2766.89 1012.03C2788.87 1010.01 2805.27 1018.31 2816.13 1024.16"
                      stroke="#918375" stroke-linecap="round"/>
                <path id="05_040_027028029030,05_041_010LOOP"
                      d="M3388.79 1365.11C3402.71 1320.78 3396.98 1335.48 3408.27 1298.72C3419.56 1261.95 3424.44 1251.8 3431.16 1241.69C3437.87 1231.57 3446.27 1221.81 3453.81 1214.44C3467.8 1202.38 3477.76 1195.79 3485.04 1192.25C3488.99 1190.47 3493.48 1188.71 3498.11 1186.9"
                      stroke="#918375" stroke-linecap="round"/>
                <path id="05_039_009C,05_040_027028029030"
                      d="M3249.32 1603.84C3258 1607.42 3267.69 1604.66 3276.84 1601.52C3286.74 1598.12 3295.7 1589.12 3307.1 1574.98C3314.27 1566.09 3336.32 1522.53 3346.45 1494.51C3354.04 1473.54 3374.87 1409.45 3388.79 1365.11"
                      stroke="#918375" stroke-linecap="round"/>
                <path id="05_036_009LOOP,05_039_009C"
                      d="M3158.62 1361.54C3161.42 1367.21 3167.51 1381.1 3173.69 1409.77C3179.86 1438.43 3190.6 1491.74 3197.6 1523.2C3204.59 1554.67 3207.52 1562.67 3210.01 1568.26C3217.76 1585.7 3232.59 1596.92 3249.32 1603.84"
                      stroke="#918375" stroke-linecap="round"/>
                <path id="05_035_008B026,05_036_009LOOP"
                      d="M3040.56 1285.81C3047.65 1295.16 3064.37 1310.56 3069.57 1313.41C3077.76 1317.89 3094.25 1321.2 3112.68 1324.55C3132.81 1328.21 3139.43 1334.64 3149.08 1347.23C3152.74 1352 3155.83 1355.86 3158.62 1361.54"
                      stroke="#918375" stroke-linecap="round"/>
                <path id="05_033_008LOOP,05_035_008B026"
                      d="M3008.36 1169.53C3014.36 1190.46 3025.81 1229.88 3029.39 1250.54C3032.81 1270.31 3036.49 1280.44 3040.56 1285.81"
                      stroke="#918375" stroke-linecap="round"/>
                <path id="05_032_023024025,05_033_008LOOP"
                      d="M2876.58 1119.45C2894.18 1102.59 2913.39 1092.05 2925.68 1090.03C2935.61 1088.4 2949.89 1083.52 2967.22 1097.98C2970.68 1101.24 2986.15 1120.69 2988.09 1123.02C3000.61 1145.68 2999.62 1139.03 3008.36 1169.53"
                      stroke="#918375" stroke-linecap="round"/>
                <path id="05_031_007B,05_032_023024025"
                      d="M2766.25 1154.36C2779 1164.65 2792.23 1168.09 2807.63 1169.06C2825.97 1170.22 2839.23 1155.59 2851.62 1143.77C2860.54 1135.26 2867.62 1128.04 2876.58 1119.45"
                      stroke="#918375" stroke-linecap="round"/>
                <path id="05_034_008A,05_040_027028029030"
                      d="M3242.81 1142.5C3252.2 1145.96 3260.93 1152.31 3270.88 1159.91C3276.62 1164.3 3283.19 1170.43 3290.54 1178.46C3297.89 1186.49 3312.66 1207.56 3320.82 1220.22C3328.97 1232.88 3330.27 1236.82 3339.75 1260.29C3349.22 1283.76 3359.63 1315.13 3365.45 1332.3C3374.86 1356.02 3380.18 1362.06 3383.37 1363.92C3384.72 1364.63 3385.51 1364.89 3387.92 1365.15"
                      stroke="#918375" stroke-linecap="round"/>
                <path id="05_033_008LOOP,05_034_008A"
                      d="M3008.36 1169.53C3009.42 1170.43 3021.35 1169.96 3039.35 1182.9C3051.51 1191.64 3062.51 1195.93 3073.86 1199.33C3085.25 1202.74 3097.9 1201.22 3110.91 1198.67C3117.83 1197.31 3124.96 1194.08 3130.34 1191.63C3135.72 1189.17 3139.02 1187.14 3147.83 1179.74C3156.64 1172.35 3170.86 1159.65 3179.18 1152.41C3189.31 1143.59 3194.67 1140.81 3200.52 1138.24C3205.11 1136.23 3211.03 1136.05 3218.4 1136.24C3226.24 1136.44 3234.32 1139.37 3242.81 1142.5"
                      stroke="#918375" stroke-linecap="round"/>
                <path id="05_038_009B,05_040_027028029030"
                      d="M3346.45 1494.51C3354.03 1473.54 3374.86 1409.45 3388.79 1365.11M3319.68 1450.4C3331.01 1462.77 3339.81 1474.98 3343.68 1483.11C3345.23 1486.64 3345.93 1488.95 3346.64 1494.11"
                      stroke="#918375" stroke-linecap="round"/>
                <path id="05_036_009LOOP,05_038_009B"
                      d="M3158.62 1361.54C3161.42 1367.21 3167.51 1381.1 3173.69 1409.77C3176.47 1413.74 3190.81 1426.53 3205.07 1435.2C3219.22 1443.79 3243.57 1439.43 3269.47 1434.8L3269.62 1434.77C3289.48 1431.21 3302.87 1438.44 3319.68 1450.4"
                      stroke="#918375" stroke-linecap="round"/>
                <path id="05_037_009A,05_040_027028029030"
                      d="M3320.81 1220.22C3328.96 1232.88 3330.26 1236.82 3339.74 1260.29C3349.22 1283.76 3359.63 1315.13 3365.45 1332.3C3374.85 1356.02 3380.18 1362.06 3383.37 1363.92C3384.71 1364.63 3385.5 1364.89 3387.91 1365.15M3275.59 1256.84C3281.5 1242.8 3286.6 1237.71 3291.03 1233.73C3306.67 1223.98 3315.15 1220.74 3316.92 1220.46C3317.78 1220.32 3318.57 1220.18 3320.07 1219.62"
                      stroke="#918375" stroke-linecap="round"/>
                <path id="05_036_009LOOP,05_037_009A"
                      d="M3159.07 1361.67C3160.2 1362.65 3169.06 1364.88 3181.69 1365.11C3191.2 1365.28 3198.9 1362.66 3204.47 1360.5C3212.67 1357.32 3221.72 1351.47 3229.86 1345.4C3236.91 1340.14 3241.95 1333.26 3246.16 1327.39C3249.44 1322.82 3254.04 1312.44 3261.95 1292.83C3266.56 1281.39 3271.55 1266.43 3275.59 1256.84"
                      stroke="#918375" stroke-linecap="round"/>
                <path id="05_044_011LOOP,05_046_011B"
                      d="M3791.57 753.842C3807.91 760.078 3813.85 776.653 3818.8 789.875C3822.3 799.233 3826.63 814.383 3835.1 856.857C3843.56 899.331 3840.22 884.327 3847.93 923.864C3857.16 971.212 3852.1 1011.52 3871.78 1064.59C3878.33 1082.25 3900.95 1084.75 3905.61 1085.62C3908.24 1085.92 3911.42 1085.92 3914.7 1085.92"
                      stroke="#918375" stroke-linecap="round"/>
                <path id="05_043_010B031,05_044_011LOOP"
                      d="M3656.13 923.041C3660.65 919.267 3662.98 911.853 3672.15 889.62C3681.32 867.388 3696.07 829.482 3707.58 804.747C3724.5 768.378 3739 756.258 3746.44 751.878C3757.03 745.648 3772.57 746.586 3791.57 753.842"
                      stroke="#918375" stroke-linecap="round"/>
                <path id="05_041_010LOOP,05_043_010B031"
                      d="M3498.5 1186.82C3501.7 1184.79 3515.92 1172.25 3529.57 1152.67C3535.41 1144.29 3540.45 1127.17 3548.22 1102.04C3555.99 1076.91 3564.67 1043.34 3571.17 1021.57C3580.46 990.416 3589.36 976.658 3596.5 967.468C3612.47 946.919 3627.3 947.117 3656.13 923.039"
                      stroke="#918375" stroke-linecap="round"/>
                <path id="05_041_010LOOP,05_042_010A_BE005"
                      d="M3533.09 1146.87C3533.27 1146.74 3539.39 1135.5 3546.8 1126C3554.22 1116.51 3565.91 1098.04 3576.82 1085.79C3587.72 1073.54 3594.43 1068.46 3600.97 1064.5C3613.05 1057.21 3623.59 1054.45 3630.62 1053.31C3644.2 1051.09 3660.45 1054.83 3675.21 1060.97C3680.43 1063.14 3683.88 1067.65 3689.48 1074.51C3698 1084.95 3705.26 1098.54 3713 1110C3718.91 1118.75 3725.97 1122.09 3730.06 1123.97C3745.54 1127.63 3761.27 1129.25 3775.9 1129.72"
                      stroke="#918375" stroke-linecap="round"/>
                <path id="05_045_011A,05_023_032"
                      d="M3910.63 947.732C3917.41 953.171 3924.68 962.085 3930.57 969.264C3940.8 981.732 3945.71 990.447 3948.48 996.261C3950.02 999.476 3951.39 1003.42 3955.71 1024.5C3960.03 1045.57 3967.15 1083.72 3971.22 1104.71C3975.29 1125.7 3976.09 1128.39 3977.99 1132.79C3986.82 1150.95 3991.82 1157.3 3997.57 1163.26C4000.24 1165.87 4002.39 1167.61 4005.82 1170.63"
                      stroke="#918375" stroke-linecap="round"/>
                <path id="05_044_011LOOP,05_045_011A"
                      d="M3791.57 753.842C3807.91 760.078 3813.85 776.653 3818.8 789.875C3822.3 799.233 3826.63 814.383 3835.1 856.857C3843.56 899.331 3840.22 884.327 3847.93 923.864C3849.72 923.864 3861.24 925.74 3879.06 929.869C3890.59 932.541 3899.28 938.617 3910.64 947.731"
                      stroke="#918375" stroke-linecap="round"/>
                <path id="05_046_011B,05_023_032"
                      d="M3971.22 1104.71C3975.29 1125.7 3976.09 1128.39 3977.99 1132.79C3986.82 1150.94 3991.82 1157.3 3997.57 1163.26C4000.24 1165.86 4002.38 1167.61 4005.82 1170.63M3915.3 1086.05C3917.76 1086.05 3932.24 1089.95 3941.28 1095.19C3947.55 1098.82 3949.01 1102.43 3954.06 1103.34C3960.62 1104.54 3962.41 1104.54 3970.76 1104.54"
                      stroke="#918375" stroke-linecap="round"/>
                <path id="05_047_012LOOP,05_048_012A_BE006"
                      d="M4110.29 1056.24C4120.33 1025.49 4123.41 993.034 4143.88 960.208C4150.97 948.841 4154.98 941.863 4158.86 937.809C4170.95 928.672 4175.12 925.897 4180.65 923.865C4182.82 923.031 4192.72 919.691 4193.77 919.691C4197.94 919.691 4197.25 919.531 4208.79 919.918C4220.27 920.303 4228.69 922.542 4234.43 924.267C4241.11 926.275 4249.78 931.567 4262.42 939.971C4269.85 944.91 4278.93 951.805 4284.49 955.614C4291.5 960.414 4294.97 961.213 4316.35 962.05C4336.17 962.825 4374.24 962.776 4394.29 963.002"
                      stroke="#918375" stroke-linecap="round"/>
                <path id="05_023_032,05_047_012LOOP"
                      d="M4006.94 1171.27C4008.13 1171.7 4016.62 1174.76 4029.83 1177.14C4037.61 1178.55 4045.02 1176.11 4050.54 1174.47C4055.44 1173.01 4059.7 1170.07 4064.29 1166.57C4069.58 1162.52 4073.83 1157.55 4077.87 1152.02C4080.24 1148.78 4082.56 1144.2 4091.54 1116.44C4100.53 1088.67 4100.25 1086.99 4110.29 1056.24"
                      stroke="#918375" stroke-linecap="round"/>
                <path id="05_050_013LOOP,05_052_013B"
                      d="M4322.46 1307.87C4333.52 1347.94 4336.39 1354.69 4339.45 1360.82C4345.26 1372.48 4351.22 1380.76 4357.07 1387.77C4364.85 1397.1 4372.69 1403.26 4378.97 1406.66C4387.58 1411.31 4398.48 1413.42 4407.6 1414.72C4421.55 1414.45 4449.55 1412.48 4453.75 1411.03"
                      stroke="#918375" stroke-linecap="round"/>
                <path id="05_049_012B033,05_050_013LOOP"
                      d="M4289.18 1183.84C4301.62 1228.41 4311.41 1267.8 4322.46 1307.87" stroke="#918375"
                      stroke-linecap="round"/>
                <path id="05_047_012LOOP,05_049_012B033"
                      d="M4110.89 1055.72C4112.04 1055.14 4125.85 1041.34 4143.96 1027.33C4155.44 1018.45 4168.29 1016.85 4176.39 1015.98C4186.72 1014.87 4198.44 1017.12 4208.87 1020.23C4217.37 1022.76 4223.85 1028.28 4231.15 1034.99C4235.39 1038.89 4239.75 1044.73 4243.98 1051.27C4248.22 1057.82 4251.95 1065.14 4256.89 1077.61C4261.83 1090.07 4276.73 1139.28 4289.18 1183.84"
                      stroke="#918375" stroke-linecap="round"/>
                <path id="05_050_013LOOP,05_051_013A_BE007"
                      d="M4322.57 1308.47C4324.47 1308.85 4345.68 1306.82 4363.11 1300.12C4378.31 1294.28 4389.27 1269.64 4397.13 1249.41C4405.91 1226.79 4408.23 1206.89 4411.57 1199.15C4419.15 1181.62 4429.85 1165.71 4442.42 1159.99C4462.1 1151.05 4474.4 1152.66 4489.53 1161.78C4499.93 1168.06 4506.69 1177.17 4514.9 1182.99C4521.97 1186.74 4526.8 1188.48 4550.11 1188.49"
                      stroke="#918375" stroke-linecap="round"/>
                <path id="05_053_034035,05_019_022LOOP"
                      d="M4552.65 1521.07C4560.15 1545.82 4568.74 1562.34 4574.75 1571.7C4583.02 1584.57 4593.6 1589.34 4602.1 1592.69C4608.77 1595.33 4616.36 1595.29 4622.94 1594.53C4629.83 1593.73 4640.22 1587.12 4652.92 1577.2C4663.94 1568.59 4672.37 1553.5 4684.28 1532.44C4691.18 1520.26 4698.65 1504.39 4704.92 1493.64C4722.12 1470.62 4725.65 1465.8 4734 1461.71C4742.36 1457.62 4751.89 1450.38 4775.74 1452.17"
                      stroke="#918375" stroke-linecap="round"/>
                <path id="05_052_013B,05_053_034035"
                      d="M4453.75 1411.03C4456.78 1409.89 4475.89 1405.18 4488.03 1408.72C4502.05 1412.82 4505.03 1417.59 4513.34 1428.74C4517.88 1434.85 4523.72 1442.34 4528.54 1450.88C4533.35 1459.42 4537.33 1468.51 4541.17 1480.67C4545.02 1492.83 4548.62 1507.78 4552.65 1521.07"
                      stroke="#918375" stroke-linecap="round"/>
                <path id="05_067_036,05_054_QTE2"
                      d="M4984.44 1490.93C4986.72 1512.75 4993.47 1539.39 4999.67 1550.37C5002.47 1554.92 5004.55 1557.38 5007.33 1559.78C5010.11 1562.18 5015.45 1566.06 5023.2 1567.25"
                      stroke="#918375" stroke-linecap="round"/>
                <path id="05_027_022A,05_067_036"
                      d="M4872.31 1305.49C4887.89 1299.65 4909.87 1305.36 4924.97 1312.99C4937.4 1319.26 4945.67 1328.87 4951.86 1337.34C4960.94 1349.76 4966.52 1364.98 4971.47 1384.96C4974.8 1398.35 4977.19 1418.94 4979.79 1441.78C4982.39 1464.62 4982.8 1475.22 4984.44 1490.93"
                      stroke="#918375" stroke-linecap="round"/>
                <path id="05_019_022LOOP,05_027_022A"
                      d="M4775.74 1452.17C4776.12 1451.79 4776.06 1440.03 4782.32 1426.56C4787.73 1414.92 4796.54 1393.02 4805.39 1375.47C4814.23 1357.91 4822.56 1345.22 4828.37 1337.17C4842.4 1317.71 4859.77 1310.19 4872.31 1305.49"
                      stroke="#918375" stroke-linecap="round"/>
                <path id="05_019_022LOOP,05_028_022B"
                      d="M4775.5 1452.17C4777.23 1452.55 4788.04 1458.61 4800.89 1471.75C4819.91 1491.21 4817.55 1498.12 4833.08 1513.61C4842.49 1523 4851.26 1535.68 4876.33 1536.8C4886.51 1537.26 4900.03 1533.68 4905.84 1532.36"
                      stroke="#918375" stroke-linecap="round"/>
                <path id="05_028_022B,05_067_036"
                      d="M4905.84 1532.35C4912.7 1530.79 4923.49 1523.42 4938.23 1513.24C4961.05 1495.7 4967.27 1492.65 4972.78 1491.5C4975.99 1491.11 4980.03 1491.11 4984.2 1491.11"
                      stroke="#918375" stroke-linecap="round"/>
                <path id="05_056_038039,05_057_014LOOP"
                      d="M5143.25 1276.56C5146.27 1268.68 5162.32 1250.38 5185.96 1224.31C5208.44 1199.54 5218.04 1186.39 5231.98 1149.64C5241.99 1123.23 5253.09 1079.36 5260.12 1055.44"
                      stroke="#918375" stroke-linecap="round"/>
                <path id="05_054_QTE2,05_056_038039"
                      d="M5023.2 1567.25C5027.37 1568.26 5046.19 1565.41 5071.49 1550.24C5087.13 1540.85 5096.75 1520.54 5105.55 1502.61C5109.57 1494.42 5111.27 1487.41 5115.75 1455.15C5120.23 1422.89 5127.07 1365.41 5131.11 1333.58C5135.72 1297.25 5139.29 1286.91 5143.25 1276.56"
                      stroke="#918375" stroke-linecap="round"/>
                <path id="05_054_QTE2,05_055_037_BE008"
                      d="M5023.2 1567.25C5027.37 1568.26 5046.19 1565.41 5071.49 1550.24C5087.13 1540.85 5096.75 1520.54 5105.55 1502.61C5108.64 1501.92 5139.94 1493 5165.87 1480.18C5193.62 1466.46 5210 1443.24 5224.15 1435.51C5253.89 1419.24 5265.58 1425.86 5285.26 1435.51C5306.34 1445.84 5323.63 1471.1 5335.05 1476.83C5341.59 1478.05 5347.17 1478.74 5351.99 1479.26C5354.75 1479.44 5358.17 1479.44 5361.7 1479.44"
                      stroke="#918375" stroke-linecap="round"/>
                <path id="05_057_014LOOP,05_058_014A040"
                      d="M5260.12 1055.43C5268.09 1028.31 5275.74 1017.39 5286.61 1003.25C5314.02 979.731 5345.14 965.621 5350.56 963.814C5352.35 963.218 5355.93 962.025 5358.04 962.025M5358.31 962.025C5358.31 961.298 5359.11 958.744 5363.91 941.817C5375.73 900.145 5386.22 861.573 5394.13 841.618C5401.9 822.007 5412.81 805.765 5425.26 790.391C5439.72 772.539 5454.48 764.975 5465.58 760.945"
                      stroke="#918375" stroke-linecap="round"/>
                <path id="05_057_014LOOP,05_059_014B"
                      d="M5260.12 1055.44C5268.09 1028.31 5275.74 1017.39 5286.61 1003.25C5314.02 979.733 5345.14 965.622 5350.56 963.815C5352.35 963.219 5355.93 962.026 5358.04 962.026M5506.85 942.34C5498.74 951.004 5487.56 953.732 5477.08 957.027C5464.13 961.097 5445.55 960.718 5420.56 960.174C5389.69 958.54 5370.2 959.452 5366.43 960.734C5364.53 961.289 5362.66 961.652 5358.31 962.026"
                      stroke="#918375" stroke-linecap="round"/>
                <path id="05_061_042,05_063_044"
                      d="M5789.13 845.723C5800.85 853.762 5808.32 866.4 5817.18 880.717C5822.24 888.904 5826.99 899.83 5832.34 918.855C5837.7 937.88 5839.45 948.088 5843.69 965.602C5849.73 990.592 5859.3 1014.32 5865.75 1021.65C5872.19 1026.91 5880.02 1034.38 5886.23 1035.91C5889.23 1036.49 5891.95 1036.65 5894.75 1036.81"
                      stroke="#918375" stroke-linecap="round"/>
                <path id="05_059_014B,05_061_042"
                      d="M5564.91 804.492C5563.04 808.134 5553.93 834.351 5540.55 884.63C5533.52 911.07 5519.96 928.329 5506.85 942.34M5565.22 804.607C5597.02 840.421 5617.87 862.543 5625.38 867.674C5631.82 871.351 5639.09 873.938 5649.93 875.59C5656.52 876.151 5665.3 876.151 5674.34 876.151M5674.34 875.989C5674.34 875.669 5677.81 877.217 5685.07 867.896C5691.88 859.147 5704.96 847.017 5717.52 840.066C5729.88 833.226 5742.17 833.228 5750.14 833.229L5750.53 833.229C5763.09 833.228 5776 836.707 5789.13 845.725"
                      stroke="#918375" stroke-linecap="round"/>
                <path id="05_058_014A040,05_061_042"
                      d="M5465.58 760.946C5497.05 749.529 5521.04 764.717 5539.82 776.603L5540.17 776.827C5545.48 780.187 5552.9 790.729 5565.22 804.607C5597.02 840.42 5617.87 862.543 5625.38 867.673C5631.82 871.35 5639.1 873.938 5649.94 875.589C5656.52 876.151 5665.3 876.151 5674.34 876.151M5674.34 875.988C5674.34 875.668 5677.81 877.216 5685.07 867.896C5691.88 859.146 5704.96 847.017 5717.52 840.065C5729.88 833.225 5742.17 833.227 5750.14 833.229L5750.53 833.229C5763.09 833.228 5776 836.707 5789.14 845.724"
                      stroke="#918375" stroke-linecap="round"/>
                <path id="05_062_043,05_063_044"
                      d="M5843.68 965.603C5849.73 990.593 5859.3 1014.32 5865.75 1021.65C5872.19 1026.91 5880.02 1034.38 5886.23 1035.92C5889.23 1036.49 5891.95 1036.65 5894.75 1036.81M5742.19 975.406C5749.71 979.363 5759.84 980.922 5771.45 982.054C5782.57 983.137 5791.74 980.489 5802.51 976.973C5820.62 970.03 5833.14 965.279 5836.24 964.827C5838.02 964.674 5840.22 964.674 5842.49 964.674"
                      stroke="#918375" stroke-linecap="round"/>
                <path id="05_058_014A040,05_062_043"
                      d="M5465.58 760.946C5497.05 749.529 5521.04 764.717 5539.82 776.603L5540.17 776.827C5545.48 780.187 5552.9 790.729 5565.22 804.607C5597.02 840.42 5617.87 862.543 5625.38 867.673C5631.82 871.35 5639.1 873.938 5649.94 875.589C5656.52 876.151 5665.3 876.151 5674.34 876.151M5674.34 876.161C5675.82 877.507 5681.12 887.071 5689.41 903.954C5693.83 912.967 5697.69 923.371 5701.05 930.978C5706.54 943.382 5712.57 951.84 5719.07 959.201C5725.44 966.404 5734.06 971.123 5742.2 975.406"
                      stroke="#918375" stroke-linecap="round"/>
                <path id="05_059_014B,05_062_043"
                      d="M5564.91 804.492C5563.04 808.134 5553.93 834.351 5540.55 884.63C5533.52 911.07 5519.96 928.329 5506.85 942.34M5565.22 804.607C5597.02 840.421 5617.87 862.543 5625.38 867.674C5631.82 871.351 5639.09 873.938 5649.93 875.59C5656.52 876.151 5665.3 876.151 5674.34 876.151M5674.34 876.161C5675.82 877.507 5681.12 887.072 5689.4 903.955C5693.83 912.967 5697.69 923.371 5701.05 930.979C5706.54 943.383 5712.57 951.84 5719.07 959.201C5725.44 966.405 5734.06 971.123 5742.19 975.407"
                      stroke="#918375" stroke-linecap="round"/>
                <path id="05_064_015LOOP,05_066_015B045"
                      d="M6008.26 1220.22C6019.9 1258.14 6018.02 1273.88 6046.03 1301.92C6074.05 1329.95 6098.3 1320.99 6115.59 1310.85C6126.78 1304.29 6147.29 1288.85 6160.91 1262.55"
                      stroke="#918375" stroke-linecap="round"/>
                <path id="05_066_015B045,05_069_046047048049"
                      d="M6160.91 1262.55C6178.2 1229.16 6189.37 1180.94 6199.07 1124.81C6207.42 1076.51 6219.06 1032.32 6229 983.226C6241.21 922.999 6252.37 905.18 6262.67 892.29C6279.92 870.704 6306.03 865.89 6334.93 842.736"
                      stroke="#918375" stroke-linecap="round"/>
                <path id="05_070_016LOOP,05_072_016B055"
                      d="M6499 766.445C6510.08 787.466 6511.1 792.922 6529.16 863.011C6541.08 889.071 6547.32 943.081 6584.27 973.164C6631.37 1011.52 6676.1 979.32 6689.81 974.549"
                      stroke="#918375" stroke-linecap="round"/>
                <path id="05_069_046047048049,05_070_016LOOP"
                      d="M6334.93 842.739C6375.08 810.563 6399.77 746.664 6435.38 733.166C6460.84 723.514 6480.52 731.377 6499 766.446"
                      stroke="#918375" stroke-linecap="round"/>
                <path id="05_063_044,05_064_015LOOP"
                      d="M5895.56 1037.16C5934.32 1046.7 5944.46 1059.22 5962.9 1091.96C5973.1 1110.06 5986.07 1147.97 6008.26 1220.22"
                      stroke="#918375" stroke-linecap="round"/>
                <path id="05_064_015LOOP,05_065_015A"
                      d="M6008.82 1219.73C6011 1219.73 6022.25 1214.49 6039.08 1199.59C6048.9 1190.9 6057.54 1176.03 6064 1167.33C6070.47 1158.63 6082.8 1141.51 6090.55 1132.56C6098.3 1123.62 6113.21 1102.15 6141.83 1102.15"
                      stroke="#918375" stroke-linecap="round"/>
                <path id="05_065_015A,05_069_046047048049"
                      d="M6199.07 1124.81C6207.42 1076.51 6219.06 1032.32 6229.01 983.226C6241.21 922.999 6252.37 905.18 6262.67 892.29C6279.93 870.704 6306.04 865.89 6334.93 842.736M6141.83 1102.15C6163.08 1102.15 6174.98 1124.73 6197.88 1123.62"
                      stroke="#918375" stroke-linecap="round"/>
                <path id="05_070_016LOOP,05_071_016A050051052053054"
                      d="M6499.7 766.446C6501.68 766.446 6513.57 762.705 6525.52 753.142C6531.4 748.434 6536.8 736.046 6543.76 721.091C6547.38 713.312 6550.57 704.498 6556.78 679.579C6562.98 654.66 6571.94 613.737 6578 588.914C6584.06 564.091 6586.95 556.608 6591.17 548.31C6600.28 530.394 6610.29 517.995 6619.62 510.101C6631.54 500.005 6644.96 498.819 6659.01 502.214C6667.88 504.355 6679.75 511.454 6688.29 515.288C6696.82 519.121 6701.53 520.524 6712.16 520.663C6722.79 520.801 6739.2 519.632 6756.1 518.427"
                      stroke="#918375" stroke-linecap="round"/>
                <path id="05_072_016B055,05_075_056_BE009"
                      d="M6690.28 973.955C6693.43 973.955 6710.97 962.286 6722.01 953.083C6739.12 938.817 6743.04 925.971 6753.61 912.536C6758.24 906.661 6766.29 889.375 6791.18 889.878C6811.33 890.284 6825.76 905.381 6836.1 937.645C6837.88 943.175 6844.03 962.64 6848.42 980.513C6852.81 998.386 6856.05 1014.21 6860.13 1031.71C6865.38 1054.17 6871.77 1066.28 6880.78 1080.54C6885.35 1087.76 6891.25 1094.07 6902.46 1104.69C6913.67 1115.31 6930.36 1129.83 6941.01 1139.84C6956.39 1154.31 6962.67 1164.28 6970.09 1180.07C6975.45 1191.47 6981.62 1210.85 6986.07 1225.17"
                      stroke="#918375" stroke-linecap="round"/>
                <path id="05_076_057058059060061,05_077_017LOOP"
                      d="M6921.79 948.074C6937.85 933.634 6945.83 921.732 6950.68 916.748C6959.51 907.687 6972.41 900.491 6986.77 893.67C7006.45 885.883 7023.61 875.972 7044 873.777C7067.86 871.211 7064.28 871.988 7108.8 875.783"
                      stroke="#918375" stroke-linecap="round"/>
                <path id="05_072_016B055,05_076_057058059060061"
                      d="M6690.28 973.956C6693.43 973.956 6710.97 962.286 6722.01 953.084C6739.12 938.817 6743.04 925.971 6753.61 912.536C6758.24 906.661 6766.29 889.376 6791.18 889.878C6811.33 890.284 6825.76 905.381 6836.1 937.645C6837.88 943.175 6844.03 962.64 6848.42 980.513C6851.08 981.246 6865.62 981.344 6882 975.619C6895.38 970.945 6908.39 960.125 6921.79 948.075"
                      stroke="#918375" stroke-linecap="round"/>
                <path id="05_083_018B,05_084_063064065066067068"
                      d="M7496.27 1154.04C7512.79 1202.88 7515.36 1216.23 7520.09 1226.81C7525.95 1239.93 7535.52 1249.1 7549.68 1256.94C7552.8 1258.26 7563.03 1263.42 7565.16 1263.75"
                      stroke="#918375" stroke-linecap="round"/>
                <path id="05_081_018LOOP,05_083_018B"
                      d="M7393.33 1032.74C7426.24 1055.64 7450.92 1068.47 7455.77 1073.17C7473.64 1090.42 7480.2 1106.52 7496.27 1154.03"
                      stroke="#918375" stroke-linecap="round"/>
                <path id="05_078_017A062,05_081_018LOOP"
                      d="M7280.73 761.078C7316.64 778.731 7332.41 827.514 7338.44 853.173C7341.14 864.671 7342.49 883.217 7343.81 901.381C7346.4 936.892 7348.69 966.157 7355.98 987.919C7363.07 1009.06 7376.34 1020.92 7393.33 1032.74"
                      stroke="#918375" stroke-linecap="round"/>
                <path id="05_077_017LOOP,05_078_017A062"
                      d="M7109 875.564C7111.9 866.853 7135.48 844.564 7149.28 819.408C7162.83 794.692 7183.9 778.529 7208.33 766.435C7229.93 755.741 7253.94 747.909 7280.73 761.078"
                      stroke="#918375" stroke-linecap="round"/>
                <path id="05_079_017B,05_084_063064065066067068"
                      d="M7437.96 1429.28C7464.65 1432.35 7490.07 1404.24 7515.03 1373.56C7536.32 1328.1 7539.49 1290.21 7565.16 1264.34"
                      stroke="#918375" stroke-linecap="round"/>
                <path id="05_077_017LOOP,05_079_017B"
                      d="M7109 876.162C7109.81 876.162 7112.66 876.57 7120.59 881.677C7137.02 892.257 7147 912.354 7158.59 945.318C7167.36 970.253 7178.69 1012.97 7187.58 1041.15C7200.58 1082.37 7212.42 1103.59 7223.43 1119.84C7244.26 1150.56 7269.68 1160.53 7281.34 1169.98C7291.19 1177.97 7295.07 1190.6 7301.37 1209.02C7314.42 1247.13 7320.43 1277.15 7326.12 1294.96C7347.01 1360.31 7356.77 1381.36 7376.19 1403.03C7393.3 1422.12 7419.71 1427.19 7437.96 1429.28"
                      stroke="#918375" stroke-linecap="round"/>
                <path id="05_081_018LOOP,05_082_018A_BE010"
                      d="M7392.83 1032.64C7400.37 1030.36 7429.13 1022.83 7453.18 1008.37C7469.09 998.798 7480.15 975.729 7490.46 964.272C7500.33 953.296 7520.42 942.988 7534.14 937.653C7540.21 936.878 7547.82 936.125 7564.82 934.985C7577.3 934.598 7597.62 934.598 7618.55 934.598"
                      stroke="#918375" stroke-linecap="round"/>
                <path id="05_092_020B,05_093_070"
                      d="M8166.98 1721.89C8180.51 1718.02 8192.18 1707.99 8202.68 1697.96C8210.3 1690.68 8214.41 1680.64 8222.95 1651.31C8229.7 1628.13 8237.94 1587.47 8246.14 1558.93C8254.33 1530.4 8261.37 1515.06 8270.85 1500.21C8280.33 1485.35 8296.06 1467.25 8315.87 1449.78C8335.68 1432.32 8361.83 1418.63 8375.32 1403.13C8389.21 1387.18 8397.76 1374.31 8404.12 1359.15C8410.48 1343.99 8416.74 1329.83 8423.32 1298.52C8429.9 1267.21 8434 1231.26 8437.28 1208.67C8440.57 1186.07 8453.23 1155.88 8458.98 1142.7"
                      stroke="#918375" stroke-linecap="round"/>
                <path id="05_090_012LOOP,05_092_020B"
                      d="M7960.57 1601.82C7987.06 1612.77 7992.33 1615.88 8000.03 1622.28C8007.73 1628.68 8017.69 1638.26 8027.66 1649.55C8037.63 1660.84 8047.3 1673.55 8056.82 1684.4C8074.45 1704.49 8088.02 1715.18 8094.95 1719.65C8112.4 1730.89 8142.12 1729.01 8166.99 1721.89"
                      stroke="#918375" stroke-linecap="round"/>
                <path id="05_087_019B069,05_090_012LOOP"
                      d="M7786.77 1478.47C7794.35 1505.69 7807.94 1523.13 7823.16 1539.33C7829.81 1546.41 7835.74 1550.26 7861.75 1561.46C7887.77 1572.67 7934.08 1590.88 7960.57 1601.82"
                      stroke="#918375" stroke-linecap="round"/>
                <path id="05_084_063064065066067068,05_085_019LOOP"
                      d="M7565.16 1263.75C7568.73 1264.94 7576.53 1267.08 7589.59 1271.53C7622.13 1282.61 7654.01 1288.14 7668.5 1289.84C7681.11 1291.31 7690.45 1293.71 7706.72 1301.67C7715.04 1305.75 7723.02 1314.25 7736.43 1335.06"
                      stroke="#918375" stroke-linecap="round"/>
                <path id="05_088_023LOOP,05_074_023AQTE4"
                      d="M8107.1 1162.37C8109.51 1163.57 8114.36 1166.72 8126.86 1176.09C8138.09 1184.51 8168.17 1194.53 8180.71 1204.02C8196.64 1216.06 8206.58 1219.32 8217.82 1222.47C8228.99 1225.6 8242.91 1224.2 8258.5 1222.39C8274.6 1220.52 8303.77 1204.33 8317.07 1196.96"
                      stroke="#918375" stroke-linecap="round"/>
                <path id="05_088_023LOOP,05_089_023B"
                      d="M8106.55 1162.32C8122.9 1152.46 8137.24 1132.19 8150.91 1109.11C8163.83 1087.27 8170.24 1069.12 8177.61 1058C8191.55 1036.96 8210.4 1028.17 8227.28 1021.58C8249.73 1012.83 8274.37 1022.26 8289.95 1030.25"
                      stroke="#918375" stroke-linecap="round"/>
                <path id="05_086_019A,05_088_023LOOP"
                      d="M8106.56 1162.32C8093.15 1170.4 8064.34 1169.59 8043.97 1173.11C8025.11 1176.36 8010.24 1179.71 7999.29 1175.97C7965.85 1164.57 7951.39 1157.51 7949.16 1157.01C7943.79 1155.82 7933.46 1147.15 7885.95 1162.97"
                      stroke="#918375" stroke-linecap="round"/>
                <path id="05_085_019LOOP,05_087_019B069"
                      d="M7736.42 1335.06C7746.11 1350.09 7756.57 1376.24 7765.83 1403.71C7775.1 1431.18 7781.54 1459.7 7786.77 1478.47"
                      stroke="#918375" stroke-linecap="round"/>
                <path id="05_085_019LOOP,05_086_019A"
                      d="M7885.96 1162.97C7869.92 1168.32 7848.99 1180.27 7834.4 1199.8C7828.37 1207.88 7819.72 1222.05 7810.31 1243.69C7793.07 1283.33 7771.31 1315.21 7765.79 1322.85C7760.29 1327.76 7754.56 1331.7 7749.64 1333.79C7747.08 1334.69 7744.42 1335.29 7738.08 1335.9"
                      stroke="#918375" stroke-linecap="round"/>
                <path id="05_091_020A,05_093_070"
                      d="M8315.87 1449.79C8335.68 1432.32 8361.83 1418.63 8375.32 1403.13C8389.21 1387.18 8397.76 1374.31 8404.12 1359.15C8410.48 1343.99 8416.73 1329.83 8423.32 1298.52C8429.9 1267.21 8434 1231.26 8437.28 1208.67C8440.57 1186.07 8453.23 1155.88 8458.98 1142.7M8146.59 1417.32C8160.73 1410.88 8168.66 1409.49 8179.71 1409.27C8190.76 1409.05 8204.69 1410.04 8215.54 1411.65C8226.4 1413.26 8233.75 1415.45 8247.02 1421.15C8260.28 1426.85 8279.24 1436 8289.59 1440.92C8301.1 1446.23 8304.23 1447.44 8307.94 1448.74C8309.71 1449.25 8311.26 1449.45 8315.78 1449.65"
                      stroke="#918375" stroke-linecap="round"/>
                <path id="05_090_012LOOP,05_091_020A"
                      d="M7960.57 1601.82C7987.06 1612.76 7992.33 1615.88 8000.03 1622.28M8000.95 1623.9C8000.95 1623.5 8001.72 1621.31 8005.51 1608.94C8008.67 1598.61 8013.74 1579.86 8019.34 1563.36C8024.93 1546.86 8030.73 1533.13 8035.95 1521.98C8041.16 1510.83 8045.61 1502.68 8054.97 1490.51C8064.32 1478.35 8078.45 1462.44 8095.59 1448.67C8112.73 1434.89 8132.47 1423.75 8146.6 1417.32"
                      stroke="#918375" stroke-linecap="round"/>
                <path id="05_089_023B,05_093_070"
                      d="M8289.95 1030.25C8298.17 1034.47 8304.26 1044.06 8312.59 1056.84C8325.38 1076.46 8331.42 1098.31 8336.85 1114.03C8350.07 1143.66 8360.72 1159.17 8369.82 1166.23C8372.6 1167.69 8375.37 1168.65 8379.08 1170.13C8379.08 1170.13 8380.56 1171.45 8390.78 1173.73C8397.55 1175.25 8405.9 1173.47 8415.69 1171.53C8420.9 1170.5 8426.44 1168.37 8432.22 1165.3C8443.84 1158.04 8450.96 1152.39 8453.2 1149.72C8454.33 1148.37 8457.83 1144.07 8458.98 1142.7"
                      stroke="#918375" stroke-linecap="round"/>
                <path id="05_074_023AQTE4,05_093_070"
                      d="M8317.07 1196.96C8342.11 1183.08 8364.13 1175.35 8370.06 1172.32C8372.63 1171.21 8374.31 1170.97 8379.67 1170.72M8379.08 1170.13C8379.08 1170.13 8380.56 1171.45 8390.78 1173.73C8397.55 1175.25 8405.9 1173.47 8415.7 1171.53C8420.9 1170.49 8426.44 1168.37 8432.22 1165.3C8443.84 1158.04 8450.96 1152.39 8453.2 1149.72C8454.33 1148.37 8457.83 1144.06 8458.98 1142.7"
                      stroke="#918375" stroke-linecap="round"/>
                <path id="05_096_021A,05_097_071"
                      d="M8896.71 1404.38C8907.82 1405.32 8923.32 1398.78 8942.64 1389.53C8956.35 1382.97 8962.96 1370.26 8972.79 1350.66C8980.66 1334.96 8991.91 1306.86 9003.76 1285.89C9015.61 1264.91 9027.08 1251.73 9035.85 1243.07"
                      stroke="#918375" stroke-linecap="round"/>
                <path id="05_097_071,06_001_001002003004005"
                      d="M9035.85 1243.07C9049.2 1229.91 9062.01 1224.38 9073.76 1219.76C9098.44 1210.08 9249.28 1223.05 9271.72 1219.76"
                      stroke="#918375" stroke-linecap="round"/>
                <path id="05_094_021LOOP,05_096_021A"
                      d="M8668.89 1155.85C8677.95 1164.25 8687.28 1166.99 8709.47 1171.3C8737.3 1176.7 8738.48 1175.89 8748.78 1180.27C8758.29 1184.31 8775.79 1201.38 8779.79 1210.08C8781.16 1213.06 8785.84 1222.38 8791.71 1243.47C8797.59 1264.57 8804.79 1290.82 8811.45 1314.5C8818.11 1338.17 8822.07 1347.47 8826.88 1355.99C8836.12 1372.37 8848.66 1384.59 8858.44 1392.73C8867.86 1400.57 8881.6 1403.11 8896.71 1404.38"
                      stroke="#918375" stroke-linecap="round"/>
                <path id="05_093_070,05_094_021LOOP"
                      d="M8458.98 1142.7C8464.73 1129.51 8465.84 1127.65 8473.89 1114.67C8488.68 1094.27 8497.39 1089.19 8506.54 1082.67C8511.58 1079.5 8515.19 1075.92 8531.89 1071.74C8532.28 1071.74 8540 1071.74 8556.13 1072.44C8574.41 1073.23 8586.4 1076.59 8591.48 1078.08C8597.28 1079.77 8603.96 1083.63 8612.53 1089.79C8623.66 1097.8 8632.53 1107.42 8641.68 1119.35C8655.83 1137.8 8664.51 1151.79 8668.89 1155.85"
                      stroke="#918375" stroke-linecap="round"/>
                <path id="05_094_021LOOP,05_095_021B_BE011"
                      d="M8668.88 1155.82C8668.88 1154.12 8666.77 1141.75 8673.03 1119.3C8675.6 1110.08 8681.48 1100.79 8689 1089.93C8695.24 1080.92 8703.38 1075.28 8710.51 1070.71C8721.09 1063.92 8737.59 1049.55 8770.24 1062.8C8777.81 1065.87 8792.11 1075.82 8798.27 1084.86C8808.65 1100.09 8819.37 1105.05 8824.95 1108.46C8834.91 1112.98 8843.11 1114.69 8863.25 1115.85C8878.31 1116.25 8903.22 1116.25 8928.88 1116.25"
                      stroke="#918375" stroke-linecap="round"/>
            </g>
            <g id="vedio">
                <g id="05_001_001002003004">
                    <text id="05_001_001002003004_2" fill="#2BFF00" xml:space="preserve" style="white-space: pre"
                          font-family="Inter" font-size="10" letter-spacing="0em"><tspan x="457.242" y="1010.55">05_001_001002003004</tspan></text>
                </g>
                <g id="05_002_001LOOP">
                    <text id="05_002_001LOOP_2" fill="#2BFF00" xml:space="preserve" style="white-space: pre"
                          font-family="Inter" font-size="10" letter-spacing="0em"><tspan x="729.148" y="847.17">05_002_001LOOP</tspan></text>
                </g>
                <g id="05_007_002LOOP">
                    <text id="05_007_002LOOP_2" fill="#2BFF00" xml:space="preserve" style="white-space: pre"
                          font-family="Inter" font-size="10" letter-spacing="0em"><tspan x="1245.53" y="712.41">05_007_002LOOP</tspan></text>
                </g>
                <g id="05_011_003LOOP">
                    <text id="05_011_003LOOP_2" fill="#2BFF00" xml:space="preserve" style="white-space: pre"
                          font-family="Inter" font-size="10" letter-spacing="0em"><tspan x="1585.41" y="960.464">05_011_003LOOP</tspan></text>
                </g>
                <g id="05_015_004LOOP">
                    <text id="05_015_004LOOP_2" fill="#2BFF00" xml:space="preserve" style="white-space: pre"
                          font-family="Inter" font-size="10" letter-spacing="0em"><tspan x="1738.06" y="1275.3">05_015_004LOOP</tspan></text>
                </g>
                <g id="05_020_005LOOP">
                    <text id="05_020_005LOOP_2" fill="#2BFF00" xml:space="preserve" style="white-space: pre"
                          font-family="Inter" font-size="10" letter-spacing="0em"><tspan x="1970.61" y="1598.49">05_020_005LOOP</tspan></text>
                </g>
                <g id="05_024_006LOOP">
                    <text id="05_024_006LOOP_2" fill="#2BFF00" xml:space="preserve" style="white-space: pre"
                          font-family="Inter" font-size="10" letter-spacing="0em"><tspan x="2296.18" y="1445.84">05_024_006LOOP</tspan></text>
                </g>
                <g id="05_029_007LOOP">
                    <text id="05_029_007LOOP_2" fill="#2BFF00" xml:space="preserve" style="white-space: pre"
                          font-family="Inter" font-size="10" letter-spacing="0em"><tspan x="2636.06" y="943.767">05_029_007LOOP</tspan></text>
                </g>
                <g id="05_033_008LOOP">
                    <text id="05_033_008LOOP_2" fill="#2BFF00" xml:space="preserve" style="white-space: pre"
                          font-family="Inter" font-size="10" letter-spacing="0em"><tspan x="3008.14" y="1159.62">05_033_008LOOP</tspan></text>
                </g>
                <g id="05_036_009LOOP">
                    <text id="05_036_009LOOP_2" fill="#2BFF00" xml:space="preserve" style="white-space: pre"
                          font-family="Inter" font-size="10" letter-spacing="0em"><tspan x="3159.6" y="1359.97">05_036_009LOOP</tspan></text>
                </g>
                <g id="05_041_010LOOP">
                    <text id="05_041_010LOOP_2" fill="#2BFF00" xml:space="preserve" style="white-space: pre"
                          font-family="Inter" font-size="10" letter-spacing="0em"><tspan x="3518.56" y="1183.47">05_041_010LOOP</tspan></text>
                </g>
                <g id="05_044_011LOOP">
                    <text id="05_044_011LOOP_2" fill="#2BFF00" xml:space="preserve" style="white-space: pre"
                          font-family="Inter" font-size="10" letter-spacing="0em"><tspan x="3770.19" y="755.341">05_044_011LOOP</tspan></text>
                </g>
                <g id="05_047_012LOOP">
                    <text id="05_047_012LOOP_2" fill="#2BFF00" xml:space="preserve" style="white-space: pre"
                          font-family="Inter" font-size="10" letter-spacing="0em"><tspan x="4110.07" y="1074.95">05_047_012LOOP</tspan></text>
                </g>
                <g id="05_050_013LOOP">
                    <text id="05_050_013LOOP_2" fill="#2BFF00" xml:space="preserve" style="white-space: pre"
                          font-family="Inter" font-size="10" letter-spacing="0em"><tspan x="4318.77" y="1308.69">05_050_013LOOP</tspan></text>
                </g>
                <g id="05_019_022LOOP">
                    <text id="05_019_022LOOP_2" fill="#2BFF00" xml:space="preserve" style="white-space: pre"
                          font-family="Inter" font-size="10" letter-spacing="0em"><tspan x="4760.02" y="1455.38">05_019_022LOOP</tspan></text>
                </g>
                <g id="05_057_014LOOP">
                    <text id="05_057_014LOOP_2" fill="#2BFF00" xml:space="preserve" style="white-space: pre"
                          font-family="Inter" font-size="10" letter-spacing="0em"><tspan x="5254.94" y="1073.76">05_057_014LOOP</tspan></text>
                </g>
                <g id="05_064_015LOOP">
                    <text id="05_064_015LOOP_2" fill="#2BFF00" xml:space="preserve" style="white-space: pre"
                          font-family="Inter" font-size="10" letter-spacing="0em"><tspan x="5988.36" y="1228.79">05_064_015LOOP</tspan></text>
                </g>
                <g id="05_070_016LOOP">
                    <text id="05_070_016LOOP_2" fill="#2BFF00" xml:space="preserve" style="white-space: pre"
                          font-family="Inter" font-size="10" letter-spacing="0em"><tspan x="6471.35" y="745.802">05_070_016LOOP</tspan></text>
                </g>
                <g id="05_071_016A050051052053054">
                    <text id="05_071_016A050051052053054_2" fill="#2BFF00" xml:space="preserve" style="white-space: pre"
                          font-family="Inter" font-size="10" letter-spacing="0em"><tspan x="6750.41" y="531.14">05_071_016A050051052053054</tspan></text>
                </g>
                <g id="05_077_017LOOP">
                    <text id="05_077_017LOOP_2" fill="#2BFF00" xml:space="preserve" style="white-space: pre"
                          font-family="Inter" font-size="10" letter-spacing="0em"><tspan x="7103.41" y="884.14">05_077_017LOOP</tspan></text>
                </g>
                <g id="05_081_018LOOP">
                    <text id="05_081_018LOOP_2" fill="#2BFF00" xml:space="preserve" style="white-space: pre"
                          font-family="Inter" font-size="10" letter-spacing="0em"><tspan x="7387.25" y="1032.02">05_081_018LOOP</tspan></text>
                </g>
                <g id="05_085_019LOOP">
                    <text id="05_085_019LOOP_2" fill="#2BFF00" xml:space="preserve" style="white-space: pre"
                          font-family="Inter" font-size="10" letter-spacing="0em"><tspan x="7740.24" y="1328.97">05_085_019LOOP</tspan></text>
                </g>
                <g id="05_088_023LOOP">
                    <text id="05_088_023LOOP_2" fill="#2BFF00" xml:space="preserve" style="white-space: pre"
                          font-family="Inter" font-size="10" letter-spacing="0em"><tspan x="8098.02" y="1171.55">05_088_023LOOP</tspan></text>
                </g>
                <g id="05_090_012LOOP">
                    <text id="05_090_012LOOP_2" fill="#2BFF00" xml:space="preserve" style="white-space: pre"
                          font-family="Inter" font-size="10" letter-spacing="0em"><tspan x="7929.86" y="1594.91">05_090_012LOOP</tspan></text>
                </g>
                <g id="05_094_021LOOP">
                    <text id="05_094_021LOOP_2" fill="#2BFF00" xml:space="preserve" style="white-space: pre"
                          font-family="Inter" font-size="10" letter-spacing="0em"><tspan x="8646.59" y="1150.08">05_094_021LOOP</tspan></text>
                </g>
                <g id="05_097_071">
                    <text id="05_097_071_2" fill="#2BFF00" xml:space="preserve" style="white-space: pre"
                          font-family="Inter" font-size="10" letter-spacing="0em"><tspan x="9016.29" y="1265.76">05_097_071</tspan></text>
                </g>
                <g id="05_012_003A010_BE001">
                    <text id="05_012_003A010_BE001_2" fill="#FF0000" xml:space="preserve" style="white-space: pre"
                          font-family="Inter" font-size="10" letter-spacing="0em"><tspan x="1978.63" y="1015.71">05_012_003A010_BE001</tspan></text>
                    <ellipse id="Ellipse 34" cx="1978.03" cy="1005.48" rx="1.79249" ry="1.78522" fill="#FFA000"/>
                </g>
                <g id="05_016_004A012_BE002">
                    <text id="05_016_004A012_BE002_2" fill="#FF0000" xml:space="preserve" style="white-space: pre"
                          font-family="Inter" font-size="10" letter-spacing="0em"><tspan x="2063.3" y="1313.85">05_016_004A012_BE002</tspan></text>
                    <ellipse id="Ellipse 34_2" cx="2062.7" cy="1303.62" rx="1.79249" ry="1.78522" fill="#FFA000"/>
                </g>
                <g id="05_022_005B016_BE003">
                    <text id="05_022_005B016_BE003_2" fill="#FF0000" xml:space="preserve" style="white-space: pre"
                          font-family="Inter" font-size="10" letter-spacing="0em"><tspan x="2305.39" y="1700.4">05_022_005B016_BE003</tspan></text>
                    <ellipse id="Ellipse 34_3" cx="2304.79" cy="1690.17" rx="1.79249" ry="1.78522" fill="#FFA000"/>
                </g>
                <g id="05_025_006B_BE004">
                    <text id="05_025_006B_BE004_2" fill="#FF0000" xml:space="preserve" style="white-space: pre"
                          font-family="Inter" font-size="10" letter-spacing="0em"><tspan x="2524.82" y="1394.94">05_025_006B_BE004</tspan></text>
                    <ellipse id="Ellipse 34_4" cx="2524.23" cy="1384.71" rx="1.79249" ry="1.78522" fill="#FFA000"/>
                </g>
                <g id="05_042_010A_BE005">
                    <text id="05_042_010A_BE005_2" fill="#FF0000" xml:space="preserve" style="white-space: pre"
                          font-family="Inter" font-size="10" letter-spacing="0em"><tspan x="3794.91" y="1143.31">05_042_010A_BE005</tspan></text>
                    <ellipse id="Ellipse 34_5" cx="3794.31" cy="1133.08" rx="1.79249" ry="1.78522" fill="#FFA000"/>
                </g>
                <g id="05_048_012A_BE006">
                    <text id="05_048_012A_BE006_2" fill="#FF0000" xml:space="preserve" style="white-space: pre"
                          font-family="Inter" font-size="10" letter-spacing="0em"><tspan x="4421" y="972.777">05_048_012A_BE006</tspan></text>
                    <ellipse id="Ellipse 34_6" cx="4420.41" cy="962.545" rx="1.79249" ry="1.78522" fill="#FFA000"/>
                </g>
                <g id="05_051_013A_BE007">
                    <text id="05_051_013A_BE007_2" fill="#FF0000" xml:space="preserve" style="white-space: pre"
                          font-family="Inter" font-size="10" letter-spacing="0em"><tspan x="4574.84" y="1198.17">05_051_013A_BE007</tspan></text>
                    <ellipse id="Ellipse 34_7" cx="4574.25" cy="1187.94" rx="1.79249" ry="1.78522" fill="#FFA000"/>
                </g>
                <g id="05_055_037_BE008">
                    <text id="05_055_037_BE008_2" fill="#FF0000" xml:space="preserve" style="white-space: pre"
                          font-family="Inter" font-size="10" letter-spacing="0em"><tspan x="5401.29" y="1493.93">05_055_037_BE008</tspan></text>
                    <ellipse id="Ellipse 34_8" cx="5400.69" cy="1483.7" rx="1.79249" ry="1.78522" fill="#FFA000"/>
                </g>
                <g id="05_075_056_BE009">
                    <text id="05_075_056_BE009_2" fill="#FF0000" xml:space="preserve" style="white-space: pre"
                          font-family="Inter" font-size="10" letter-spacing="0em"><tspan x="6996.95" y="1260.19">05_075_056_BE009</tspan></text>
                    <ellipse id="Ellipse 34_9" cx="6996.35" cy="1249.95" rx="1.79249" ry="1.78522" fill="#FFA000"/>
                </g>
                <g id="05_072_016B055">
                    <text id="05_072_016B055_2" fill="#2BFF00" xml:space="preserve" style="white-space: pre"
                          font-family="Inter" font-size="10" letter-spacing="0em"><tspan x="6626.39" y="993.855">05_072_016B055</tspan></text>
                </g>
                <g id="05_082_018A_BE010">
                    <text id="05_082_018A_BE010_2" fill="#FF0000" xml:space="preserve" style="white-space: pre"
                          font-family="Inter" font-size="10" letter-spacing="0em"><tspan x="7663.59" y="962.043">05_082_018A_BE010</tspan></text>
                    <ellipse id="Ellipse 34_10" cx="7662.99" cy="951.811" rx="1.79249" ry="1.78522" fill="#FFA000"/>
                </g>
                <g id="05_095_021B_BE011">
                    <text id="05_095_021B_BE011_2" fill="#FF0000" xml:space="preserve" style="white-space: pre"
                          font-family="Inter" font-size="10" letter-spacing="0em"><tspan x="8936.06" y="1123.04">05_095_021B_BE011</tspan></text>
                    <ellipse id="Ellipse 34_11" cx="8935.46" cy="1112.81" rx="1.79249" ry="1.78522" fill="#FFA000"/>
                </g>
            </g>
            <g id="dot">
                <g id="05_004_001B">
                    <circle id="Ellipse 33" cx="969.936" cy="690.58" r="1" fill="#FF0000"/>
                </g>
                <g id="05_003_001A">
                    <circle id="Ellipse 33_2" cx="1039.1" cy="516.467" r="1" fill="#FF0000"/>
                </g>
                <g id="05_005_001C">
                    <circle id="Ellipse 33_3" cx="953.238" cy="775.254" r="1" fill="#FF0000"/>
                </g>
                <g id="05_006_005006007008">
                    <circle id="Ellipse 33_4" cx="1139.28" cy="782.408" r="1" fill="#FF0000"/>
                </g>
                <g id="05_008_002A">
                    <circle id="Ellipse 33_5" cx="1406.41" cy="495" r="1" fill="#FF0000"/>
                </g>
                <g id="05_009_002B">
                    <circle id="Ellipse 33_6" cx="1432.65" cy="737.092" r="1" fill="#FF0000"/>
                </g>
                <g id="05_010_009">
                    <circle id="Ellipse 33_7" cx="1513.74" cy="769.291" r="1" fill="#FF0000"/>
                </g>
                <g id="05_013_003B011">
                    <circle id="Ellipse 33_8" cx="1652.08" cy="1136.6" r="1" fill="#FF0000"/>
                </g>
                <g id="05_017_004B013014">
                    <circle id="Ellipse 33_9" cx="1832.16" cy="1464.56" r="1" fill="#FF0000"/>
                </g>
                <g id="05_021_005A015017018019">
                    <circle id="Ellipse 33_10" cx="2088.56" cy="1416.85" r="1" fill="#FF0000"/>
                </g>
                <g id="05_026_006A">
                    <circle id="Ellipse 33_11" cx="2371.2" cy="1154.49" r="1" fill="#FF0000"/>
                </g>
                <g id="05_014_QTE5LOOP">
                    <circle id="Ellipse 33_12" cx="2447.52" cy="1005.42" r="1" fill="#FF0000"/>
                </g>
                <g id="05_018_020021022">
                    <circle id="Ellipse 33_13" cx="2509.54" cy="1063.85" r="1" fill="#FF0000"/>
                </g>
                <g id="05_030_007A">
                    <circle id="Ellipse 33_14" cx="2819.61" cy="1026.88" r="1" fill="#FF0000"/>
                </g>
                <g id="05_031_007B">
                    <circle id="Ellipse 33_15" cx="2767.13" cy="1154.49" r="1" fill="#FF0000"/>
                </g>
                <g id="05_032_023024025">
                    <circle id="Ellipse 33_16" cx="2876.85" cy="1119.9" r="1" fill="#FF0000"/>
                </g>
                <g id="05_035_008B026">
                    <circle id="Ellipse 33_17" cx="3040.23" cy="1285.67" r="1" fill="#FF0000"/>
                </g>
                <g id="05_034_008A">
                    <circle id="Ellipse 33_18" cx="3244.16" cy="1142.56" r="1" fill="#FF0000"/>
                </g>
                <g id="05_037_009A">
                    <circle id="Ellipse 33_19" cx="3273.97" cy="1257.05" r="1" fill="#FF0000"/>
                </g>
                <g id="05_038_009B">
                    <circle id="Ellipse 33_20" cx="3321.68" cy="1451.44" r="1" fill="#FF0000"/>
                </g>
                <g id="05_039_009C">
                    <circle id="Ellipse 33_21" cx="3250.12" cy="1605.28" r="1" fill="#FF0000"/>
                </g>
                <g id="05_040_027028029030">
                    <circle id="Ellipse 33_22" cx="3388.46" cy="1365.57" r="1" fill="#FF0000"/>
                </g>
                <g id="05_043_010B031">
                    <circle id="Ellipse 33_23" cx="3657.98" cy="920.746" r="1" fill="#FF0000"/>
                </g>
                <g id="05_046_011B">
                    <circle id="Ellipse 33_24" cx="3915.57" cy="1086.51" r="1" fill="#FF0000"/>
                </g>
                <g id="05_045_011A">
                    <circle id="Ellipse 33_25" cx="3912" cy="948.176" r="1" fill="#FF0000"/>
                </g>
                <g id="05_023_032">
                    <circle id="Ellipse 33_26" cx="4007.4" cy="1168.8" r="1" fill="#FF0000"/>
                </g>
                <g id="05_049_012B033">
                    <circle id="Ellipse 33_27" cx="4290.04" cy="1184.3" r="1" fill="#FF0000"/>
                </g>
                <g id="05_052_013B">
                    <circle id="Ellipse 33_28" cx="4454.61" cy="1412.08" r="1" fill="#FF0000"/>
                </g>
                <g id="05_053_034035">
                    <circle id="Ellipse 33_29" cx="4552.4" cy="1522.99" r="1" fill="#FF0000"/>
                </g>
                <g id="05_028_022B">
                    <circle id="Ellipse 33_30" cx="4907.79" cy="1532.53" r="1" fill="#FF0000"/>
                </g>
                <g id="05_027_022A">
                    <circle id="Ellipse 33_31" cx="4873.2" cy="1305.95" r="1" fill="#FF0000"/>
                </g>
                <g id="05_067_036">
                    <circle id="Ellipse 33_32" cx="4985.3" cy="1493.18" r="1" fill="#FF0000"/>
                </g>
                <g id="05_054_QTE2">
                    <circle id="Ellipse 33_33" cx="5024.66" cy="1569.5" r="1" fill="#FF0000"/>
                </g>
                <g id="05_056_038039">
                    <circle id="Ellipse 33_34" cx="5145.11" cy="1274.94" r="1" fill="#FF0000"/>
                </g>
                <g id="05_058_014A040">
                    <circle id="Ellipse 33_35" cx="5465.91" cy="760.941" r="1" fill="#FF0000"/>
                </g>
                <g id="05_059_014B">
                    <circle id="Ellipse 33_36" cx="5504.07" cy="946.982" r="1" fill="#FF0000"/>
                </g>
                <g id="05_061_042">
                    <circle id="Ellipse 33_37" cx="5791.48" cy="848" r="1" fill="#FF0000"/>
                </g>
                <g id="05_062_043">
                    <circle id="Ellipse 33_38" cx="5742.59" cy="976.797" r="1" fill="#FF0000"/>
                </g>
                <g id="05_063_044">
                    <circle id="Ellipse 33_39" cx="5895.23" cy="1037.62" r="1" fill="#FF0000"/>
                </g>
                <g id="05_065_015A">
                    <circle id="Ellipse 33_40" cx="6143.29" cy="1103.21" r="1" fill="#FF0000"/>
                </g>
                <g id="05_066_015B045">
                    <circle id="Ellipse 33_41" cx="6162.37" cy="1263.01" r="1" fill="#FF0000"/>
                </g>
                <g id="05_069_046047048049">
                    <circle id="Ellipse 33_42" cx="6336.48" cy="843.229" r="1" fill="#FF0000"/>
                </g>
                <g id="05_076_057058059060061">
                    <circle id="Ellipse 33_43" cx="6922.03" cy="948.176" r="1" fill="#FF0000"/>
                </g>
                <g id="05_078_017A062">
                    <circle id="Ellipse 33_44" cx="7282.19" cy="764.52" r="1" fill="#FF0000"/>
                </g>
                <g id="05_079_017B">
                    <circle id="Ellipse 33_45" cx="7441.99" cy="1429.97" r="1" fill="#FF0000"/>
                </g>
                <g id="05_083_018B">
                    <circle id="Ellipse 33_46" cx="7498.04" cy="1154.49" r="1" fill="#FF0000"/>
                </g>
                <g id="05_084_063064065066067068">
                    <circle id="Ellipse 33_47" cx="7564.82" cy="1264.21" r="1" fill="#FF0000"/>
                </g>
                <g id="05_086_019A">
                    <circle id="Ellipse 33_48" cx="7888.01" cy="1164.03" r="1" fill="#FF0000"/>
                </g>
                <g id="05_089_023B">
                    <circle id="Ellipse 33_49" cx="8291.1" cy="1030.46" r="1" fill="#FF0000"/>
                </g>
                <g id="05_074_023AQTE4">
                    <circle id="Ellipse 33_50" cx="8318.53" cy="1196.23" r="1" fill="#FF0000"/>
                </g>
                <g id="05_087_019B069">
                    <circle id="Ellipse 33_51" cx="7786.64" cy="1478.87" r="1" fill="#FF0000"/>
                </g>
                <g id="05_092_020B">
                    <circle id="Ellipse 33_52" cx="8168.27" cy="1722.15" r="1" fill="#FF0000"/>
                </g>
                <g id="05_091_020A">
                    <circle id="Ellipse 33_53" cx="8146.8" cy="1418.05" r="1" fill="#FF0000"/>
                </g>
                <g id="05_093_070">
                    <circle id="Ellipse 33_54" cx="8459.25" cy="1143.76" r="1" fill="#FF0000"/>
                </g>
                <g id="05_096_021A">
                    <circle id="Ellipse 33_55" cx="8898.11" cy="1407.31" r="1" fill="#FF0000"/>
                </g>
            </g>
            <g id="chapter4">
                <ellipse id="Ellipse" cx="327.858" cy="1005.84" rx="2.85814" ry="1.84275" fill="#00FFAA"/>
            </g>
            <g id="chapter6">
                <ellipse id="Ellipse_2" cx="9274.86" cy="1225.84" rx="2.85814" ry="1.84275" fill="#FF00EA"/>
            </g>
        </g>
    </g>
    <defs>
        <clipPath id="clip0_2061_10697">
            <rect width="9657" height="2154" fill="white"/>
        </clipPath>
    </defs>
</svg>
