<svg width="8923" height="2154" viewBox="0 0 8923 2154" fill="none" xmlns="http://www.w3.org/2000/svg">
    <g id="&#231;&#172;&#172;&#229;&#133;&#173;&#231;&#171;&#160;frame" clip-path="url(#clip0_2061_11375)">
        <g id="Frame 100">
            <g id="dot">
                <g id="06_003_001A">
                    <circle id="Ellipse 33" cx="1053.06" cy="1060.24" r="1" fill="#FF0000"/>
                </g>
                <g id="06_004_001B">
                    <circle id="Ellipse 33_2" cx="1110.05" cy="1192.49" r="1" fill="#FF0000"/>
                </g>
                <g id="06_005_001C">
                    <circle id="Ellipse 33_3" cx="1058.44" cy="1354.85" r="1" fill="#FF0000"/>
                </g>
                <g id="06_006_006007">
                    <circle id="Ellipse 33_4" cx="1218.05" cy="998.129" r="1" fill="#FF0000"/>
                </g>
                <g id="06_010_002C">
                    <circle id="Ellipse 33_5" cx="1746.59" cy="1198.94" r="1" fill="#FF0000"/>
                </g>
                <g id="06_009_002B">
                    <circle id="Ellipse 33_6" cx="1693.9" cy="963.469" r="1" fill="#FF0000"/>
                </g>
                <g id="06_008_002A">
                    <circle id="Ellipse 33_7" cx="1655.19" cy="634.447" r="1" fill="#FF0000"/>
                </g>
                <g id="06_011_008">
                    <circle id="Ellipse 33_8" cx="1831.53" cy="1112.93" r="1" fill="#FF0000"/>
                </g>
                <g id="06_014_003B">
                    <circle id="Ellipse 33_9" cx="2169.15" cy="1157.01" r="1" fill="#FF0000"/>
                </g>
                <g id="06_013_003A">
                    <circle id="Ellipse 33_10" cx="2148.72" cy="845.193" r="1" fill="#FF0000"/>
                </g>
                <g id="06_015_009">
                    <circle id="Ellipse 33_11" cx="2373.45" cy="1264.53" r="1" fill="#FF0000"/>
                </g>
                <g id="06_017_004A">
                    <circle id="Ellipse 33_12" cx="2813.21" cy="1312.92" r="1" fill="#FF0000"/>
                </g>
                <g id="06_018_004B">
                    <circle id="Ellipse 33_13" cx="2742.25" cy="1393.56" r="1" fill="#FF0000"/>
                </g>
                <g id="06_019_010">
                    <circle id="Ellipse 33_14" cx="2848.7" cy="1431.19" r="1" fill="#FF0000"/>
                </g>
                <g id="06_021_005A011">
                    <circle id="Ellipse 33_15" cx="3018.58" cy="1383.88" r="1" fill="#FF0000"/>
                </g>
                <g id="06_025_006A012">
                    <circle id="Ellipse 33_16" cx="3350.83" cy="883.9" r="1" fill="#FF0000"/>
                </g>
                <g id="06_038_013">
                    <circle id="Ellipse 33_17" cx="3418.57" cy="626.922" r="1" fill="#FF0000"/>
                </g>
                <g id="06_037_QTE1LOOP">
                    <circle id="Ellipse 33_18" cx="3308.89" cy="528" r="1" fill="#FF0000"/>
                </g>
                <g id="06_026_006B013">
                    <circle id="Ellipse 33_19" cx="3214.27" cy="701.111" r="1" fill="#FF0000"/>
                </g>
                <g id="06_027_006C014QTE2">
                    <circle id="Ellipse 33_20" cx="3422.87" cy="960.242" r="1" fill="#FF0000"/>
                </g>
                <g id="06_028_006D">
                    <circle id="Ellipse 33_21" cx="3320.72" cy="1238.73" r="1" fill="#FF0000"/>
                </g>
                <g id="06_023_015016">
                    <circle id="Ellipse 33_22" cx="3483.08" cy="1081.74" r="1" fill="#FF0000"/>
                </g>
                <g id="06_030_018019">
                    <circle id="Ellipse 33_23" cx="3633.61" cy="1048.41" r="1" fill="#FF0000"/>
                </g>
                <g id="06_022_005B020">
                    <circle id="Ellipse 33_24" cx="3126.11" cy="1673.12" r="1" fill="#FF0000"/>
                </g>
                <g id="06_036_021">
                    <circle id="Ellipse 33_25" cx="3251.91" cy="1658.07" r="1" fill="#FF0000"/>
                </g>
                <g id="06_041_008B">
                    <circle id="Ellipse 33_26" cx="3590.61" cy="1400.01" r="1" fill="#FF0000"/>
                </g>
                <g id="06_044_009B">
                    <circle id="Ellipse 33_27" cx="3915.32" cy="1493.56" r="1" fill="#FF0000"/>
                </g>
                <g id="06_045_023024">
                    <circle id="Ellipse 33_28" cx="4075.54" cy="1625.81" r="1" fill="#FF0000"/>
                </g>
                <g id="06_047_010A">
                    <circle id="Ellipse 33_29" cx="4395.95" cy="1411.84" r="1" fill="#FF0000"/>
                </g>
                <g id="06_048_010B">
                    <circle id="Ellipse 33_30" cx="4465.84" cy="1548.39" r="1" fill="#FF0000"/>
                </g>
                <g id="06_049_025">
                    <circle id="Ellipse 33_31" cx="4559.39" cy="1373.13" r="1" fill="#FF0000"/>
                </g>
                <g id="06_051_011A">
                    <circle id="Ellipse 33_32" cx="4732.5" cy="998.951" r="1" fill="#FF0000"/>
                </g>
                <g id="06_052_011B">
                    <circle id="Ellipse 33_33" cx="4798.09" cy="1138.73" r="1" fill="#FF0000"/>
                </g>
                <g id="06_053_026027028">
                    <circle id="Ellipse 33_34" cx="4961.52" cy="1032.28" r="1" fill="#FF0000"/>
                </g>
                <g id="06_055_012A">
                    <circle id="Ellipse 33_35" cx="5341.08" cy="768.852" r="1" fill="#FF0000"/>
                </g>
                <g id="06_056_012B">
                    <circle id="Ellipse 33_36" cx="5356.13" cy="1036.58" r="1" fill="#FF0000"/>
                </g>
                <g id="06_057_012C">
                    <circle id="Ellipse 33_37" cx="5413.12" cy="1121.53" r="1" fill="#FF0000"/>
                </g>
                <g id="06_058_029">
                    <circle id="Ellipse 33_38" cx="5577.63" cy="1086.04" r="1" fill="#FF0000"/>
                </g>
                <g id="06_060_013A">
                    <circle id="Ellipse 33_39" cx="5889.45" cy="1183.89" r="1" fill="#FF0000"/>
                </g>
                <g id="06_061_013B">
                    <circle id="Ellipse 33_40" cx="5890.52" cy="1346.25" r="1" fill="#FF0000"/>
                </g>
                <g id="06_062_030">
                    <circle id="Ellipse 33_41" cx="5984.07" cy="1155.93" r="1" fill="#FF0000"/>
                </g>
                <g id="06_065_014B">
                    <circle id="Ellipse 33_42" cx="6284.05" cy="1230.12" r="1" fill="#FF0000"/>
                </g>
                <g id="06_064_014A">
                    <circle id="Ellipse 33_43" cx="6306.64" cy="980.672" r="1" fill="#FF0000"/>
                </g>
                <g id="06_066_031032033034035">
                    <circle id="Ellipse 33_44" cx="6398.03" cy="1122.6" r="1" fill="#FF0000"/>
                </g>
                <g id="06_070_015C041042">
                    <circle id="Ellipse 33_45" cx="6701.25" cy="1692.47" r="1" fill="#FF0000"/>
                </g>
                <g id="06_069_015B040042">
                    <circle id="Ellipse 33_46" cx="6699.09" cy="1476.35" r="1" fill="#FF0000"/>
                </g>
                <g id="06_068_015A036037038039042">
                    <circle id="Ellipse 33_47" cx="6751.78" cy="1278.51" r="1" fill="#FF0000"/>
                </g>
                <g id="06_073_043">
                    <circle id="Ellipse 33_48" cx="6928.12" cy="931.211" r="1" fill="#FF0000"/>
                </g>
                <g id="06_077_044045046047">
                    <circle id="Ellipse 33_49" cx="7063.6" cy="1054.86" r="1" fill="#FF0000"/>
                </g>
                <g id="06_040_008A">
                    <circle id="Ellipse 33_50" cx="3680.93" cy="1651.62" r="1" fill="#FF0000"/>
                </g>
                <g id="06_043_009A">
                    <circle id="Ellipse 33_51" cx="3979.84" cy="1365.6" r="1" fill="#FF0000"/>
                </g>
                <g id="06_084_056">
                    <circle id="Ellipse 33_52" cx="7888.3" cy="1504.31" r="1" fill="#FF0000"/>
                </g>
            </g>
            <g id="lines">
                <path id="06_003_001A,06_006_006007"
                      d="M1051.13 1060.24C1080.35 1037.64 1108.28 1023.8 1159.28 1007.61C1172.04 1004.53 1181.05 1003.53 1189.2 1002.01C1197.35 1000.5 1209.08 999.568 1219.34 997.504"
                      stroke="#918375" stroke-linecap="round"/>
                <path id="06_002_001LOOP,06_003_001A"
                      d="M819.891 1278.14C873.499 1250.55 941.563 1199.22 961.821 1166.85C984.295 1130.95 1022.27 1082.56 1051.13 1060.24"
                      stroke="#918375" stroke-linecap="round"/>
                <path id="06_001_001002003004005,06_002_001LOOP"
                      d="M574.262 1205.31C647.506 1264.51 715.654 1294.01 819.89 1278.14" stroke="#918375"
                      stroke-linecap="round"/>
                <path id="Vector 530" d="M449.535 1124.78C506.858 1144.77 511.09 1154.25 574.262 1205.31"
                      stroke="#918375" stroke-linecap="round"/>
                <path id="06_006_006007,06_007_002LOOP"
                      d="M1218.8 997.582C1221.25 996.639 1227.29 995.878 1237.4 994.936C1246.67 994.071 1264.3 992.494 1285.66 987.587C1301.96 983.843 1311.33 976.78 1319.63 970.846C1341.43 955.252 1348.43 942.179 1356.77 931.179C1360.4 926.395 1363.02 919.066 1376.65 898.295"
                      stroke="#918375" stroke-linecap="round"/>
                <path id="06_005_001C,06_006_006007"
                      d="M1218.94 998.58C1217.95 1001.02 1216.97 1003.45 1212.04 1028.41C1207.12 1053.37 1198.28 1100.77 1188.12 1141.21C1177.97 1181.66 1166.77 1213.7 1158.05 1235.82C1149.33 1257.95 1143.44 1269.19 1138.83 1277.33C1131.46 1290.35 1119.39 1304.15 1103.25 1320.87C1089.76 1334.86 1074.33 1344.7 1060.27 1353.3"
                      stroke="#918375" stroke-linecap="round"/>
                <path id="06_002_001LOOP,06_005_001C"
                      d="M1060.27 1353.3C1049.3 1360 1039.37 1363.66 1029.97 1366.87C1020.16 1370.22 1010 1371.62 998.437 1372.38C982.782 1373.4 961.65 1368.63 941.625 1362.39C929.617 1358.65 915.395 1349.17 893.72 1332.48C882.097 1323.53 871.455 1311.11 863.132 1303.15C844.594 1285.44 836.732 1283.64 830.367 1279.46C828.968 1278.7 827.789 1278.32 826.593 1278.13C825.396 1277.94 824.217 1277.94 820.025 1277.37"
                      stroke="#918375" stroke-linecap="round"/>
                <path id="06_004_001B,06_006_006007"
                      d="M1218.94 998.58C1217.95 1001.02 1216.97 1003.45 1212.05 1028.41C1207.12 1053.37 1198.28 1100.77 1188.12 1141.21M1113.48 1193.05C1121.72 1190.03 1132.4 1185.35 1143.71 1179C1166.65 1164.78 1184.85 1143.82 1188.16 1140.51"
                      stroke="#918375" stroke-linecap="round"/>
                <path id="06_002_001LOOP,06_004_001B"
                      d="M819.891 1278.14C873.499 1250.54 941.563 1199.22 961.821 1166.85M963.434 1167.93C1045.69 1227.6 1105.24 1196.07 1113.48 1193.05"
                      stroke="#918375" stroke-linecap="round"/>
                <path id="06_009_002B,06_011_008"
                      d="M1690.89 960.693C1704.83 966.739 1713.2 971.237 1734.68 993.216C1745.88 1004.67 1753.18 1023.42 1761.64 1043.35C1773.21 1070.58 1779.7 1082.26 1787.79 1091.87C1804.28 1102.53 1822.4 1109.95 1825.8 1110.63C1827.59 1111.04 1829.48 1111.58 1831.44 1112.14"
                      stroke="#918375" stroke-linecap="round"/>
                <path id="06_007_002LOOP,06_009_002B"
                      d="M1376.64 898.295C1387.7 881.436 1399.37 854.17 1416.17 832.74C1432.97 811.311 1442.12 796.304 1451.11 787.581C1472.45 769.175 1492.49 766.644 1499.95 766.076C1516.04 766.347 1549.61 770.529 1570.75 778.602C1579.31 781.869 1585.82 790.219 1594.4 800.159C1606.12 813.724 1615.07 832.282 1622.04 847.173C1626 855.619 1627.41 861.063 1631.49 874.772C1640.69 905.713 1646 929.97 1649.14 935.704C1653.94 944.466 1683.62 957.542 1690.89 960.693"
                      stroke="#918375" stroke-linecap="round"/>
                <path id="06_008_002A,06_011_008"
                      d="M1831.43 1112.13C1829.48 1111.58 1827.59 1111.03 1825.8 1110.62C1822.39 1109.94 1804.28 1102.53 1787.78 1091.87C1779.7 1082.25 1773.21 1070.58 1761.64 1043.35C1759.73 1038.02 1748.58 976.374 1744.65 944.025C1743.15 924.13 1736.04 903.057 1733.54 871.799C1731.03 840.541 1726.66 805.621 1724.26 785.642C1721.27 760.796 1718.59 741.09 1711.67 718.069C1707.59 704.466 1701.57 687.291 1686.58 667.863C1672.8 650.007 1663.82 638.819 1656.67 635.834"
                      stroke="#918375" stroke-linecap="round"/>
                <path id="06_007_002LOOP,06_008_002A"
                      d="M1376.64 898.295C1387.7 881.436 1399.37 854.169 1416.17 832.74C1432.97 811.311 1442.12 796.303 1451.11 787.58C1472.45 769.175 1492.49 766.644 1499.95 766.076C1500.49 759.037 1505.46 739.384 1514.19 714.804C1520.43 697.239 1533.05 681.364 1546.84 664.566C1556.67 652.583 1571.59 644.125 1589.2 635.384C1616.94 621.603 1638.36 628.201 1656.67 635.835"
                      stroke="#918375" stroke-linecap="round"/>
                <path id="06_010_002C,06_011_008"
                      d="M1745.72 1198.08C1754.3 1199.96 1762.29 1199.35 1768.6 1197.97C1777.18 1196.1 1784.06 1192.76 1789.51 1189.28C1797.67 1184.08 1803.06 1176.55 1806.68 1170.89C1808.58 1167.92 1810.17 1164.46 1812.74 1157.09C1819.18 1138.66 1822.33 1126.14 1822.66 1124.56C1823.91 1121.26 1825.63 1118.36 1827.01 1116.32C1827.74 1115.33 1828.52 1114.41 1830.91 1112.68"
                      stroke="#918375" stroke-linecap="round"/>
                <path id="06_007_002LOOP,06_010_002C"
                      d="M1376.64 898.295C1387.7 881.436 1399.37 854.17 1416.17 832.74C1432.97 811.311 1442.12 796.304 1451.11 787.581C1472.45 769.175 1492.49 766.644 1499.95 766.076C1516.04 766.347 1549.61 770.529 1570.75 778.602C1579.31 781.869 1585.82 790.219 1594.4 800.159C1606.12 813.724 1615.07 832.282 1622.04 847.173C1626 855.619 1627.41 861.063 1631.49 874.772C1640.69 905.713 1646 929.97 1649.14 935.704M1647.88 934.35C1648.66 936.047 1649.66 945.92 1656.72 978.592C1663.78 1011.26 1677.1 1074.86 1684.49 1109.19C1691.87 1143.52 1692.92 1146.65 1694.17 1149.77C1696.67 1155.97 1701.48 1163.68 1707.08 1171.78L1707.23 1172.01C1711.18 1177.72 1720.26 1190.89 1745.73 1198.32"
                      stroke="#918375" stroke-linecap="round"/>
                <path id="06_011_008,06_012_003LOOP"
                      d="M1833.68 1111.1C1841.81 1112.15 1855 1113.47 1864.11 1112.62C1872.11 1111.87 1881.25 1103.88 1891.41 1092.16C1897.09 1085.61 1899.22 1076.19 1902.44 1064.89C1904.38 1058.08 1906.31 1048.89 1908.63 1041.9C1912.57 1030.01 1917.68 1023.27 1923.06 1016.97C1931.66 1006.89 1940.36 1000.18 1947.25 995.588C1958.97 988.641 1967.41 983.948 1969.65 982.895C1970.72 982.365 1971.63 981.843 1972.57 981.305"
                      stroke="#918375" stroke-linecap="round"/>
                <path id="06_015_009,06_016_004LOOP"
                      d="M2373.66 1265.73C2390.13 1285.2 2409.59 1301.53 2423.54 1309.92C2456.99 1339.17 2544.08 1295.63 2586.56 1187.57"
                      stroke="#918375" stroke-linecap="round"/>
                <path id="06_013_003A,06_015_009"
                      d="M2142.44 845.77C2179.62 839.51 2208.61 856.395 2241.34 903.772C2246.02 908.809 2254.94 936.334 2272.05 987.035C2289.16 1037.74 2292 1047.53 2310.76 1103.16C2333.99 1172.08 2366.69 1254.95 2373.66 1265.73"
                      stroke="#918375" stroke-linecap="round"/>
                <path id="06_012_003LOOP,06_013_003A"
                      d="M1972.28 979.944C1993.19 970.871 2010.18 955.519 2050.49 900.973C2083.54 856.24 2117.94 849.898 2142.44 845.771"
                      stroke="#918375" stroke-linecap="round"/>
                <path id="06_014_003B,06_015_009"
                      d="M2310.76 1103.16C2334 1172.08 2366.69 1254.95 2373.66 1265.73M2167.21 1154.77C2208.07 1144.56 2204.62 1129.92 2241.41 1113.37C2247.84 1110.74 2269.23 1103.7 2277.44 1103.11C2285.65 1102.52 2297.74 1102.52 2310.19 1102.52"
                      stroke="#918375" stroke-linecap="round"/>
                <path id="06_012_003LOOP,06_014_003B"
                      d="M1972.57 981.121C2054.86 1032.19 2033.69 1073.53 2065.61 1113.37C2086.41 1139.33 2118.6 1166.93 2167.22 1154.77"
                      stroke="#918375" stroke-linecap="round"/>
                <path id="06_018_004B,06_019_010"
                      d="M2742.88 1392.1C2747.77 1404.04 2760.12 1410.29 2769.95 1415.38C2773.31 1417.12 2778.24 1418.46 2787.89 1420.05C2797.53 1421.64 2811.89 1423.13 2822.1 1424.72C2831.71 1427.34 2842.52 1428.5 2847.3 1432.18"
                      stroke="#918375" stroke-linecap="round"/>
                <path id="06_016_004LOOP,06_018_004B"
                      d="M2587.59 1184.56C2589.24 1180.6 2593.23 1170.14 2599.72 1154.08C2605.63 1139.44 2613.9 1129.57 2620.48 1123.82C2628.13 1117.14 2636.92 1116.7 2646.24 1117.03C2658.64 1117.46 2667.23 1125.32 2673.7 1130.94C2676.01 1132.94 2679.11 1136.51 2684.09 1143.57C2691.69 1154.32 2697.78 1168.81 2701.95 1180.64C2704.1 1186.76 2704.64 1190.05 2706.46 1199.31C2707.98 1207.06 2709.93 1221.12 2711.04 1230.17C2712.58 1242.8 2714.46 1257.97 2718.45 1276.3C2721.21 1288.94 2723.8 1290.75 2724.72 1296.17C2725.1 1298.38 2725.15 1304.04 2726.14 1313.99C2727.13 1323.95 2729.11 1340.29 2730.79 1351.1C2734.21 1373.06 2737.98 1380.09 2742.89 1392.1"
                      stroke="#918375" stroke-linecap="round"/>
                <path id="06_017_004A,06_019_010"
                      d="M2811.37 1310.15C2819.97 1318.02 2825.85 1330.88 2831.64 1344.01C2836.38 1354.75 2838.61 1364.6 2840.63 1377.07C2845.82 1409.25 2845.27 1416.7 2846.17 1422.2L2846.18 1422.27C2846.6 1424.48 2847.02 1426.69 2847.37 1428.98C2847.5 1430.11 2847.54 1431.13 2847.58 1432.19"
                      stroke="#918375" stroke-linecap="round"/>
                <path id="06_016_004LOOP,06_017_004A"
                      d="M2587.59 1184.56C2589.24 1180.6 2593.23 1170.14 2599.72 1154.08C2605.63 1139.44 2613.9 1129.57 2620.48 1123.82C2628.13 1117.14 2636.92 1116.7 2646.24 1117.03C2658.64 1117.46 2667.23 1125.32 2673.7 1130.94C2676.01 1132.94 2679.11 1136.51 2684.09 1143.57C2691.69 1154.32 2697.78 1168.81 2701.95 1180.64C2704.1 1186.76 2704.64 1190.05 2706.46 1199.31C2707.98 1207.06 2709.93 1221.12 2711.04 1230.17C2712.58 1242.8 2714.46 1257.97 2718.45 1276.3C2721.21 1288.94 2723.8 1290.75 2724.72 1296.17M2724.83 1296.24C2731.38 1293.56 2736.94 1290.91 2749 1288.94C2759.64 1287.2 2770.74 1289.67 2780.74 1292.1C2792.26 1294.89 2802.63 1302.15 2811.37 1310.15"
                      stroke="#918375" stroke-linecap="round"/>
                <path id="06_021_005A011,06_024_006LOOP"
                      d="M3017.68 1383.34C3021.39 1370.31 3025.05 1292.47 3026.06 1283.49C3028.34 1263.15 3032.72 1253.63 3034.98 1247.28C3037.26 1240.87 3043.04 1236.95 3048.06 1232.52C3052.26 1228.81 3058.05 1227.09 3063.8 1224.35C3065.72 1223.59 3068.36 1222.93 3071.04 1222.01C3073.72 1221.09 3076.36 1219.94 3080.09 1218.75"
                      stroke="#918375" stroke-linecap="round"/>
                <path id="06_020_005LOOP,06_021_005A011"
                      d="M2971.89 1521.15C2986.38 1508.91 2986.23 1495.41 2989.5 1487.14C2995.19 1472.76 2993.76 1455.48 2994.59 1442.61C2995.04 1435.67 2995.76 1431.35 2999.91 1418.04C3002.12 1410.95 3006.41 1406.17 3009.67 1401.5C3013.24 1396.38 3015.59 1390.67 3017.68 1383.34"
                      stroke="#918375" stroke-linecap="round"/>
                <path id="06_019_010,06_020_005LOOP"
                      d="M2847.3 1432.18C2851.46 1435.39 2862.02 1445.65 2864.36 1449.57C2868.19 1453.82 2872.03 1457.83 2873.78 1459.08C2874.7 1459.67 2875.69 1460.16 2876.71 1460.67C2878.48 1461.75 2884.52 1466.32 2890.18 1473.63C2905.61 1493.55 2912.84 1504.6 2917.3 1514.58C2920.9 1522.67 2930.7 1527.85 2942.27 1531.61C2953.33 1535.2 2963.5 1528.23 2971.88 1521.15"
                      stroke="#918375" stroke-linecap="round"/>
                <path id="06_022_005B020,06_036_021"
                      d="M3131.23 1671C3161.2 1675.26 3167.46 1670.11 3179.62 1666.35C3187.05 1664.06 3198.09 1659.78 3219.02 1655.35C3227.28 1654.75 3236.14 1655.74 3244.88 1657.24C3248.35 1657.75 3249.83 1657.75 3251.36 1657.75"
                      stroke="#918375" stroke-linecap="round"/>
                <path id="06_020_005LOOP,06_022_005B020"
                      d="M2971.49 1521.43C2983.85 1526.26 3014.67 1542.8 3022.21 1549.91C3031.45 1558.63 3034.26 1563.02 3038.74 1571.39C3046.98 1586.8 3051.61 1599.87 3053.44 1605.19C3056.96 1615.44 3061.61 1621.71 3072.23 1636.58C3076.78 1642.96 3085.8 1649.93 3094.01 1655.66C3109.31 1666.33 3121.28 1669.58 3131.23 1671"
                      stroke="#918375" stroke-linecap="round"/>
                <path id="06_030_018019,06_031_007LOOP"
                      d="M3632.24 1047.35C3642.33 1053.46 3652.6 1065.18 3666.66 1084.2C3685.8 1110.09 3695.34 1131.37 3700.56 1141.69C3713.87 1168.02 3721.04 1173.57 3735.12 1181.32C3744.77 1184.34 3750.01 1184.83 3754.36 1185.58C3756.99 1185.84 3760.45 1185.84 3764.01 1185.84"
                      stroke="#918375" stroke-linecap="round"/>
                <path id="06_028_006D,06_023_015016"
                      d="M3319.37 1237.78C3342.07 1236 3360.76 1228.06 3370.73 1221.71C3384.29 1213.07 3393.47 1197.4 3398.13 1188.48C3402.61 1179.91 3404 1167.19 3404.88 1157.9C3405.72 1149 3407.74 1141.18 3408.5 1132.94C3409.45 1122.58 3415.49 1112.21 3417.35 1108.97C3421.64 1101.5 3426.99 1098.11 3435.99 1093.48C3448.14 1087.24 3470.37 1086.73 3481.23 1081.38"
                      stroke="#918375" stroke-linecap="round"/>
                <path id="06_024_006LOOP,06_028_006D"
                      d="M3080.62 1218.21C3098.9 1213.82 3117.26 1216.81 3145.03 1213.82C3172.41 1210.86 3192.74 1214.03 3203.46 1216.53C3215.67 1219.36 3230.13 1226.24 3262.06 1233.74C3284.33 1238.98 3303.58 1239.01 3319.37 1237.78"
                      stroke="#918375" stroke-linecap="round"/>
                <path id="06_024_006LOOP,06_027_006C014QTE2"
                      d="M3076.32 1218.75C3085.9 1189.16 3084.01 1166.74 3085.33 1096.64C3089.6 1085.41 3102.45 1039.1 3120.72 1018.7C3137 1000.51 3154.02 992.859 3176.25 987.751C3180.55 998.503 3192.01 1015.06 3199.57 1017.83C3207.81 1020.84 3220.94 1028.82 3237.74 1028.81C3269.74 1028.79 3277.89 1027.24 3284.95 1025.3C3296 1022.28 3309.08 1018.02 3316.17 1013.3C3327.41 1005.81 3336.41 1002.83 3345.11 995.703C3351.38 990.58 3359.92 985.277 3367.83 981.731C3374.83 978.597 3383.3 971.518 3392.31 969.501C3401.8 967.377 3408.89 964.241 3421.91 959.506"
                      stroke="#918375" stroke-linecap="round"/>
                <path id="06_024_006LOOP,06_025_006A012"
                      d="M3351.97 881.42C3346.89 885.98 3345.51 893.498 3340.7 899.974C3330.75 913.388 3320.81 924.972 3311.71 937.292C3302.77 949.385 3285.39 959.538 3268.94 967.367C3245.86 978.357 3227.45 975.99 3176.25 987.751C3154.02 992.858 3137 1000.51 3120.72 1018.7C3102.45 1039.1 3089.6 1085.41 3085.33 1096.64C3084.01 1166.74 3085.9 1189.16 3076.32 1218.75"
                      stroke="#918375" stroke-linecap="round"/>
                <path id="06_024_006LOOP,06_026_006B013"
                      d="M3213.95 701.562C3210.73 727.906 3187.27 759.339 3173.02 802.02C3165.83 823.567 3163.25 852.284 3147.49 885.589C3138.21 905.21 3131.63 922.756 3124.12 937.962C3114.8 956.801 3103.59 975.679 3099.41 996.019C3093.53 1024.64 3086.09 1056.61 3085.33 1096.64C3084.01 1166.75 3085.9 1189.16 3076.32 1218.75"
                      stroke="#918375" stroke-linecap="round"/>
                <path id="06_031_007LOOP,06_033_007B_BE002"
                      d="M3765.01 1185.95C3768.43 1187.68 3788.04 1182.05 3799.74 1178.1C3812.19 1173.9 3823.08 1170.88 3845.44 1158.05C3853.97 1153.15 3863.8 1141.55 3872.2 1132.86C3884.13 1120.52 3885.76 1111.35 3888.08 1104.59C3890.73 1096.91 3890.59 1084.26 3892.02 1072.91C3894.9 1050.18 3893.47 1040.43 3894.43 1032.43C3895.43 1024.08 3897.11 1017.16 3899.9 1005.15C3901.55 998.028 3907.1 994.278 3916.02 987.166C3921.72 982.618 3925.35 976.969 3928.72 972.359C3932.47 967.243 3937.08 961.413 3940.93 953.831C3947.4 941.057 3948.99 929.909 3951.6 923.261C3954.82 915.024 3961.47 909.533 3968.21 905.468C3973.11 902.509 3978.58 901.622 3987.7 901.04C3997.82 900.393 4008.55 900.457 4026.49 911.75C4033.51 916.168 4041.4 923.48 4053.67 932.679C4074.26 948.12 4078.33 952.73 4085.24 956.085C4092.06 959.395 4099.48 960.035 4109.31 960.9C4128.78 962.611 4142.73 960.813 4151.69 960.237C4173.17 958.855 4192.66 960.802 4201.3 961.955C4209.99 962.157 4214.8 961.2 4217.68 960.335C4219.22 960.041 4220.93 960.041 4222.7 960.041"
                      stroke="#918375" stroke-linecap="round"/>
                <path id="06_031_007LOOP,06_032_007A_BE001"
                      d="M3765.01 1185.95C3768.43 1187.68 3788.04 1182.05 3799.74 1178.1C3812.19 1173.9 3823.08 1170.88 3845.44 1158.05C3853.97 1153.15 3863.8 1141.55 3872.2 1132.85C3884.13 1120.52 3885.76 1111.35 3888.08 1104.59C3890.73 1096.91 3890.59 1084.26 3892.02 1072.91C3894.9 1050.18 3893.47 1040.43 3894.43 1032.43C3895.43 1024.08 3897.11 1017.16 3899.9 1005.15C3901.55 998.027 3907.1 994.277 3916.02 987.165C3921.72 982.617 3925.35 976.969 3928.72 972.359C3932.47 967.243 3937.08 961.413 3940.93 953.831C3947.4 941.056 3948.99 929.908 3951.6 923.261C3954.82 915.024 3961.47 909.532 3968.21 905.467C3973.11 902.509 3978.58 901.622 3987.7 901.039M3988.12 901.509C3988.88 899.024 3997.27 886.806 4005.97 876.457C4012.95 868.135 4025.12 857.758 4046.36 844.474C4056.99 837.83 4069.74 835.22 4080.3 832.435C4084.74 831.263 4087.43 830.982 4124.57 832.498C4161.71 834.015 4233.26 837.44 4289.14 837.682C4345.02 837.924 4383.07 834.88 4422.28 830.59"
                      stroke="#918375" stroke-linecap="round"/>
                <path id="06_036_021,06_039_008LOOP"
                      d="M3251.05 1657.98C3253.57 1657.56 3272.82 1650.8 3281.49 1646.01C3286.27 1643.37 3291.32 1639.55 3295.89 1635.11C3302.92 1628.26 3308.48 1619.04 3313.05 1612.55C3317.06 1606.86 3319.08 1599.54 3321.73 1593.6C3325.04 1586.22 3329.24 1577.94 3331.9 1572C3335.28 1564.45 3343.42 1555.51 3349.25 1549.44C3353.43 1545.1 3366.45 1545.93 3374.88 1548.46C3381.44 1550.43 3389.56 1556.71 3396.9 1559.79C3402.61 1562.19 3410.97 1562.02 3431.58 1562.35C3435.98 1562.24 3437.45 1562.03 3438.83 1561.71C3440.22 1561.4 3441.48 1560.98 3442.77 1560.54"
                      stroke="#918375" stroke-linecap="round"/>
                <path id="06_045_023024,06_046_010LOOP"
                      d="M4075.21 1625.72C4077.82 1646.77 4080.49 1647.78 4089.21 1671.64C4093.94 1684.6 4103.79 1697.88 4121.11 1708.5C4145.59 1723.51 4175.2 1719.55 4194.4 1717.87"
                      stroke="#918375" stroke-linecap="round"/>
                <path id="06_044_009B,06_045_023024"
                      d="M3908.09 1492.26C3908.59 1492.26 3919.15 1492.26 3937.41 1495.02C3965.41 1499.27 3967.97 1530.77 3970.04 1539.59C3971.7 1546.68 3977.11 1561.71 3981.71 1574.49C3984.81 1583.12 3988.31 1590.23 3994.5 1600.63C4006.27 1620.37 4017.73 1623.51 4025.37 1628.21C4031.77 1632.16 4042.59 1631.66 4051.27 1630.77C4058.67 1630.02 4068.73 1626.7 4075.21 1625.19"
                      stroke="#918375" stroke-linecap="round"/>
                <path id="06_046_010LOOP,06_047_010A"
                      d="M4194.4 1717.86C4212.8 1716.25 4229.13 1705.19 4237.6 1697.35C4248.71 1687.05 4255.37 1674.3 4262.8 1660.32C4269.98 1646.81 4278.24 1633.66 4283.55 1622C4292.22 1609.09 4301.53 1587.98 4318.86 1561.08C4322.72 1555.72 4324.4 1553.2 4332.48 1546.8M4332.38 1546.7C4332.38 1543.01 4339.73 1508.64 4346.84 1484.74C4349.77 1474.9 4353.4 1466.05 4359.19 1454.21C4372.53 1426.89 4382.58 1421.27 4394.94 1410.74"
                      stroke="#918375" stroke-linecap="round"/>
                <path id="06_047_010A,06_049_025"
                      d="M4394.95 1410.74C4402.4 1404.4 4410.29 1400.95 4420.82 1398.21C4429.68 1395.91 4439.75 1395.74 4455.2 1395.36C4464.64 1395.13 4469.85 1397.67 4479.5 1401C4488.8 1404.21 4495.63 1407.99 4508.53 1404.22C4517.82 1401.51 4531.07 1397.73 4538.01 1393.15C4544.71 1388.32 4551.12 1382.39 4556.46 1376.82C4557.58 1375.45 4558.56 1374.23 4559.57 1372.96"
                      stroke="#918375" stroke-linecap="round"/>
                <path id="06_049_025,06_050_011LOOP"
                      d="M4559.6 1373.04C4559.8 1358.37 4564.02 1325.49 4565.87 1315.84C4569.89 1294.82 4577.36 1274.83 4582.44 1264.22C4586.4 1255.97 4593.67 1248.28 4606.42 1238.12C4612.7 1233.12 4616.96 1226.98 4621.79 1218.7"
                      stroke="#918375" stroke-linecap="round"/>
                <path id="06_048_010B,06_049_025"
                      d="M4464.3 1547.71C4478.01 1544.75 4498.05 1533.66 4519.57 1520.92C4534.59 1512.03 4540.23 1505.39 4545.32 1499.21C4550.52 1492.89 4553.12 1485.36 4558.18 1474.72C4561.91 1466.89 4563.38 1457.69 4563.77 1442.6C4564.44 1416.59 4561.75 1399.47 4561.21 1394.55C4560.34 1386.58 4559.49 1381.46 4559.6 1373.04"
                      stroke="#918375" stroke-linecap="round"/>
                <path id="06_046_010LOOP,06_048_010B"
                      d="M4194.4 1717.87C4212.8 1716.25 4229.13 1705.19 4237.6 1697.35C4248.71 1687.05 4255.37 1674.3 4262.8 1660.32C4269.98 1646.81 4278.24 1633.66 4283.55 1622C4292.22 1609.09 4301.53 1587.98 4318.86 1561.08C4322.72 1555.72 4324.4 1553.2 4332.48 1546.8M4332.19 1546.94C4335.88 1546.2 4350.61 1544.47 4368.44 1546.94C4375.33 1547.89 4389.43 1549.16 4411.41 1551.63C4432.76 1554.04 4450.6 1550.67 4464.31 1547.71"
                      stroke="#918375" stroke-linecap="round"/>
                <path id="06_050_011LOOP,06_052_011B"
                      d="M4621.79 1218.7C4632.56 1200.23 4640.72 1181.69 4645.06 1170.2C4649.35 1158.82 4654.08 1147.54 4657.19 1140.85C4661.03 1131.69 4663.01 1125.74 4664.86 1122.66C4665.73 1121.04 4667.03 1117.37 4669.28 1113.38C4672.61 1113.18 4682.15 1111.55 4696.06 1111.73C4703.82 1111.83 4709.24 1116.28 4716.71 1118.93C4730.68 1123.89 4744.59 1129.91 4753.96 1133.06C4767.4 1137.59 4787.24 1138.82 4797.19 1137.84"
                      stroke="#918375" stroke-linecap="round"/>
                <path id="06_050_011LOOP,06_051_011A"
                      d="M4731.58 998.221C4723.79 1004.14 4714.72 1012.96 4708.28 1024.53C4703.45 1033.2 4698.76 1039.09 4693.11 1051.92C4681.46 1078.4 4672.96 1098.56 4671.84 1104.85C4671.05 1109.28 4669.28 1112.99 4669.28 1113.38C4667.03 1117.37 4665.73 1121.04 4664.86 1122.66C4663.01 1125.74 4661.03 1131.69 4657.19 1140.85C4654.08 1147.54 4649.35 1158.82 4645.06 1170.2C4640.72 1181.7 4632.56 1200.23 4621.79 1218.7"
                      stroke="#918375" stroke-linecap="round"/>
                <path id="06_052_011B,06_053_026027028"
                      d="M4960.66 1031.12C4956.72 1030.52 4932.31 1029.8 4918.28 1032.19C4905.23 1037.72 4893.23 1044.2 4882.17 1044.02C4880 1046.49 4873.9 1053.63 4871.23 1058.68C4868.57 1063.73 4866.81 1069.34 4864.51 1075C4861.85 1081.52 4860.88 1087.35 4857.99 1092.39C4851.7 1103.34 4843.08 1118.85 4827.02 1126.39C4817.34 1130.93 4806.83 1136.88 4797.19 1137.83"
                      stroke="#918375" stroke-linecap="round"/>
                <path id="06_051_011A,06_053_026027028"
                      d="M4731.58 998.22C4747.36 986.225 4764.69 985.732 4779.52 985.427C4789.01 985.231 4802.24 994.769 4809.5 1001.03C4816.28 1006.87 4826.18 1015.94 4832.13 1021.19C4840.36 1028.46 4854.64 1036.5 4861.27 1039.18C4870.63 1042.96 4875.34 1043.91 4882.17 1044.02C4893.23 1044.2 4905.23 1037.72 4918.28 1032.19C4932.31 1029.8 4956.72 1030.53 4960.66 1031.12"
                      stroke="#918375" stroke-linecap="round"/>
                <path id="06_053_026027028,06_054_012LOOP"
                      d="M4960.62 1030.99C4965.2 1032.14 4977.49 1035.98 4987.71 1042.51C4997.94 1049.05 5006.35 1067.08 5015.03 1082.68C5024.56 1099.81 5026.78 1112.88 5029.87 1124.26C5033.01 1135.89 5047.12 1146.01 5056.78 1152.75C5061.22 1155.85 5067.17 1156.42 5072.36 1157.01"
                      stroke="#918375" stroke-linecap="round"/>
                <path id="06_054_012LOOP,06_055_012A"
                      d="M5072.36 1157.01C5082.77 1158.18 5092.93 1148 5101.23 1140.31C5112.03 1130.29 5117.95 1110.71 5123.75 1097.23C5128.95 1085.12 5133.06 1051.79 5138.07 1032.2C5142.52 1014.82 5143.74 1009.2 5148.94 992.182C5152.71 979.888 5166.02 961.876 5205.37 914.196C5220.65 895.687 5236.43 890.585 5250.3 882.891C5263.96 875.315 5272.63 869.807 5282.06 857.513C5290.13 846.995 5296.11 828.713 5302.85 813.262C5307.66 801.321 5318.39 785.218 5331.31 773.807C5333.83 771.678 5335.36 769.773 5340.39 767.811"
                      stroke="#918375" stroke-linecap="round"/>
                <path id="06_055_012A,06_058_029"
                      d="M5341.29 767.69C5355.27 763.926 5363.66 768.109 5375.45 774.986C5383.21 779.519 5389.83 791.496 5396.18 799.35C5401.22 805.575 5405.74 812.784 5410.72 821.546C5421.44 840.402 5430.51 868.506 5440.43 891.837C5460.8 939.774 5459.59 950.329 5462.68 961.78C5466.87 977.299 5461.72 978.559 5466.56 988.112C5472.28 999.419 5481.37 1012.82 5487.56 1019.67C5500.16 1033.62 5507.73 1039.45 5517.17 1044.99C5524.71 1049.42 5534.12 1051.31 5542.61 1054.69C5549.55 1057.45 5555.93 1064.23 5563.48 1070.83C5567.24 1073.39 5570.76 1076.88 5573.85 1081.18C5575.34 1083.08 5576.67 1084.42 5577.23 1086.6"
                      stroke="#918375" stroke-linecap="round"/>
                <path id="06_056_012B,06_058_029"
                      d="M5466.56 988.113C5472.28 999.419 5481.38 1012.82 5487.56 1019.67C5500.17 1033.62 5507.74 1039.45 5517.17 1044.99C5524.71 1049.42 5534.13 1051.31 5542.62 1054.69C5549.56 1057.45 5555.93 1064.23 5563.48 1070.83C5567.24 1073.39 5570.76 1076.88 5573.85 1081.18C5575.34 1083.09 5576.67 1084.42 5577.24 1086.6M5356.95 1035.34C5399.84 1027.76 5411.07 1017.18 5418.53 1011.25C5426.07 1005.25 5434.25 999.946 5442.35 995.493C5446.1 993.744 5450.43 992.388 5455.53 991.313C5458.23 990.772 5461.16 990.239 5465.79 987.268"
                      stroke="#918375" stroke-linecap="round"/>
                <path id="06_057_012C,06_058_029"
                      d="M5576.89 1085.43C5574.59 1086.82 5565.39 1089.1 5541.38 1094.31C5527.63 1097.29 5511.36 1103.42 5497.53 1107.72C5488.72 1110.47 5476.43 1114.98 5458.84 1119.51C5447.79 1122.35 5429.55 1121.49 5414.68 1120.11"
                      stroke="#918375" stroke-linecap="round"/>
                <path id="06_054_012LOOP,06_057_012C"
                      d="M5072.36 1157.01C5082.77 1158.18 5092.93 1148 5101.23 1140.3C5112.03 1130.29 5117.95 1110.71 5123.75 1097.23C5128.95 1085.12 5133.06 1051.78 5138.07 1032.2M5137.92 1032.49C5143.79 1029.83 5158.86 1023.35 5171.23 1020.26C5183.83 1017.11 5213.34 1017.41 5251.38 1019.68C5280.07 1021.39 5282.7 1024.81 5291.29 1026.28M5414.68 1120.11C5395.71 1118.35 5383.98 1108.35 5368.47 1101.53C5343.01 1090.32 5334.25 1079.45 5327.4 1073.32C5322.76 1069.16 5318.73 1064.88 5314.22 1059.33C5310.11 1054.29 5306.02 1048.25 5301.74 1042.92C5299.78 1039.93 5292.72 1028.47 5290.76 1026.28"
                      stroke="#918375" stroke-linecap="round"/>
                <path id="06_058_029,06_059_013LOOP"
                      d="M5577.55 1086.49C5579.18 1088.79 5583.39 1094.33 5587.39 1102.39C5595.87 1119.52 5599.6 1125.29 5603.01 1134.74C5609.55 1152.84 5614.61 1170.94 5619.45 1190.05C5626.68 1218.57 5630.61 1229.94 5637.17 1249.9C5642.55 1266.29 5651.48 1282.37 5658.2 1292.12C5663.04 1299.15 5670.98 1303.92 5703.98 1311.76"
                      stroke="#918375" stroke-linecap="round"/>
                <path id="06_059_013LOOP,06_060_013A"
                      d="M5703.98 1311.77C5732.67 1318.59 5739.21 1312.48 5752.57 1304.77C5769.41 1295.04 5775.26 1283.19 5782.78 1275.54C5789.45 1268.75 5801.03 1250.01 5809.44 1238.91C5816.66 1229.39 5822.47 1219.16 5828.22 1212.58C5839.05 1200.15 5844.78 1196.51 5850.54 1193.61C5857.45 1189.56 5868.26 1185.42 5880.1 1184.01C5882.83 1183.78 5887.51 1183.27 5889.66 1183.27"
                      stroke="#918375" stroke-linecap="round"/>
                <path id="06_062_030,06_063_014LOOP"
                      d="M5984.57 1154.11C5989.04 1149.91 5995.55 1142.83 6002.45 1137.64C6008.37 1133.2 6012.56 1129.26 6018.11 1123.81C6020.03 1122.19 6022.2 1119.99 6024.27 1119.06C6058.47 1103.7 6077.29 1091.87 6121.37 1103.7"
                      stroke="#918375" stroke-linecap="round"/>
                <path id="06_061_013B,06_062_030"
                      d="M5886.79 1347.68C5892 1339.82 5895.37 1326.29 5897.91 1319.4C5901.23 1310.37 5902.66 1301.82 5904.78 1296.66C5907.84 1289.22 5909.72 1278.79 5911.55 1272.72C5914.38 1263.3 5917.81 1253.94 5920.13 1245.86C5921.89 1239.72 5925.88 1235.34 5928.21 1229.38C5930.56 1223.37 5938.47 1207.77 5945.04 1201.01C5952.82 1192.99 5958.6 1191.91 5969 1175.38C5975.56 1164.93 5979.62 1158.77 5984.58 1154.11"
                      stroke="#918375" stroke-linecap="round"/>
                <path id="06_059_013LOOP,06_061_013B"
                      d="M5703.98 1311.76C5732.67 1318.59 5739.21 1312.48 5752.57 1304.77M5752.57 1304.23C5757 1315.73 5756.16 1330.04 5765.3 1340.73C5778.63 1356.3 5792.52 1364.82 5798.16 1367.64C5829.45 1383.31 5830.93 1379.83 5847.19 1378.42C5856.52 1377.61 5865.86 1369.89 5870.52 1365.56C5875.25 1361.16 5882.21 1354.58 5886.79 1347.68"
                      stroke="#918375" stroke-linecap="round"/>
                <path id="06_060_013A,06_062_030"
                      d="M5984.57 1154.11C5979.62 1158.77 5975.55 1164.93 5968.99 1175.38C5958.6 1191.91 5952.82 1192.99 5945.03 1201.01C5939.47 1197.88 5933.67 1194.37 5927.69 1192.48C5920.61 1190.24 5914.04 1188.26 5907.07 1186.82C5899.2 1185.2 5893.82 1183.75 5889.66 1183.27"
                      stroke="#918375" stroke-linecap="round"/>
                <path id="06_066_031032033034035,06_067_015LOOP"
                      d="M6398.78 1124.13C6402.21 1132.45 6407.04 1139.72 6423.17 1161.45C6439.95 1184.05 6456.48 1194.32 6464 1199.78C6473.53 1206.69 6491.18 1228.25 6511.74 1254.52"
                      stroke="#918375" stroke-linecap="round"/>
                <path id="06_064_014A,06_066_031032033034035"
                      d="M6304.87 980.068C6312.94 978.915 6324.08 982.59 6338.56 988.924C6346.91 992.579 6350.64 999.134 6354.9 1005.96C6359.09 1012.67 6361.35 1021.04 6365.6 1028.94C6371.79 1040.45 6373.04 1049.73 6376.32 1061.06C6380.43 1075.27 6388.82 1099.91 6398.78 1124.13"
                      stroke="#918375" stroke-linecap="round"/>
                <path id="06_065_014B,06_066_031032033034035"
                      d="M6277.93 1230C6289.6 1229.89 6295.88 1225.52 6301.96 1222.46C6309.51 1218.67 6316.54 1212.13 6322.29 1207.26C6328.99 1201.59 6334.33 1193.88 6340.05 1186.59C6345 1180.28 6349.18 1171.76 6354.04 1164.2C6359.59 1155.59 6365.72 1149.36 6370.48 1144.59C6374.86 1140.2 6379.11 1135.72 6384.95 1131.45C6387.63 1129.15 6394.68 1123.31 6397.71 1121.98"
                      stroke="#918375" stroke-linecap="round"/>
                <path id="06_063_014LOOP,06_065_014B"
                      d="M6121.91 1103.7C6130.51 1105.85 6138.18 1108.65 6145.47 1115.47C6152.64 1122.18 6157.83 1128.68 6163.31 1137.57C6168.56 1146.09 6173.72 1159.99 6177.97 1171.9C6181.59 1182.04 6185.62 1194.53 6191.58 1204.5C6195.2 1210.56 6211.44 1230.25 6226.21 1235.95C6250.19 1245.21 6265.16 1230.12 6277.92 1230"
                      stroke="#918375" stroke-linecap="round"/>
                <path id="06_063_014LOOP,06_064_014A"
                      d="M6304.87 980.068C6291.91 981.919 6275.66 982.937 6258.96 998.609C6243.75 1012.89 6233.97 1027 6230.54 1037.3C6228.48 1043.49 6224.68 1064.49 6207.71 1088.03C6183.07 1122.21 6169.22 1134.34 6163.31 1137.57C6157.83 1128.68 6152.64 1122.18 6145.47 1115.47C6138.18 1108.65 6130.51 1105.85 6121.91 1103.7"
                      stroke="#918375" stroke-linecap="round"/>
                <path id="06_026_006B013,06_037_QTE1LOOP"
                      d="M3213.95 701.173C3214.71 696.551 3225.91 653.668 3230.38 646.233C3235.06 638.445 3239.67 628.576 3244.77 618.504C3254.1 600.085 3258.79 582.708 3263.51 573.078C3268.08 563.762 3280.7 552.948 3287.32 542.541C3292.53 534.36 3300.82 530.907 3309.49 527.02"
                      stroke="#918375" stroke-linecap="round"/>
                <path id="06_038_013,06_030_018019"
                      d="M3463.4 800.482C3479.92 809.897 3498.01 825.5 3512.67 839.228L3523.62 850.296C3528.99 856.747 3534.78 868.422 3538.93 882.087C3541.83 891.628 3544.29 904.881 3545.93 917.655C3548.28 936.005 3550.04 948.366 3553.91 959.975C3557.41 970.485 3567.45 987.492 3574.88 1001.3C3580.4 1011.58 3590.95 1021 3598.46 1027.16C3605.27 1032.75 3613.93 1036.26 3632.24 1047.35M3416.17 620.256C3420.37 631.215 3425.21 649.5 3430.19 667.072C3433.12 677.387 3434.42 688.616 3435.68 701.171C3437.45 718.614 3437.47 734.131 3438.74 747.844C3439.7 758.179 3443.84 769.229 3446.26 777.92C3450.21 786.611 3453 791.586 3456.31 793.284C3457.85 794.367 3460.04 798.363 3462.87 799.944"
                      stroke="#918375" stroke-linecap="round"/>
                <path id="06_037_QTE1LOOP,06_038_013"
                      d="M3309.49 527.021C3325.29 519.934 3343.61 528.676 3359.05 534.735C3374.57 540.83 3383.66 556.279 3388.65 562.17C3393.77 568.22 3397.94 576.72 3401.4 585.718C3405.59 596.647 3410.18 604.62 3416.17 620.258"
                      stroke="#918375" stroke-linecap="round"/>
                <path id="06_025_006A012,06_030_018019"
                      d="M3351.97 881.421C3363.24 871.318 3381.21 872.011 3401.62 869.054C3421.58 866.162 3432.77 844.135 3440.35 830.947C3444.08 825.315 3447.87 818.854 3451.35 811.353C3453.24 807.575 3455.36 803.853 3462.39 800.018M3463.4 800.484C3479.92 809.899 3498.01 825.502 3512.67 839.23L3523.62 850.298C3528.99 856.749 3534.78 868.424 3538.93 882.089C3541.83 891.63 3544.29 904.884 3545.93 917.657C3548.28 936.007 3550.04 948.369 3553.91 959.978C3557.41 970.488 3567.45 987.494 3574.88 1001.3C3580.4 1011.58 3590.95 1021 3598.46 1027.16C3605.27 1032.75 3613.93 1036.27 3632.24 1047.35"
                      stroke="#918375" stroke-linecap="round"/>
                <path id="06_067_015LOOP,06_070_015C041042"
                      d="M6511.75 1254.52C6521.13 1266.51 6522.7 1273.65 6526.94 1285.26C6540.42 1322.17 6540.21 1335.44 6544.96 1354.28C6552.63 1370.28 6559.43 1379.01 6566.25 1384.76C6567.96 1385.86 6574.05 1389.17 6578.35 1390.25M6578.27 1390.45C6578.6 1394.76 6587.18 1423.17 6596.55 1455.92C6599.04 1464.63 6603.16 1475.78 6610.31 1503.8C6617.45 1531.82 6627.67 1576.31 6635.57 1604.34C6646.54 1643.27 6652.07 1658.2 6669.2 1677.33C6675.59 1684.46 6696.62 1691.85 6701.46 1691.85"
                      stroke="#918375" stroke-linecap="round"/>
                <path id="06_070_015C041042,06_077_044045046047"
                      d="M6701.46 1691.85C6712.16 1691.85 6721.35 1684.44 6729.42 1676.26C6735.38 1670.21 6741.32 1663.86 6750.03 1650.49C6759.69 1635.65 6763.01 1611.54 6767.35 1590.77C6769.59 1580.05 6772 1570.6 6774.68 1561.27C6777.27 1552.24 6778.99 1543.29 6780.34 1534.3C6781.84 1524.28 6788.85 1496.95 6790.71 1483.25C6793.01 1466.2 6806.25 1450.52 6812.75 1444.01C6818.74 1438 6816.6 1437.45 6822.77 1429.1C6830.84 1418.15 6837.24 1402.48 6849.71 1338.45C6854.31 1314.82 6851.95 1295.04 6853.61 1277.88C6855.1 1262.42 6862.2 1248.08 6878.8 1187.67C6893.36 1147.85 6903.5 1124.82 6906 1120.34C6906.85 1117.84 6906.85 1114.87 6906.85 1111.82M6906.83 1111.22C6910.32 1109.05 6927.46 1101.92 6937.81 1088.73C6946.09 1078.18 6953.37 1069.87 6964.76 1058.69C6978.74 1044.96 7015.43 1025.74 7062.71 1054"
                      stroke="#918375" stroke-linecap="round"/>
                <path id="06_067_015LOOP,06_069_015B040042"
                      d="M6511.75 1254.52C6521.13 1266.51 6522.7 1273.65 6526.94 1285.26C6540.42 1322.17 6540.21 1335.44 6544.96 1354.28C6552.63 1370.28 6559.43 1379.01 6566.25 1384.76C6567.96 1385.86 6574.05 1389.17 6578.35 1390.25M6578.27 1390.46C6583.24 1391.44 6607.06 1393.45 6624.66 1391.47M6697.91 1475.38C6673.13 1464.11 6663.59 1438.05 6655.72 1425.13C6649.46 1416.83 6642.44 1406.08 6635.06 1398.16C6633.13 1396.79 6629.33 1394.42 6625.12 1391.32"
                      stroke="#918375" stroke-linecap="round"/>
                <path id="06_067_015LOOP,06_068_015A036037038039042"
                      d="M6578.21 1390.39C6583.18 1391.38 6606.99 1393.39 6624.6 1391.41C6648.1 1388.76 6663.72 1365.49 6674.04 1353.33C6689.72 1334.87 6697.68 1324.54 6706.68 1315.02C6715.81 1305.37 6734.25 1289.26 6749.27 1281.06M6511.68 1254.46C6521.06 1266.44 6522.63 1273.59 6526.88 1285.2C6540.36 1322.11 6540.15 1335.38 6544.9 1354.22C6552.57 1370.21 6559.37 1378.95 6566.19 1384.7C6567.9 1385.8 6573.98 1389.11 6578.28 1390.18"
                      stroke="#918375" stroke-linecap="round"/>
                <path id="06_073_043,06_074_016LOOP"
                      d="M6929.63 928.925C6953.67 850.242 6964.36 839.731 6985.8 826.269C6998.58 818.252 7029.04 815.707 7048.95 821.849C7063.28 826.269 7083.98 840.198 7102.52 837.58"
                      stroke="#918375" stroke-linecap="round"/>
                <path id="06_068_015A036037038039042,06_073_043"
                      d="M6853.61 1277.89C6855.1 1262.42 6862.2 1248.08 6878.8 1187.67C6893.36 1147.85 6903.5 1124.82 6906 1120.34C6906.84 1117.84 6906.84 1114.88 6906.84 1111.82M6749.34 1281.12C6759.11 1275.78 6771.96 1275.29 6820.43 1274.77C6830.91 1274.94 6833.88 1275.27 6837.22 1275.44C6840.56 1275.61 6844.19 1275.61 6852.92 1277.6M6906.83 1111.23C6907.26 1081.67 6908.44 1029.51 6912.74 1003.7C6917.04 977.897 6918.29 966.067 6929.63 928.924"
                      stroke="#918375" stroke-linecap="round"/>
                <path id="06_069_015B040042,06_073_043"
                      d="M6790.71 1483.25C6793.01 1466.2 6806.25 1450.52 6812.75 1444.01C6818.74 1438 6816.6 1437.45 6822.77 1429.1C6830.84 1418.15 6837.24 1402.48 6849.71 1338.45C6854.31 1314.82 6851.95 1295.04 6853.61 1277.89C6855.1 1262.42 6862.2 1248.08 6878.8 1187.67C6893.36 1147.85 6903.5 1124.82 6906 1120.34C6906.85 1117.84 6906.85 1114.87 6906.85 1111.82M6790.13 1483.03C6780.28 1486.5 6757.19 1488.02 6736.53 1488.62C6725.29 1488.94 6713.93 1482.66 6697.91 1475.37M6906.83 1111.23C6907.26 1081.67 6908.44 1029.51 6912.74 1003.7C6917.05 977.897 6918.29 966.067 6929.63 928.924"
                      stroke="#918375" stroke-linecap="round"/>
                <path id="06_070_015C041042,06_073_043"
                      d="M6701.46 1691.85C6712.16 1691.85 6721.35 1684.44 6729.42 1676.26C6735.38 1670.21 6741.32 1663.86 6750.03 1650.49C6759.69 1635.65 6763.01 1611.55 6767.35 1590.77C6769.59 1580.05 6772 1570.6 6774.68 1561.27C6777.27 1552.24 6778.99 1543.29 6780.34 1534.3C6781.84 1524.28 6788.85 1496.95 6790.71 1483.25C6793.01 1466.2 6806.25 1450.52 6812.75 1444.01C6818.74 1438 6816.6 1437.45 6822.77 1429.1C6830.84 1418.15 6837.24 1402.48 6849.71 1338.45C6854.31 1314.82 6851.95 1295.04 6853.61 1277.89C6855.1 1262.42 6862.2 1248.08 6878.8 1187.67C6893.36 1147.85 6903.5 1124.82 6906 1120.34C6906.85 1117.84 6906.85 1114.87 6906.85 1111.82M6906.83 1111.23C6907.26 1081.67 6908.44 1029.51 6912.74 1003.7C6917.04 977.897 6918.29 966.067 6929.63 928.924"
                      stroke="#918375" stroke-linecap="round"/>
                <path id="06_069_015B040042,06_077_044045046047"
                      d="M6790.71 1483.25C6793.01 1466.2 6806.25 1450.52 6812.75 1444.01C6818.74 1438 6816.6 1437.45 6822.77 1429.1C6830.84 1418.15 6837.24 1402.48 6849.71 1338.45C6854.31 1314.82 6851.95 1295.04 6853.61 1277.88C6855.1 1262.42 6862.2 1248.08 6878.8 1187.67C6893.36 1147.85 6903.5 1124.82 6906 1120.34C6906.85 1117.84 6906.85 1114.87 6906.85 1111.82M6790.13 1483.03C6780.28 1486.5 6757.19 1488.02 6736.53 1488.62C6725.29 1488.94 6713.93 1482.66 6697.91 1475.37M6906.83 1111.22C6910.32 1109.05 6927.46 1101.92 6937.81 1088.73C6946.09 1078.18 6953.37 1069.87 6964.76 1058.69C6978.74 1044.96 7015.43 1025.74 7062.71 1054"
                      stroke="#918375" stroke-linecap="round"/>
                <path id="06_068_015A036037038039042,06_077_044045046047"
                      d="M6853.61 1277.88C6855.1 1262.42 6862.2 1248.08 6878.8 1187.67C6893.36 1147.85 6903.5 1124.82 6906 1120.34C6906.84 1117.84 6906.84 1114.87 6906.84 1111.82M6749.34 1281.12C6759.11 1275.78 6771.96 1275.28 6820.43 1274.77C6830.91 1274.94 6833.88 1275.26 6837.22 1275.43C6840.56 1275.6 6844.19 1275.6 6852.92 1277.6M6906.83 1111.22C6910.32 1109.05 6927.45 1101.92 6937.81 1088.73C6946.09 1078.18 6953.37 1069.87 6964.76 1058.69C6978.74 1044.96 7015.43 1025.74 7062.71 1054"
                      stroke="#918375" stroke-linecap="round"/>
                <path id="06_078_017LOOP,06_080_017B048"
                      d="M7208.97 1261.76C7239.41 1278.19 7258.57 1317.51 7276.73 1343.57C7290.28 1363.02 7294.95 1385.02 7300.89 1406.07C7308.91 1434.48 7319.48 1459.5 7343.81 1494.19C7354.56 1509.51 7363.36 1519.7 7375.19 1528.9C7389.68 1540.77 7403.67 1542.54 7417.03 1542.32C7422.57 1542.1 7425.61 1541.67 7431.37 1541.22"
                      stroke="#918375" stroke-linecap="round"/>
                <path id="06_077_044045046047,06_078_017LOOP"
                      d="M7062.71 1054C7083.39 1066.36 7095.02 1095.18 7109.89 1128.88C7125.76 1164.86 7130.54 1192.11 7142.55 1218.37C7157.22 1250.44 7184.88 1248.75 7208.97 1261.76"
                      stroke="#918375" stroke-linecap="round"/>
                <path id="06_074_016LOOP,06_076_016B"
                      d="M7227.78 691.884C7340.68 556.632 7482.75 961.867 7490.68 972.209C7571.86 1078.12 7557.88 834.56 7711.64 924.898C7797.95 975.611 7785.88 945.483 7821.31 913.071M7102.52 837.578C7120.25 835.075 7143.13 800.436 7160.23 784.025C7175.37 769.488 7189.6 753.998 7227.25 691.242"
                      stroke="#918375" stroke-linecap="round"/>
                <path id="06_076_016B,07_001_001002003"
                      d="M8578.27 1080.27C8578.27 1080.27 8409.46 1007.69 8287.96 1006.08C8166.46 1004.47 8072.38 911.459 7944.96 850.708C7889.08 824.061 7849 887.746 7821.31 913.072"
                      stroke="#918375" stroke-linecap="round"/>
                <path id="06_074_016LOOP,06_075_016A"
                      d="M7102.52 837.578C7120.25 835.075 7143.13 800.435 7160.23 784.024C7175.37 769.488 7189.6 753.998 7227.25 691.242C7241.61 667.307 7246.7 657.303 7271.44 630.762C7288.39 618.18 7281.37 603.257 7332.53 604.406C7383.69 605.555 7554.65 846.18 7642.82 837.578C7730.99 828.976 7857.33 720.605 7947.65 750.174"
                      stroke="#918375" stroke-linecap="round"/>
                <path id="06_075_016A,07_001_001002003"
                      d="M7947.65 750.174C8037.97 779.743 8058.93 853.396 8213.23 928.662C8367.53 1003.93 8576.12 1080.81 8576.12 1080.81"
                      stroke="#918375" stroke-linecap="round"/>
                <path id="06_080_017B048,06_081_049"
                      d="M7496.59 1548.52C7510.95 1548.52 7540.82 1547.65 7560.32 1540.23C7580.98 1532.36 7584.02 1528.77 7602.2 1508.64C7625.41 1482.95 7629.64 1466.07 7644.98 1430.85C7656.44 1404.52 7673.27 1370.11 7678.77 1357.38C7685.54 1341.74 7699.13 1333.25 7709.23 1325.57C7712.3 1324.01 7716.2 1323.15 7722.12 1322.7C7728.04 1322.25 7735.86 1322.25 7743.91 1322.25"
                      stroke="#918375" stroke-linecap="round"/>
                <path id="06_084_056,06_085_018LOOP"
                      d="M8099.8 1467.09C7974.03 1467.09 7978.15 1467.09 7974.52 1467.38C7964.79 1468.83 7956.67 1470.59 7939.04 1474.66C7921.01 1482.32 7895.54 1496.49 7886.41 1503.91"
                      stroke="#918375" stroke-linecap="round"/>
                <path id="06_082_053054,06_084_056"
                      d="M7768.09 1593.72C7775.07 1590.78 7790.3 1583.73 7801.07 1578.63C7809.41 1574.68 7818.78 1564.85 7832.76 1553.5C7839.81 1547.77 7844.41 1541.86 7851.96 1534.44C7862.65 1523.95 7874.07 1513.94 7886.4 1503.91"
                      stroke="#918375" stroke-linecap="round"/>
                <path id="06_080_017B048,06_082_053054"
                      d="M7768.09 1593.72C7752.41 1600.32 7733.98 1601.51 7717.01 1598.3C7704.11 1595.87 7681.89 1579.27 7676.76 1573.21C7667.86 1562.67 7657.74 1546.72 7647.53 1538.01C7639.38 1531.06 7625.62 1491.55 7605.19 1509.06C7584.76 1526.58 7577.23 1535.63 7558.96 1541.22C7540.68 1546.81 7520.25 1548 7496.41 1549.52C7475.59 1550.84 7447.04 1541.22 7432.69 1541.22"
                      stroke="#918375" stroke-linecap="round"/>
                <path id="06_082_053054,06_083_055_BE003"
                      d="M7768.74 1594.08C7772.36 1596.17 7781.35 1599.27 7786.47 1601.02C7791.1 1602.6 7800.68 1606.95 7812.38 1613.68C7827.33 1622.27 7831.75 1631.11 7835.26 1636.03C7838.38 1640.41 7848.24 1652.64 7856.58 1663.8C7861.13 1669.89 7870.17 1675.59 7879.14 1681.06C7885.64 1685.02 7890.97 1686.57 7896.42 1687.9C7903.7 1689.67 7917.98 1689.52 7933.97 1688.96C7946.28 1688.54 7951.33 1683.22 7956.24 1680.62C7965.19 1675.88 7973.22 1665.96 7981.91 1657.76C7987.41 1652.58 7991.89 1648.98 7997.09 1646.23C8002.42 1643.41 8011.1 1639.01 8016.6 1636.75C8022.08 1634.51 8030.73 1634.5 8038.34 1633.8C8048.01 1632.91 8054.47 1632.82 8060.24 1631.77C8067.58 1630.44 8075.52 1630.71 8086.86 1630.01"
                      stroke="#918375" stroke-linecap="round"/>
                <path id="06_043_009A,06_045_023024"
                      d="M4075.21 1624.65C4074.36 1619.95 4069.2 1604.47 4060.74 1573.88C4054.02 1549.58 4043.96 1507.02 4035.17 1476.73C4026.37 1446.44 4019.54 1429.59 4013.26 1416.33C4002.39 1393.4 3989.31 1376.97 3977.8 1364.17"
                      stroke="#918375" stroke-linecap="round"/>
                <path id="06_042_009LOOP,06_043_009A,"
                      d="M3753.72 1404.49C3763.66 1399.57 3777.29 1386.97 3786.67 1377.17C3792.9 1370.67 3813.41 1352.94 3829.86 1341.8C3833.8 1339.83 3836.74 1337.89 3841.86 1336.26C3853.8 1332.71 3868.1 1329.47 3881.17 1327.44C3899.92 1326.71 3918.13 1327.52 3937.02 1337.54C3954.88 1347.01 3969.74 1355.19 3977.81 1364.17"
                      stroke="#918375" stroke-linecap="round"/>
                <path id="06_041_008B,06_042_009LOOP"
                      d="M3589.61 1398.87C3595.76 1396.33 3610.17 1395.36 3621.91 1396.62C3629.27 1397.42 3638.81 1402.11 3647.53 1405.41C3658.13 1409.42 3664.46 1413.35 3672.41 1416.63C3690.3 1424.01 3719.74 1417.81 3727.37 1415.8C3735.12 1413.77 3741.77 1410.4 3753.72 1404.49"
                      stroke="#918375" stroke-linecap="round"/>
                <path id="06_039_008LOOP,06_041_008B"
                      d="M3447.28 1558.73C3452.32 1556.84 3480.95 1540.01 3499.64 1526.06C3512.01 1516.82 3522.56 1495.41 3533 1474.21L3533.08 1474.06C3545.39 1449.07 3549.97 1437.21 3554.21 1429.15C3558.31 1421.33 3563.1 1416.86 3567.02 1411.67C3571.5 1405.74 3580.66 1402.67 3589.66 1398.96"
                      stroke="#918375" stroke-linecap="round"/>
                <path id="06_040_008A,06_045_023024"
                      d="M4075.21 1625.19C4068.73 1626.7 4058.66 1630.02 4051.26 1630.77C4042.59 1631.66 4031.77 1632.16 4025.37 1628.21C4017.73 1623.51 4006.27 1620.37 3994.5 1600.63C3988.31 1590.23 3984.81 1583.12 3981.71 1574.49C3976.47 1580.02 3964.46 1586.48 3954.79 1589.7C3946.92 1592.33 3938.33 1595.24 3926.71 1594.98C3899.29 1594.36 3889.83 1592.13 3879.9 1591.09C3871.24 1590.19 3861.71 1588.08 3842.56 1588.26C3791.51 1588.72 3781.46 1588.15 3770.9 1592.16C3757.12 1597.39 3736.65 1600.2 3717.73 1616.08C3701.89 1629.37 3690.94 1639.79 3679.19 1651.2"
                      stroke="#918375" stroke-linecap="round"/>
                <path id="06_039_008LOOP,06_040_008A"
                      d="M3442.98 1560.13C3445.13 1574.65 3403.73 1619.07 3403.73 1656.37C3403.73 1671.42 3424.83 1721.06 3440.83 1727.33C3455.19 1732.96 3464.2 1739.19 3478.79 1741.43C3513.96 1746.83 3536.48 1736.82 3549.9 1733.7C3574.32 1728.03 3588.99 1721.32 3600.11 1716.53C3608.97 1712.7 3625.11 1700.48 3637.87 1690.56C3651.98 1679.59 3658.31 1671.46 3679.19 1651.2"
                      stroke="#918375" stroke-linecap="round"/>
                <path id="06_042_009LOOP,06_044_009B"
                      d="M3908.01 1492.39C3906.8 1492.39 3894.72 1491.37 3880.55 1487.04C3870.45 1483.96 3865.46 1481.05 3863.07 1479.78C3860.87 1478.61 3855.28 1475.36 3846.48 1468.49C3841.84 1464.87 3837.57 1460.11 3833.56 1455.54C3825.85 1446.76 3821.27 1440.64 3818.57 1437.69C3817.12 1436.1 3815.77 1434.13 3811.96 1429.7C3808.15 1425.28 3801.98 1418.41 3796.94 1413.71C3784.78 1402.38 3763.93 1401.54 3753.72 1404.76"
                      stroke="#918375" stroke-linecap="round"/>
                <path id="06_027_006C014QTE2,06_030_018019"
                      d="M3551.3 953.658C3550.03 954.677 3548.79 955.665 3547.92 957.051C3546.55 960.167 3545.04 963.17 3543.18 965.788C3539.8 972.427 3541.36 971.169 3535.44 985.962C3529.53 1000.76 3519.16 980.142 3501.94 971.169C3487.88 963.847 3475.7 960.908 3467.7 957.044C3453.48 950.176 3432.5 955.651 3421.9 959.508M3552.11 953.705C3553.72 964.995 3567.45 987.496 3574.87 1001.3C3580.4 1011.58 3590.95 1021 3598.46 1027.16C3605.27 1032.75 3613.93 1036.27 3632.23 1047.35"
                      stroke="#918375" stroke-linecap="round"/>
                <path id="06_023_015016,06_030_018019"
                      d="M3551.3 953.658C3550.03 954.677 3548.79 955.665 3547.92 957.051C3546.56 960.167 3545.04 963.17 3543.18 965.788C3539.8 972.427 3537.14 977.511 3535.45 985.962C3533.69 994.714 3530.41 1010.26 3528.58 1018.1C3526.83 1025.6 3530.05 1036.62 3514.43 1053.71C3501.54 1067.82 3490.22 1076.95 3481.23 1081.38M3552.11 953.705C3553.73 964.995 3567.45 987.496 3574.88 1001.3C3580.41 1011.58 3590.95 1021.01 3598.46 1027.17C3605.27 1032.75 3613.93 1036.27 3632.24 1047.35"
                      stroke="#918375" stroke-linecap="round"/>
                <path id="06_054_012LOOP,06_056_012B"
                      d="M5137.92 1032.49C5143.79 1029.83 5158.86 1023.35 5171.23 1020.26C5183.83 1017.11 5213.34 1017.41 5251.38 1019.68C5280.07 1021.39 5282.7 1024.81 5291.29 1026.28C5310.19 1029.52 5341.08 1038.14 5356.94 1035.34M5072.36 1157.01C5082.77 1158.18 5092.93 1148 5101.23 1140.31C5112.03 1130.29 5117.95 1110.71 5123.75 1097.23C5128.95 1085.12 5133.06 1051.79 5138.07 1032.2"
                      stroke="#918375" stroke-linecap="round"/>
                <path id="06_081_049,06_035_050051052"
                      d="M7743.89 1320.94C7746 1317.01 7754.47 1311.57 7760.71 1304.14C7766.7 1296.99 7775.4 1294.26 7789.6 1288.22C7811.81 1278.76 7832.12 1294.87 7864.62 1279.23C7897.11 1263.6 7884.75 1223.28 7914.32 1176.5"
                      stroke="#918375" stroke-linecap="round"/>
                <path id="06_035_050051052,07_001_001002003"
                      d="M7914.32 1176.5C7914.32 1176.5 7931.52 1059.3 8054.1 1117.9C8176.68 1176.5 8207.45 1106.05 8230.57 1091C8253.69 1075.95 8259.6 1041 8565.5 1091"
                      stroke="#918375" stroke-linecap="round"/>
                <path id="06_081_049,06_034_049_1BE005"
                      d="M7741.75 1322.2C7744.76 1323.4 7754.43 1328.24 7771.86 1340.65C7781.21 1347.3 7787.81 1354.61 7796.31 1364.63C7803.98 1373.65 7831.36 1383.64 7842.82 1393.7"
                      stroke="#918375" stroke-linecap="round"/>
                <path id="06_085_018LOOP,06_087_018B057058059060"
                      d="M8102.63 1464.45C8103.02 1464.45 8114.97 1460.53 8136.48 1452.64C8154.25 1446.13 8165.85 1437 8173.55 1430.29C8178.94 1425.59 8183.46 1416.66 8189.58 1402.77C8196.59 1386.84 8199.3 1368.25 8201.57 1353.24C8203.94 1337.55 8207.79 1325.5 8210.47 1314.82C8212.06 1308.5 8216.29 1301.96 8220.24 1295.06C8223.83 1288.77 8234.6 1271.42 8251.19 1248.41C8260.92 1234.92 8267.11 1229.58 8272.03 1224.46C8279.48 1216.73 8285.68 1208.43 8291.79 1202.72C8298.73 1196.22 8310.74 1188.49 8323.88 1180.39C8337.8 1171.8 8354.41 1165.54 8368.02 1160.08C8379.76 1155.37 8392.22 1154.64 8425.17 1144.88"
                      stroke="#918375" stroke-linecap="round"/>
                <path id="06_087_018B057058059060,07_001_001002003"
                      d="M8425.17 1144.88C8438.74 1140.86 8446.81 1137.84 8460.13 1130.15C8483.16 1116.85 8490.51 1116.09 8496.65 1113.91C8502.85 1111.7 8509.29 1110.15 8516.62 1109.55C8524.17 1108.93 8531.25 1107.39 8541.12 1106.39C8551.63 1104.41 8555.97 1104.02 8559.52 1103.42C8561.12 1103.22 8562.29 1103.22 8563.5 1103.22"
                      stroke="#918375" stroke-linecap="round"/>
                <path id="06_085_018LOOP,06_086_018A_BE004"
                      d="M8102.63 1464.45C8103.02 1464.45 8114.97 1460.53 8136.48 1452.64C8154.25 1446.13 8165.85 1437 8173.55 1430.29C8178.94 1425.6 8183.46 1416.66 8189.58 1402.77C8196.59 1386.84 8199.3 1368.25 8201.57 1353.24C8210.2 1348.93 8224.97 1350.58 8241.38 1348.9C8253.43 1347.66 8273.25 1348.58 8285.59 1348.59C8302.23 1348.59 8311.56 1346.82 8320.35 1344.55C8335.85 1340.54 8355.05 1336.74 8369.78 1331.7C8386.33 1328.03 8390.88 1327.44 8398.24 1326.55C8403.85 1326.25 8413.24 1326.25 8422.92 1326.25"
                      stroke="#918375" stroke-linecap="round"/>
                <path id="06_078_017LOOP,06_079_017A"
                      d="M7209.05 1261.02C7214.28 1261.02 7215.14 1253.64 7228.33 1246.39C7241.24 1239.3 7240.96 1232.38 7249.29 1223.81C7257.2 1215.68 7259.44 1207.05 7268.65 1193.71C7286.46 1167.91 7294.87 1155.11 7306.28 1142.63C7327.73 1119.2 7325.62 1096.13 7350.9 1085.11"
                      stroke="#918375" stroke-linecap="round"/>
                <path id="06_079_017A,07_001_001002003"
                      d="M7350.9 1085.11C7376.18 1074.08 7571.32 1250.69 7571.32 1250.69C7733.15 1280.71 7671.32 1093.17 7754.11 1041.02C7836.91 988.875 8092.81 1079.2 8143.88 1077.58C8194.96 1075.97 8253.02 1036.19 8335.28 1034.57C8417.53 1032.96 8570.5 1079.5 8570.5 1079.5"
                      stroke="#918375" stroke-linecap="round"/>
            </g>
            <g id="vedio">
                <g id="06_001_001002003004005">
                    <text id="06_001_001002003004005_2" fill="#2BFF00" xml:space="preserve" style="white-space: pre"
                          font-family="Inter" font-size="10" letter-spacing="0em"><tspan x="579.01" y="1216.53">06_001_001002003004005</tspan></text>
                </g>
                <g id="06_002_001LOOP">
                    <text id="06_002_001LOOP_2" fill="#2BFF00" xml:space="preserve" style="white-space: pre"
                          font-family="Inter" font-size="10" letter-spacing="0em"><tspan x="817.709" y="1285.35">06_002_001LOOP</tspan></text>
                </g>
                <g id="06_007_002LOOP">
                    <text id="06_007_002LOOP_2" fill="#2BFF00" xml:space="preserve" style="white-space: pre"
                          font-family="Inter" font-size="10" letter-spacing="0em"><tspan x="1374.2" y="908.763">06_007_002LOOP</tspan></text>
                </g>
                <g id="06_012_003LOOP">
                    <text id="06_012_003LOOP_2" fill="#2BFF00" xml:space="preserve" style="white-space: pre"
                          font-family="Inter" font-size="10" letter-spacing="0em"><tspan x="1982.78" y="978.654">06_012_003LOOP</tspan></text>
                </g>
                <g id="06_016_004LOOP">
                    <text id="06_016_004LOOP_2" fill="#2BFF00" xml:space="preserve" style="white-space: pre"
                          font-family="Inter" font-size="10" letter-spacing="0em"><tspan x="2574.16" y="1208.75">06_016_004LOOP</tspan></text>
                </g>
                <g id="06_020_005LOOP">
                    <text id="06_020_005LOOP_2" fill="#2BFF00" xml:space="preserve" style="white-space: pre"
                          font-family="Inter" font-size="10" letter-spacing="0em"><tspan x="2976.3" y="1534.55">06_020_005LOOP</tspan></text>
                </g>
                <g id="06_024_006LOOP">
                    <text id="06_024_006LOOP_2" fill="#2BFF00" xml:space="preserve" style="white-space: pre"
                          font-family="Inter" font-size="10" letter-spacing="0em"><tspan x="3082.74" y="1218.43">06_024_006LOOP</tspan></text>
                </g>
                <g id="06_031_007LOOP">
                    <text id="06_031_007LOOP_2" fill="#2BFF00" xml:space="preserve" style="white-space: pre"
                          font-family="Inter" font-size="10" letter-spacing="0em"><tspan x="3775.19" y="1188.32">06_031_007LOOP</tspan></text>
                </g>
                <g id="06_039_008LOOP">
                    <text id="06_039_008LOOP_2" fill="#2BFF00" xml:space="preserve" style="white-space: pre"
                          font-family="Inter" font-size="10" letter-spacing="0em"><tspan x="3420.36" y="1563.58">06_039_008LOOP</tspan></text>
                </g>
                <g id="06_042_009LOOP">
                    <text id="06_042_009LOOP_2" fill="#2BFF00" xml:space="preserve" style="white-space: pre"
                          font-family="Inter" font-size="10" letter-spacing="0em"><tspan x="3775.19" y="1406.6">06_042_009LOOP</tspan></text>
                </g>
                <g id="06_046_010LOOP">
                    <text id="06_046_010LOOP_2" fill="#2BFF00" xml:space="preserve" style="white-space: pre"
                          font-family="Inter" font-size="10" letter-spacing="0em"><tspan x="4209.58" y="1717.34">06_046_010LOOP</tspan></text>
                </g>
                <g id="06_050_011LOOP">
                    <text id="06_050_011LOOP_2" fill="#2BFF00" xml:space="preserve" style="white-space: pre"
                          font-family="Inter" font-size="10" letter-spacing="0em"><tspan x="4625.7" y="1225.96">06_050_011LOOP</tspan></text>
                </g>
                <g id="06_054_012LOOP">
                    <text id="06_054_012LOOP_2" fill="#2BFF00" xml:space="preserve" style="white-space: pre"
                          font-family="Inter" font-size="10" letter-spacing="0em"><tspan x="5077.29" y="1171.12">06_054_012LOOP</tspan></text>
                </g>
                <g id="06_059_013LOOP">
                    <text id="06_059_013LOOP_2" fill="#2BFF00" xml:space="preserve" style="white-space: pre"
                          font-family="Inter" font-size="10" letter-spacing="0em"><tspan x="5711.68" y="1310.9">06_059_013LOOP</tspan></text>
                </g>
                <g id="06_063_014LOOP">
                    <text id="06_063_014LOOP_2" fill="#2BFF00" xml:space="preserve" style="white-space: pre"
                          font-family="Inter" font-size="10" letter-spacing="0em"><tspan x="6104.14" y="1113.06">06_063_014LOOP</tspan></text>
                </g>
                <g id="06_067_015LOOP">
                    <text id="06_067_015LOOP_2" fill="#2BFF00" xml:space="preserve" style="white-space: pre"
                          font-family="Inter" font-size="10" letter-spacing="0em"><tspan x="6512.73" y="1263.59">06_067_015LOOP</tspan></text>
                </g>
                <g id="06_074_016LOOP">
                    <text id="06_074_016LOOP_2" fill="#2BFF00" xml:space="preserve" style="white-space: pre"
                          font-family="Inter" font-size="10" letter-spacing="0em"><tspan x="7130.98" y="837.798">06_074_016LOOP</tspan></text>
                </g>
                <g id="06_078_017LOOP">
                    <text id="06_078_017LOOP_2" fill="#2BFF00" xml:space="preserve" style="white-space: pre"
                          font-family="Inter" font-size="10" letter-spacing="0em"><tspan x="7178.29" y="1241.01">06_078_017LOOP</tspan></text>
                </g>
                <g id="06_075_016A">
                    <text id="06_075_016A_2" fill="#2BFF00" xml:space="preserve" style="white-space: pre"
                          font-family="Inter" font-size="10" letter-spacing="0em"><tspan x="7991.17" y="779.736">06_075_016A</tspan></text>
                </g>
                <g id="06_076_016B">
                    <text id="06_076_016B_2" fill="#2BFF00" xml:space="preserve" style="white-space: pre"
                          font-family="Inter" font-size="10" letter-spacing="0em"><tspan x="7770.75" y="931.343">06_076_016B</tspan></text>
                </g>
                <g id="06_079_017A">
                    <text id="06_079_017A_2" fill="#2BFF00" xml:space="preserve" style="white-space: pre"
                          font-family="Inter" font-size="10" letter-spacing="0em"><tspan x="7406.24" y="1093.7">06_079_017A</tspan></text>
                </g>
                <g id="06_080_017B048">
                    <text id="06_080_017B048_2" fill="#2BFF00" xml:space="preserve" style="white-space: pre"
                          font-family="Inter" font-size="10" letter-spacing="0em"><tspan x="7399.79" y="1549.6">06_080_017B048</tspan></text>
                </g>
                <g id="06_082_053054">
                    <text id="06_082_053054_2" fill="#2BFF00" xml:space="preserve" style="white-space: pre"
                          font-family="Inter" font-size="10" letter-spacing="0em"><tspan x="7759.99" y="1602.29">06_082_053054</tspan></text>
                </g>
                <g id="06_035_050051052">
                    <text id="06_035_050051052_2" fill="#2BFF00" xml:space="preserve" style="white-space: pre"
                          font-family="Inter" font-size="10" letter-spacing="0em"><tspan x="7918.05" y="1172.19">06_035_050051052</tspan></text>
                </g>
                <g id="06_032_007A_BE001">
                    <text id="06_032_007A_BE001_2" fill="#FF0000" xml:space="preserve" style="white-space: pre"
                          font-family="Inter" font-size="10" letter-spacing="0em"><tspan x="4459.11" y="845.757">06_032_007A_BE001</tspan></text>
                    <ellipse id="Ellipse 34" cx="4458.58" cy="835.584" rx="1.61613" ry="1.60957" fill="#FFA000"/>
                </g>
                <g id="06_083_055_BE003">
                    <text id="06_083_055_BE003_2" fill="#FF0000" xml:space="preserve" style="white-space: pre"
                          font-family="Inter" font-size="10" letter-spacing="0em"><tspan x="8122.42" y="1644.65">06_083_055_BE003</tspan></text>
                    <ellipse id="Ellipse 34_2" cx="8121.89" cy="1634.48" rx="1.61613" ry="1.60957" fill="#FFA000"/>
                </g>
                <g id="06_086_018A_BE004">
                    <text id="06_086_018A_BE004_2" fill="#FF0000" xml:space="preserve" style="white-space: pre"
                          font-family="Inter" font-size="10" letter-spacing="0em"><tspan x="8454.57" y="1336.06">06_086_018A_BE004</tspan></text>
                    <ellipse id="Ellipse 34_3" cx="8454.04" cy="1325.89" rx="1.61613" ry="1.60957" fill="#FFA000"/>
                </g>
                <g id="06_033_007B_BE002">
                    <text id="06_033_007B_BE002_2" fill="#FF0000" xml:space="preserve" style="white-space: pre"
                          font-family="Inter" font-size="10" letter-spacing="0em"><tspan x="4254.82" y="974.785">06_033_007B_BE002</tspan></text>
                    <ellipse id="Ellipse 34_4" cx="4254.28" cy="964.612" rx="1.61613" ry="1.60957" fill="#FFA000"/>
                </g>
                <g id="06_081_049">
                    <text id="06_081_049_2" fill="#2BFF00" xml:space="preserve" style="white-space: pre"
                          font-family="Inter" font-size="10" letter-spacing="0em"><tspan x="7665.37" y="1388.32">06_081_049</tspan></text>
                </g>
                <g id="06_034_049_1BE005">
                    <text id="06_034_049_1BE005_2" fill="#FF0000" xml:space="preserve" style="white-space: pre"
                          font-family="Inter" font-size="10" letter-spacing="0em"><tspan x="7850.39" y="1401.65">06_034_049_1BE005</tspan></text>
                    <ellipse id="Ellipse 34_5" cx="7849.85" cy="1391.48" rx="1.61613" ry="1.60957" fill="#FFA000"/>
                </g>
                <g id="06_085_018LOOP">
                    <text id="06_085_018LOOP_2" fill="#2BFF00" xml:space="preserve" style="white-space: pre"
                          font-family="Inter" font-size="10" letter-spacing="0em"><tspan x="8121.27" y="1465.73">06_085_018LOOP</tspan></text>
                </g>
                <g id="06_087_018B057058059060">
                    <text id="06_087_018B057058059060_2" fill="#2BFF00" xml:space="preserve" style="white-space: pre"
                          font-family="Inter" font-size="10" letter-spacing="0em"><tspan x="8369.65" y="1149.61">06_087_018B057058059060</tspan></text>
                </g>
            </g>
            <g id="chapter5">
                <ellipse id="Ellipse" cx="409.075" cy="1126.45" rx="1.07523" ry="1.44633" fill="#00FFAA"/>
            </g>
            <g id="chapter7">
                <ellipse id="Ellipse_2" cx="8582.08" cy="1091.45" rx="1.07523" ry="1.44633" fill="#FF00EA"/>
            </g>
        </g>
    </g>
    <defs>
        <clipPath id="clip0_2061_11375">
            <rect width="8923" height="2154" fill="white"/>
        </clipPath>
    </defs>
</svg>
