<svg width="7753" height="2154" viewBox="0 0 7753 2154" fill="none" xmlns="http://www.w3.org/2000/svg">
    <g id="&#231;&#172;&#172;&#228;&#184;&#131;&#231;&#171;&#160;frame" clip-path="url(#clip0_2061_11999)">
        <g id="Frame 101">
            <g id="vedio">
                <g id="07_001_001002003">
                    <text id="07_001_001002003_2" fill="#2BFF00" xml:space="preserve" style="white-space: pre"
                          font-family="Inter" font-size="10" letter-spacing="0em"><tspan x="554.832" y="1293.57">07_001_001002003</tspan></text>
                </g>
                <g id="07_003_001LOOP">
                    <text id="07_003_001LOOP_2" fill="#2BFF00" xml:space="preserve" style="white-space: pre"
                          font-family="Inter" font-size="10" letter-spacing="0em"><tspan x="891.172" y="1505.88">07_003_001LOOP</tspan></text>
                </g>
                <g id="07_009_002LOOP">
                    <text id="07_009_002LOOP_2" fill="#2BFF00" xml:space="preserve" style="white-space: pre"
                          font-family="Inter" font-size="10" letter-spacing="0em"><tspan x="803.934" y="999.273">07_009_002LOOP</tspan></text>
                </g>
                <g id="07_017_QTE1LOOP">
                    <text id="07_017_QTE1LOOP_2" fill="#2BFF00" xml:space="preserve" style="white-space: pre"
                          font-family="Inter" font-size="10" letter-spacing="0em"><tspan x="1103.49" y="1063.39">07_017_QTE1LOOP</tspan></text>
                </g>
                <g id="07_023_008LOOP">
                    <text id="07_023_008LOOP_2" fill="#2BFF00" xml:space="preserve" style="white-space: pre"
                          font-family="Inter" font-size="10" letter-spacing="0em"><tspan x="1605.89" y="1082.31">07_023_008LOOP</tspan></text>
                </g>
                <g id="07_024_008A">
                    <text id="07_024_008A_2" fill="#2BFF00" xml:space="preserve" style="white-space: pre"
                          font-family="Inter" font-size="10" letter-spacing="0em"><tspan x="1847.64" y="926.75">07_024_008A</tspan></text>
                </g>
                <g id="07_016_030031">
                    <text id="07_016_030031_2" fill="#2BFF00" xml:space="preserve" style="white-space: pre"
                          font-family="Inter" font-size="10" letter-spacing="0em"><tspan x="2253.34" y="695.517">07_016_030031</tspan></text>
                </g>
                <g id="07_020_003LOOP">
                    <text id="07_020_003LOOP_2" fill="#2BFF00" xml:space="preserve" style="white-space: pre"
                          font-family="Inter" font-size="10" letter-spacing="0em"><tspan x="2206.05" y="1041.31">07_020_003LOOP</tspan></text>
                </g>
                <g id="07_049_009LOOP">
                    <text id="07_049_009LOOP_2" fill="#2BFF00" xml:space="preserve" style="white-space: pre"
                          font-family="Inter" font-size="10" letter-spacing="0em"><tspan x="2653.8" y="1272.55">07_049_009LOOP</tspan></text>
                </g>
                <g id="07_025_004LOOP">
                    <text id="07_025_004LOOP_2" fill="#2BFF00" xml:space="preserve" style="white-space: pre"
                          font-family="Inter" font-size="10" letter-spacing="0em"><tspan x="3086.84" y="1039.21">07_025_004LOOP</tspan></text>
                </g>
                <g id="07_029_005LOOP">
                    <text id="07_029_005LOOP_2" fill="#2BFF00" xml:space="preserve" style="white-space: pre"
                          font-family="Inter" font-size="10" letter-spacing="0em"><tspan x="3587.14" y="1318.8">07_029_005LOOP</tspan></text>
                </g>
                <g id="07_065_012LOOP">
                    <text id="07_065_012LOOP_2" fill="#2BFF00" xml:space="preserve" style="white-space: pre"
                          font-family="Inter" font-size="10" letter-spacing="0em"><tspan x="4068.53" y="1181.11">07_065_012LOOP</tspan></text>
                </g>
                <g id="07_056_010LOOP">
                    <text id="07_056_010LOOP_2" fill="#2BFF00" xml:space="preserve" style="white-space: pre"
                          font-family="Inter" font-size="10" letter-spacing="0em"><tspan x="4047.51" y="627.197">07_056_010LOOP</tspan></text>
                </g>
                <g id="07_061_011LOOP">
                    <text id="07_061_011LOOP_2" fill="#2BFF00" xml:space="preserve" style="white-space: pre"
                          font-family="Inter" font-size="10" letter-spacing="0em"><tspan x="3991.8" y="1624.65">07_061_011LOOP</tspan></text>
                </g>
                <g id="07_038_006LOOP">
                    <text id="07_038_006LOOP_2" fill="#2BFF00" xml:space="preserve" style="white-space: pre"
                          font-family="Inter" font-size="10" letter-spacing="0em"><tspan x="5174.24" y="1318.8">07_038_006LOOP</tspan></text>
                </g>
                <g id="07_043_007LOOP">
                    <text id="07_043_00LOOP" fill="#2BFF00" xml:space="preserve" style="white-space: pre"
                          font-family="Inter" font-size="10" letter-spacing="0em"><tspan x="5549.47" y="1087.56">07_043_007LOOP</tspan></text>
                </g>
                <g id="07_050_066067068">
                    <text id="07_050_066067068_2" fill="#2BFF00" xml:space="preserve" style="white-space: pre"
                          font-family="Inter" font-size="10" letter-spacing="0em"><tspan x="5989.87" y="1435.46">07_050_066067068</tspan></text>
                </g>
                <g id="07_057_082083084085">
                    <text id="07_057_082083084085_2" fill="#2BFF00" xml:space="preserve" style="white-space: pre"
                          font-family="Inter" font-size="10" letter-spacing="0em"><tspan x="6941.07" y="483.203">07_057_082083084085</tspan></text>
                </g>
                <g id="07_055_076077">
                    <text id="07_055_076077_2" fill="#2BFF00" xml:space="preserve" style="white-space: pre"
                          font-family="Inter" font-size="10" letter-spacing="0em"><tspan x="6863.3" y="654.525">07_055_076077</tspan></text>
                </g>
                <g id="07_056_078079080081">
                    <text id="07_056_078079080081_2" fill="#2BFF00" xml:space="preserve" style="white-space: pre"
                          font-family="Inter" font-size="10" letter-spacing="0em"><tspan x="7105.04" y="790.113">07_056_078079080081</tspan></text>
                </g>
                <g id="07_053_071072073074">
                    <text id="07_053_071072073074_2" fill="#2BFF00" xml:space="preserve" style="white-space: pre"
                          font-family="Inter" font-size="10" letter-spacing="0em"><tspan x="6698.28" y="1146.42">07_053_071072073074</tspan></text>
                </g>
                <g id="07_054_075075_1075_2075_3075_4075_5075_6">
                    <text id="07_054_075075_1075_2075_3075_4075_5075_6_2" fill="#2BFF00" xml:space="preserve"
                          style="white-space: pre" font-family="Inter" font-size="10" letter-spacing="0em"><tspan x="6864.35" y="947.771">07_054_075075_1075_2075_3075_4075_5075_6</tspan></text>
                </g>
                <g id="07_006_005006007_BE001">
                    <text id="07_006_005006007_BE001_2" fill="#FF0000" xml:space="preserve" style="white-space: pre"
                          font-family="Inter" font-size="10" letter-spacing="0em"><tspan x="1254.26" y="1541.57">07_006_005006007_BE001</tspan></text>
                    <ellipse id="Ellipse 34" cx="1253.74" cy="1531.41" rx="1.5798" ry="1.57339" fill="#FFA000"/>
                </g>
                <g id="07_034_008BBE005">
                    <text id="07_034_008BBE005_2" fill="#FF0000" xml:space="preserve" style="white-space: pre"
                          font-family="Inter" font-size="10" letter-spacing="0em"><tspan x="2020.49" y="1205.23">07_034_008BBE005</tspan></text>
                    <ellipse id="Ellipse 34_2" cx="2019.96" cy="1195.07" rx="1.5798" ry="1.57339" fill="#FFA000"/>
                </g>
                <g id="07_012_012013014_BE003">
                    <text id="07_012_012013014_BE003_2" fill="#FF0000" xml:space="preserve" style="white-space: pre"
                          font-family="Inter" font-size="10" letter-spacing="0em"><tspan x="1254.26" y="687.058">07_012_012013014_BE003</tspan></text>
                    <ellipse id="Ellipse 34_3" cx="1253.74" cy="676.898" rx="1.5798" ry="1.57339" fill="#FFA000"/>
                </g>
                <g id="07_007_008009010_010_1_BE002">
                    <text id="07_007_008009010_010_1_BE002_2" fill="#FF0000" xml:space="preserve"
                          style="white-space: pre" font-family="Inter" font-size="10" letter-spacing="0em"><tspan x="1212.22" y="1652.07">07_007_008009010_010_1_BE002</tspan></text>
                    <ellipse id="Ellipse 34_4" cx="1211.7" cy="1641.91" rx="1.5798" ry="1.57339" fill="#FFA000"/>
                </g>
                <g id="07_021_003A039_BE004">
                    <text id="07_021_003A039_BE004_2" fill="#FF0000" xml:space="preserve" style="white-space: pre"
                          font-family="Inter" font-size="10" letter-spacing="0em"><tspan x="2489.26" y="938.263">07_021_003A039_BE004</tspan></text>
                    <ellipse id="Ellipse 34_5" cx="2488.73" cy="928.103" rx="1.5798" ry="1.57339" fill="#FFA000"/>
                </g>
            </g>
            <g id="lines">
                <path id="07_020_003LOOP,07_022_003B"
                      d="M2207.53 1034.85C2236.24 1080.71 2231.22 1073.73 2247.61 1109.97C2264.8 1147.97 2297.99 1177.43 2327.16 1208.77"
                      stroke="#918375" stroke-linecap="round"/>
                <path id="07_022_003B,07_037_QTE2LOOP"
                      d="M2327.16 1208.77C2365.87 1250.37 2380.6 1270.16 2404.08 1291.84" stroke="#918375"
                      stroke-linecap="round"/>
                <path id="07_037_QTE2LOOP,07_048_040041042043044"
                      d="M2404.08 1291.84C2424.57 1310.76 2470.29 1349.65 2497.62 1349.65" stroke="#918375"
                      stroke-linecap="round"/>
                <path id="07_048_040041042043044,07_049_009LOOP"
                      d="M2497.62 1349.65C2557.53 1349.65 2613.24 1334.41 2654.88 1268.59" stroke="#918375"
                      stroke-linecap="round"/>
                <path id="07_024_008A,07_019_033034035036037038"
                      d="M1847.45 917.652C1888.74 889.266 1901.45 831.032 1937.69 797.539C1952.9 783.486 1976.94 780.482 1996.79 784.703C2042.38 794.399 2081.72 820.288 2108.73 855.124"
                      stroke="#918375" stroke-linecap="round"/>
                <path id="07_023_008LOOP,07_024_008A"
                      d="M1598.8 1101.04C1615.45 1052.82 1647.84 1013.54 1701.97 984.93C1746.59 961.347 1806.11 946.071 1847.45 917.652"
                      stroke="#918375" stroke-linecap="round"/>
                <path id="07_015_020024,07_023_008LOOP"
                      d="M1523.29 1221.94C1558.8 1205.64 1584.56 1142.29 1598.8 1101.04" stroke="#918375"
                      stroke-linecap="round"/>
                <path id="07_014_018,07_015_020024"
                      d="M1352.84 1358.13C1388.79 1352.42 1412.75 1284.67 1442.88 1253.48C1472.84 1222.47 1504.37 1230.63 1523.29 1221.94"
                      stroke="#918375" stroke-linecap="round"/>
                <path id="07_017_QTE1LOOP,07_018_015016"
                      d="M1100.76 1052.72C1126.59 1100.06 1178.71 1176.85 1203.77 1207.75" stroke="#918375"
                      stroke-linecap="round"/>
                <path id="07_018_015016,07_014_018"
                      d="M1203.77 1207.75C1219.53 1227.2 1235.93 1267.14 1245.28 1280.8C1282.69 1335.46 1289.59 1344.04 1318.86 1358.13C1327.24 1362.16 1344.25 1359.49 1352.84 1358.13"
                      stroke="#918375" stroke-linecap="round"/>
                <path id="07_011_002B,07_017_QTE1LOOP"
                      d="M1036.65 895.588C1047.02 938.562 1052.21 951.821 1065.55 983.352C1077.11 1010.68 1086.57 1026.45 1100.24 1053.25"
                      stroke="#918375" stroke-linecap="round"/>
                <path id="07_008_011,07_009_002LOOP" d="M687.695 1097.39C721.884 1069.19 819.004 1017.8 845.354 982.301"
                      stroke="#918375" stroke-linecap="round"/>
                <path id="07_001_001002003,07_008_011"
                      d="M631.467 1177.8C652.956 1144.9 666.677 1114.73 687.698 1097.39M546.969 1295C588.116 1265.31 596.922 1230.95 631.992 1177.27"
                      stroke="#918375" stroke-linecap="round"/>
                <path id="Vector 575" d="M411.268 1333.88C432.502 1333.88 508.528 1322.74 546.967 1295" stroke="#918375"
                      stroke-linecap="round"/>
                <path id="07_001_001002003,07_002_004"
                      d="M546.969 1295C588.116 1265.31 596.922 1230.95 631.992 1177.27M630.941 1178.12C631.987 1178.12 645.599 1177.08 662.226 1178.13C686.152 1179.63 699.571 1212.93 717.482 1256.41C730.138 1287.13 731.24 1310.61 734.458 1332.35C737.449 1352.55 743.414 1371.44 754.232 1391.52"
                      stroke="#918375" stroke-linecap="round"/>
                <path id="07_003_001LOOP,07_005_001B"
                      d="M888.449 1494.69C898.81 1512.88 910.859 1547.35 928.303 1571.68C942.085 1587.06 949.995 1593.41 957.373 1595.52C961.09 1596.59 965.702 1599.8 980.943 1600.32"
                      stroke="#918375" stroke-linecap="round"/>
                <path id="07_002_004,07_003_001LOOP"
                      d="M754.229 1391.52C764.34 1410.28 784.052 1423.24 798.864 1429.88C813.902 1436.61 862.696 1449.5 888.447 1494.69"
                      stroke="#918375" stroke-linecap="round"/>
                <path id="07_004_001A,07_006_005006007_BE001"
                      d="M1128.03 1504.37C1140.58 1512.21 1154.93 1520.47 1170.82 1529.73C1174.42 1531.82 1178.2 1532.64 1214.09 1533.18"
                      stroke="#918375" stroke-linecap="round"/>
                <path id="07_003_001LOOP,07_004_001A"
                      d="M888.449 1494.17C895.281 1494.17 915.081 1490.42 925.946 1482.24C939.079 1472.35 957.878 1468.23 986.853 1464.52C1040.95 1457.59 1062.43 1469.75 1084.16 1479C1098.65 1485.18 1113.21 1495.11 1128.03 1504.37"
                      stroke="#918375" stroke-linecap="round"/>
                <path id="07_005_001B,07_007_008009010_010_1_BE002"
                      d="M981.205 1600.13C990.456 1600.13 1001.34 1600.95 1052.94 1600.13C1072.47 1599.81 1095.58 1607.04 1109.37 1612.96C1120.63 1617.8 1131.68 1629.52 1172.69 1640.25"
                      stroke="#918375" stroke-linecap="round"/>
                <path id="07_009_002LOOP,07_010_002A"
                      d="M845.355 982.3C892.17 919.236 912.233 869.318 938.562 844.417M937.323 845.662C939.576 843.894 942.053 835.257 948.474 819.86C960.116 791.946 972.128 770.687 977.65 762.816C983.419 754.595 993.58 750.428 1007.1 747.303C1024.84 743.202 1038.16 746.83 1045.48 747.723"
                      stroke="#918375" stroke-linecap="round"/>
                <path id="07_009_002LOOP,07_011_002B"
                      d="M1036.65 895.589C1025.61 849.868 990.402 816.76 938.562 844.418C912.233 869.32 892.17 919.237 845.355 982.301"
                      stroke="#918375" stroke-linecap="round"/>
                <path id="07_010_002A,07_012_012013014_BE003"
                      d="M1045.48 747.723C1068.81 750.57 1084.28 738.544 1091.64 733.169C1102.92 724.932 1109.38 712.366 1117.54 705.344C1126.35 697.748 1135.15 689.438 1145.34 685.537C1154.86 682.858 1163.43 679.885 1179.44 677.796C1187.32 677.492 1200.08 677.492 1213.22 677.492"
                      stroke="#918375" stroke-linecap="round"/>
                <path id="07_018_015016,07_013_017"
                      d="M1203.77 1207.76C1219.53 1227.2 1235.93 1267.14 1245.28 1280.8M1244.76 1280.8C1248.31 1275.78 1270.89 1225.78 1281.68 1211.7C1292.19 1197.99 1302.18 1192.37 1310.69 1185.36C1319.16 1178.38 1331.06 1174.79 1344.12 1172.7C1360.9 1170.02 1371.81 1176.84 1382.8 1183.51"
                      stroke="#918375" stroke-linecap="round"/>
                <path id="07_013_017,07_015_020024"
                      d="M1442.88 1253.48C1472.84 1222.47 1504.37 1230.63 1523.29 1221.94M1382.8 1183.51C1407.72 1198.64 1415.25 1210.45 1420.17 1216.4C1427.08 1224.74 1431.32 1236.92 1435.05 1244.21C1436.09 1245.86 1437.56 1247.04 1438.91 1248.38C1440.26 1249.72 1441.44 1251.2 1442.65 1252.71"
                      stroke="#918375" stroke-linecap="round"/>
                <path id="07_023_008LOOP,07_034_008BBE005"
                      d="M1598.8 1101.04C1615.45 1052.82 1647.84 1013.54 1701.97 984.928M1701.97 985.454C1708.32 998.225 1738.71 1005.67 1761.22 1008.09C1770.69 1009.11 1781.62 1016.4 1799.78 1029.01C1809.55 1035.8 1812.6 1043.17 1823.12 1061.55C1827.25 1068.78 1835.41 1092.96 1848.63 1124.63C1857.43 1145.71 1866.15 1157.66 1875.8 1167.49C1892.6 1184.6 1903.84 1185.05 1910.12 1186.71C1922.94 1190.09 1940.6 1190.12 1954.15 1191.02C1957.21 1191.32 1958.76 1191.91 1961.67 1192.21C1964.58 1192.51 1968.8 1192.51 1973.14 1192.51"
                      stroke="#918375" stroke-linecap="round"/>
                <path id="07_024_008A,07_016_030031"
                      d="M1847.45 917.651C1888.74 889.264 1901.45 831.03 1937.69 797.537C1952.9 783.485 1976.94 780.481 1996.79 784.702M1997.32 784.522C2001.17 783.049 2007.69 776.525 2046.69 731.453C2061.49 714.355 2072.23 707.219 2081.47 701.395C2093.78 693.638 2111.78 689.638 2127.11 688.736C2143.07 687.798 2157.92 687.835 2169.95 688.433C2180.79 688.971 2196.51 694.956 2217.68 696.465C2237.89 697.905 2260.53 697.366 2285.33 696.768"
                      stroke="#918375" stroke-linecap="round"/>
                <path id="07_020_003LOOP,07_021_003A039_BE004"
                      d="M2207.53 1034.85C2211.37 1038.71 2219.93 1043.25 2229.58 1048.47C2246.38 1057.55 2261.85 1053.98 2278.04 1053.41C2293.94 1052.85 2311.79 1044.21 2326.51 1038.56C2335.25 1035.21 2345.13 1027.28 2364.68 1007.9C2396.62 976.237 2414.18 948.718 2420.12 943.073C2427.93 935.658 2437.38 932.948 2450.6 928.174"
                      stroke="#918375" stroke-linecap="round"/>
                <path id="07_019_033034035036037038,07_020_003LOOP"
                      d="M2108.73 855.121C2134.4 888.224 2175.53 983.75 2207.53 1034.85" stroke="#918375"
                      stroke-linecap="round"/>
                <path id="07_051_009A,07_054_046"
                      d="M2802.43 1103.17C2823.44 1101.85 2854.1 1104.77 2860.04 1106.08C2884.41 1111.48 2913.69 1118.28 2924.35 1117.36"
                      stroke="#918375" stroke-linecap="round"/>
                <path id="07_049_009LOOP,07_051_009A"
                      d="M2654.75 1268.19C2655.02 1264.24 2664.05 1242.18 2670.85 1223.55C2677 1206.7 2684.74 1187.82 2692.31 1175.29C2695.1 1170.69 2700.64 1162.07 2712.38 1148.99C2727.1 1132.61 2738.64 1123.99 2761.44 1113.68C2778.25 1106.08 2789.77 1103.97 2802.43 1103.17"
                      stroke="#918375" stroke-linecap="round"/>
                <path id="07_054_046,07_025_004LOOP"
                      d="M2924.36 1117.36C2933.91 1116.54 2945 1110.73 2952.83 1106.63L2953.08 1106.51C2965.5 1100.01 2985.5 1091.27 3008.02 1082.27C3014.42 1080.65 3018.67 1080.13 3023.69 1079.33C3026.35 1079.06 3029.64 1078.64 3032.61 1078.64C3034.88 1078.64 3045.12 1078.64 3061.41 1074.07C3081.25 1068.5 3080.13 1045.9 3087.23 1025.24"
                      stroke="#918375" stroke-linecap="round"/>
                <path id="07_026_004A,07_028_047048049"
                      d="M3207.41 730.587C3232.47 724.628 3251.82 736.782 3263.02 744.391C3274.81 752.39 3283.18 765.075 3310.61 823.066C3340.85 886.994 3335.47 927.393 3344.9 958.887C3358.54 1004.45 3408.57 1051.29 3431.61 1062.68"
                      stroke="#918375" stroke-linecap="round"/>
                <path id="07_025_004LOOP,07_026_004A"
                      d="M3087.23 1025.24C3101.75 983.011 3117.33 947.544 3121.33 927.969C3125.77 906.278 3133.3 862.771 3147.88 808.785C3157.39 773.566 3167.71 757.169 3173.99 748.874C3180.59 740.148 3192.85 734.053 3207.42 730.588"
                      stroke="#918375" stroke-linecap="round"/>
                <path id="07_052_009B,07_054_046"
                      d="M2842.4 1364.51C2850.22 1359.98 2857.41 1350.91 2864.6 1341.31C2868.27 1336.41 2871.18 1330.88 2874.47 1323.79C2877.75 1316.7 2881.1 1308.07 2885.89 1278.65C2890.67 1249.22 2896.78 1199.26 2900.47 1171.96C2904.15 1144.67 2911.74 1131.02 2924.35 1117.89"
                      stroke="#918375" stroke-linecap="round"/>
                <path id="07_049_009LOOP,07_052_009B"
                      d="M2654.75 1268.19C2663.44 1265.9 2681.53 1268.2 2693.41 1270.19C2696.99 1270.79 2701.36 1272.41 2708.02 1275.13C2714.67 1277.84 2723.42 1281.92 2730.92 1286.41C2738.42 1290.91 2744.41 1295.7 2748.52 1299.43C2752.62 1303.15 2754.66 1305.67 2759.78 1313.98C2764.9 1322.28 2773.05 1336.3 2778.09 1344.6C2784.53 1355.22 2788.92 1359.43 2794.29 1363.72C2800.29 1368.51 2807.43 1370.7 2813.65 1371.85C2824.69 1373.89 2833.32 1369.76 2842.4 1364.51"
                      stroke="#918375" stroke-linecap="round"/>
                <path id="07_028_047048049,07_029_005LOOP"
                      d="M3431.62 1062.68C3450.12 1071.83 3469.96 1079.53 3484.86 1095.19C3491.25 1101.89 3497.38 1113.99 3509.68 1142.29C3521.97 1170.58 3538.98 1215.4 3548.87 1240.55C3568.47 1283.66 3586.76 1310.02 3600.77 1321.1C3606.84 1325.32 3610.81 1326.69 3614.9 1328.1"
                      stroke="#918375" stroke-linecap="round"/>
                <path id="07_027_004B,07_028_047048049"
                      d="M3310.62 823.065C3340.86 886.993 3335.47 927.392 3344.9 958.885C3358.55 1004.45 3408.58 1051.29 3431.62 1062.68M3229.11 917.67C3237.91 907.127 3250.04 889.225 3259.31 868.448C3266.08 853.266 3271.2 843.776 3277.82 833.275C3285.93 826.18 3290.65 819.911 3310.09 822.539"
                      stroke="#918375" stroke-linecap="round"/>
                <path id="07_025_004LOOP,07_027_004B"
                      d="M3087.35 1025.39C3093.33 1016.04 3108.46 996.319 3117.89 987.508C3128.75 977.364 3140.52 970.998 3152.62 966.93C3167.5 961.929 3177.54 954.315 3194.52 946.802C3209.64 940.109 3222.48 925.6 3229.11 917.67"
                      stroke="#918375" stroke-linecap="round"/>
                <path id="07_030_005A,07_056_010LOOP"
                      d="M3911.58 831.978C3937.71 805.547 3946.44 761.904 3956.94 730.086C3967.59 697.831 3988.24 671.362 4007.84 641.242C4016.97 632.073 4027.45 626.796 4038.31 622.029C4043.15 618.986 4046.59 614.675 4057.98 610.234"
                      stroke="#918375" stroke-linecap="round"/>
                <path id="07_029_005LOOP,07_030_005A"
                      d="M3615.43 1328.1C3624.36 1328.63 3644.86 1328.63 3662.52 1322.11C3697.81 1309.1 3743.01 1221.96 3785.17 1119.47C3826.1 1019.98 3827.22 964.776 3833.71 936.119C3846.52 879.565 3879.36 864.569 3911.58 831.98"
                      stroke="#918375" stroke-linecap="round"/>
                <path id="07_029_005LOOP,07_032_005C"
                      d="M3615.43 1328.1C3624.36 1328.62 3644.86 1328.62 3662.52 1322.11C3697.81 1309.1 3743.01 1221.96 3785.17 1119.46C3799.85 1119.46 3847.31 1106.29 3885.02 1091.08"
                      stroke="#918375" stroke-linecap="round"/>
                <path id="07_032_005C,07_065_012LOOP"
                      d="M3885.02 1091.09C3904.99 1083.03 3931.27 1079.52 3952.81 1083.03C4005.05 1091.54 4033.48 1126.48 4050.52 1148.72C4058.77 1160.43 4066.66 1170.96 4074.03 1179.22C4077.97 1183.16 4089.21 1191.59 4093.65 1195.14"
                      stroke="#918375" stroke-linecap="round"/>
                <path id="07_029_005LOOP,07_031_005B"
                      d="M3614.9 1328.1C3625.93 1331.25 3663.37 1332.06 3696.48 1345.53C3737.17 1362.08 3778.13 1416.54 3793.39 1445.29"
                      stroke="#918375" stroke-linecap="round"/>
                <path id="07_061_011LOOP,07_062_011A"
                      d="M4015.69 1610.36C4035.27 1599.08 4037.81 1570.75 4052.27 1551.61C4088.92 1503.1 4093.24 1502.78 4109.94 1495.75C4119.93 1491.54 4122.56 1490.58 4146.8 1490.58"
                      stroke="#918375" stroke-linecap="round"/>
                <path id="07_031_005B,07_061_011LOOP"
                      d="M3793.39 1445.29C3809.49 1475.58 3814.36 1495.44 3836.15 1534.63C3872.01 1599.15 3906.31 1607.14 3935.09 1622.03C3968.4 1639.27 3996.91 1621.19 4015.69 1610.36"
                      stroke="#918375" stroke-linecap="round"/>
                <path id="07_063_011B,07_064_051"
                      d="M4235.54 1581.85C4258.22 1539.06 4267.68 1508.38 4270.51 1502.72C4275.51 1492.73 4282.67 1480.38 4289.2 1467.52C4298.36 1453.01 4310.38 1439.63 4318.89 1436.11C4321.07 1435.28 4323.05 1434.28 4328.1 1433.26"
                      stroke="#918375" stroke-linecap="round"/>
                <path id="07_061_011LOOP,07_063_011B"
                      d="M4014.3 1610.84C4033.22 1625.55 4030.02 1622.12 4056.02 1636.27C4081.8 1650.3 4125.37 1664.53 4147.8 1661.39C4169.62 1658.33 4188.87 1644.56 4200.87 1635.4C4209.61 1628.72 4219.23 1612.59 4235.53 1581.85"
                      stroke="#918375" stroke-linecap="round"/>
                <path id="07_062_011A,07_064_051"
                      d="M4328.1 1433.26C4323.05 1434.28 4321.07 1435.28 4318.89 1436.11C4310.38 1439.63 4298.35 1453.01 4289.2 1467.52C4285.59 1472 4274.44 1481.03 4267.08 1484.18C4256.34 1488.79 4223.1 1491.69 4189.37 1490.83C4167.95 1490.66 4153.11 1490.66 4149.89 1490.66"
                      stroke="#918375" stroke-linecap="round"/>
                <path id="07_065_012LOOP,07_066_012A"
                      d="M4255.08 1102.23C4230.59 1096.9 4208.78 1109.5 4177.03 1129.34C4160.19 1139.87 4152.6 1150.9 4144.42 1157.93C4134.85 1166.14 4121.24 1176.61 4114.38 1182.46C4112.54 1183.64 4110.23 1184.3 4107.55 1185.47C4104.87 1186.63 4102.78 1190.91 4094.71 1194.62"
                      stroke="#918375" stroke-linecap="round"/>
                <path id="07_056_010LOOP,07_059_010B"
                      d="M4060.8 609.325C4064.77 609.325 4062.65 601.817 4093.27 606.982C4108.06 609.477 4133 632.531 4161.34 664.282C4172.99 677.338 4177.25 689.356 4186.9 712.487C4196.06 734.461 4199.18 743.371 4203.5 766.833C4211.28 809.107 4220.94 843.471 4229.62 858.563C4236.93 871.252 4246.65 879.933 4253.65 886.115C4263.68 894.299 4271.66 898.974 4282.51 904.14C4285.03 905.322 4287.01 905.982 4289.06 906.663"
                      stroke="#918375" stroke-linecap="round"/>
                <path id="07_066_012A,07_068_052"
                      d="M4400.04 1164.66C4393.41 1164.33 4359.87 1161.33 4345.01 1150.32C4330.74 1139.74 4307.57 1124.03 4288.44 1113.75C4277.03 1107.63 4267.41 1104.91 4255.08 1102.23"
                      stroke="#918375" stroke-linecap="round"/>
                <path id="07_056_010LOOP,07_058_010A"
                      d="M4060.8 609.324C4064.77 609.324 4062.65 601.817 4093.27 606.982C4108.06 609.477 4133 632.531 4161.34 664.282C4172.99 677.337 4177.25 689.356 4186.9 712.487C4196.06 734.46 4199.18 743.371 4203.5 766.833C4204.82 766.833 4222.82 766.504 4254.78 767.99C4270.93 768.742 4286.73 772.45 4304.98 779.268"
                      stroke="#918375" stroke-linecap="round"/>
                <path id="07_058_010A,07_060_050"
                      d="M4304.98 779.27C4344.46 794.024 4369.42 811.186 4378.09 817.848C4388.46 825.815 4406.37 855.046 4416.68 873.592C4422.32 883.725 4427.19 896.914 4436.02 916.771C4440.99 927.949 4443.21 933.987 4451.54 941.836C4459.27 949.116 4478.53 950.034 4494.06 951.21C4513.66 952.695 4536.27 955.04 4554.77 966.172"
                      stroke="#918375" stroke-linecap="round"/>
                <path id="07_059_010B,07_060_050"
                      d="M4554.77 966.172C4536.27 955.039 4513.66 952.694 4494.06 951.21C4478.53 950.033 4459.27 949.115 4451.54 941.835C4447.23 941.505 4434.96 940.702 4422.42 938.209C4404.19 934.583 4393.23 935.696 4382.86 934.034C4371.93 932.282 4359.21 929.709 4346.16 926.696C4334.91 924.099 4298.17 910.514 4289.15 907.15"
                      stroke="#918375" stroke-linecap="round"/>
                <path id="07_067_012B,07_068_052"
                      d="M4287.68 1318.17C4305.94 1304.21 4325.71 1281.17 4334.57 1267.79C4343.03 1255.02 4349.42 1240.12 4360.59 1218.26C4366.37 1206.97 4370.47 1197.37 4375.96 1188.35C4382.31 1177.94 4386.56 1172.5 4400.04 1164.66"
                      stroke="#918375" stroke-linecap="round"/>
                <path id="07_065_012LOOP,07_067_012B"
                      d="M4093.83 1194.99C4102.44 1204.57 4121.8 1239.22 4129.68 1256.35C4136.65 1271.5 4146.83 1290.34 4160.01 1306.56C4168.17 1316.59 4181.86 1324.43 4203.27 1330.77C4263.09 1348.49 4277.66 1325.82 4287.67 1318.17"
                      stroke="#918375" stroke-linecap="round"/>
                <path id="07_064_051,07_035_054056"
                      d="M4328.82 1433.24C4337.14 1433.57 4349.61 1432.01 4363.78 1439.51C4370.97 1443.32 4408.45 1466.32 4449.13 1480.69C4471.59 1488.63 4489.5 1490 4514.78 1486.86C4546.16 1482.95 4572.94 1465.71 4590.44 1452.71C4600.86 1444.98 4609.69 1433.01 4621.02 1417.53C4630.33 1404.79 4638.07 1392.28 4652.18 1368.57C4662.48 1351.26 4675.88 1321.4 4684.35 1302.45C4692.82 1283.5 4695.14 1275.91 4699.96 1255.8C4712.53 1203.44 4708.32 1187.95 4711.16 1180.95C4717.76 1164.66 4747.16 1118.35 4766.03 1100.94C4776.76 1091.05 4788.88 1085.23 4799.93 1079.38C4810.84 1076.89 4819.1 1076.21 4831.16 1075.23L4831.57 1075.2C4840.21 1074.86 4853.76 1074.86 4872.72 1075.86M4872.49 1075.32C4872.49 1075.01 4873.41 1073.87 4878.36 1060.82C4883.31 1047.77 4893.21 1022 4902.24 1002.13C4911.27 982.255 4919.13 969.056 4924.98 960.135C4933.88 946.579 4938.58 942.857 4943.97 939.209C4948.26 936.299 4960.36 933.905 4967.09 935.005"
                      stroke="#918375" stroke-linecap="round"/>
                <path id="07_035_054056,07_038_006LOOP"
                      d="M4967.09 935.004C4975.19 936.328 4982.11 940.387 4993.89 952.872C5000.96 960.36 5006.73 976.35 5015.5 993.718C5024.27 1011.09 5033.22 1034.81 5043.02 1074.22C5052.82 1113.63 5066.58 1182.7 5076.4 1220.37C5086.22 1258.04 5091.79 1262.66 5097.82 1274.82C5106.16 1291.64 5110.26 1297.46 5118.97 1302.87C5126.2 1307.37 5132.58 1311.19 5137.89 1312.86C5140.06 1313.43 5143.67 1314.44 5153.65 1316.01"
                      stroke="#918375" stroke-linecap="round"/>
                <path id="07_068_052,07_035_054056"
                      d="M4710.53 1180.98C4708.15 1180.3 4705.84 1179.64 4703.15 1178.45C4697.49 1175.62 4687.14 1171.29 4672.28 1161.25L4671.79 1160.72C4657.89 1145.62 4638.44 1124.48 4628.72 1095.58C4622.4 1076.76 4617.61 1064.28 4609.2 1040.11C4604.54 1040.44 4590.28 1043.26 4581.35 1047.47C4572.5 1051.63 4564.61 1055.01 4551.59 1065.42C4527.62 1084.57 4520.15 1090.4 4513.28 1096.74C4506.94 1102.59 4499.57 1113.76 4486.23 1121.94C4468.76 1132.66 4447.54 1143.28 4442.23 1144.94C4434.84 1147.96 4416.51 1155.96 4413.14 1157.65C4409.77 1159.33 4404.23 1162.48 4400.04 1164.66M4711.15 1180.95C4717.75 1164.66 4747.15 1118.35 4766.03 1100.94C4776.76 1091.05 4788.88 1085.23 4799.93 1079.38C4810.83 1076.89 4819.1 1076.21 4831.16 1075.23L4831.56 1075.2C4840.21 1074.86 4853.75 1074.86 4872.72 1075.86M4872.49 1075.32C4872.49 1075.01 4873.41 1073.87 4878.36 1060.82C4883.31 1047.77 4893.21 1022 4902.24 1002.13C4911.27 982.255 4919.12 969.056 4924.98 960.135C4933.87 946.579 4938.58 942.857 4943.96 939.209C4948.26 936.299 4960.36 933.905 4967.09 935.005"
                      stroke="#918375" stroke-linecap="round"/>
                <path id="07_060_050,07_035_054056"
                      d="M4554.77 966.173C4580.23 981.494 4596.67 1004.08 4609.2 1040.11C4617.61 1064.28 4622.41 1076.76 4628.73 1095.58C4638.44 1124.48 4657.89 1145.62 4671.79 1160.72L4672.28 1161.25C4687.14 1171.29 4697.49 1175.62 4703.15 1178.45C4705.84 1179.64 4708.15 1180.3 4710.54 1180.98M4711.16 1180.95C4717.76 1164.66 4747.16 1118.35 4766.03 1100.94C4776.76 1091.05 4788.88 1085.23 4799.93 1079.38C4810.84 1076.89 4819.1 1076.21 4831.16 1075.23L4831.57 1075.2C4840.21 1074.86 4853.76 1074.86 4872.72 1075.86M4872.49 1075.32C4872.49 1075.01 4873.41 1073.87 4878.36 1060.82C4883.31 1047.77 4893.21 1022 4902.24 1002.13C4911.27 982.255 4919.13 969.056 4924.98 960.135C4933.88 946.579 4938.58 942.857 4943.97 939.209C4948.26 936.299 4960.36 933.905 4967.09 935.005"
                      stroke="#918375" stroke-linecap="round"/>
                <path id="07_036_055056,07_038_006LOOP"
                      d="M5076.4 1220.37C5086.22 1258.04 5091.79 1262.66 5097.82 1274.82C5106.16 1291.64 5110.26 1297.46 5118.97 1302.87C5126.2 1307.37 5132.57 1311.19 5137.89 1312.86C5140.05 1313.43 5143.67 1314.44 5153.65 1316.01M5010.71 1230.35C5017.74 1229.89 5026.54 1226.1 5035.51 1223.15C5040.73 1221.43 5045.13 1220.68 5049.89 1219.73C5055.93 1218.3 5062.4 1217.34 5069.7 1217.66C5072.75 1217.97 5074.48 1218.6 5076.26 1220.2"
                      stroke="#918375" stroke-linecap="round"/>
                <path id="07_064_051,07_036_055056"
                      d="M4328.82 1433.23C4337.14 1433.56 4349.61 1432.01 4363.78 1439.51C4370.97 1443.32 4408.45 1466.31 4449.13 1480.69C4471.59 1488.62 4489.5 1490 4514.78 1486.85C4546.16 1482.95 4572.94 1465.71 4590.44 1452.71C4600.86 1444.98 4609.69 1433.01 4621.02 1417.52C4630.33 1404.79 4638.07 1392.28 4652.18 1368.56C4662.48 1351.26 4675.88 1321.4 4684.35 1302.45C4692.82 1283.5 4695.14 1275.9 4699.96 1255.8C4712.53 1203.43 4708.32 1187.94 4711.16 1180.95C4717.76 1164.66 4747.16 1118.34 4766.03 1100.94C4776.76 1091.05 4788.88 1085.23 4799.93 1079.38C4810.84 1076.88 4819.1 1076.21 4831.16 1075.23L4831.57 1075.19C4840.21 1074.85 4853.76 1074.85 4872.72 1075.86M4872.49 1075.84C4873.12 1076.47 4871.72 1078.61 4879.9 1095.59C4888.08 1112.57 4903.79 1145.88 4914.01 1166.1C4924.23 1186.33 4934.28 1192.46 4939.37 1197.74C4944.46 1203.01 4950.28 1207.26 4957.36 1211.56C4964.44 1215.87 4972.61 1220.11 4981.29 1223.56C4998.61 1230.42 5007.15 1230.59 5010.71 1230.35"
                      stroke="#918375" stroke-linecap="round"/>
                <path id="07_060_050,07_036_055056"
                      d="M4554.77 966.174C4580.23 981.495 4596.67 1004.08 4609.2 1040.11C4617.61 1064.29 4622.41 1076.76 4628.73 1095.58C4638.44 1124.48 4657.89 1145.62 4671.79 1160.72L4672.28 1161.25C4687.14 1171.29 4697.49 1175.62 4703.15 1178.46C4705.84 1179.64 4708.15 1180.3 4710.54 1180.98M4711.16 1180.95C4717.76 1164.66 4747.16 1118.35 4766.03 1100.94C4776.76 1091.05 4788.88 1085.23 4799.93 1079.38C4810.84 1076.89 4819.1 1076.21 4831.16 1075.23L4831.57 1075.2C4840.21 1074.86 4853.76 1074.86 4872.72 1075.86M4872.49 1075.85C4873.12 1076.48 4871.72 1078.61 4879.9 1095.59C4888.08 1112.57 4903.8 1145.88 4914.01 1166.11C4924.23 1186.33 4934.28 1192.46 4939.37 1197.74C4944.46 1203.02 4950.28 1207.26 4957.36 1211.57C4964.44 1215.87 4972.61 1220.12 4981.3 1223.56C4998.61 1230.42 5007.15 1230.59 5010.71 1230.35"
                      stroke="#918375" stroke-linecap="round"/>
                <path id="07_068_052,07_036_055056"
                      d="M4710.53 1180.97C4708.15 1180.29 4705.84 1179.63 4703.15 1178.45C4697.49 1175.62 4687.14 1171.28 4672.28 1161.25L4671.79 1160.71C4657.89 1145.61 4638.44 1124.48 4628.72 1095.57C4622.4 1076.76 4617.61 1064.28 4609.2 1040.11C4604.54 1040.44 4590.28 1043.26 4581.35 1047.46C4572.5 1051.63 4564.61 1055.01 4551.59 1065.42C4527.62 1084.56 4520.15 1090.39 4513.28 1096.73C4506.94 1102.58 4499.57 1113.76 4486.23 1121.94C4468.76 1132.66 4447.54 1143.28 4442.23 1144.93C4434.84 1147.96 4416.51 1155.96 4413.14 1157.64C4409.77 1159.33 4404.23 1162.48 4400.04 1164.66M4711.15 1180.95C4717.75 1164.66 4747.15 1118.34 4766.03 1100.94C4776.76 1091.05 4788.88 1085.23 4799.93 1079.38C4810.83 1076.88 4819.1 1076.21 4831.16 1075.23L4831.56 1075.19C4840.21 1074.85 4853.75 1074.85 4872.72 1075.85M4872.49 1075.84C4873.12 1076.47 4871.72 1078.61 4879.9 1095.59C4888.08 1112.57 4903.79 1145.88 4914.01 1166.1C4924.22 1186.33 4934.27 1192.46 4939.37 1197.73C4944.46 1203.01 4950.27 1207.26 4957.35 1211.56C4964.43 1215.87 4972.6 1220.11 4981.29 1223.55C4998.6 1230.42 5007.14 1230.58 5010.7 1230.35"
                      stroke="#918375" stroke-linecap="round"/>
                <path id="07_038_006LOOP,07_040_006B062"
                      d="M5153.87 1315.91C5157.65 1316.54 5172.51 1322.21 5185.17 1328.58C5196.99 1334.52 5206.68 1347.75 5214.05 1358.84C5217.3 1363.73 5222.7 1376.81 5227.75 1391.17C5232.81 1405.52 5237.35 1421.11 5244.78 1440.58C5252.21 1460.05 5258.65 1473.25 5264.25 1483.27C5269.85 1493.29 5274.41 1499.74 5280.68 1506.59C5294.08 1521.22 5307.31 1530.31 5315.78 1534.91C5323.26 1538.97 5334.26 1541.91 5350.01 1545.08C5365.75 1548.25 5378.57 1546.83 5384.36 1545.08"
                      stroke="#918375" stroke-linecap="round"/>
                <path id="07_039_006A057,07_041_058"
                      d="M5449 1221.94C5454.76 1186.85 5456.32 1179.26 5458.38 1170.19C5460.06 1162.78 5462.6 1156.87 5467.38 1153.03C5468.5 1152.14 5469.91 1151.28 5471.23 1150.17C5472.54 1149.06 5473.68 1147.49 5476.32 1142.06"
                      stroke="#918375" stroke-linecap="round"/>
                <path id="07_038_006LOOP,07_039_006A057"
                      d="M5153.87 1315.91C5157.65 1316.54 5172.51 1322.21 5185.17 1328.57C5196.99 1334.51 5206.68 1347.75 5214.05 1358.84C5217.3 1363.73 5222.7 1376.81 5227.75 1391.16C5236.02 1394.57 5257.89 1403.14 5293.2 1401.47C5344.24 1399.06 5370.24 1356.82 5394.72 1324.36C5423.47 1286.23 5441.98 1241.13 5448.47 1221.42"
                      stroke="#918375" stroke-linecap="round"/>
                <path id="07_039_006A057,07_042_061"
                      d="M5448.63 1221.59C5453.51 1225.2 5470.09 1243.44 5484.44 1264.2C5497 1282.37 5510.51 1296.49 5518.39 1303.21C5529.29 1312.49 5545.67 1316.99 5573.31 1320.97"
                      stroke="#918375" stroke-linecap="round"/>
                <path id="07_043_007LOOP,07_044_007A059"
                      d="M5548.85 1076.37C5555.16 1068.49 5560.54 1056.93 5566.72 1037.48C5572.9 1018.03 5580.98 998.379 5588.14 977.186C5596.36 952.85 5600.52 947.876 5604.72 943.293C5615.46 931.579 5633.33 936.314 5644.32 941.926"
                      stroke="#918375" stroke-linecap="round"/>
                <path id="07_043_007LOOP,07_045_007B060"
                      d="M5678.85 1202.96C5671.79 1200.69 5665.17 1199.87 5659.03 1198.81C5649.87 1197.23 5638.2 1194.56 5630.52 1192.86C5615.69 1189.57 5598.36 1177.77 5593.79 1173.83C5586 1167.12 5575.15 1153.13 5571.27 1146.29C5568.02 1140.57 5563.71 1133.36 5560.28 1124.82C5557.93 1118.96 5553.94 1107.26 5548.32 1076.9"
                      stroke="#918375" stroke-linecap="round"/>
                <path id="07_040_006B062,07_046_063"
                      d="M5384.36 1545.08C5398.02 1540.94 5407.63 1531.16 5417.93 1523.55C5432.97 1512.42 5442.39 1511.94 5448.97 1510.34C5451.9 1510.18 5456.61 1510.18 5459.59 1510.26C5462.57 1510.34 5463.67 1510.49 5464.8 1510.66M5464.77 1510.46C5474.23 1492.59 5491.57 1474.2 5515.22 1460.53C5529.49 1452.28 5557.67 1450.78 5574.33 1454.41"
                      stroke="#918375" stroke-linecap="round"/>
                <path id="07_040_006B062,07_047_064065"
                      d="M5384.36 1545.08C5398.02 1540.94 5407.63 1531.16 5417.93 1523.55C5432.97 1512.42 5442.39 1511.94 5448.97 1510.34C5451.9 1510.18 5456.61 1510.18 5459.59 1510.26C5462.57 1510.34 5463.67 1510.5 5464.8 1510.66M5612.68 1651.3C5601.82 1659.64 5581.75 1657.43 5564.74 1654.14C5554.26 1652.12 5548.42 1644.25 5540.67 1638.46C5533.55 1633.15 5522.2 1621.84 5507.61 1600.21C5498.63 1586.9 5493.33 1570.62 5489.07 1559.39C5484.79 1547.49 5476.85 1527.68 5465.29 1511.42"
                      stroke="#918375" stroke-linecap="round"/>
                <path id="07_050_066067068,07_070_QTE3LOOP"
                      d="M5986.11 1431.22C6007.2 1445.73 6050.23 1446.81 6073.62 1441.04C6085.58 1438.1 6100.56 1422.74 6111.57 1411.59C6124.15 1398.86 6145.6 1370.76 6155.1 1360.78C6168.4 1346.79 6190.62 1334.64 6206.38 1330.14C6212.83 1329.63 6218.16 1328.98 6224.09 1327.98C6227.73 1327.65 6232.65 1327.65 6237.71 1327.65"
                      stroke="#918375" stroke-linecap="round"/>
                <path id="07_047_064065,07_050_066067068"
                      d="M5612.68 1651.29C5622.83 1643.5 5637.32 1633.82 5649.25 1601.64C5656.03 1583.36 5662.45 1562.43 5675.57 1541.84C5689.94 1519.27 5703.15 1501.52 5704.41 1501.52C5718.29 1503.16 5728.59 1497.81 5744.94 1489.21C5759.24 1481.7 5764.68 1471.02 5770.97 1460.58C5775.88 1452.43 5781.24 1444.21 5786.37 1433.28C5791.07 1423.25 5796.45 1405.22 5802.25 1382.34C5806.09 1367.21 5810.02 1357.81 5815.82 1347.05C5821.56 1336.41 5843.63 1319.71 5852.08 1313.91C5861.01 1317.59 5882.02 1331.13 5919.99 1364.95C5961.18 1401.65 5980.83 1427.59 5986.11 1431.22"
                      stroke="#918375" stroke-linecap="round"/>
                <path id="07_046_063,07_050_066067068"
                      d="M5574.33 1454.4C5588.34 1457.45 5613.6 1469.59 5634.39 1478.72C5647.27 1484.38 5668.38 1497.26 5704.41 1501.52C5718.29 1503.16 5728.59 1497.81 5744.94 1489.21C5759.24 1481.7 5764.68 1471.02 5770.97 1460.58C5775.88 1452.43 5781.24 1444.21 5786.37 1433.28C5791.07 1423.25 5796.45 1405.22 5802.25 1382.34C5806.09 1367.21 5810.02 1357.81 5815.82 1347.05C5821.56 1336.41 5843.63 1319.71 5852.08 1313.91C5861.01 1317.59 5882.02 1331.13 5919.99 1364.95C5961.18 1401.65 5980.83 1427.59 5986.11 1431.22"
                      stroke="#918375" stroke-linecap="round"/>
                <path id="07_044_007A059,07_050_066067068"
                      d="M5644.31 941.93C5663.06 951.507 5674.45 968.539 5679.37 975.662C5685.71 984.842 5689.13 995.859 5692.09 1003.74C5695.36 1012.41 5699.15 1021.68 5702.11 1032.33C5708.05 1053.62 5714.1 1068.64 5721.18 1086.08C5731.85 1112.36 5741.85 1127.83 5744.46 1131.46C5751.41 1141.12 5763.61 1148.12 5769.8 1153.02C5774.37 1156.65 5779.88 1167.29 5790.36 1192.76C5797.85 1210.95 5807.76 1242.51 5814.24 1260.83C5826.98 1291.37 5832.17 1297.56 5839.12 1304.28C5842.48 1307.19 5842.62 1308.66 5852.08 1313.91C5861.01 1317.59 5882.02 1331.14 5919.99 1364.96C5961.18 1401.65 5980.83 1427.6 5986.1 1431.23"
                      stroke="#918375" stroke-linecap="round"/>
                <path id="07_070_QTE3LOOP,07_052_069"
                      d="M6238.87 1327.57C6248.42 1327.57 6308.85 1316.74 6362.37 1276.07" stroke="#918375"
                      stroke-linecap="round"/>
                <path id="07_052_069,07_055_076077"
                      d="M6362.37 1276.07C6388.64 1256.1 6402.97 1225.21 6417.55 1207.23C6433.73 1187.27 6443.36 1146.46 6457.49 1106.85C6474.13 1060.19 6471.55 1046.56 6476.08 1021.55C6483.19 982.345 6486.48 956.224 6499 933.428C6507.19 918.538 6520.55 900.845 6543.15 888.758C6560.06 879.711 6599.83 866.523 6660.87 850.394C6693.45 841.784 6722.04 813.843 6729.19 793.637C6734.18 779.525 6745.59 752.34 6772.92 709.757C6785.75 689.771 6795.83 681.082 6803.84 672.161C6812.78 662.205 6829.15 659.567 6842.87 656.84C6846.98 655.922 6851.96 655.018 6858.59 654.552C6865.22 654.086 6873.36 654.086 6881.75 654.086"
                      stroke="#918375" stroke-linecap="round"/>
                <path id="07_052_069,07_054_075075_1075_2075_3075_4075_5075_6"
                      d="M6362.37 1276.07C6388.64 1256.1 6402.97 1225.21 6417.55 1207.23C6433.73 1187.27 6443.36 1146.46 6457.49 1106.85M6458.84 1106.36C6462.31 1106.36 6474.84 1104.98 6515.46 1092.62C6541.98 1084.55 6548.6 1070.04 6562.22 1054.88C6579.48 1035.67 6605.21 1021.46 6625.26 1011.87C6647.01 1001.47 6684.62 1003.62 6715.1 1000.14C6735.88 997.766 6759.66 992.8 6780.42 981.488C6805.45 967.853 6810.7 957.868 6823.95 949.324C6829.87 945.665 6839.21 940.129 6845.23 936.586"
                      stroke="#918375" stroke-linecap="round"/>
                <path id="07_052_069,07_053_071072073074"
                      d="M6362.37 1276.07C6388.64 1256.1 6402.97 1225.21 6417.55 1207.23M6419 1207.01C6433.22 1207.01 6470.92 1209.08 6496.85 1210.67C6523.07 1212.28 6564.26 1210.53 6589.26 1198.85C6615.29 1186.69 6623.37 1174.88 6666.58 1145.8"
                      stroke="#918375" stroke-linecap="round"/>
                <path id="07_052_069,07_056_078079080081"
                      d="M6362.37 1276.07C6388.64 1256.1 6402.97 1225.21 6417.55 1207.23C6433.73 1187.27 6443.36 1146.46 6457.49 1106.85C6474.13 1060.18 6471.55 1046.55 6476.08 1021.55C6483.19 982.344 6486.48 956.223 6499 933.427C6507.19 918.536 6520.55 900.844 6543.15 888.757C6560.06 879.71 6599.83 866.522 6660.87 850.393C6693.45 841.783 6722.04 813.842 6729.19 793.636M6730.24 793.457C6744.79 800.909 6774.71 814.981 6802.8 814.255C6834.5 813.436 6872.32 792.413 6907.35 773.288C6926.62 762.769 6940.09 754.259 6953.03 749.171L6953.51 748.982C6972.44 741.542 6992.65 733.595 7028.39 734.645C7046.25 739.637 7057.36 741.533 7068.11 745.143C7073.89 747.457 7080.31 750.747 7086.93 754.137"
                      stroke="#918375" stroke-linecap="round"/>
                <path id="07_052_069,07_057_082083084085"
                      d="M6362.37 1276.07C6388.64 1256.1 6402.97 1225.21 6417.55 1207.23C6433.73 1187.27 6443.36 1146.46 6457.49 1106.85C6474.13 1060.18 6471.55 1046.55 6476.08 1021.55C6483.19 982.344 6486.48 956.223 6499 933.427C6507.19 918.537 6520.55 900.844 6543.15 888.757M6542.74 888.3C6542.74 887.524 6549.66 869.664 6562.05 836.419C6572.75 807.676 6577.66 786.855 6588.42 758.049C6596.84 735.492 6610.94 696.651 6621.36 670.067C6637.12 629.842 6651.68 606.223 6664.24 588.604C6676.81 570.975 6685.97 563.061 6694.35 555.389C6708.46 542.472 6732.4 525.413 6746.39 517.964C6757.3 512.153 6766.66 506.6 6794.55 495.248C6805.19 490.915 6812.1 487.765 6818.37 486.007C6855.52 481.11 6914.13 477.183 6919.01 475.425C6921.47 474.443 6923.89 473.279 6926.38 472.08"
                      stroke="#918375" stroke-linecap="round"/>
                <path id="07_042_061,07_050_066067068"
                      d="M5814.24 1260.83C5826.98 1291.36 5832.17 1297.56 5839.13 1304.28C5842.49 1307.19 5842.62 1308.65 5852.08 1313.91C5861.02 1317.59 5882.02 1331.13 5919.99 1364.95C5961.19 1401.65 5980.83 1427.59 5986.11 1431.22M5573.32 1320.97C5599.94 1324.8 5610.84 1317.04 5631.74 1309.59C5647.36 1304.02 5652.51 1296.98 5659.43 1291.12C5676.62 1276.57 5681.55 1269.43 5689.01 1263.35C5694.84 1258.6 5703.36 1252.95 5721.75 1252.95M5722.8 1253.47C5727.7 1256.88 5730.87 1259.57 5742.15 1266.18C5753.96 1273.11 5763.92 1271.75 5783.56 1272.08C5791.67 1272.22 5807.73 1264.87 5813.72 1261.36"
                      stroke="#918375" stroke-linecap="round"/>
                <path id="07_045_007B060,07_050_066067068"
                      d="M5678.84 1202.96C5684.45 1204.77 5690.04 1206.8 5696.07 1211.7C5702.49 1216.91 5707.71 1219.74 5712.66 1229.37C5717.62 1239.04 5721.36 1248.83 5722.8 1253.47C5727.7 1256.88 5730.87 1259.57 5742.15 1266.19C5753.96 1273.11 5763.92 1271.75 5783.55 1272.08C5791.67 1272.22 5808.26 1264.35 5814.24 1260.83C5826.98 1291.36 5832.17 1297.56 5839.12 1304.28C5842.48 1307.19 5842.62 1308.65 5852.08 1313.91C5861.01 1317.59 5882.02 1331.13 5919.99 1364.96C5961.18 1401.65 5980.83 1427.6 5986.1 1431.22"
                      stroke="#918375" stroke-linecap="round"/>
                <path id="07_041_058,07_043_007LOOP"
                      d="M5478.33 1140.21C5478.54 1140.04 5478.75 1139.88 5484.83 1134.01C5490.92 1128.13 5502.86 1116.56 5513.11 1107.2C5523.36 1097.83 5531.56 1091.04 5537.22 1086.59C5542.87 1082.14 5545.72 1080.25 5547.2 1079.08C5548.67 1077.91 5548.67 1077.52 5548.68 1077.11"
                      stroke="#918375" stroke-linecap="round"/>
            </g>
            <g id="dot">
                <g id="07_002_004">
                    <circle id="Ellipse 33" cx="754.506" cy="1390.75" r="1" fill="#FF0000"/>
                </g>
                <g id="07_005_001B">
                    <circle id="Ellipse 33_2" cx="978.381" cy="1598.86" r="1" fill="#FF0000"/>
                </g>
                <g id="07_004_001A">
                    <circle id="Ellipse 33_3" cx="1127.63" cy="1506.37" r="1" fill="#FF0000"/>
                </g>
                <g id="07_008_011">
                    <circle id="Ellipse 33_4" cx="688.287" cy="1100.66" r="1" fill="#FF0000"/>
                </g>
                <g id="07_010_002A">
                    <circle id="Ellipse 33_5" cx="1044.6" cy="749.607" r="1" fill="#FF0000"/>
                </g>
                <g id="07_011_002B">
                    <circle id="Ellipse 33_6" cx="1037.24" cy="895.705" r="1" fill="#FF0000"/>
                </g>
                <g id="07_018_015016">
                    <circle id="Ellipse 33_7" cx="1204.36" cy="1207.87" r="1" fill="#FF0000"/>
                </g>
                <g id="07_013_017">
                    <circle id="Ellipse 33_8" cx="1383.04" cy="1182.64" r="1" fill="#FF0000"/>
                </g>
                <g id="07_014_018">
                    <circle id="Ellipse 33_9" cx="1353.61" cy="1358.17" r="1" fill="#FF0000"/>
                </g>
                <g id="07_015_020024">
                    <circle id="Ellipse 33_10" cx="1521.78" cy="1222.58" r="1" fill="#FF0000"/>
                </g>
                <g id="07_019_033034035036037038">
                    <circle id="Ellipse 33_11" cx="2110.37" cy="856.814" r="1" fill="#FF0000"/>
                </g>
                <g id="07_022_003B">
                    <circle id="Ellipse 33_12" cx="2327.94" cy="1207.87" r="1" fill="#FF0000"/>
                </g>
                <g id="07_037_QTE2LOOP">
                    <circle id="Ellipse 33_13" cx="2404.67" cy="1293.01" r="1" fill="#FF0000"/>
                </g>
                <g id="07_048_040041042043044">
                    <circle id="Ellipse 33_14" cx="2498.21" cy="1349.76" r="1" fill="#FF0000"/>
                </g>
                <g id="07_051_009A">
                    <circle id="Ellipse 33_15" cx="2800.92" cy="1102.76" r="1" fill="#FF0000"/>
                </g>
                <g id="07_052_009B">
                    <circle id="Ellipse 33_16" cx="2842.96" cy="1364.48" r="1" fill="#FF0000"/>
                </g>
                <g id="07_054_046">
                    <circle id="Ellipse 33_17" cx="2924.95" cy="1116.43" r="1" fill="#FF0000"/>
                </g>
                <g id="07_026_004A">
                    <circle id="Ellipse 33_18" cx="3205.57" cy="729.637" r="1" fill="#FF0000"/>
                </g>
                <g id="07_027_004B">
                    <circle id="Ellipse 33_19" cx="3227.65" cy="917.777" r="1" fill="#FF0000"/>
                </g>
                <g id="07_028_047048049">
                    <circle id="Ellipse 33_20" cx="3430.5" cy="1061.77" r="1" fill="#FF0000"/>
                </g>
                <g id="07_030_005A">
                    <circle id="Ellipse 33_21" cx="3918.2" cy="824.232" r="1" fill="#FF0000"/>
                </g>
                <g id="07_032_005C">
                    <circle id="Ellipse 33_22" cx="3886.66" cy="1091.2" r="1" fill="#FF0000"/>
                </g>
                <g id="07_031_005B">
                    <circle id="Ellipse 33_23" cx="3793.12" cy="1445.41" r="1" fill="#FF0000"/>
                </g>
                <g id="07_059_010B">
                    <circle id="Ellipse 33_24" cx="4288.17" cy="906.215" r="1" fill="#FF0000"/>
                </g>
                <g id="07_058_010A">
                    <circle id="Ellipse 33_25" cx="4306.04" cy="779.037" r="1" fill="#FF0000"/>
                </g>
                <g id="07_066_012A">
                    <circle id="Ellipse 33_26" cx="4253.48" cy="1101.71" r="1" fill="#FF0000"/>
                </g>
                <g id="07_067_012B">
                    <circle id="Ellipse 33_27" cx="4288.17" cy="1319.28" r="1" fill="#FF0000"/>
                </g>
                <g id="07_062_011A">
                    <circle id="Ellipse 33_28" cx="4148.38" cy="1489.55" r="1" fill="#FF0000"/>
                </g>
                <g id="07_063_011B">
                    <circle id="Ellipse 33_29" cx="4235.62" cy="1582.05" r="1" fill="#FF0000"/>
                </g>
                <g id="07_068_052">
                    <circle id="Ellipse 33_30" cx="4400.63" cy="1163.72" r="1" fill="#FF0000"/>
                </g>
                <g id="07_060_050">
                    <circle id="Ellipse 33_31" cx="4554.09" cy="966.127" r="1" fill="#FF0000"/>
                </g>
                <g id="07_064_051">
                    <circle id="Ellipse 33_32" cx="4328.11" cy="1432.8" r="1" fill="#FF0000"/>
                </g>
                <g id="07_036_055056">
                    <circle id="Ellipse 33_33" cx="5012.35" cy="1229.94" r="1" fill="#FF0000"/>
                </g>
                <g id="07_035_054056">
                    <circle id="Ellipse 33_34" cx="4966.1" cy="933.543" r="1" fill="#FF0000"/>
                </g>
                <g id="07_040_006B062">
                    <circle id="Ellipse 33_35" cx="5384.43" cy="1546.31" r="1" fill="#FF0000"/>
                </g>
                <g id="07_039_006A057">
                    <circle id="Ellipse 33_36" cx="5447.49" cy="1220.48" r="1" fill="#FF0000"/>
                </g>
                <g id="07_041_058">
                    <circle id="Ellipse 33_37" cx="5476.92" cy="1140.6" r="1" fill="#FF0000"/>
                </g>
                <g id="07_045_007B060">
                    <circle id="Ellipse 33_38" cx="5679.77" cy="1203.67" r="1" fill="#FF0000"/>
                </g>
                <g id="07_044_007A059">
                    <circle id="Ellipse 33_39" cx="5645.09" cy="941.951" r="1" fill="#FF0000"/>
                </g>
                <g id="07_042_061">
                    <circle id="Ellipse 33_40" cx="5573.62" cy="1320.33" r="1" fill="#FF0000"/>
                </g>
                <g id="07_046_063">
                    <circle id="Ellipse 33_41" cx="5574.67" cy="1453.82" r="1" fill="#FF0000"/>
                </g>
                <g id="07_047_064065">
                    <circle id="Ellipse 33_42" cx="5610.4" cy="1650.37" r="1" fill="#FF0000"/>
                </g>
                <g id="07_070_QTE3LOOP">
                    <circle id="Ellipse 33_43" cx="6238.93" cy="1327.69" r="1" fill="#FF0000"/>
                </g>
                <g id="07_052_069">
                    <circle id="Ellipse 33_44" cx="6357.7" cy="1278.29" r="1" fill="#FF0000"/>
                </g>
            </g>
            <g id="chapter6">
                <ellipse id="Ellipse" cx="380.051" cy="1338.47" rx="1.05106" ry="1.46864" fill="#00FFAA"/>
            </g>
        </g>
    </g>
    <defs>
        <clipPath id="clip0_2061_11999">
            <rect width="7753" height="2154" fill="white"/>
        </clipPath>
    </defs>
</svg>
